<svg id="svg" version="1.1" xmlns="http://www.w3.org/2000/svg" xmlns:xlink="http://www.w3.org/1999/xlink" width="400" height="400" viewBox="0, 0, 400,400"><g id="svgg"><path id="path0" d="M186.500 9.677 C 74.553 18.598,-5.455 118.869,11.493 229.006 C 24.034 310.508,88.857 375.515,170.167 388.131 C 279.183 405.045,378.255 327.980,389.734 217.333 C 390.319 211.696,390.319 187.970,389.734 182.333 C 380.184 90.280,310.369 20.005,218.667 10.137 C 212.991 9.527,192.132 9.228,186.500 9.677 M209.333 18.677 C 348.945 26.441,428.140 182.328,351.747 299.000 C 288.529 395.552,153.177 409.576,71.648 328.021 C -23.132 233.213,14.080 72.324,141.000 28.175 C 162.095 20.837,186.695 17.418,209.333 18.677 M200.174 31.417 C 200.097 31.646,198.658 37.083,196.976 43.500 C 193.414 57.090,193.552 56.667,192.675 56.667 C 192.074 56.667,192.000 56.881,192.000 58.619 L 192.000 60.572 194.049 60.786 C 195.176 60.904,197.181 61.000,198.505 61.000 L 200.913 61.000 201.119 59.750 C 201.578 56.974,201.470 56.667,200.035 56.667 L 198.736 56.667 199.139 55.083 L 199.542 53.500 202.323 53.402 C 205.516 53.290,205.534 53.301,205.844 55.417 L 206.076 57.000 204.871 57.000 L 203.667 57.000 203.667 59.167 L 203.667 61.333 208.500 61.333 L 213.333 61.333 213.333 59.190 C 213.333 57.231,213.270 57.037,212.595 56.940 C 211.907 56.841,211.669 56.000,209.157 44.833 C 207.672 38.233,206.352 32.421,206.223 31.917 C 205.958 30.885,200.501 30.434,200.174 31.417 M169.773 33.783 C 164.606 34.727,160.291 35.590,160.183 35.701 C 160.076 35.811,160.293 37.536,160.667 39.534 C 161.756 45.353,161.448 44.782,163.354 44.529 C 166.037 44.173,165.952 44.292,165.441 41.590 C 165.194 40.280,165.106 39.106,165.246 38.980 C 165.507 38.745,168.333 38.242,168.333 38.431 C 168.333 38.488,169.155 43.159,170.160 48.811 C 172.128 59.880,172.119 59.667,170.609 59.667 L 169.590 59.667 169.825 61.552 C 170.187 64.449,169.896 64.322,174.266 63.494 C 176.412 63.088,178.729 62.654,179.417 62.530 C 180.802 62.279,180.838 62.163,180.306 59.684 L 179.945 58.001 178.706 58.199 L 177.468 58.397 175.688 48.282 C 174.709 42.719,173.844 37.994,173.764 37.782 C 173.566 37.253,176.737 36.574,177.049 37.079 C 177.173 37.279,177.373 38.131,177.494 38.972 C 177.939 42.056,177.835 41.937,179.774 41.603 C 180.723 41.439,181.667 41.249,181.871 41.181 C 182.196 41.071,181.576 36.073,180.824 32.750 C 180.603 31.776,180.918 31.746,169.773 33.783 M243.046 38.530 C 242.220 40.690,242.183 40.998,242.750 41.005 C 244.141 41.022,244.051 41.468,240.678 51.334 C 238.838 56.714,237.333 61.149,237.333 61.190 C 237.333 61.231,236.864 61.243,236.290 61.216 C 235.370 61.173,233.500 64.278,234.091 64.868 C 234.220 64.997,242.771 68.000,243.010 68.000 C 243.121 68.000,243.480 67.147,243.809 66.105 C 244.427 64.145,244.295 63.710,242.947 63.260 C 242.711 63.181,244.167 58.361,245.166 55.917 C 245.476 55.158,245.485 55.159,248.785 56.354 L 251.604 57.374 250.270 61.363 L 248.935 65.351 247.869 65.151 C 246.821 64.955,246.794 64.982,246.209 66.838 C 245.882 67.876,245.663 68.760,245.724 68.804 C 246.235 69.169,254.691 71.892,254.787 71.722 C 256.066 69.444,256.048 67.354,254.750 67.338 C 254.138 67.331,254.063 67.599,257.546 57.333 C 261.129 46.775,260.990 47.070,262.130 47.589 C 262.923 47.951,262.963 47.901,263.622 45.741 C 263.995 44.521,264.270 43.501,264.233 43.476 C 263.974 43.296,255.225 40.335,255.168 40.408 C 254.680 41.030,253.789 44.667,254.125 44.667 C 255.664 44.667,255.726 45.359,254.511 48.967 C 253.869 50.874,253.293 52.485,253.231 52.547 C 252.947 52.831,246.970 50.557,247.096 50.213 C 247.173 50.004,247.722 48.363,248.317 46.566 C 249.393 43.318,249.405 43.300,250.424 43.400 C 251.542 43.509,253.542 39.847,252.563 39.483 C 251.222 38.983,244.159 36.667,243.979 36.667 C 243.858 36.667,243.438 37.505,243.046 38.530 M142.333 40.977 C 138.063 42.757,138.121 42.671,139.313 45.452 C 139.929 46.890,140.051 46.996,140.690 46.654 C 141.075 46.448,141.449 46.338,141.520 46.409 C 141.712 46.601,145.558 55.792,145.831 56.711 C 145.972 57.186,143.497 54.953,139.616 51.104 L 133.167 44.709 130.333 45.878 C 128.775 46.522,127.170 47.180,126.767 47.343 L 126.034 47.637 126.823 49.569 C 127.548 51.344,127.696 51.500,128.659 51.500 L 129.706 51.500 133.365 60.500 C 137.778 71.356,137.628 70.854,136.532 71.129 L 135.679 71.343 136.517 73.238 C 136.978 74.281,137.421 75.198,137.500 75.278 C 137.958 75.736,145.651 72.142,145.465 71.557 C 144.644 68.970,143.980 68.024,143.193 68.323 C 142.433 68.612,142.326 68.428,139.906 62.644 C 138.530 59.357,137.476 56.667,137.564 56.667 C 137.652 56.667,140.720 59.554,144.381 63.083 C 148.043 66.612,151.186 69.552,151.366 69.615 C 151.652 69.717,156.000 68.030,156.000 67.818 C 156.000 67.773,153.962 62.808,151.471 56.785 C 148.980 50.761,146.806 45.488,146.639 45.065 C 146.376 44.399,146.464 44.253,147.306 43.959 L 148.277 43.621 147.445 41.727 C 146.988 40.686,146.513 39.731,146.390 39.606 C 146.267 39.482,144.442 40.098,142.333 40.977 M203.859 44.066 C 204.989 49.991,205.058 49.667,202.667 49.667 C 201.019 49.667,200.667 49.568,200.667 49.109 C 200.667 48.266,202.767 39.656,202.933 39.821 C 203.012 39.901,203.428 41.811,203.859 44.066 M276.875 64.029 C 268.495 72.261,267.261 73.355,266.790 72.964 C 266.213 72.485,265.536 73.104,264.240 75.298 L 263.665 76.273 267.650 78.782 L 271.635 81.291 272.651 79.641 C 273.866 77.666,273.885 77.471,272.917 76.967 C 272.504 76.752,272.102 76.519,272.023 76.450 C 271.836 76.286,274.048 74.000,274.393 74.000 C 274.609 74.000,278.891 76.497,279.285 76.852 C 279.463 77.013,278.275 80.002,278.038 79.989 C 277.925 79.984,277.542 79.759,277.186 79.489 C 276.208 78.749,275.914 78.874,274.917 80.452 C 273.655 82.449,273.551 82.290,277.868 84.950 C 282.472 87.787,281.926 87.732,283.233 85.496 C 284.234 83.782,284.262 83.652,283.685 83.343 C 283.114 83.038,283.356 82.149,287.196 70.424 C 289.465 63.499,291.324 57.809,291.327 57.779 C 291.330 57.748,290.546 57.240,289.583 56.648 C 288.621 56.056,287.516 55.364,287.128 55.110 C 286.461 54.673,285.914 55.149,276.875 64.029 M102.417 61.875 C 99.858 63.742,99.521 61.914,105.000 75.893 C 110.117 88.947,109.898 88.257,109.105 88.838 C 108.595 89.210,108.669 89.407,109.897 90.950 L 111.252 92.652 114.949 90.076 C 119.279 87.058,119.213 87.293,116.619 84.200 C 116.476 84.031,115.984 84.152,115.481 84.481 C 114.479 85.138,114.241 84.993,113.534 83.300 L 113.033 82.100 115.460 80.405 L 117.888 78.710 119.093 79.915 L 120.299 81.121 119.332 81.834 L 118.366 82.547 119.542 84.190 C 120.953 86.160,120.516 86.248,124.914 83.109 C 126.886 81.701,128.548 80.515,128.606 80.474 C 129.110 80.116,126.138 76.977,125.457 77.148 C 124.800 77.312,123.146 76.014,114.976 68.922 C 103.804 59.223,105.075 59.936,102.417 61.875 M283.448 65.917 C 282.977 67.154,282.197 69.254,281.715 70.583 C 280.698 73.384,280.871 73.307,278.672 71.939 L 276.965 70.879 280.560 67.273 C 282.538 65.289,284.189 63.667,284.229 63.667 C 284.270 63.667,283.918 64.679,283.448 65.917 M111.479 72.629 C 115.214 76.291,115.083 75.887,112.982 77.261 L 111.308 78.355 110.847 77.261 C 106.801 67.667,106.756 67.997,111.479 72.629 M306.180 70.987 C 304.593 72.598,304.562 72.666,305.138 73.302 C 305.472 73.671,305.622 74.135,305.482 74.363 C 305.344 74.586,302.025 79.348,298.106 84.947 L 290.981 95.126 292.729 96.896 C 294.881 99.075,293.568 99.557,302.333 93.371 C 306.458 90.460,309.886 88.125,309.949 88.183 C 310.013 88.240,307.706 91.765,304.824 96.014 L 299.582 103.741 301.387 105.546 L 303.192 107.351 313.013 100.304 C 325.689 91.207,324.215 92.123,325.019 92.850 C 325.672 93.441,325.725 93.418,327.347 91.820 L 329.006 90.186 325.929 87.095 L 322.851 84.005 321.266 85.567 C 319.799 87.012,319.719 87.172,320.206 87.710 C 320.495 88.030,320.638 88.443,320.524 88.628 C 320.286 89.014,310.400 96.667,310.141 96.667 C 310.047 96.667,312.259 93.288,315.057 89.159 L 320.143 81.651 318.445 79.953 L 316.746 78.254 309.456 83.430 C 305.447 86.277,302.120 88.561,302.064 88.506 C 302.007 88.450,303.743 85.996,305.921 83.051 C 309.855 77.735,309.887 77.702,310.536 78.350 C 311.184 78.999,311.199 78.992,312.758 77.409 L 314.328 75.816 311.071 72.571 L 307.815 69.327 306.180 70.987 M191.667 76.195 C 191.025 76.269,188.850 76.489,186.833 76.683 C 131.471 82.026,85.630 125.850,77.369 181.333 C 64.752 266.075,139.587 337.739,223.710 321.472 C 277.599 311.052,318.656 265.311,323.319 210.500 C 328.944 144.387,281.823 85.849,215.833 76.972 C 211.076 76.332,194.966 75.814,191.667 76.195 M73.579 87.808 C 69.783 91.873,69.906 91.465,71.950 93.226 C 73.537 94.592,73.579 94.606,74.200 93.988 C 74.822 93.369,74.960 93.474,81.667 99.696 C 91.108 108.454,90.247 107.508,89.517 108.314 C 88.810 109.096,88.980 109.400,91.024 111.019 L 92.279 112.013 98.056 105.802 C 101.234 102.386,103.833 99.407,103.833 99.182 C 103.833 98.957,102.258 97.313,100.333 95.528 L 96.833 92.283 95.152 94.173 L 93.471 96.063 95.582 98.115 L 97.694 100.167 95.930 101.883 L 94.167 103.599 86.437 96.383 L 78.708 89.167 79.422 88.406 L 80.137 87.645 78.481 85.989 L 76.824 84.332 73.579 87.808 M212.149 85.500 C 292.452 94.022,339.481 180.153,303.289 252.418 C 264.522 329.824,156.336 338.197,105.997 267.686 C 101.782 261.782,94.000 247.983,94.000 246.414 C 94.000 245.859,120.911 234.614,134.549 229.471 C 151.460 223.093,165.749 219.014,160.030 222.197 C 154.874 225.066,149.137 230.143,144.459 235.975 C 142.926 237.886,141.722 239.499,141.782 239.560 C 141.843 239.620,144.654 238.337,148.029 236.708 C 171.620 225.323,194.811 219.278,213.000 219.774 C 229.056 220.212,236.175 224.014,234.231 231.114 L 233.972 232.062 235.526 230.947 C 245.687 223.661,249.482 209.424,244.173 198.500 C 241.820 193.658,239.458 191.235,231.500 185.498 C 223.184 179.504,219.173 176.157,212.333 169.503 C 204.530 161.913,201.404 160.199,185.667 154.884 C 177.656 152.178,139.792 140.857,112.917 133.132 C 109.846 132.249,107.333 131.436,107.333 131.325 C 107.333 130.839,113.235 123.829,116.664 120.241 C 135.901 100.112,161.066 88.096,190.000 85.223 C 193.508 84.874,207.955 85.055,212.149 85.500 M334.989 101.887 C 333.987 102.554,333.117 103.138,333.057 103.187 C 332.996 103.236,333.186 103.641,333.478 104.087 L 334.010 104.898 325.166 110.479 L 316.322 116.059 315.706 115.299 L 315.091 114.539 313.379 115.638 C 311.289 116.979,311.217 116.397,314.031 120.906 L 316.395 124.693 317.448 123.995 C 318.026 123.611,318.837 123.131,319.250 122.929 C 320.057 122.531,320.198 122.162,319.667 121.833 C 318.236 120.949,321.295 119.107,324.820 118.730 C 326.788 118.519,327.321 118.550,327.199 118.871 C 327.070 119.206,322.949 125.072,322.425 125.666 C 322.345 125.758,322.087 125.570,321.853 125.249 C 321.301 124.495,321.329 124.489,319.364 125.711 C 318.372 126.328,317.775 126.909,317.907 127.128 C 318.282 127.752,322.407 134.160,322.504 134.269 C 322.971 134.799,326.013 132.151,325.840 131.364 C 325.624 130.379,333.108 119.388,334.295 118.949 C 336.119 118.274,342.769 118.506,343.104 119.257 C 343.286 119.666,343.552 120.000,343.695 120.000 C 344.132 120.000,347.333 117.918,347.333 117.634 C 347.333 117.433,343.616 111.288,343.157 110.731 C 342.892 110.409,339.380 113.066,339.535 113.471 C 339.767 114.076,338.826 114.254,334.000 114.514 C 331.892 114.628,329.904 114.794,329.583 114.883 C 328.208 115.265,329.282 114.341,332.871 112.056 C 336.362 109.832,337.667 109.361,337.667 110.323 C 337.667 110.889,338.233 110.722,339.995 109.638 C 342.044 108.377,342.119 108.886,339.232 104.421 L 336.811 100.676 334.989 101.887 M54.875 113.488 C 52.010 118.341,49.667 122.448,49.667 122.615 C 49.667 122.781,51.129 123.787,52.917 124.848 C 54.704 125.910,56.474 126.976,56.850 127.217 C 57.450 127.602,60.113 124.306,59.593 123.821 C 59.542 123.774,58.563 123.187,57.417 122.518 C 56.271 121.849,55.333 121.231,55.333 121.144 C 55.333 120.728,57.054 118.327,57.262 118.453 C 57.393 118.533,61.175 120.800,65.667 123.492 C 70.158 126.185,74.176 128.607,74.595 128.876 L 75.357 129.364 74.642 130.368 C 74.249 130.920,73.981 131.412,74.047 131.461 C 75.279 132.375,77.813 133.646,77.994 133.440 C 78.444 132.928,83.362 124.584,83.264 124.499 C 83.211 124.452,82.358 123.919,81.371 123.316 C 79.447 122.142,79.526 122.127,78.480 123.861 C 78.164 124.386,77.203 123.894,69.314 119.176 C 58.932 112.967,59.819 113.640,60.459 112.455 C 61.504 110.522,61.416 110.540,63.588 111.814 C 66.110 113.292,65.988 113.303,67.086 111.486 C 68.315 109.451,68.385 109.586,65.083 107.646 C 63.479 106.703,61.698 105.647,61.125 105.298 L 60.083 104.664 54.875 113.488 M194.167 110.877 C 181.945 111.898,170.026 115.129,160.118 120.108 L 157.254 121.547 163.210 123.099 C 203.009 133.467,219.913 140.714,227.826 150.799 C 230.937 154.763,232.308 155.934,237.744 159.263 C 257.644 171.453,267.710 185.024,269.691 202.333 C 273.201 233.015,245.794 260.304,205.566 266.180 L 203.965 266.414 205.456 263.957 C 208.846 258.371,211.638 251.486,211.145 249.931 C 210.627 248.299,206.349 246.896,200.079 246.300 C 184.637 244.834,159.577 251.346,137.560 262.547 L 135.620 263.534 138.227 266.022 C 172.434 298.672,227.522 298.629,261.854 265.926 C 303.713 226.054,297.882 157.642,249.911 125.807 C 233.724 115.065,212.399 109.353,194.167 110.877 M348.167 134.133 C 343.884 135.487,342.303 137.581,340.819 143.861 C 339.271 150.414,337.054 152.528,334.306 150.073 C 332.019 148.029,332.788 145.240,336.257 142.991 L 337.015 142.500 336.257 140.581 C 335.697 139.162,335.370 138.715,335.000 138.864 C 334.725 138.976,332.700 139.748,330.500 140.581 C 328.300 141.413,326.445 142.141,326.377 142.198 C 326.176 142.367,327.444 145.667,327.711 145.667 C 327.846 145.667,328.325 145.526,328.776 145.355 L 329.596 145.043 329.079 146.359 C 327.484 150.419,331.583 156.000,336.160 156.000 C 341.454 156.000,344.333 152.985,346.142 145.545 C 347.426 140.264,348.616 138.640,350.799 139.188 C 354.013 139.994,353.891 144.331,350.616 145.688 C 349.910 145.980,349.694 146.246,349.851 146.631 C 349.972 146.926,350.294 147.804,350.566 148.583 C 351.228 150.472,350.949 150.467,355.655 148.664 C 360.362 146.859,360.250 146.973,359.357 144.889 C 358.731 143.429,358.643 143.359,357.825 143.670 C 356.614 144.130,356.560 144.098,357.148 143.259 C 360.125 139.008,353.628 132.406,348.167 134.133 M40.228 144.391 C 39.481 146.557,39.379 147.168,39.728 147.373 C 47.485 151.928,61.487 161.629,61.398 162.387 C 61.305 163.179,61.473 163.319,63.238 163.915 L 65.180 164.571 66.715 160.173 L 68.251 155.776 66.144 155.091 L 64.037 154.406 63.826 155.366 C 63.534 156.698,63.320 156.743,61.742 155.803 L 60.359 154.977 61.365 152.247 C 62.583 148.944,62.320 149.206,64.151 149.480 C 65.766 149.722,65.843 149.827,65.351 151.120 C 65.075 151.846,68.633 153.812,69.198 153.246 C 69.243 153.201,69.964 151.168,70.800 148.729 L 72.319 144.293 71.224 143.836 C 69.109 142.952,68.331 142.876,67.869 143.508 C 67.459 144.068,66.814 144.037,54.636 142.878 C 47.594 142.208,41.683 141.661,41.500 141.663 C 41.317 141.665,40.744 142.893,40.228 144.391 M53.585 147.961 C 56.014 148.290,58.092 148.648,58.202 148.757 C 58.428 148.983,57.410 152.246,57.044 152.473 C 56.825 152.608,49.586 148.332,48.850 147.634 C 48.451 147.255,48.264 147.242,53.585 147.961 M174.333 162.320 C 175.525 162.725,179.200 164.388,182.500 166.016 C 189.271 169.356,191.117 169.942,195.780 170.231 L 199.061 170.434 198.841 171.967 C 197.252 183.058,188.447 188.295,177.281 184.791 C 169.931 182.485,165.703 176.287,166.053 168.333 C 166.200 165.000,166.200 165.000,162.627 165.000 C 159.372 165.000,159.296 164.912,161.335 163.499 C 164.683 161.178,169.651 160.728,174.333 162.320 M82.432 278.100 C 80.884 279.334,80.750 279.540,81.182 280.017 C 82.030 280.954,81.810 281.172,73.817 287.325 C 64.961 294.142,65.248 293.966,64.566 292.993 L 64.062 292.274 62.364 293.541 C 60.239 295.129,60.160 294.743,63.466 298.956 C 66.834 303.250,68.391 304.806,70.189 305.677 C 75.328 308.166,82.142 303.584,81.609 297.997 L 81.480 296.646 82.490 296.906 C 88.582 298.477,93.946 292.751,91.732 287.043 C 91.221 285.726,84.733 276.655,84.333 276.699 C 84.242 276.710,83.386 277.340,82.432 278.100 M308.885 285.170 C 305.639 289.586,305.702 289.272,307.758 290.764 L 309.500 292.027 310.074 291.322 C 310.768 290.469,309.826 289.903,319.167 296.779 C 328.416 303.587,327.549 302.808,327.004 303.826 C 326.757 304.288,326.617 304.709,326.694 304.761 C 326.771 304.814,327.531 305.412,328.383 306.090 L 329.934 307.324 335.133 300.315 C 337.993 296.460,340.326 293.199,340.316 293.069 C 340.293 292.749,332.817 287.151,332.517 287.229 C 332.385 287.264,331.632 288.155,330.842 289.211 L 329.406 291.130 331.620 292.786 C 332.837 293.696,333.884 294.480,333.946 294.528 C 334.122 294.663,331.343 298.334,331.073 298.325 C 330.703 298.313,314.514 286.362,314.396 286.014 C 314.338 285.846,314.531 285.341,314.824 284.894 C 315.349 284.094,315.329 284.060,313.678 282.873 C 311.501 281.309,311.845 281.144,308.885 285.170 M86.155 286.577 C 88.893 290.607,83.290 295.165,79.935 291.638 L 78.639 290.276 81.859 287.805 C 85.649 284.896,85.116 285.049,86.155 286.577 M76.443 294.454 C 78.528 297.188,76.896 300.626,73.231 301.221 C 71.170 301.555,67.873 298.790,69.207 297.847 C 69.551 297.603,70.958 296.498,72.333 295.391 C 75.280 293.018,75.337 293.005,76.443 294.454 M291.442 303.749 C 287.414 307.440,287.575 307.035,289.323 309.064 L 290.742 310.712 291.489 310.010 L 292.236 309.308 299.417 316.904 L 306.598 324.500 305.897 325.261 L 305.197 326.021 306.746 327.570 L 308.295 329.119 312.731 324.946 C 315.170 322.651,318.061 319.945,319.154 318.933 L 321.142 317.093 317.853 313.546 C 314.034 309.429,314.288 309.513,312.166 311.668 L 310.523 313.335 312.500 315.333 L 314.477 317.331 312.834 318.999 C 310.698 321.168,311.451 321.632,303.833 313.446 C 295.775 304.787,296.344 305.553,297.257 304.581 L 297.991 303.800 296.400 302.233 L 294.809 300.665 291.442 303.749 M95.975 309.639 C 86.089 316.594,85.111 317.204,84.511 316.789 C 83.919 316.380,83.717 316.472,82.428 317.737 C 80.605 319.527,80.453 319.152,84.410 322.638 L 87.820 325.641 89.213 324.071 L 90.607 322.500 89.783 321.627 L 88.960 320.755 90.235 319.744 L 91.511 318.734 92.339 319.403 C 92.794 319.771,93.806 320.660,94.587 321.379 L 96.007 322.687 95.462 323.760 C 94.477 325.700,94.322 325.781,93.357 324.856 L 92.484 324.020 91.097 325.630 L 89.710 327.240 90.938 328.390 C 91.614 329.023,93.254 330.484,94.582 331.637 L 96.998 333.733 98.468 332.117 C 99.794 330.659,99.890 330.445,99.443 329.944 C 98.995 329.443,99.542 328.236,105.009 317.667 L 111.072 305.945 110.120 304.942 C 109.595 304.390,108.630 303.510,107.975 302.987 L 106.783 302.036 95.975 309.639 M102.735 311.417 C 102.377 312.012,101.226 314.000,100.177 315.833 C 99.129 317.667,98.248 319.188,98.219 319.215 C 98.190 319.242,97.441 318.621,96.553 317.837 L 94.939 316.411 99.039 313.372 C 103.701 309.916,103.610 309.964,102.735 311.417 M272.167 317.848 C 270.883 318.655,269.850 319.432,269.870 319.574 C 269.890 319.717,271.669 325.353,273.824 332.100 C 277.514 343.656,277.708 344.401,277.185 344.980 C 276.661 345.558,276.690 345.695,277.676 347.297 C 278.949 349.366,278.371 349.422,282.692 346.818 C 287.088 344.170,286.946 344.388,285.583 342.365 L 284.470 340.712 283.437 341.367 L 282.403 342.021 281.874 340.469 C 281.228 338.572,281.131 338.728,284.051 336.993 L 286.448 335.569 287.598 336.825 L 288.749 338.080 287.708 338.739 L 286.668 339.398 287.512 340.782 C 287.977 341.544,288.477 342.367,288.624 342.611 C 288.828 342.950,289.756 342.526,292.529 340.825 C 297.518 337.764,297.313 338.047,296.014 336.022 C 294.871 334.240,294.687 334.113,294.102 334.698 C 293.837 334.963,291.116 332.482,284.228 325.698 C 278.998 320.548,274.670 316.344,274.610 316.357 C 274.549 316.370,273.450 317.041,272.167 317.848 M124.153 318.355 C 118.224 320.079,117.204 326.512,121.463 335.324 C 123.006 338.517,123.068 340.166,121.700 341.631 C 118.734 344.806,114.636 340.576,116.457 336.219 L 116.956 335.024 115.125 333.976 C 114.118 333.400,113.241 332.982,113.176 333.048 C 113.004 333.222,108.333 341.376,108.333 341.502 C 108.333 341.615,111.334 343.333,111.531 343.333 C 111.594 343.333,111.857 342.930,112.115 342.436 L 112.586 341.539 112.806 342.543 C 113.710 346.658,120.280 349.098,124.039 346.714 C 128.669 343.777,129.278 339.133,125.970 331.983 C 124.039 327.809,123.769 326.695,124.349 325.294 C 125.701 322.032,130.341 323.562,129.884 327.119 C 129.786 327.878,129.660 328.862,129.603 329.304 C 129.506 330.065,131.745 331.910,132.833 331.964 C 133.148 331.980,137.824 324.023,137.604 323.847 C 137.547 323.801,136.790 323.355,135.922 322.854 L 134.345 321.943 133.943 322.824 L 133.542 323.705 133.016 322.283 C 131.877 319.199,127.667 317.333,124.153 318.355 M280.083 328.811 C 281.871 330.720,283.333 332.355,283.333 332.445 C 283.333 332.762,279.925 334.703,279.723 334.501 C 279.388 334.165,276.404 325.333,276.627 325.337 C 276.741 325.340,278.296 326.903,280.083 328.811 M147.032 330.250 C 146.790 331.121,146.522 332.076,146.435 332.374 C 146.328 332.743,146.551 332.982,147.139 333.130 C 148.263 333.412,148.450 332.567,144.809 343.673 L 141.617 353.407 140.669 353.217 C 139.785 353.040,139.684 353.133,139.193 354.573 C 138.310 357.166,138.230 357.081,142.917 358.567 L 147.167 359.916 147.541 358.863 C 148.314 356.689,148.422 355.667,147.879 355.667 C 146.247 355.667,147.356 352.447,149.829 350.004 C 152.051 347.810,151.879 347.605,152.175 352.797 L 152.419 357.094 151.624 356.894 C 150.898 356.712,150.782 356.858,150.267 358.597 C 149.588 360.890,149.340 360.645,153.834 362.125 C 158.417 363.635,158.104 363.675,158.790 361.497 C 159.382 359.620,159.311 359.000,158.504 359.000 C 157.975 359.000,157.842 357.982,157.326 349.955 L 156.970 344.409 158.902 342.590 C 162.923 338.803,163.458 338.406,164.167 338.688 C 164.533 338.834,164.932 338.964,165.053 338.977 C 165.399 339.014,166.696 334.893,166.417 334.644 C 166.279 334.521,164.486 333.896,162.432 333.256 L 158.697 332.093 158.078 334.130 C 157.549 335.871,157.529 336.208,157.935 336.455 C 158.410 336.743,153.496 342.082,151.263 343.704 L 150.358 344.361 150.666 343.430 C 150.836 342.919,151.511 340.818,152.166 338.763 C 153.327 335.125,153.380 335.034,154.158 335.330 C 154.905 335.614,154.995 335.520,155.527 333.900 C 155.841 332.947,156.163 331.988,156.244 331.769 C 156.359 331.456,148.624 328.667,147.641 328.667 C 147.548 328.667,147.274 329.379,147.032 330.250 M247.833 329.965 C 245.817 330.675,243.242 331.611,242.111 332.044 L 240.055 332.833 240.860 334.805 C 241.840 337.204,241.724 337.088,242.755 336.696 C 243.502 336.412,243.645 336.480,243.961 337.270 C 250.394 353.373,251.214 356.206,249.596 356.746 C 249.365 356.823,250.414 360.394,250.819 360.913 C 251.039 361.194,261.261 356.878,262.565 355.954 C 268.186 351.971,265.783 341.393,259.245 341.341 L 258.324 341.333 259.217 339.983 C 260.894 337.449,260.144 333.062,257.581 330.413 C 255.519 328.282,252.948 328.164,247.833 329.965 M253.696 334.363 C 256.213 336.880,255.519 340.949,252.474 341.531 C 251.336 341.748,251.634 342.250,249.526 336.569 L 248.686 334.305 249.426 334.007 C 250.836 333.440,252.949 333.616,253.696 334.363 M218.000 337.163 C 209.872 338.261,207.845 338.633,207.893 339.018 C 207.925 339.283,208.212 341.419,208.529 343.765 L 209.106 348.030 209.970 347.860 C 210.445 347.766,211.406 347.591,212.106 347.470 C 213.367 347.253,213.376 347.239,213.189 345.959 C 213.085 345.248,212.915 344.087,212.812 343.379 L 212.624 342.092 214.228 341.909 C 215.111 341.809,215.875 341.768,215.926 341.817 C 216.058 341.946,218.662 361.351,218.664 362.229 C 218.666 362.808,218.444 362.979,217.583 363.062 L 216.500 363.167 216.614 365.333 C 216.677 366.525,216.762 367.535,216.803 367.578 C 216.900 367.678,227.129 366.279,227.285 366.144 C 227.350 366.087,227.298 365.132,227.169 364.020 L 226.935 362.000 225.663 362.000 C 224.450 362.000,224.383 361.943,224.201 360.750 C 223.378 355.366,221.644 341.245,221.787 341.101 C 221.886 341.003,222.636 340.846,223.455 340.754 L 224.942 340.587 225.165 342.543 C 225.540 345.838,225.459 345.740,227.612 345.479 C 228.651 345.353,229.556 345.200,229.625 345.139 C 229.817 344.968,228.600 335.994,228.369 335.885 C 228.258 335.832,223.592 336.407,218.000 337.163 M178.330 338.036 C 178.328 338.658,178.233 339.729,178.119 340.417 C 177.917 341.642,177.934 341.667,178.970 341.667 L 180.028 341.667 179.813 344.083 C 179.695 345.412,179.276 350.100,178.882 354.500 L 178.167 362.500 177.122 362.602 C 176.214 362.690,175.189 366.043,175.809 366.901 C 175.858 366.969,193.793 368.586,193.880 368.530 C 194.049 368.423,194.700 358.922,194.549 358.771 C 194.310 358.532,189.888 358.047,189.672 358.237 C 189.583 358.314,189.456 359.531,189.389 360.939 C 189.323 362.348,189.170 363.604,189.051 363.731 C 188.862 363.931,184.044 363.489,183.805 363.249 C 183.756 363.200,183.892 361.287,184.108 358.997 L 184.500 354.833 186.885 354.949 L 189.271 355.065 189.399 352.949 C 189.555 350.369,189.778 350.644,187.350 350.424 C 184.829 350.195,184.932 350.397,185.203 346.206 C 185.492 341.724,185.382 341.864,188.406 342.147 L 190.887 342.380 190.734 345.023 L 190.581 347.667 191.874 347.670 C 192.585 347.672,193.705 347.763,194.363 347.872 L 195.560 348.070 195.987 343.509 C 196.229 340.928,196.288 338.834,196.124 338.687 C 195.964 338.543,192.758 338.171,189.000 337.859 C 185.242 337.546,181.304 337.204,180.250 337.098 L 178.333 336.905 178.330 338.036 M258.264 345.522 C 261.620 347.873,260.271 354.000,256.398 354.000 C 256.111 354.000,253.333 347.133,253.333 346.424 C 253.333 345.378,257.079 344.692,258.264 345.522 " stroke="none" fill="#fbfafa" fill-rule="evenodd"></path><path id="path1" d="M187.333 0.199 C 186.692 0.270,184.217 0.488,181.833 0.684 C 130.000 4.935,80.031 31.229,45.989 72.167 C 5.033 121.418,-9.782 187.516,6.168 249.833 C 30.604 345.304,122.355 409.029,220.667 398.812 C 312.759 389.242,386.843 316.756,398.310 225.000 C 412.274 113.262,332.972 13.554,220.000 0.808 C 215.455 0.295,190.629 -0.168,187.333 0.199 M209.667 9.343 C 330.083 16.034,414.065 129.893,384.798 246.780 C 363.376 332.337,283.970 392.700,195.667 390.556 C 73.471 387.590,-14.530 272.606,14.682 154.078 C 36.460 65.712,119.173 4.315,209.667 9.343 M186.833 19.015 C 79.695 27.712,3.702 124.112,21.036 229.333 C 42.453 359.334,191.227 423.607,300.954 350.261 C 404.391 281.120,408.158 129.326,308.291 54.597 C 273.823 28.805,228.782 15.610,186.833 19.015 M206.117 31.005 C 206.211 31.100,207.281 35.600,208.494 41.005 C 212.210 57.561,211.952 56.613,212.773 56.730 C 213.370 56.815,213.803 61.500,213.214 61.500 C 213.188 61.500,210.947 61.455,208.235 61.399 L 203.304 61.299 203.402 59.066 L 203.500 56.833 204.583 56.729 C 205.724 56.619,205.913 56.119,205.457 54.417 C 205.165 53.327,199.829 53.252,199.522 54.333 C 199.418 54.700,199.248 55.300,199.144 55.667 C 198.980 56.244,199.114 56.333,200.144 56.333 L 201.333 56.333 201.333 58.667 L 201.333 61.000 196.500 61.000 L 191.667 61.000 191.667 58.689 C 191.667 56.432,191.687 56.375,192.559 56.272 C 193.439 56.168,193.492 56.009,196.696 43.901 C 198.480 37.155,200.030 31.402,200.140 31.117 C 200.333 30.614,205.627 30.515,206.117 31.005 M181.624 36.363 C 182.043 38.945,182.325 41.119,182.251 41.193 C 182.098 41.347,178.790 42.000,178.167 42.000 C 177.916 42.000,177.601 41.025,177.351 39.475 L 176.944 36.951 175.555 37.180 C 174.791 37.306,174.121 37.450,174.066 37.500 C 173.977 37.580,176.513 52.253,177.352 56.508 L 177.683 58.183 178.957 58.061 L 180.232 57.940 180.581 60.053 C 181.015 62.679,181.400 62.412,175.667 63.455 C 169.683 64.544,170.123 64.572,169.885 63.083 C 169.775 62.396,169.591 61.365,169.476 60.793 C 169.279 59.809,169.332 59.741,170.467 59.528 C 171.948 59.250,172.001 60.328,169.924 48.583 C 168.011 37.765,168.226 38.303,166.048 38.886 C 165.203 39.112,165.217 38.799,165.869 42.959 L 166.072 44.252 163.830 44.643 C 162.597 44.857,161.552 44.988,161.508 44.933 C 161.406 44.806,159.727 35.520,159.792 35.441 C 159.858 35.360,179.706 31.752,180.348 31.705 C 180.757 31.675,181.020 32.633,181.624 36.363 M248.392 37.872 C 250.835 38.719,252.890 39.462,252.958 39.525 C 253.456 39.978,251.482 43.987,250.854 43.798 C 250.476 43.683,250.036 43.570,249.877 43.545 C 249.641 43.508,247.333 49.668,247.333 50.335 C 247.333 50.556,253.002 52.452,253.148 52.279 C 253.200 52.217,253.724 50.708,254.313 48.925 C 255.369 45.726,255.403 45.000,254.500 45.000 C 253.691 45.000,253.665 44.468,254.371 42.377 C 255.194 39.939,254.636 39.989,260.124 41.861 L 264.604 43.389 263.925 45.444 C 263.085 47.987,262.981 48.103,261.910 47.696 L 261.044 47.367 257.810 57.071 C 254.376 67.374,254.405 67.191,256.071 67.746 C 256.315 67.827,255.224 71.464,254.809 71.951 C 254.554 72.251,245.301 68.896,245.425 68.548 C 245.499 68.338,245.839 67.379,246.179 66.417 C 246.843 64.540,246.881 64.511,248.083 64.968 C 248.824 65.250,251.854 58.076,251.249 57.472 C 251.169 57.392,249.836 56.898,248.286 56.374 L 245.467 55.421 244.178 59.240 C 242.858 63.148,242.867 63.645,244.250 63.662 C 244.805 63.668,244.784 63.856,243.962 66.290 C 243.399 67.958,243.149 68.331,242.712 68.151 C 242.412 68.028,240.442 67.343,238.333 66.629 C 236.225 65.916,234.317 65.263,234.093 65.180 C 233.152 64.829,235.160 60.822,236.224 60.927 L 237.175 61.021 240.421 51.536 C 243.856 41.496,243.901 41.336,243.250 41.328 C 242.123 41.314,242.005 40.823,242.686 38.984 C 243.057 37.985,243.424 36.979,243.503 36.750 C 243.691 36.202,243.337 36.121,248.392 37.872 M147.543 41.497 C 148.379 43.558,148.294 43.957,146.928 44.413 C 146.757 44.470,148.412 48.863,150.606 54.175 C 152.800 59.487,154.972 64.763,155.433 65.898 L 156.272 67.963 153.754 69.012 L 151.236 70.060 147.201 66.112 C 144.982 63.940,141.934 60.973,140.428 59.517 L 137.689 56.871 140.071 62.582 C 142.398 68.164,142.472 68.289,143.341 68.115 C 144.288 67.926,146.187 71.666,145.464 72.298 C 145.232 72.502,140.308 74.597,137.805 75.557 C 137.554 75.653,137.123 75.120,136.725 74.222 C 135.574 71.619,135.556 71.414,136.435 70.936 L 137.236 70.500 133.365 60.963 C 129.605 51.700,129.471 51.434,128.716 51.714 C 128.288 51.872,127.822 51.929,127.679 51.841 C 127.361 51.644,125.860 47.693,126.039 47.522 C 126.284 47.285,132.747 44.667,133.085 44.667 C 133.273 44.667,136.195 47.404,139.578 50.750 C 144.408 55.526,145.629 56.583,145.257 55.667 C 141.618 46.711,141.578 46.633,140.642 46.839 C 139.786 47.027,138.728 45.333,138.262 43.030 C 138.154 42.497,145.081 39.327,146.116 39.436 C 146.532 39.479,146.995 40.148,147.543 41.497 M201.844 44.417 C 201.330 46.663,200.839 48.688,200.753 48.917 C 200.637 49.222,201.142 49.333,202.637 49.333 C 204.586 49.333,204.671 49.299,204.501 48.583 C 204.402 48.171,204.025 46.197,203.663 44.196 C 203.300 42.196,202.953 40.509,202.891 40.447 C 202.829 40.385,202.358 42.171,201.844 44.417 M289.031 56.083 C 291.861 57.829,292.052 56.201,287.331 70.614 C 283.871 81.175,283.396 82.884,283.831 83.203 C 284.472 83.676,283.847 85.296,282.128 87.619 C 282.046 87.730,274.513 83.178,273.872 82.629 C 273.710 82.491,273.967 81.731,274.444 80.939 C 275.956 78.427,275.795 78.544,276.939 79.135 C 277.504 79.428,278.025 79.667,278.097 79.667 C 278.297 79.667,279.126 77.013,278.971 76.871 C 278.895 76.802,277.798 76.115,276.533 75.345 L 274.232 73.945 273.071 75.107 L 271.909 76.269 272.954 76.810 C 274.232 77.471,274.234 77.338,272.922 79.531 C 271.602 81.739,272.175 81.814,267.377 78.806 L 263.345 76.279 264.688 74.303 C 265.875 72.554,266.107 72.367,266.697 72.683 C 267.290 73.000,268.395 72.033,276.765 63.864 C 281.936 58.817,286.294 54.683,286.451 54.677 C 286.607 54.671,287.768 55.304,289.031 56.083 M114.333 68.118 C 119.192 72.324,123.574 76.140,124.071 76.600 C 124.837 77.307,125.057 77.368,125.502 76.998 C 126.074 76.523,126.030 76.491,127.607 78.548 C 129.039 80.415,129.127 80.254,125.083 83.177 C 120.611 86.410,120.752 86.382,119.347 84.296 L 118.194 82.585 119.142 81.770 C 119.663 81.322,119.956 80.851,119.794 80.723 C 119.632 80.595,119.114 80.154,118.642 79.742 L 117.785 78.995 115.809 80.365 C 113.136 82.220,113.230 82.063,113.851 83.615 L 114.404 84.995 115.337 84.331 C 115.850 83.966,116.334 83.667,116.413 83.667 C 116.633 83.667,119.111 87.338,118.963 87.445 C 116.128 89.496,111.909 92.389,111.558 92.524 C 110.601 92.891,108.173 89.292,108.966 88.682 C 109.625 88.176,109.554 87.957,104.982 76.333 C 102.421 69.825,100.251 64.264,100.159 63.975 C 99.957 63.338,104.547 59.888,105.125 60.242 C 105.331 60.369,109.475 63.913,114.333 68.118 M280.549 67.455 L 277.350 70.910 278.977 71.922 L 280.603 72.933 281.682 70.050 C 282.276 68.464,283.038 66.454,283.376 65.583 C 284.182 63.506,284.245 63.464,280.549 67.455 M108.700 71.676 C 109.287 73.046,110.111 74.992,110.532 76.000 C 111.375 78.022,111.447 78.042,113.367 76.772 L 114.705 75.886 113.936 75.174 C 113.513 74.782,111.922 73.274,110.400 71.823 L 107.633 69.185 108.700 71.676 M311.244 72.410 C 314.835 75.986,314.768 75.768,312.843 77.657 C 311.375 79.098,311.342 79.111,310.668 78.501 C 310.265 78.137,309.874 78.009,309.717 78.191 C 309.280 78.697,303.142 87.126,302.839 87.639 C 302.685 87.898,303.521 87.428,304.696 86.593 C 305.872 85.759,309.080 83.483,311.827 81.536 L 316.821 77.995 318.615 79.789 L 320.409 81.583 315.486 88.838 C 312.778 92.827,310.781 95.959,311.050 95.796 C 314.660 93.608,320.584 88.461,320.103 87.930 C 319.625 87.401,321.464 84.633,322.659 84.082 C 322.760 84.035,324.262 85.421,325.995 87.162 L 329.148 90.327 327.507 91.993 L 325.867 93.658 325.152 92.986 L 324.438 92.315 314.302 99.589 C 308.728 103.589,303.965 106.986,303.717 107.138 C 303.277 107.408,299.667 104.230,299.667 103.572 C 299.667 103.416,301.857 100.064,304.534 96.123 C 307.211 92.181,309.348 88.908,309.284 88.850 C 309.219 88.791,305.882 91.062,301.868 93.896 L 294.570 99.048 292.785 97.285 C 290.492 95.021,289.929 96.335,298.335 84.331 L 305.670 73.856 305.003 73.188 L 304.336 72.521 305.905 70.927 C 307.911 68.891,307.632 68.814,311.244 72.410 M213.500 76.531 C 299.059 85.904,349.414 178.342,310.866 255.269 C 264.906 346.987,133.307 346.335,88.335 254.167 C 45.648 166.681,116.645 65.920,213.500 76.531 M78.827 85.993 L 80.462 87.653 79.727 88.436 L 78.991 89.219 86.579 96.263 L 94.167 103.306 95.752 101.747 L 97.337 100.188 95.273 98.106 L 93.210 96.024 94.855 94.215 C 96.972 91.887,96.599 91.790,100.805 95.754 L 104.434 99.174 98.345 105.739 L 92.255 112.304 90.477 110.769 C 88.811 109.331,88.729 109.190,89.183 108.543 C 89.449 108.163,89.667 107.748,89.667 107.622 C 89.667 106.693,74.867 93.684,74.346 94.155 C 73.514 94.908,73.294 94.822,71.568 93.070 L 69.995 91.472 73.248 87.915 C 77.042 83.764,76.735 83.870,78.827 85.993 M193.000 85.198 C 183.316 86.034,177.677 86.943,170.500 88.825 C 150.190 94.152,132.265 104.593,117.476 119.712 C 112.699 124.596,107.466 130.946,107.895 131.338 C 108.044 131.475,110.642 132.296,113.667 133.164 C 116.692 134.031,128.317 137.432,139.500 140.721 C 200.409 158.633,202.318 159.387,212.833 169.685 C 219.841 176.548,222.709 178.935,232.504 186.053 C 242.417 193.257,245.619 197.907,246.681 206.642 C 247.715 215.144,243.859 224.190,236.618 230.250 C 233.989 232.450,234.001 232.453,234.226 229.750 C 234.547 225.904,233.125 224.098,228.368 222.309 C 211.069 215.806,176.885 222.343,145.263 238.202 C 140.788 240.446,140.810 240.465,143.563 236.804 C 147.640 231.382,153.636 225.881,159.064 222.583 C 160.195 221.896,160.933 221.333,160.704 221.333 C 158.638 221.333,145.832 225.409,134.500 229.674 C 119.573 235.292,94.340 245.927,94.336 246.603 C 94.331 247.366,99.894 258.030,102.240 261.755 C 145.393 330.264,243.796 334.419,292.292 269.780 C 339.660 206.646,311.173 115.814,236.167 90.818 C 223.489 86.593,204.890 84.172,193.000 85.198 M339.129 103.942 C 342.398 108.996,342.315 108.427,339.992 109.838 C 337.993 111.053,337.984 111.054,337.410 110.379 C 336.839 109.708,336.796 109.726,333.000 112.223 L 329.167 114.746 331.167 114.549 C 332.267 114.441,334.610 114.254,336.374 114.134 C 339.155 113.944,339.562 113.840,339.435 113.354 C 339.274 112.738,342.463 110.517,343.137 110.776 C 343.467 110.902,347.667 117.370,347.667 117.752 C 347.667 118.120,343.528 120.418,343.425 120.107 C 342.946 118.672,342.640 118.598,338.218 118.850 L 333.970 119.092 329.794 124.921 C 326.817 129.076,325.720 130.853,325.975 131.109 C 326.655 131.789,326.326 132.284,324.417 133.452 L 322.501 134.624 320.090 130.895 C 317.204 126.431,317.259 126.944,319.508 125.451 C 321.282 124.273,321.367 124.251,321.814 124.864 C 322.372 125.626,322.116 125.866,324.821 122.043 C 327.402 118.397,327.426 118.624,324.485 118.947 C 321.868 119.234,318.933 120.733,319.628 121.428 C 319.833 121.633,320.000 121.979,320.000 122.199 C 320.000 122.601,317.035 124.670,316.471 124.662 C 316.229 124.659,311.796 117.941,311.401 116.979 C 311.080 116.200,315.170 114.317,315.720 114.990 C 316.459 115.894,315.639 116.298,324.904 110.461 C 334.408 104.473,333.900 104.850,333.354 104.192 C 332.757 103.472,332.961 103.149,334.833 101.855 C 337.014 100.348,336.709 100.201,339.129 103.942 M64.355 107.013 C 66.543 108.303,68.333 109.449,68.333 109.559 C 68.333 109.734,66.439 112.961,66.144 113.288 C 66.084 113.355,65.041 112.854,63.826 112.175 C 61.451 110.847,61.110 110.909,60.476 112.784 C 60.203 113.589,59.607 113.171,69.273 118.952 C 78.734 124.611,78.131 124.357,78.842 122.983 L 79.368 121.965 81.101 122.963 C 83.699 124.460,83.709 124.321,80.657 129.415 L 77.917 133.989 76.680 133.244 C 73.699 131.451,73.761 131.530,74.427 130.384 C 75.011 129.379,75.009 129.354,74.260 128.875 C 69.972 126.125,57.217 118.699,57.007 118.829 C 56.857 118.922,56.440 119.497,56.080 120.106 L 55.426 121.214 57.696 122.493 L 59.967 123.772 59.097 125.303 C 57.558 128.012,57.857 128.011,53.368 125.327 C 51.149 124.000,49.333 122.834,49.333 122.735 C 49.333 122.325,59.856 104.682,60.105 104.675 C 60.254 104.670,62.167 105.722,64.355 107.013 M213.333 111.474 C 273.937 120.897,307.777 185.677,280.778 240.583 C 254.262 294.508,183.206 307.522,138.583 266.625 C 135.058 263.394,135.076 263.637,138.250 262.044 C 164.925 248.654,194.585 242.539,208.048 247.654 C 212.636 249.398,212.095 253.255,205.797 263.710 C 204.358 266.100,204.362 266.119,206.250 265.848 C 243.575 260.485,269.500 236.501,269.500 207.333 C 269.500 187.575,259.245 172.273,237.167 159.086 C 232.297 156.177,231.047 155.127,228.179 151.534 C 219.801 141.038,204.625 134.258,167.667 124.497 C 163.725 123.456,159.681 122.374,158.679 122.092 L 156.859 121.578 159.679 120.137 C 168.517 115.622,181.068 111.970,191.500 110.880 C 194.784 110.537,209.961 110.950,213.333 111.474 M353.524 134.298 C 356.722 135.751,358.642 140.070,357.459 143.153 C 357.288 143.598,357.403 143.662,358.071 143.494 C 358.928 143.279,360.725 146.426,360.090 147.032 C 359.758 147.348,351.954 150.333,351.458 150.333 C 350.650 150.333,349.464 146.258,350.155 145.857 C 353.442 143.948,354.006 140.183,351.114 139.457 C 348.750 138.864,347.660 140.239,346.331 145.491 C 344.464 152.866,342.216 155.526,337.277 156.203 C 332.158 156.905,326.745 150.213,329.009 145.983 C 329.322 145.398,329.277 145.371,328.487 145.671 C 328.012 145.852,327.572 146.000,327.510 146.000 C 327.447 146.000,327.173 145.362,326.900 144.583 C 326.627 143.804,326.305 142.926,326.185 142.632 C 325.929 142.008,335.160 138.329,335.629 138.868 C 335.771 139.032,336.202 139.947,336.585 140.900 L 337.282 142.633 335.855 143.470 C 332.148 145.642,332.449 150.667,336.286 150.667 C 338.384 150.667,339.310 149.236,340.516 144.129 C 342.553 135.512,347.674 131.641,353.524 134.298 M55.833 142.815 C 67.422 143.913,67.726 143.914,68.092 142.874 C 68.246 142.437,72.333 144.020,72.333 144.516 C 72.333 144.751,71.646 146.888,70.807 149.266 L 69.281 153.589 67.123 152.888 C 65.101 152.230,64.978 152.133,65.175 151.349 C 65.290 150.889,65.411 150.360,65.442 150.173 C 65.474 149.986,64.818 149.789,63.984 149.734 L 62.468 149.636 61.679 151.901 C 61.246 153.147,60.832 154.336,60.759 154.544 C 60.686 154.751,61.175 155.260,61.847 155.675 C 63.082 156.439,63.647 156.261,63.662 155.103 C 63.673 154.229,66.960 154.628,68.082 155.639 C 68.329 155.863,65.811 163.914,65.326 164.448 C 64.698 165.140,60.960 163.280,61.144 162.366 C 61.310 161.547,60.720 161.114,50.201 154.339 L 39.083 147.177 40.091 144.277 L 41.100 141.377 42.633 141.543 C 43.477 141.635,49.417 142.207,55.833 142.815 M49.361 147.795 C 50.076 148.454,56.781 152.330,56.937 152.174 C 57.174 151.937,58.354 148.900,58.242 148.817 C 57.955 148.603,49.137 147.588,49.361 147.795 M166.015 161.683 C 161.673 162.577,158.989 164.874,162.439 164.742 C 166.249 164.596,166.441 164.796,166.369 168.833 C 166.182 179.186,172.648 185.406,183.667 185.474 C 191.296 185.521,196.259 181.741,198.139 174.452 C 199.091 170.759,199.112 170.794,195.802 170.526 C 191.568 170.182,187.983 168.995,181.744 165.872 C 173.933 161.961,169.889 160.884,166.015 161.683 M88.077 281.184 C 91.183 285.276,92.669 288.055,92.665 289.763 C 92.653 294.363,86.722 298.605,82.530 297.011 C 81.688 296.691,81.684 296.698,81.881 298.136 C 82.582 303.252,75.347 308.248,70.454 306.026 C 68.276 305.037,62.934 299.312,60.535 295.394 C 60.257 294.940,60.404 294.790,62.789 293.101 L 64.077 292.189 64.673 292.925 L 65.269 293.662 73.385 287.449 C 77.848 284.033,81.562 281.185,81.637 281.121 C 81.712 281.057,81.525 280.729,81.220 280.392 C 80.449 279.540,80.463 279.510,82.379 277.995 C 84.541 276.287,84.226 276.111,88.077 281.184 M313.971 282.876 L 315.630 284.115 314.971 285.041 L 314.312 285.967 317.400 288.233 C 319.099 289.480,322.879 292.256,325.801 294.402 L 331.112 298.303 332.390 296.591 C 333.963 294.482,334.010 294.756,331.807 293.178 C 329.042 291.197,329.066 291.297,330.823 289.013 C 331.675 287.906,332.460 287.000,332.566 287.000 C 332.837 287.000,340.641 292.796,340.646 293.000 C 340.651 293.266,330.296 307.156,330.014 307.263 C 329.113 307.601,326.303 304.596,326.805 303.830 C 327.317 303.048,327.285 303.019,319.178 297.022 C 310.643 290.709,310.558 290.658,310.046 291.572 C 309.660 292.262,308.882 291.928,306.931 290.238 L 305.696 289.167 308.594 285.245 C 310.250 283.004,311.668 281.390,311.902 281.480 C 312.127 281.567,313.058 282.195,313.971 282.876 M82.000 287.872 C 78.602 290.495,78.686 290.322,80.166 291.621 C 83.507 294.555,88.599 290.317,86.044 286.728 C 85.083 285.378,85.318 285.312,82.000 287.872 M72.098 295.785 C 68.547 298.540,68.677 298.276,70.123 299.810 C 73.046 302.909,78.804 299.144,76.867 295.399 C 75.704 293.150,75.468 293.169,72.098 295.785 M298.000 303.799 C 298.000 303.978,297.715 304.433,297.366 304.812 C 296.734 305.497,296.763 305.534,303.759 313.051 L 310.787 320.602 312.549 319.051 L 314.311 317.500 312.252 315.420 L 310.193 313.340 312.160 311.587 C 314.626 309.388,314.080 309.213,318.016 313.468 C 321.234 316.947,321.353 317.127,320.773 317.670 C 320.439 317.982,317.484 320.749,314.205 323.820 L 308.244 329.403 306.539 327.689 L 304.833 325.975 305.667 325.337 L 306.500 324.698 304.812 322.932 C 302.903 320.936,292.581 309.892,292.466 309.723 C 292.425 309.663,291.995 309.873,291.512 310.190 C 291.005 310.522,290.518 310.639,290.363 310.466 C 290.215 310.301,289.511 309.507,288.798 308.702 L 287.502 307.237 291.167 303.796 L 294.832 300.354 296.416 301.915 C 297.287 302.773,298.000 303.621,298.000 303.799 M109.258 303.922 L 111.349 305.833 105.309 317.494 C 100.343 327.083,99.334 329.258,99.635 329.739 C 100.141 330.551,100.159 330.509,98.624 332.174 C 96.870 334.077,97.217 334.177,93.152 330.606 C 89.113 327.060,89.247 327.406,91.142 325.400 L 92.618 323.838 93.436 324.606 L 94.253 325.375 94.988 324.187 C 95.391 323.533,95.672 322.860,95.611 322.689 C 95.357 321.982,91.592 319.006,91.225 319.224 C 91.010 319.352,90.429 319.752,89.935 320.111 L 89.036 320.766 89.851 321.407 C 90.300 321.760,90.663 322.225,90.658 322.441 C 90.650 322.835,88.135 325.667,87.794 325.667 C 87.510 325.667,80.667 319.615,80.667 319.364 C 80.667 318.563,83.917 315.999,84.319 316.483 C 84.934 317.223,84.238 317.645,95.833 309.507 C 101.700 305.390,106.650 302.019,106.833 302.016 C 107.017 302.013,108.108 302.871,109.258 303.922 M98.875 313.682 C 96.916 315.157,95.394 316.496,95.494 316.657 C 95.594 316.819,96.247 317.404,96.945 317.956 L 98.214 318.961 99.395 316.897 C 101.922 312.485,102.725 311.000,102.583 311.000 C 102.503 311.000,100.834 312.207,98.875 313.682 M284.261 325.518 C 292.533 333.616,293.721 334.661,294.297 334.353 C 295.159 333.892,297.633 337.528,296.916 338.202 C 295.960 339.101,289.220 343.028,288.866 342.892 C 288.655 342.811,288.006 341.980,287.426 341.047 L 286.371 339.349 287.352 338.769 C 287.892 338.450,288.333 338.100,288.333 337.990 C 288.333 337.614,286.387 335.927,286.090 336.047 C 285.927 336.113,284.807 336.751,283.600 337.465 L 281.406 338.762 281.901 340.215 C 282.446 341.813,282.539 341.868,283.480 341.156 C 284.425 340.441,284.537 340.500,285.809 342.390 C 287.220 344.484,287.412 344.175,283.069 346.792 C 278.541 349.520,278.859 349.489,277.500 347.333 C 276.384 345.563,276.366 345.482,276.968 344.977 C 277.568 344.473,277.449 344.016,273.630 332.144 C 271.452 325.373,269.669 319.682,269.668 319.497 C 269.667 319.145,273.904 316.407,274.523 316.360 C 274.719 316.345,279.101 320.466,284.261 325.518 M129.933 318.863 C 131.866 319.826,132.951 321.003,133.241 322.453 L 133.435 323.423 133.886 322.562 L 134.337 321.700 136.137 322.767 C 137.126 323.353,137.895 323.908,137.845 324.000 C 137.473 324.678,133.204 332.189,133.144 332.272 C 133.036 332.420,129.369 330.327,129.169 330.004 C 129.078 329.857,129.228 329.201,129.502 328.546 C 130.952 325.076,127.616 322.020,125.111 324.525 C 123.896 325.740,124.152 327.677,126.080 331.863 C 129.198 338.632,129.080 342.101,125.613 345.634 C 121.798 349.520,113.752 347.841,112.775 342.956 L 112.565 341.911 112.105 342.789 L 111.645 343.668 109.906 342.664 C 108.949 342.112,108.207 341.504,108.256 341.313 C 108.333 341.012,112.915 332.999,113.161 332.735 C 113.240 332.650,116.615 334.533,116.954 334.851 C 117.021 334.913,116.833 335.674,116.537 336.541 C 115.385 339.924,116.809 342.482,119.726 342.270 C 123.037 342.029,123.302 339.695,120.668 333.992 C 118.702 329.735,118.184 327.806,118.437 325.671 C 119.149 319.662,124.810 316.310,129.933 318.863 M278.126 329.667 C 278.922 331.958,279.632 333.996,279.704 334.195 C 279.780 334.409,280.534 334.132,281.549 333.519 L 283.264 332.481 279.972 328.991 L 276.679 325.500 278.126 329.667 M152.236 329.856 C 156.986 331.332,156.552 330.890,155.838 333.528 C 155.262 335.656,155.210 335.725,154.322 335.548 C 153.329 335.349,153.423 335.140,151.111 342.667 L 150.651 344.167 154.317 340.514 C 156.573 338.267,157.838 336.773,157.607 336.630 C 157.159 336.353,158.294 332.000,158.814 332.000 C 160.339 332.000,166.664 334.550,166.641 335.156 C 166.602 336.177,165.456 339.173,165.124 339.122 C 164.964 339.097,164.517 338.981,164.130 338.864 C 163.574 338.696,162.785 339.227,160.352 341.409 L 157.277 344.167 157.481 348.167 C 158.009 358.528,158.026 358.661,158.884 358.876 C 159.314 358.984,159.667 359.177,159.667 359.305 C 159.667 359.734,158.274 363.667,158.122 363.667 C 157.944 363.667,149.534 360.952,149.426 360.859 C 148.861 360.378,150.894 356.436,151.574 356.695 C 152.362 356.994,152.365 356.986,152.190 355.081 C 152.093 354.028,151.922 352.136,151.809 350.875 L 151.605 348.584 149.862 350.305 C 148.106 352.039,146.529 355.326,147.447 355.338 C 148.520 355.353,148.643 355.843,148.053 357.750 C 147.731 358.792,147.373 359.738,147.258 359.853 C 147.002 360.109,138.332 357.408,138.338 357.073 C 138.352 356.310,139.618 352.841,139.868 352.878 C 140.032 352.903,140.467 353.011,140.833 353.118 C 141.443 353.297,141.763 352.502,144.601 343.740 C 148.073 333.022,147.955 333.575,146.868 333.148 L 146.069 332.833 146.755 330.568 C 147.221 329.032,147.580 328.357,147.873 328.469 C 148.111 328.560,150.074 329.184,152.236 329.856 M255.862 329.032 C 259.186 330.057,261.390 336.120,259.667 339.500 C 258.791 341.217,258.791 341.218,260.297 341.420 C 264.699 342.010,267.667 349.833,264.992 353.795 C 263.711 355.692,261.248 357.171,256.032 359.178 C 250.411 361.340,250.798 361.368,249.801 358.717 L 249.015 356.627 249.956 356.299 L 250.896 355.971 247.219 346.316 C 243.841 337.448,243.485 336.678,242.854 336.869 C 242.476 336.983,242.038 337.097,241.881 337.122 C 241.478 337.185,239.912 332.946,240.235 332.668 C 240.723 332.246,249.815 328.990,251.333 328.693 C 252.879 328.391,254.076 328.481,255.862 329.032 M250.083 334.028 C 248.783 334.417,248.795 334.071,249.969 337.227 C 251.828 342.231,251.473 341.755,252.911 341.163 C 257.321 339.344,254.669 332.652,250.083 334.028 M228.823 336.750 C 228.990 337.719,230.000 344.978,230.000 345.210 C 230.000 345.303,228.905 345.491,226.601 345.791 L 225.369 345.952 225.145 343.682 C 224.863 340.817,224.788 340.715,223.154 340.963 L 221.808 341.167 223.168 351.500 L 224.528 361.833 225.754 361.737 C 227.109 361.630,227.116 361.642,227.470 364.736 C 227.677 366.542,228.338 366.254,221.907 367.160 C 216.783 367.882,216.729 367.877,216.533 366.583 C 215.972 362.871,215.920 363.098,217.381 362.864 C 218.426 362.697,218.674 362.530,218.549 362.076 C 218.462 361.759,217.820 357.097,217.122 351.716 L 215.853 341.932 214.566 342.105 C 212.862 342.333,212.892 342.267,213.244 344.992 C 213.598 347.735,213.736 347.550,211.107 347.848 C 209.292 348.053,209.051 348.010,208.895 347.456 C 208.592 346.381,207.584 338.638,207.728 338.494 C 207.883 338.339,226.344 335.766,227.735 335.706 C 228.503 335.672,228.664 335.827,228.823 336.750 M188.643 337.675 C 192.939 338.042,196.501 338.390,196.560 338.449 C 196.677 338.566,196.092 345.188,195.812 346.917 C 195.623 348.082,194.207 348.358,191.351 347.787 L 190.285 347.574 190.514 345.136 C 190.773 342.372,190.987 342.579,187.448 342.180 L 185.730 341.985 185.515 345.243 C 185.397 347.034,185.234 348.822,185.153 349.216 C 185.015 349.879,185.179 349.950,187.335 350.167 C 189.960 350.430,189.923 350.368,189.453 353.802 L 189.238 355.364 186.996 355.143 L 184.753 354.922 184.551 356.711 C 184.439 357.695,184.253 359.564,184.136 360.865 L 183.924 363.231 186.344 363.455 C 189.254 363.726,188.925 364.043,189.204 360.697 L 189.436 357.923 192.134 358.157 C 193.619 358.287,194.854 358.416,194.880 358.446 C 195.030 358.618,194.128 368.320,193.946 368.501 C 193.825 368.621,189.662 368.372,184.696 367.947 L 175.667 367.176 175.670 366.004 C 175.679 363.144,176.018 362.260,177.049 362.412 C 177.572 362.488,178.000 362.437,178.000 362.297 C 178.000 362.157,178.375 357.884,178.833 352.800 C 179.292 347.717,179.667 343.224,179.667 342.815 C 179.667 342.301,179.410 342.008,178.833 341.863 C 178.076 341.673,178.000 341.494,178.005 339.910 C 178.012 337.017,178.209 336.643,179.622 336.840 C 180.288 336.932,184.348 337.308,188.643 337.675 M254.333 345.755 C 253.875 345.962,253.458 346.157,253.406 346.188 C 253.313 346.244,255.993 353.383,256.197 353.623 C 256.446 353.915,258.027 353.268,258.938 352.501 C 262.441 349.553,258.549 343.851,254.333 345.755 " stroke="none" fill="#cc042c" fill-rule="evenodd"></path><path id="path2" d="M194.421 9.239 C 194.928 9.316,195.678 9.314,196.088 9.235 C 196.498 9.156,196.083 9.093,195.167 9.095 C 194.250 9.098,193.915 9.163,194.421 9.239 M203.755 9.239 C 204.261 9.316,205.011 9.314,205.421 9.235 C 205.831 9.156,205.417 9.093,204.500 9.095 C 203.583 9.098,203.248 9.163,203.755 9.239 M203.088 30.906 C 203.595 30.982,204.345 30.980,204.755 30.901 C 205.165 30.822,204.750 30.760,203.833 30.762 C 202.917 30.765,202.581 30.829,203.088 30.906 M139.167 50.667 C 142.096 53.600,144.567 56.000,144.659 56.000 C 144.751 56.000,142.429 53.600,139.500 50.667 C 136.571 47.733,134.099 45.333,134.008 45.333 C 133.916 45.333,136.238 47.733,139.167 50.667 M199.587 56.569 C 200.002 56.649,200.602 56.646,200.921 56.562 C 201.239 56.479,200.900 56.414,200.167 56.417 C 199.433 56.421,199.173 56.489,199.587 56.569 M141.500 60.667 C 142.216 61.400,142.877 62.000,142.969 62.000 C 143.060 62.000,142.549 61.400,141.833 60.667 C 141.117 59.933,140.456 59.333,140.365 59.333 C 140.273 59.333,140.784 59.933,141.500 60.667 M275.000 65.500 C 273.634 66.875,272.592 68.000,272.683 68.000 C 272.775 68.000,273.968 66.875,275.333 65.500 C 276.699 64.125,277.742 63.000,277.650 63.000 C 277.558 63.000,276.366 64.125,275.000 65.500 M333.667 64.104 C 333.667 64.162,334.154 64.649,334.750 65.188 L 335.833 66.167 334.854 65.083 C 333.942 64.074,333.667 63.847,333.667 64.104 M278.821 69.083 L 277.167 70.833 278.917 69.179 C 280.543 67.642,280.820 67.333,280.571 67.333 C 280.518 67.333,279.731 68.121,278.821 69.083 M324.667 68.500 C 325.289 69.142,325.872 69.667,325.964 69.667 C 326.056 69.667,325.622 69.142,325.000 68.500 C 324.378 67.858,323.794 67.333,323.703 67.333 C 323.611 67.333,324.045 67.858,324.667 68.500 M150.000 68.833 C 150.622 69.475,151.206 70.000,151.297 70.000 C 151.389 70.000,150.955 69.475,150.333 68.833 C 149.711 68.192,149.128 67.667,149.036 67.667 C 148.944 67.667,149.378 68.192,150.000 68.833 M71.494 71.750 L 68.167 75.167 71.583 71.840 C 74.757 68.749,75.152 68.333,74.910 68.333 C 74.861 68.333,73.324 69.871,71.494 71.750 M309.833 71.333 C 310.922 72.433,311.887 73.333,311.979 73.333 C 312.071 73.333,311.255 72.433,310.167 71.333 C 309.078 70.233,308.113 69.333,308.021 69.333 C 307.929 69.333,308.745 70.233,309.833 71.333 M111.333 72.833 C 111.955 73.475,112.539 74.000,112.631 74.000 C 112.722 74.000,112.289 73.475,111.667 72.833 C 111.045 72.192,110.461 71.667,110.369 71.667 C 110.278 71.667,110.711 72.192,111.333 72.833 M330.333 74.104 C 330.333 74.162,330.821 74.649,331.417 75.188 L 332.500 76.167 331.521 75.083 C 330.608 74.074,330.333 73.847,330.333 74.104 M197.917 75.913 C 199.063 75.979,200.938 75.979,202.083 75.913 C 203.229 75.848,202.292 75.795,200.000 75.795 C 197.708 75.795,196.771 75.848,197.917 75.913 M312.818 77.417 L 311.500 78.833 312.917 77.516 C 314.234 76.290,314.487 76.000,314.234 76.000 C 314.180 76.000,313.542 76.637,312.818 77.417 M327.154 92.083 L 325.500 93.833 327.250 92.179 C 328.876 90.642,329.153 90.333,328.904 90.333 C 328.851 90.333,328.064 91.121,327.154 92.083 M292.738 97.165 C 293.785 98.249,294.691 99.067,294.750 98.984 C 294.809 98.901,293.952 98.015,292.846 97.014 L 290.833 95.194 292.738 97.165 M89.128 106.896 C 89.475 107.314,89.626 107.811,89.484 108.062 C 89.283 108.416,89.323 108.419,89.688 108.080 C 90.066 107.729,90.007 107.535,89.333 106.913 C 88.543 106.183,88.538 106.183,89.128 106.896 M111.993 112.250 L 109.167 115.167 112.083 112.341 C 114.792 109.716,115.152 109.333,114.909 109.333 C 114.859 109.333,113.547 110.646,111.993 112.250 M118.324 118.583 L 116.167 120.833 118.417 118.676 C 119.654 117.490,120.667 116.477,120.667 116.426 C 120.667 116.181,120.327 116.493,118.324 118.583 M159.848 164.642 C 159.774 164.763,160.152 164.895,160.690 164.936 C 161.227 164.977,161.667 164.951,161.667 164.877 C 161.667 164.636,159.987 164.418,159.848 164.642 M210.500 167.667 C 211.773 168.950,212.890 170.000,212.982 170.000 C 213.074 170.000,212.107 168.950,210.833 167.667 C 209.560 166.383,208.443 165.333,208.351 165.333 C 208.260 165.333,209.227 166.383,210.500 167.667 M166.095 169.167 C 166.098 170.083,166.163 170.419,166.239 169.912 C 166.316 169.405,166.314 168.655,166.235 168.245 C 166.156 167.835,166.093 168.250,166.095 169.167 M214.667 171.833 C 215.289 172.475,215.872 173.000,215.964 173.000 C 216.056 173.000,215.622 172.475,215.000 171.833 C 214.378 171.192,213.794 170.667,213.703 170.667 C 213.611 170.667,214.045 171.192,214.667 171.833 M254.319 172.083 C 255.137 172.954,255.849 173.667,255.903 173.667 C 256.153 173.667,255.888 173.367,254.417 171.986 L 252.833 170.500 254.319 172.083 M390.411 193.000 C 390.411 193.642,390.479 193.904,390.563 193.583 C 390.647 193.262,390.647 192.737,390.563 192.417 C 390.479 192.096,390.411 192.358,390.411 193.000 M9.095 195.167 C 9.098 196.083,9.163 196.419,9.239 195.912 C 9.316 195.405,9.314 194.655,9.235 194.245 C 9.156 193.835,9.093 194.250,9.095 195.167 M323.744 195.000 C 323.744 195.642,323.813 195.904,323.896 195.583 C 323.980 195.262,323.980 194.737,323.896 194.417 C 323.813 194.096,323.744 194.358,323.744 195.000 M75.796 199.833 C 75.797 202.217,75.850 203.148,75.914 201.903 C 75.978 200.658,75.978 198.708,75.913 197.569 C 75.848 196.431,75.796 197.450,75.796 199.833 M381.128 199.667 C 381.128 201.958,381.182 202.896,381.247 201.750 C 381.312 200.604,381.312 198.729,381.247 197.583 C 381.182 196.438,381.128 197.375,381.128 199.667 M315.440 198.333 C 315.440 199.525,315.501 200.012,315.574 199.417 C 315.648 198.821,315.648 197.846,315.574 197.250 C 315.501 196.654,315.440 197.142,315.440 198.333 M290.116 200.667 C 290.116 202.225,290.174 202.862,290.244 202.083 C 290.314 201.304,290.314 200.029,290.244 199.250 C 290.174 198.471,290.116 199.108,290.116 200.667 M315.437 202.833 C 315.438 203.933,315.501 204.343,315.575 203.744 C 315.649 203.145,315.648 202.245,315.572 201.744 C 315.495 201.243,315.435 201.733,315.437 202.833 M9.100 204.667 C 9.100 205.675,9.162 206.088,9.239 205.583 C 9.315 205.079,9.315 204.254,9.239 203.750 C 9.162 203.246,9.100 203.658,9.100 204.667 M323.744 204.667 C 323.744 205.308,323.813 205.571,323.896 205.250 C 323.980 204.929,323.980 204.404,323.896 204.083 C 323.813 203.762,323.744 204.025,323.744 204.667 M390.411 207.000 C 390.411 207.642,390.479 207.904,390.563 207.583 C 390.647 207.262,390.647 206.737,390.563 206.417 C 390.479 206.096,390.411 206.358,390.411 207.000 M246.767 209.667 C 246.767 210.675,246.829 211.088,246.905 210.583 C 246.982 210.079,246.982 209.254,246.905 208.750 C 246.829 208.246,246.767 208.658,246.767 209.667 M207.083 219.896 C 207.404 219.980,207.929 219.980,208.250 219.896 C 208.571 219.813,208.308 219.744,207.667 219.744 C 207.025 219.744,206.762 219.813,207.083 219.896 M238.146 228.750 L 237.167 229.833 238.250 228.854 C 238.846 228.316,239.333 227.828,239.333 227.771 C 239.333 227.513,239.058 227.740,238.146 228.750 M254.151 243.417 L 252.833 244.833 254.250 243.516 C 255.567 242.290,255.820 242.000,255.568 242.000 C 255.513 242.000,254.876 242.637,254.151 243.417 M137.333 265.438 C 137.333 265.495,137.821 265.983,138.417 266.521 L 139.500 267.500 138.521 266.417 C 137.608 265.407,137.333 265.180,137.333 265.438 M115.000 278.771 C 115.000 278.828,115.487 279.316,116.083 279.854 L 117.167 280.833 116.188 279.750 C 115.275 278.740,115.000 278.513,115.000 278.771 M310.652 312.852 C 310.291 313.286,310.349 313.487,311.015 314.102 L 311.809 314.833 311.192 314.090 C 310.686 313.481,310.651 313.254,310.995 312.840 C 311.226 312.561,311.340 312.333,311.248 312.333 C 311.157 312.333,310.888 312.567,310.652 312.852 M81.479 318.417 L 80.500 319.500 81.583 318.521 C 82.593 317.608,82.820 317.333,82.562 317.333 C 82.505 317.333,82.017 317.821,81.479 318.417 M303.000 321.104 C 303.000 321.162,303.487 321.649,304.083 322.188 L 305.167 323.167 304.188 322.083 C 303.275 321.074,303.000 320.847,303.000 321.104 M280.000 321.425 C 280.000 321.475,281.162 322.638,282.583 324.008 L 285.167 326.500 282.675 323.917 C 280.361 321.517,280.000 321.181,280.000 321.425 M204.083 323.896 C 204.404 323.980,204.929 323.980,205.250 323.896 C 205.571 323.813,205.308 323.744,204.667 323.744 C 204.025 323.744,203.762 323.813,204.083 323.896 M68.667 325.167 C 69.289 325.808,69.872 326.333,69.964 326.333 C 70.056 326.333,69.622 325.808,69.000 325.167 C 68.378 324.525,67.794 324.000,67.703 324.000 C 67.611 324.000,68.045 324.525,68.667 325.167 M330.484 325.417 L 329.167 326.833 330.583 325.516 C 331.901 324.290,332.153 324.000,331.901 324.000 C 331.847 324.000,331.209 324.637,330.484 325.417 M305.146 325.700 C 305.021 325.902,305.269 326.390,305.697 326.784 L 306.475 327.500 305.872 326.771 C 305.540 326.370,305.367 325.883,305.487 325.688 C 305.607 325.493,305.631 325.333,305.539 325.333 C 305.448 325.333,305.271 325.498,305.146 325.700 M325.333 330.500 C 324.524 331.325,323.936 332.000,324.028 332.000 C 324.120 332.000,324.857 331.325,325.667 330.500 C 326.476 329.675,327.064 329.000,326.972 329.000 C 326.880 329.000,326.143 329.675,325.333 330.500 M280.333 329.438 C 280.333 329.495,280.821 329.983,281.417 330.521 L 282.500 331.500 281.521 330.417 C 280.608 329.407,280.333 329.180,280.333 329.438 M73.667 330.104 C 73.667 330.162,74.154 330.649,74.750 331.188 L 75.833 332.167 74.854 331.083 C 73.942 330.074,73.667 329.847,73.667 330.104 M334.494 334.750 L 331.167 338.167 334.583 334.840 C 336.462 333.010,338.000 331.472,338.000 331.423 C 338.000 331.182,337.584 331.577,334.494 334.750 M156.487 338.417 L 154.833 340.167 156.583 338.513 C 157.546 337.603,158.333 336.815,158.333 336.763 C 158.333 336.514,158.025 336.791,156.487 338.417 M197.930 381.247 C 199.083 381.312,200.883 381.312,201.930 381.246 C 202.977 381.180,202.033 381.127,199.833 381.127 C 197.633 381.128,196.777 381.182,197.930 381.247 " stroke="none" fill="#da5a6f" fill-rule="evenodd"></path><path id="path3" d="M199.088 9.239 C 199.595 9.316,200.345 9.314,200.755 9.235 C 201.165 9.156,200.750 9.093,199.833 9.095 C 198.917 9.098,198.581 9.163,199.088 9.239 M195.250 18.577 C 196.029 18.648,197.304 18.648,198.083 18.577 C 198.862 18.507,198.225 18.450,196.667 18.450 C 195.108 18.450,194.471 18.507,195.250 18.577 M201.925 18.578 C 202.709 18.648,203.909 18.647,204.592 18.576 C 205.275 18.504,204.633 18.446,203.167 18.448 C 201.700 18.449,201.141 18.507,201.925 18.578 M201.250 49.569 C 201.662 49.648,202.338 49.648,202.750 49.569 C 203.162 49.489,202.825 49.424,202.000 49.424 C 201.175 49.424,200.838 49.489,201.250 49.569 M202.667 53.519 C 203.905 53.789,205.605 53.836,205.457 53.597 C 205.367 53.452,204.590 53.351,203.730 53.372 C 202.870 53.393,202.392 53.460,202.667 53.519 M284.156 56.750 L 282.167 58.833 284.250 56.844 C 285.396 55.750,286.333 54.812,286.333 54.760 C 286.333 54.514,286.004 54.815,284.156 56.750 M137.585 56.888 C 137.816 56.981,137.904 57.232,137.782 57.445 C 137.660 57.659,137.685 57.719,137.838 57.580 C 137.992 57.441,138.503 57.666,138.975 58.079 C 139.672 58.690,139.650 58.628,138.854 57.749 C 138.316 57.154,137.716 56.679,137.521 56.693 C 137.326 56.707,137.355 56.795,137.585 56.888 M191.801 59.414 L 191.833 60.833 193.333 60.870 L 194.833 60.907 193.435 60.768 C 192.080 60.634,192.032 60.590,191.902 59.313 L 191.768 57.995 191.801 59.414 M203.411 60.333 C 203.411 60.975,203.479 61.237,203.563 60.917 C 203.647 60.596,203.647 60.071,203.563 59.750 C 203.479 59.429,203.411 59.692,203.411 60.333 M68.146 62.083 L 67.167 63.167 68.250 62.188 C 69.260 61.275,69.487 61.000,69.229 61.000 C 69.172 61.000,68.684 61.487,68.146 62.083 M146.833 65.667 C 147.549 66.400,148.210 67.000,148.302 67.000 C 148.394 67.000,147.883 66.400,147.167 65.667 C 146.451 64.933,145.790 64.333,145.698 64.333 C 145.606 64.333,146.117 64.933,146.833 65.667 M61.982 68.250 L 60.833 69.500 62.083 68.351 C 63.247 67.282,63.487 67.000,63.232 67.000 C 63.176 67.000,62.614 67.563,61.982 68.250 M108.000 69.438 C 108.000 69.495,108.487 69.983,109.083 70.521 L 110.167 71.500 109.188 70.417 C 108.275 69.407,108.000 69.180,108.000 69.438 M268.946 71.507 C 267.908 72.511,267.163 73.333,267.291 73.333 C 267.418 73.333,268.338 72.508,269.333 71.500 C 271.674 69.130,271.397 69.135,268.946 71.507 M318.500 80.000 C 319.403 80.917,320.217 81.667,320.308 81.667 C 320.400 81.667,319.736 80.917,318.833 80.000 C 317.930 79.083,317.117 78.333,317.025 78.333 C 316.933 78.333,317.597 79.083,318.500 80.000 M287.333 112.167 C 288.329 113.175,289.219 114.000,289.311 114.000 C 289.402 114.000,288.662 113.175,287.667 112.167 C 286.671 111.158,285.781 110.333,285.689 110.333 C 285.598 110.333,286.338 111.158,287.333 112.167 M204.750 110.896 C 205.071 110.980,205.596 110.980,205.917 110.896 C 206.237 110.813,205.975 110.744,205.333 110.744 C 204.692 110.744,204.429 110.813,204.750 110.896 M281.500 118.667 C 282.958 120.133,284.226 121.333,284.318 121.333 C 284.409 121.333,283.291 120.133,281.833 118.667 C 280.375 117.200,279.107 116.000,279.016 116.000 C 278.924 116.000,280.042 117.200,281.500 118.667 M335.083 118.896 C 335.404 118.980,335.929 118.980,336.250 118.896 C 336.571 118.813,336.308 118.744,335.667 118.744 C 335.025 118.744,334.762 118.813,335.083 118.896 M263.333 136.833 C 264.514 138.025,265.556 139.000,265.647 139.000 C 265.739 139.000,264.848 138.025,263.667 136.833 C 262.486 135.642,261.444 134.667,261.353 134.667 C 261.261 134.667,262.152 135.642,263.333 136.833 M197.254 170.569 C 197.669 170.649,198.269 170.646,198.587 170.562 C 198.906 170.479,198.567 170.414,197.833 170.417 C 197.100 170.421,196.839 170.489,197.254 170.569 M183.083 185.905 C 183.588 185.982,184.412 185.982,184.917 185.905 C 185.421 185.829,185.008 185.767,184.000 185.767 C 182.992 185.767,182.579 185.829,183.083 185.905 M381.084 193.500 C 381.088 194.233,381.156 194.494,381.236 194.079 C 381.315 193.665,381.312 193.065,381.229 192.746 C 381.146 192.427,381.080 192.767,381.084 193.500 M18.445 196.333 C 18.445 197.708,18.504 198.271,18.576 197.583 C 18.648 196.896,18.648 195.771,18.576 195.083 C 18.504 194.396,18.445 194.958,18.445 196.333 M390.468 199.833 C 390.469 202.767,390.520 203.922,390.582 202.401 C 390.643 200.880,390.643 198.480,390.581 197.068 C 390.518 195.655,390.468 196.900,390.468 199.833 M323.781 199.833 C 323.782 201.300,323.841 201.859,323.911 201.075 C 323.982 200.291,323.981 199.091,323.909 198.408 C 323.837 197.725,323.780 198.367,323.781 199.833 M18.445 203.333 C 18.445 204.708,18.504 205.271,18.576 204.583 C 18.648 203.896,18.648 202.771,18.576 202.083 C 18.504 201.396,18.445 201.958,18.445 203.333 M381.084 206.167 C 381.088 206.900,381.156 207.161,381.236 206.746 C 381.315 206.331,381.312 205.731,381.229 205.413 C 381.146 205.094,381.080 205.433,381.084 206.167 M315.411 206.333 C 315.411 206.975,315.479 207.237,315.563 206.917 C 315.647 206.596,315.647 206.071,315.563 205.750 C 315.479 205.429,315.411 205.692,315.411 206.333 M234.411 228.667 C 234.411 229.308,234.479 229.571,234.563 229.250 C 234.647 228.929,234.647 228.404,234.563 228.083 C 234.479 227.762,234.411 228.025,234.411 228.667 M281.655 282.250 L 279.833 284.167 281.750 282.345 C 283.531 280.652,283.819 280.333,283.572 280.333 C 283.520 280.333,282.657 281.196,281.655 282.250 M287.333 287.500 C 285.968 288.875,284.925 290.000,285.017 290.000 C 285.108 290.000,286.301 288.875,287.667 287.500 C 289.032 286.125,290.075 285.000,289.983 285.000 C 289.892 285.000,288.699 286.125,287.333 287.500 M195.083 290.563 C 195.404 290.647,195.929 290.647,196.250 290.563 C 196.571 290.479,196.308 290.411,195.667 290.411 C 195.025 290.411,194.762 290.479,195.083 290.563 M72.750 306.563 C 73.071 306.647,73.596 306.647,73.917 306.563 C 74.237 306.479,73.975 306.411,73.333 306.411 C 72.692 306.411,72.429 306.479,72.750 306.563 M300.000 317.771 C 300.000 317.828,300.487 318.316,301.083 318.854 L 302.167 319.833 301.188 318.750 C 300.275 317.740,300.000 317.513,300.000 317.771 M198.261 323.913 C 199.230 323.980,200.730 323.980,201.595 323.911 C 202.459 323.843,201.667 323.788,199.833 323.788 C 198.000 323.789,197.293 323.845,198.261 323.913 M276.363 325.417 C 276.440 325.462,277.028 325.950,277.668 326.500 L 278.833 327.500 277.854 326.417 C 277.316 325.821,276.728 325.333,276.549 325.333 C 276.369 325.333,276.285 325.371,276.363 325.417 M118.411 326.667 C 118.411 327.308,118.479 327.571,118.563 327.250 C 118.647 326.929,118.647 326.404,118.563 326.083 C 118.479 325.762,118.411 326.025,118.411 326.667 M286.333 327.758 C 286.333 327.809,287.496 328.971,288.917 330.342 L 291.500 332.833 289.008 330.250 C 286.694 327.851,286.333 327.515,286.333 327.758 M152.667 342.167 C 151.857 342.992,151.270 343.667,151.361 343.667 C 151.453 343.667,152.190 342.992,153.000 342.167 C 153.810 341.342,154.397 340.667,154.305 340.667 C 154.214 340.667,153.476 341.342,152.667 342.167 M119.750 347.896 C 120.071 347.980,120.596 347.980,120.917 347.896 C 121.237 347.813,120.975 347.744,120.333 347.744 C 119.692 347.744,119.429 347.813,119.750 347.896 M150.315 349.583 L 149.167 350.833 150.379 349.721 C 151.245 348.926,151.643 348.736,151.770 349.054 C 151.890 349.355,151.956 349.311,151.974 348.917 C 152.014 348.033,151.580 348.207,150.315 349.583 M184.448 355.181 C 184.340 355.464,184.345 355.789,184.459 355.903 C 184.573 356.018,184.667 355.872,184.667 355.580 C 184.667 355.288,184.929 354.980,185.250 354.896 C 185.797 354.754,185.796 354.742,185.240 354.705 C 184.913 354.684,184.557 354.898,184.448 355.181 M189.000 363.087 C 189.000 363.379,188.737 363.686,188.417 363.770 C 187.870 363.913,187.871 363.925,188.427 363.961 C 189.030 364.001,189.588 363.144,189.208 362.763 C 189.094 362.649,189.000 362.795,189.000 363.087 M192.921 381.236 C 193.335 381.315,193.935 381.312,194.254 381.229 C 194.573 381.146,194.233 381.080,193.500 381.084 C 192.767 381.088,192.506 381.156,192.921 381.236 M205.587 381.236 C 206.002 381.315,206.602 381.312,206.921 381.229 C 207.239 381.146,206.900 381.080,206.167 381.084 C 205.433 381.088,205.173 381.156,205.587 381.236 M197.100 390.582 C 198.713 390.643,201.263 390.643,202.766 390.581 C 204.270 390.519,202.950 390.469,199.833 390.470 C 196.717 390.470,195.487 390.521,197.100 390.582 " stroke="none" fill="#e48494" fill-rule="evenodd"></path><path id="path4" d="M204.083 56.896 C 204.404 56.980,204.929 56.980,205.250 56.896 C 205.571 56.813,205.308 56.744,204.667 56.744 C 204.025 56.744,203.762 56.813,204.083 56.896 M306.000 70.833 C 305.190 71.658,304.603 72.333,304.695 72.333 C 304.786 72.333,305.524 71.658,306.333 70.833 C 307.143 70.008,307.730 69.333,307.639 69.333 C 307.547 69.333,306.810 70.008,306.000 70.833 M9.084 197.833 C 9.088 198.567,9.156 198.827,9.236 198.413 C 9.315 197.998,9.312 197.398,9.229 197.079 C 9.146 196.761,9.080 197.100,9.084 197.833 M18.417 199.833 C 18.421 200.567,18.489 200.827,18.569 200.413 C 18.649 199.998,18.646 199.398,18.562 199.079 C 18.479 198.761,18.414 199.100,18.417 199.833 M9.084 201.833 C 9.088 202.567,9.156 202.827,9.236 202.413 C 9.315 201.998,9.312 201.398,9.229 201.079 C 9.146 200.761,9.080 201.100,9.084 201.833 " stroke="none" fill="#e47a8c" fill-rule="evenodd"></path></g></svg>