<svg id="svg" version="1.1" xmlns="http://www.w3.org/2000/svg" xmlns:xlink="http://www.w3.org/1999/xlink" width="400" height="388.00000000000006" viewBox="0, 0, 400,388.00000000000006"><g id="svgg"><path id="path0" d="M33.792 47.266 C 33.945 47.513,43.848 69.827,44.882 72.254 C 45.338 73.324,45.184 73.261,35.312 68.323 C 26.763 64.046,25.314 63.417,25.515 64.069 C 27.940 71.935,41.632 103.043,45.747 110.034 C 51.902 120.491,65.334 130.161,80.833 135.293 C 88.666 137.887,92.347 138.515,109.466 140.179 C 133.411 142.506,144.427 143.642,145.333 143.876 C 146.611 144.205,148.109 145.306,103.333 113.007 C 80.142 96.277,60.942 82.364,60.667 82.089 C 59.986 81.408,55.358 78.910,115.167 111.505 C 175.980 144.647,170.826 141.876,170.568 141.284 C 170.461 141.036,169.657 139.242,168.783 137.298 L 167.194 133.762 162.680 130.812 C 125.998 106.839,100.197 90.036,48.393 56.381 C 34.434 47.312,33.435 46.689,33.792 47.266 M348.667 59.069 C 329.618 71.454,285.176 100.393,252.773 121.512 L 234.379 133.500 233.467 135.667 C 232.966 136.858,232.117 138.718,231.582 139.798 L 230.608 141.763 232.387 140.761 C 233.366 140.210,241.217 135.931,249.833 131.251 C 258.450 126.572,273.225 118.545,282.667 113.413 C 302.186 102.805,341.664 81.353,342.167 81.082 C 343.365 80.436,337.437 84.745,299.167 112.339 C 251.420 146.767,255.377 143.827,257.167 143.539 C 258.784 143.279,266.969 142.446,285.333 140.674 C 308.596 138.428,309.368 138.328,315.259 136.805 C 330.479 132.871,343.991 124.993,352.295 115.212 C 355.991 110.859,359.619 104.059,365.835 89.833 C 369.354 81.781,376.718 63.607,376.536 63.425 C 376.465 63.354,371.890 65.554,366.370 68.315 C 360.850 71.076,356.333 73.265,356.333 73.180 C 356.333 72.949,363.390 56.643,365.684 51.574 C 366.774 49.164,367.667 47.148,367.667 47.096 C 367.667 46.762,365.336 48.230,348.667 59.069 M218.028 127.838 C 217.438 130.475,215.570 134.006,213.724 135.971 L 212.133 137.667 213.611 137.667 C 219.494 137.667,221.739 133.368,219.023 127.302 L 218.440 125.999 218.028 127.838 M182.551 127.678 C 180.245 133.826,181.945 137.139,187.641 137.595 L 189.833 137.771 188.233 136.147 C 186.347 134.232,184.940 131.874,184.168 129.333 C 183.157 126.002,183.174 126.020,182.551 127.678 M124.667 177.109 C 124.667 184.997,124.414 184.667,130.438 184.667 L 134.667 184.667 134.667 182.500 L 134.667 180.333 133.206 180.333 C 132.025 180.333,131.711 180.461,131.570 181.000 C 131.428 181.545,131.115 181.667,129.865 181.667 L 128.333 181.667 128.333 177.833 L 128.333 174.000 129.844 174.000 C 130.879 174.000,131.415 174.157,131.546 174.500 C 131.676 174.839,132.208 175.000,133.202 175.000 L 134.667 175.000 134.667 173.000 L 134.667 171.000 129.667 171.000 L 124.667 171.000 124.667 177.109 M142.667 177.833 L 142.667 184.667 144.333 184.667 L 146.000 184.667 146.000 182.500 L 146.000 180.333 148.000 180.333 L 150.000 180.333 150.000 182.500 L 150.000 184.667 151.500 184.667 L 153.000 184.667 153.000 177.833 L 153.000 171.000 151.513 171.000 L 150.025 171.000 149.929 174.083 L 149.833 177.167 147.917 177.267 L 146.000 177.367 146.000 174.183 L 146.000 171.000 144.333 171.000 L 142.667 171.000 142.667 177.833 M161.000 177.667 L 161.000 184.333 162.667 184.333 L 164.333 184.333 164.333 182.167 L 164.333 180.000 166.333 180.000 L 168.333 180.000 168.333 182.167 L 168.333 184.333 170.000 184.333 L 171.667 184.333 171.667 178.391 C 171.667 170.648,171.957 171.000,165.562 171.000 L 161.000 171.000 161.000 177.667 M199.000 177.833 L 199.000 184.667 203.333 184.667 L 207.667 184.667 207.667 183.167 L 207.667 181.667 205.000 181.667 L 202.333 181.667 202.333 176.333 L 202.333 171.000 200.667 171.000 L 199.000 171.000 199.000 177.833 M214.333 176.898 L 214.333 182.797 215.229 183.732 L 216.125 184.667 220.729 184.667 L 225.333 184.667 225.333 178.712 C 225.333 170.636,225.626 171.000,219.142 171.000 L 214.333 171.000 214.333 176.898 M233.000 172.500 L 233.000 174.000 234.500 174.000 L 236.000 174.000 236.000 179.333 L 236.000 184.667 237.833 184.667 L 239.667 184.667 239.667 179.333 L 239.667 174.000 241.000 174.000 L 242.333 174.000 242.333 172.500 L 242.333 171.000 237.667 171.000 L 233.000 171.000 233.000 172.500 M249.667 172.500 L 249.667 174.000 251.167 174.000 L 252.667 174.000 252.667 179.333 L 252.667 184.667 254.500 184.667 L 256.333 184.667 256.333 179.333 L 256.333 174.000 257.667 174.000 L 259.000 174.000 259.000 172.500 L 259.000 171.000 254.333 171.000 L 249.667 171.000 249.667 172.500 M267.000 177.833 L 267.000 184.667 272.000 184.667 L 277.000 184.667 277.000 183.167 L 277.000 181.667 273.667 181.667 L 270.333 181.667 270.333 180.500 L 270.333 179.333 273.667 179.333 L 277.000 179.333 277.000 177.833 L 277.000 176.333 273.667 176.333 L 270.333 176.333 270.333 175.167 L 270.333 174.000 273.667 174.000 L 277.000 174.000 277.000 172.500 L 277.000 171.000 272.000 171.000 L 267.000 171.000 267.000 177.833 M179.667 178.000 L 179.667 184.667 181.333 184.667 L 183.000 184.667 183.000 182.333 L 183.000 180.000 184.417 180.005 L 185.833 180.010 186.833 182.333 L 187.833 184.657 189.588 184.662 L 191.343 184.667 190.338 182.676 C 189.202 180.425,189.122 180.000,189.833 180.000 C 190.248 180.000,190.333 179.358,190.333 176.218 C 190.333 171.171,190.531 171.333,184.390 171.333 L 179.667 171.333 179.667 178.000 M168.333 175.500 L 168.333 177.333 166.333 177.333 L 164.333 177.333 164.333 175.500 L 164.333 173.667 166.333 173.667 L 168.333 173.667 168.333 175.500 M187.333 175.333 L 187.333 176.667 185.167 176.667 L 183.000 176.667 183.000 175.333 L 183.000 174.000 185.167 174.000 L 187.333 174.000 187.333 175.333 M221.667 177.833 L 221.667 181.667 219.667 181.667 L 217.667 181.667 217.667 177.833 L 217.667 174.000 219.667 174.000 L 221.667 174.000 221.667 177.833 M78.667 198.658 L 78.667 212.650 74.766 214.526 L 70.864 216.401 74.760 218.450 L 78.655 220.500 78.661 231.750 L 78.667 243.000 79.417 242.995 C 79.829 242.992,81.805 242.692,83.806 242.328 C 85.808 241.964,87.569 241.667,87.719 241.667 C 87.868 241.667,88.030 236.757,88.079 230.757 L 88.167 219.848 93.500 217.646 L 98.833 215.444 98.921 227.593 L 99.008 239.742 99.754 239.546 C 100.164 239.439,102.263 239.165,104.417 238.938 L 108.333 238.525 108.333 211.596 L 108.333 184.667 103.667 184.667 L 99.000 184.667 98.994 194.417 L 98.989 204.167 93.578 206.389 L 88.167 208.612 88.079 196.639 L 87.992 184.667 83.329 184.667 L 78.667 184.667 78.667 198.658 M291.472 186.787 L 293.333 188.907 293.333 200.080 L 293.333 211.253 301.583 214.812 C 306.121 216.770,310.508 218.700,311.333 219.102 L 312.833 219.833 312.925 225.809 C 312.975 229.095,312.898 231.902,312.755 232.045 C 312.505 232.295,310.859 232.132,305.250 231.301 L 302.667 230.919 302.667 228.959 C 302.667 227.882,302.629 226.994,302.583 226.987 C 302.537 226.980,300.438 226.707,297.917 226.381 L 293.333 225.788 293.333 232.054 C 293.333 238.287,293.337 238.321,294.083 238.467 C 294.496 238.548,297.983 239.012,301.833 239.498 C 308.335 240.319,320.079 242.142,321.417 242.539 C 321.964 242.701,322.000 242.018,322.000 231.433 L 322.000 220.155 326.354 217.985 L 330.708 215.816 326.104 213.766 C 320.841 211.422,311.071 207.363,306.167 205.483 C 301.587 203.726,301.969 204.391,302.075 198.369 L 302.167 193.167 307.250 193.075 L 312.333 192.983 312.333 194.991 L 312.333 197.000 317.167 197.000 L 322.000 197.000 322.000 190.833 L 322.000 184.667 305.805 184.667 L 289.610 184.667 291.472 186.787 M149.390 193.250 C 149.662 193.571,150.510 194.593,151.275 195.521 L 152.667 197.210 152.667 215.771 L 152.667 234.333 154.783 234.333 C 155.947 234.333,158.047 234.236,159.450 234.118 L 162.000 233.902 162.000 226.831 L 162.000 219.760 163.750 219.549 C 169.468 218.863,168.804 218.234,172.140 227.500 L 174.180 233.167 178.922 233.259 L 183.664 233.352 182.962 231.592 C 181.558 228.073,178.667 219.906,178.667 219.459 C 178.667 219.130,179.140 219.000,180.333 219.000 L 182.000 219.000 182.000 207.907 L 182.000 196.814 179.908 194.740 L 177.815 192.667 163.356 192.667 C 149.619 192.667,148.921 192.696,149.390 193.250 M112.333 193.181 C 112.333 193.281,113.083 194.264,114.000 195.365 L 115.667 197.368 115.667 215.066 L 115.667 232.765 116.917 234.256 C 117.604 235.076,118.403 236.043,118.692 236.405 C 119.209 237.053,119.313 237.055,124.859 236.534 C 130.202 236.031,143.495 235.008,144.750 235.003 C 145.299 235.000,145.333 233.884,145.333 216.241 L 145.333 197.482 143.075 195.241 L 140.817 193.000 126.575 193.000 C 118.742 193.000,112.333 193.082,112.333 193.181 M186.000 193.191 C 186.000 193.296,186.825 194.355,187.833 195.544 L 189.667 197.705 189.667 215.686 L 189.667 233.667 194.333 233.667 L 199.000 233.667 199.000 217.658 L 199.000 201.650 204.417 201.742 L 209.833 201.833 209.920 217.583 L 210.007 233.333 213.795 233.333 C 215.879 233.333,218.052 233.427,218.625 233.542 L 219.667 233.750 219.667 215.616 L 219.667 197.482 217.408 195.241 L 215.150 193.000 200.575 193.000 C 192.559 193.000,186.000 193.086,186.000 193.191 M261.000 197.333 L 261.000 201.667 264.997 201.667 L 268.994 201.667 269.080 218.750 L 269.167 235.833 273.333 236.225 C 275.625 236.440,277.912 236.677,278.417 236.751 L 279.333 236.885 279.333 219.276 L 279.333 201.667 283.500 201.667 L 287.667 201.667 287.667 197.333 L 287.667 193.000 274.333 193.000 L 261.000 193.000 261.000 197.333 M225.303 195.493 L 227.000 197.652 227.000 215.783 L 227.000 233.913 228.250 234.119 C 228.938 234.233,231.075 234.332,233.000 234.340 C 234.925 234.348,238.900 234.495,241.833 234.668 C 244.767 234.840,249.079 235.083,251.417 235.207 L 255.667 235.433 255.667 230.732 L 255.667 226.030 254.583 225.866 C 253.987 225.775,249.787 225.521,245.250 225.300 L 237.000 224.899 237.000 221.568 L 237.000 218.236 244.917 218.469 C 249.271 218.598,253.396 218.789,254.083 218.894 L 255.333 219.085 255.333 214.425 L 255.333 209.765 252.583 209.551 C 251.071 209.434,246.946 209.336,243.417 209.335 L 237.000 209.333 237.000 205.667 L 237.000 202.000 246.167 202.000 L 255.333 202.000 255.333 197.667 L 255.333 193.333 239.470 193.333 L 223.606 193.333 225.303 195.493 M135.667 213.957 L 135.667 226.247 132.583 226.467 C 130.887 226.588,128.487 226.776,127.250 226.886 L 125.000 227.086 125.000 214.376 L 125.000 201.667 130.333 201.667 L 135.667 201.667 135.667 213.957 M172.667 206.000 L 172.667 210.333 167.333 210.333 L 162.000 210.333 162.000 206.000 L 162.000 201.667 167.333 201.667 L 172.667 201.667 172.667 206.000 M196.614 300.307 C 195.208 300.760,193.667 301.771,193.667 302.242 C 193.667 302.933,200.404 329.808,200.646 330.083 C 201.049 330.540,207.469 302.623,207.097 302.032 C 206.063 300.387,199.647 299.331,196.614 300.307 " stroke="none" fill="#e1e1e1" fill-rule="evenodd"></path><path id="path1" d="M13.878 13.100 C 15.374 19.576,20.095 36.320,23.294 46.497 C 24.388 49.979,25.247 52.864,25.203 52.908 C 25.158 52.953,21.473 51.188,17.014 48.986 C 12.554 46.785,8.853 45.036,8.789 45.099 C 8.531 45.358,16.042 65.559,19.904 74.990 C 27.739 94.120,37.783 114.827,42.759 122.103 C 49.831 132.446,63.660 142.334,77.876 147.213 L 81.585 148.486 82.517 150.659 C 86.629 160.253,90.281 166.645,95.500 173.383 C 96.967 175.277,98.217 176.940,98.278 177.080 C 98.339 177.219,92.076 177.333,84.361 177.333 L 70.333 177.333 70.333 192.492 L 70.333 207.651 69.583 208.124 C 69.171 208.385,65.458 210.213,61.333 212.188 C 57.208 214.163,53.730 215.866,53.604 215.973 C 53.478 216.079,57.190 218.167,61.854 220.611 L 70.333 225.055 70.333 238.668 L 70.333 252.281 79.417 257.890 C 87.364 262.799,88.667 263.496,89.833 263.470 C 90.567 263.453,94.842 262.973,99.333 262.404 C 103.825 261.834,109.182 261.199,111.237 260.992 L 114.974 260.615 151.244 281.499 L 187.514 302.383 193.971 331.941 C 197.522 348.199,200.519 361.672,200.630 361.882 C 200.742 362.093,203.822 348.794,207.474 332.329 L 214.114 302.393 250.411 281.495 L 286.707 260.597 292.937 261.314 C 296.363 261.708,302.211 262.409,305.932 262.872 L 312.697 263.714 322.009 257.940 L 331.321 252.167 331.411 238.535 L 331.500 224.904 339.488 220.781 C 343.881 218.513,347.597 216.537,347.745 216.388 C 347.893 216.240,344.261 214.282,339.674 212.037 L 331.333 207.954 331.333 192.644 L 331.333 177.333 317.167 177.333 C 309.375 177.333,303.000 177.207,303.000 177.052 C 303.000 176.897,303.319 176.484,303.709 176.135 C 307.559 172.684,313.494 162.893,318.753 151.313 L 319.898 148.794 323.532 147.525 C 338.858 142.177,352.300 132.114,360.081 120.167 C 362.572 116.340,373.041 95.310,377.005 86.167 C 382.328 73.889,393.254 45.810,392.862 45.417 C 392.809 45.365,389.069 47.116,384.550 49.309 C 380.031 51.502,376.333 53.247,376.333 53.188 C 376.333 53.128,377.167 50.399,378.186 47.123 C 380.539 39.553,384.119 27.035,386.322 18.667 C 387.264 15.092,388.100 11.971,388.180 11.732 C 388.405 11.062,361.910 29.013,339.192 44.922 C 306.329 67.937,273.206 92.325,250.249 110.409 C 243.031 116.095,243.986 115.761,240.654 113.764 L 238.036 112.195 238.233 108.969 C 238.572 103.397,236.332 100.660,229.538 98.349 L 227.909 97.796 233.538 93.625 C 236.634 91.331,240.994 88.151,243.227 86.557 C 247.592 83.443,249.535 81.470,250.837 78.833 C 251.649 77.189,252.317 74.000,251.851 74.000 C 251.718 74.000,244.938 78.970,236.783 85.045 L 221.956 96.090 219.561 95.398 C 207.754 91.986,194.034 91.912,182.425 95.198 L 179.350 96.069 164.536 85.034 C 156.389 78.966,149.615 74.000,149.483 74.000 C 148.942 74.000,149.736 77.203,150.748 79.103 C 152.249 81.920,154.417 83.997,159.667 87.646 C 166.992 92.739,173.318 97.478,173.222 97.802 C 173.173 97.968,172.540 98.281,171.816 98.497 C 165.682 100.334,163.333 103.191,163.333 108.816 L 163.333 112.326 160.639 113.681 C 158.899 114.555,157.807 114.929,157.555 114.735 C 157.342 114.569,154.392 112.270,151.000 109.625 C 114.942 81.504,62.293 43.693,17.950 14.072 L 13.400 11.033 13.878 13.100 M370.145 39.707 C 368.929 43.076,367.932 46.058,367.929 46.333 C 367.927 46.608,366.009 51.183,363.667 56.500 C 359.001 67.092,356.667 72.532,356.667 72.817 C 356.667 72.919,361.183 70.743,366.703 67.982 C 372.223 65.221,376.792 63.014,376.856 63.079 C 377.300 63.523,364.856 92.949,360.326 102.167 C 352.803 117.476,343.574 126.107,327.543 132.823 C 316.403 137.490,312.728 138.174,283.576 141.007 C 270.334 142.294,258.622 143.503,257.549 143.694 C 256.476 143.886,255.542 143.987,255.475 143.920 C 255.408 143.852,274.323 130.098,297.510 113.354 C 320.696 96.610,339.667 82.852,339.667 82.780 C 339.667 82.585,341.370 81.665,284.215 112.739 C 254.909 128.672,230.875 141.653,230.807 141.585 C 230.739 141.517,231.431 139.787,232.345 137.739 C 233.258 135.692,233.974 133.901,233.935 133.759 C 233.456 132.020,236.472 129.368,256.834 113.622 C 282.958 93.419,311.192 73.141,337.500 55.684 C 351.134 46.638,372.003 33.326,372.262 33.512 C 372.315 33.549,371.362 36.337,370.145 39.707 M35.476 37.652 C 75.045 61.986,118.775 92.858,157.870 124.057 L 166.574 131.002 167.309 133.251 C 167.713 134.488,168.710 136.911,169.525 138.635 C 170.340 140.360,170.956 141.822,170.894 141.884 C 170.810 141.968,80.594 92.938,63.333 83.429 C 62.142 82.772,61.242 82.318,61.333 82.419 C 61.425 82.520,80.550 96.361,103.833 113.176 C 127.117 129.991,146.229 143.806,146.306 143.875 C 146.695 144.226,145.907 144.203,143.333 143.789 C 141.775 143.538,130.300 142.358,117.833 141.167 C 87.498 138.269,82.332 137.167,69.833 130.925 C 55.913 123.974,48.706 116.744,41.833 102.833 C 37.524 94.113,25.000 64.614,25.000 63.185 C 25.000 63.082,29.496 65.247,34.990 67.995 C 43.134 72.069,44.926 72.855,44.686 72.246 C 44.524 71.836,41.670 65.350,38.344 57.833 C 33.251 46.323,28.275 33.667,28.842 33.667 C 28.927 33.667,31.912 35.460,35.476 37.652 M206.346 99.480 C 208.764 99.640,213.623 100.512,213.957 100.846 C 214.046 100.935,213.791 101.590,213.391 102.303 C 211.511 105.647,209.976 111.885,210.020 116.000 L 210.036 117.500 210.626 115.657 C 212.067 111.155,215.458 106.641,219.352 104.041 L 221.348 102.708 223.257 103.357 C 224.307 103.715,225.376 104.084,225.633 104.179 C 225.921 104.285,225.350 104.799,224.133 105.528 C 218.511 108.895,215.552 113.629,213.367 122.756 C 211.656 129.900,209.590 133.893,206.465 136.096 C 205.286 136.927,205.007 137.300,205.167 137.827 C 207.132 144.300,203.919 159.667,200.601 159.667 C 195.731 159.667,183.345 148.516,178.190 139.492 C 176.258 136.109,176.255 136.117,178.845 137.853 C 184.128 141.396,189.759 141.586,194.633 138.385 L 196.432 137.203 195.633 136.700 C 192.231 134.561,189.941 130.254,187.950 122.254 C 185.783 113.546,182.097 107.943,176.723 105.187 C 175.667 104.646,175.328 104.328,175.667 104.200 C 179.667 102.688,180.046 102.689,182.338 104.228 C 186.064 106.731,188.916 110.434,190.543 114.884 L 191.378 117.167 191.200 113.833 C 190.991 109.933,190.087 106.404,188.482 103.223 C 187.850 101.971,187.333 100.899,187.333 100.841 C 187.333 100.258,198.898 99.009,202.333 99.221 C 203.158 99.272,204.964 99.388,206.346 99.480 M219.636 128.573 C 221.528 134.194,219.583 137.313,213.833 137.878 L 211.500 138.107 213.427 136.023 C 216.035 133.204,217.144 130.972,218.159 126.505 C 218.431 125.307,218.631 125.586,219.636 128.573 M183.937 127.954 C 184.509 130.726,186.089 133.681,188.180 135.892 C 190.346 138.183,190.321 138.227,187.115 137.765 C 181.744 136.991,180.134 133.683,182.321 127.917 C 183.231 125.517,183.435 125.522,183.937 127.954 M306.164 154.310 C 301.912 162.623,295.665 170.592,288.593 176.728 L 286.685 178.383 288.156 175.275 C 290.062 171.246,291.562 166.728,292.361 162.607 C 293.232 158.114,293.192 157.974,291.680 160.212 C 290.953 161.287,289.996 162.612,289.552 163.157 L 288.745 164.147 282.956 163.577 C 273.793 162.674,268.796 162.318,259.333 161.894 L 250.500 161.499 255.833 160.717 C 275.912 157.776,296.160 153.904,304.667 151.379 C 308.561 150.223,308.408 149.923,306.164 154.310 M96.000 151.342 C 103.382 153.624,125.027 157.779,144.811 160.713 C 150.594 161.570,150.643 161.889,145.000 161.962 C 140.713 162.018,127.116 162.868,120.167 163.515 C 117.050 163.805,113.996 164.071,113.380 164.105 C 112.331 164.163,112.125 163.979,110.102 161.178 C 108.010 158.281,107.949 158.229,108.162 159.511 C 109.249 166.064,110.045 168.621,112.854 174.583 C 115.035 179.214,114.990 179.213,110.059 174.489 C 103.158 167.877,95.032 156.547,93.511 151.417 C 93.241 150.505,93.290 150.504,96.000 151.342 M134.932 172.917 L 134.833 175.167 133.083 175.267 C 131.681 175.348,131.333 175.266,131.333 174.851 C 131.333 174.460,130.967 174.333,129.833 174.333 L 128.333 174.333 128.333 178.000 L 128.333 181.667 129.833 181.667 C 131.219 181.667,131.333 181.602,131.333 180.816 C 131.333 179.999,131.403 179.969,133.083 180.066 L 134.833 180.167 134.833 182.500 L 134.833 184.833 130.694 184.927 L 126.554 185.021 125.444 183.945 L 124.333 182.869 124.333 176.990 C 124.333 173.757,124.433 171.011,124.556 170.889 C 124.678 170.767,127.085 170.667,129.904 170.667 L 135.030 170.667 134.932 172.917 M146.000 173.833 L 146.000 177.000 147.833 177.000 L 149.667 177.000 149.667 173.833 L 149.667 170.667 151.507 170.667 L 153.347 170.667 153.257 177.750 L 153.167 184.833 151.500 184.833 L 149.833 184.833 149.735 182.583 L 149.636 180.333 147.818 180.333 L 146.000 180.333 146.000 182.684 L 146.000 185.035 144.250 184.934 L 142.500 184.833 142.409 178.176 C 142.302 170.259,142.198 170.667,144.323 170.667 L 146.000 170.667 146.000 173.833 M170.771 171.602 L 171.667 172.536 171.667 178.602 L 171.667 184.667 170.000 184.667 L 168.333 184.667 168.333 182.333 L 168.333 180.000 166.333 180.000 L 164.333 180.000 164.333 182.333 L 164.333 184.667 162.500 184.667 L 160.667 184.667 160.667 177.667 L 160.667 170.667 165.271 170.667 L 169.875 170.667 170.771 171.602 M202.667 176.167 L 202.667 181.667 205.167 181.667 L 207.667 181.667 207.667 183.333 L 207.667 185.000 203.333 185.000 L 199.000 185.000 199.000 177.833 L 199.000 170.667 200.833 170.667 L 202.667 170.667 202.667 176.167 M224.445 171.610 L 225.349 172.553 225.258 178.693 L 225.167 184.833 220.695 184.927 C 216.229 185.020,216.223 185.019,215.279 184.114 L 214.333 183.209 214.333 176.938 L 214.333 170.667 218.938 170.667 L 223.542 170.667 224.445 171.610 M242.667 172.295 L 242.667 173.924 241.167 174.149 L 239.667 174.374 239.667 179.704 L 239.667 185.033 237.750 184.933 L 235.833 184.833 235.742 179.583 L 235.650 174.333 234.158 174.333 L 232.667 174.333 232.667 172.500 L 232.667 170.667 237.667 170.667 L 242.667 170.667 242.667 172.295 M259.000 172.291 L 259.000 173.915 257.667 174.128 L 256.333 174.341 256.333 179.671 L 256.333 185.000 254.500 185.000 L 252.667 185.000 252.667 179.667 L 252.667 174.333 251.000 174.333 L 249.333 174.333 249.333 172.500 L 249.333 170.667 254.167 170.667 L 259.000 170.667 259.000 172.291 M277.333 172.500 L 277.333 174.333 273.833 174.333 C 270.335 174.333,270.333 174.334,270.333 175.155 C 270.333 175.969,270.366 175.978,273.750 176.072 L 277.167 176.167 277.267 177.917 L 277.368 179.667 273.851 179.667 L 270.333 179.667 270.333 180.667 L 270.333 181.667 273.852 181.667 L 277.370 181.667 277.268 183.250 L 277.167 184.833 272.083 184.925 L 267.000 185.017 267.000 177.842 L 267.000 170.667 272.167 170.667 L 277.333 170.667 277.333 172.500 M189.771 171.935 C 190.995 173.212,191.180 179.872,189.998 180.060 C 189.355 180.162,189.368 180.251,190.331 182.280 C 191.637 185.033,191.632 185.052,189.586 184.934 L 187.839 184.833 186.692 182.417 C 185.608 180.133,185.485 180.000,184.439 180.000 L 183.333 180.000 183.333 182.500 L 183.333 185.000 181.500 185.000 L 179.667 185.000 179.667 178.000 L 179.667 171.000 184.271 171.000 L 188.875 171.000 189.771 171.935 M164.333 175.500 L 164.333 177.000 166.333 177.000 L 168.333 177.000 168.333 175.500 L 168.333 174.000 166.333 174.000 L 164.333 174.000 164.333 175.500 M183.333 175.333 L 183.333 176.667 185.167 176.667 L 187.000 176.667 187.000 175.333 L 187.000 174.000 185.167 174.000 L 183.333 174.000 183.333 175.333 M218.000 177.833 L 218.000 181.667 219.833 181.667 L 221.667 181.667 221.667 177.833 L 221.667 174.000 219.833 174.000 L 218.000 174.000 218.000 177.833 M322.000 190.667 L 322.000 197.000 317.167 197.000 L 312.333 197.000 312.333 195.167 L 312.333 193.333 307.333 193.333 L 302.333 193.333 302.333 198.584 L 302.333 203.835 306.583 205.468 C 314.702 208.586,329.823 215.045,330.459 215.666 C 330.624 215.827,328.818 216.922,326.324 218.171 L 321.895 220.391 322.125 231.529 C 322.321 240.984,322.285 242.667,321.887 242.667 C 321.629 242.667,318.362 242.155,314.626 241.529 C 310.890 240.903,304.683 239.997,300.833 239.515 C 296.983 239.034,293.646 238.575,293.417 238.497 C 292.952 238.338,292.787 225.671,293.250 225.662 C 293.387 225.659,295.563 225.909,298.083 226.217 L 302.667 226.777 302.667 228.699 C 302.667 230.242,302.782 230.656,303.250 230.796 C 303.992 231.018,311.139 232.000,312.011 232.000 C 312.639 232.000,312.667 231.742,312.667 225.896 L 312.667 219.792 302.917 215.584 L 293.167 211.375 293.000 199.870 L 292.833 188.365 291.656 187.099 C 291.008 186.403,290.197 185.496,289.854 185.083 L 289.230 184.333 305.615 184.333 L 322.000 184.333 322.000 190.667 M88.333 196.500 C 88.333 203.008,88.372 208.333,88.420 208.333 C 88.468 208.333,90.756 207.390,93.504 206.237 L 98.500 204.140 98.588 194.403 L 98.677 184.667 103.505 184.667 L 108.333 184.667 108.333 211.616 L 108.333 238.565 104.204 239.116 C 101.933 239.419,99.760 239.667,99.375 239.667 C 98.678 239.667,98.675 239.608,98.587 227.702 L 98.500 215.737 93.500 217.817 L 88.500 219.897 88.412 230.776 L 88.324 241.656 87.579 241.820 C 86.420 242.074,79.222 243.333,78.928 243.333 C 78.784 243.333,78.667 238.247,78.667 232.030 L 78.667 220.726 74.964 218.764 C 70.392 216.342,70.394 216.544,74.916 214.333 L 78.665 212.500 78.666 198.583 L 78.667 184.667 83.500 184.667 L 88.333 184.667 88.333 196.500 M180.075 194.908 L 182.333 197.149 182.333 208.241 L 182.333 219.333 180.500 219.333 C 179.492 219.333,178.667 219.371,178.668 219.417 C 178.668 219.463,179.789 222.566,181.159 226.314 C 182.528 230.062,183.606 233.171,183.555 233.223 C 183.503 233.275,181.369 233.413,178.813 233.530 L 174.167 233.743 172.106 227.955 C 170.972 224.771,169.807 221.604,169.518 220.917 L 168.991 219.667 165.662 219.667 L 162.333 219.667 162.333 226.844 C 162.333 232.294,162.233 234.052,161.917 234.151 C 161.688 234.223,159.512 234.351,157.083 234.436 L 152.667 234.589 152.667 215.980 L 152.667 197.371 150.833 195.210 C 149.825 194.022,149.000 192.963,149.000 192.858 C 149.000 192.753,155.484 192.667,163.408 192.667 L 177.817 192.667 180.075 194.908 M143.408 195.241 L 145.667 197.482 145.667 216.235 L 145.667 234.987 144.917 235.131 C 144.504 235.210,140.492 235.523,136.000 235.826 C 131.508 236.129,125.886 236.582,123.506 236.833 C 121.126 237.084,119.166 237.262,119.151 237.228 C 119.136 237.194,118.271 236.146,117.229 234.898 L 115.333 232.629 115.333 214.945 L 115.333 197.261 113.638 195.131 L 111.943 193.000 126.546 193.000 L 141.150 193.000 143.408 195.241 M217.779 195.301 L 220.000 197.602 220.000 215.643 L 220.000 233.684 214.917 233.592 L 209.833 233.500 209.747 217.750 L 209.660 202.000 204.285 202.000 L 198.910 202.000 199.064 217.833 L 199.218 233.667 194.276 233.667 L 189.333 233.667 189.333 215.619 L 189.333 197.572 187.911 195.869 C 187.129 194.933,186.286 193.904,186.037 193.583 C 185.608 193.030,186.349 193.000,200.571 193.000 L 215.557 193.000 217.779 195.301 M287.926 197.417 L 287.833 201.833 283.750 201.927 L 279.667 202.021 279.667 219.556 L 279.667 237.091 278.193 236.889 C 277.383 236.778,275.470 236.599,273.943 236.493 C 272.416 236.386,270.679 236.225,270.083 236.134 L 269.000 235.970 269.000 218.995 L 269.000 202.021 264.917 201.927 L 260.833 201.833 260.740 197.417 L 260.647 193.000 274.333 193.000 L 288.019 193.000 287.926 197.417 M255.593 197.750 L 255.500 202.167 246.250 202.255 L 237.000 202.344 237.000 205.672 L 237.000 209.000 239.250 209.047 C 240.487 209.072,244.650 209.185,248.500 209.297 L 255.500 209.500 255.593 214.295 L 255.686 219.090 250.426 218.873 C 247.533 218.753,243.329 218.562,241.083 218.449 L 237.000 218.243 237.000 221.455 C 237.000 223.221,237.037 224.671,237.083 224.676 C 237.944 224.770,253.526 225.654,254.417 225.659 L 255.667 225.667 255.667 230.667 C 255.667 233.417,255.554 235.664,255.417 235.661 C 255.279 235.659,251.717 235.442,247.500 235.181 C 243.283 234.920,236.946 234.600,233.417 234.471 L 227.000 234.236 227.000 216.079 L 227.000 197.923 225.333 195.802 C 224.417 194.635,223.667 193.603,223.667 193.507 C 223.667 193.412,230.871 193.333,239.676 193.333 L 255.686 193.333 255.593 197.750 M125.000 214.417 L 124.999 226.833 129.583 226.562 C 132.104 226.412,134.504 226.222,134.917 226.139 L 135.667 225.987 135.667 213.994 L 135.667 202.000 130.333 202.000 L 125.000 202.000 125.000 214.417 M162.000 206.215 L 162.000 210.430 164.250 210.217 C 165.487 210.100,167.887 210.004,169.583 210.002 L 172.667 210.000 172.667 206.000 L 172.667 202.000 167.333 202.000 L 162.000 202.000 162.000 206.215 M139.710 255.003 L 157.254 265.167 158.544 267.167 C 159.253 268.267,160.634 270.116,161.613 271.275 C 162.592 272.435,163.342 273.426,163.280 273.478 C 163.218 273.530,152.266 267.256,138.942 259.536 C 125.619 251.816,114.819 245.464,114.942 245.421 C 115.574 245.197,119.986 244.732,121.000 244.781 C 121.865 244.824,126.708 247.469,139.710 255.003 M285.653 245.294 C 286.655 245.507,286.532 245.580,243.542 270.430 C 240.437 272.225,238.105 273.425,238.360 273.096 C 238.614 272.768,239.473 271.759,240.268 270.854 C 241.063 269.949,242.252 268.298,242.911 267.185 L 244.108 265.162 255.620 258.498 C 261.952 254.832,269.916 250.216,273.317 248.239 L 279.500 244.644 282.091 244.866 C 283.517 244.988,285.120 245.180,285.653 245.294 M197.673 246.917 C 197.698 249.113,199.980 278.758,200.137 278.915 C 200.245 279.023,200.332 278.749,200.330 278.306 C 200.324 276.865,202.729 246.504,202.860 246.367 C 203.473 245.729,224.428 248.317,225.243 249.132 C 225.305 249.194,222.574 251.913,219.174 255.173 C 208.089 265.802,207.548 272.757,217.396 278.007 C 218.888 278.802,219.292 279.159,218.955 279.385 C 216.674 280.912,213.209 282.715,210.035 284.027 L 206.218 285.604 208.111 285.841 C 209.153 285.971,210.968 286.016,212.146 285.941 C 213.570 285.850,214.223 285.921,214.094 286.152 C 213.988 286.344,213.068 287.850,212.049 289.500 C 211.031 291.150,210.176 292.539,210.150 292.588 C 210.124 292.636,209.277 292.310,208.269 291.864 C 204.056 290.001,198.236 289.843,193.667 291.468 C 192.292 291.957,190.941 292.435,190.664 292.530 C 190.317 292.649,189.782 292.053,188.931 290.601 C 188.253 289.445,187.309 287.864,186.833 287.087 L 185.966 285.673 187.900 285.851 C 188.963 285.948,190.779 285.909,191.936 285.764 L 194.038 285.500 190.936 284.215 C 189.229 283.508,186.308 282.093,184.445 281.071 L 181.056 279.211 183.490 277.786 C 188.056 275.113,189.832 272.220,189.601 267.828 C 189.352 263.077,188.534 261.915,179.521 253.503 L 174.881 249.172 177.357 248.595 C 184.852 246.849,197.661 245.791,197.673 246.917 M179.287 257.388 C 182.108 260.543,184.613 264.165,184.236 264.542 C 183.912 264.866,176.669 262.701,173.384 261.299 C 169.130 259.484,162.726 255.475,162.679 254.598 C 162.661 254.249,166.994 251.784,169.579 250.674 L 171.833 249.706 174.121 251.936 C 175.379 253.163,177.704 255.616,179.287 257.388 M231.927 250.883 C 234.383 251.866,237.680 253.713,238.290 254.448 C 239.474 255.875,229.346 261.546,221.796 263.684 C 216.316 265.235,216.380 265.255,218.040 262.537 C 219.773 259.700,228.572 250.000,229.413 250.000 C 229.581 250.000,230.713 250.397,231.927 250.883 M167.532 262.907 C 171.292 265.459,176.936 267.986,181.932 269.355 C 183.436 269.767,184.667 270.216,184.667 270.351 C 184.667 271.258,179.758 274.248,177.301 274.839 C 175.148 275.356,167.444 267.455,163.969 261.167 L 162.864 259.167 164.214 260.369 C 164.956 261.031,166.449 262.173,167.532 262.907 M237.319 261.577 C 233.972 267.508,226.143 275.357,224.085 274.845 C 221.668 274.244,216.665 271.234,216.667 270.382 C 216.668 270.264,217.875 269.882,219.349 269.534 C 225.070 268.185,232.207 264.742,236.109 261.448 C 237.241 260.493,238.218 259.701,238.282 259.689 C 238.345 259.677,237.912 260.526,237.319 261.577 M205.431 300.603 C 207.964 301.726,208.036 300.723,204.278 316.623 C 202.409 324.530,200.795 330.997,200.690 330.994 C 200.586 330.991,198.938 324.654,197.030 316.911 C 195.121 309.168,193.500 302.603,193.426 302.323 C 192.880 300.224,201.721 298.958,205.431 300.603 " stroke="none" fill="#140c64" fill-rule="evenodd"></path><path id="path2" d="M368.167 35.935 C 326.383 61.965,282.709 92.878,242.458 124.913 C 236.117 129.959,234.659 131.276,234.245 132.332 L 233.741 133.615 235.287 132.648 C 236.137 132.117,239.458 129.965,242.667 127.866 C 245.875 125.767,250.300 122.886,252.500 121.462 C 254.700 120.039,266.100 112.618,277.833 104.972 C 289.567 97.325,311.129 83.291,325.749 73.784 C 340.370 64.278,355.784 54.250,360.004 51.500 L 367.676 46.500 368.371 44.667 C 369.714 41.128,372.345 33.568,372.257 33.506 C 372.207 33.471,370.367 34.565,368.167 35.935 M30.365 38.559 C 33.321 47.232,30.682 44.775,51.589 58.315 C 74.483 73.141,114.946 99.468,144.500 118.766 C 156.967 126.907,167.200 133.543,167.241 133.515 C 170.019 131.562,111.322 87.245,67.000 57.833 C 53.802 49.075,29.476 33.667,28.846 33.667 C 28.764 33.667,29.447 35.868,30.365 38.559 M197.167 99.354 C 193.945 99.552,187.333 100.552,187.333 100.841 C 187.333 100.899,187.850 101.971,188.482 103.223 C 190.087 106.404,190.991 109.933,191.200 113.833 L 191.378 117.167 190.543 114.884 C 188.916 110.434,186.064 106.731,182.338 104.228 C 180.046 102.689,179.667 102.688,175.667 104.200 C 175.328 104.328,175.667 104.646,176.723 105.187 C 182.097 107.943,185.783 113.546,187.950 122.254 C 189.941 130.254,192.231 134.561,195.633 136.700 L 196.432 137.203 194.633 138.385 C 189.759 141.586,184.128 141.396,178.845 137.853 C 176.255 136.117,176.258 136.109,178.190 139.492 C 183.345 148.516,195.731 159.667,200.601 159.667 C 203.919 159.667,207.132 144.300,205.167 137.827 C 205.007 137.300,205.286 136.927,206.465 136.096 C 209.590 133.893,211.656 129.900,213.367 122.756 C 215.552 113.629,218.511 108.895,224.133 105.528 C 225.350 104.799,225.921 104.285,225.633 104.179 C 225.376 104.084,224.307 103.715,223.257 103.357 L 221.348 102.708 219.352 104.041 C 215.458 106.641,212.067 111.155,210.626 115.657 L 210.036 117.500 210.020 116.000 C 209.976 111.885,211.511 105.647,213.391 102.303 C 214.278 100.724,214.352 100.802,211.328 100.165 C 209.122 99.702,207.699 99.552,202.333 99.221 C 201.508 99.170,199.183 99.230,197.167 99.354 M304.667 151.379 C 296.160 153.904,275.912 157.776,255.833 160.717 L 250.500 161.499 259.333 161.894 C 268.796 162.318,273.793 162.674,282.956 163.577 L 288.745 164.147 289.552 163.157 C 289.996 162.612,290.953 161.287,291.680 160.212 C 293.192 157.974,293.232 158.114,292.361 162.607 C 291.562 166.728,290.062 171.246,288.156 175.275 L 286.685 178.383 288.593 176.728 C 295.665 170.592,301.912 162.623,306.164 154.310 C 308.408 149.923,308.561 150.223,304.667 151.379 M93.511 151.417 C 95.032 156.547,103.158 167.877,110.059 174.489 C 114.990 179.213,115.035 179.214,112.854 174.583 C 110.045 168.621,109.249 166.064,108.162 159.511 C 107.949 158.229,108.010 158.281,110.102 161.178 C 112.125 163.979,112.331 164.163,113.380 164.105 C 113.996 164.071,117.050 163.805,120.167 163.515 C 127.116 162.868,140.713 162.018,145.000 161.962 C 150.643 161.889,150.594 161.570,144.811 160.713 C 125.027 157.779,103.382 153.624,96.000 151.342 C 93.290 150.504,93.241 150.505,93.511 151.417 M117.500 245.033 C 116.217 245.202,115.066 245.377,114.942 245.421 C 114.819 245.464,125.619 251.816,138.942 259.536 C 152.266 267.256,163.218 273.530,163.280 273.478 C 163.342 273.426,162.592 272.435,161.613 271.275 C 160.634 270.116,159.253 268.267,158.544 267.167 L 157.254 265.167 139.710 255.003 C 120.798 244.045,121.747 244.471,117.500 245.033 M273.317 248.239 C 269.916 250.216,261.952 254.832,255.620 258.498 L 244.108 265.162 242.911 267.185 C 242.252 268.298,241.063 269.949,240.268 270.854 C 239.473 271.759,238.614 272.768,238.360 273.096 C 238.105 273.425,240.437 272.225,243.542 270.430 C 292.487 242.137,287.655 245.342,282.091 244.866 L 279.500 244.644 273.317 248.239 M190.333 246.709 C 185.946 247.064,180.580 247.844,177.357 248.595 L 174.881 249.172 179.521 253.503 C 188.534 261.915,189.352 263.077,189.601 267.828 C 189.832 272.220,188.056 275.113,183.490 277.786 L 181.056 279.211 184.445 281.071 C 186.308 282.093,189.229 283.508,190.936 284.215 L 194.038 285.500 191.936 285.764 C 190.779 285.909,188.963 285.948,187.900 285.851 L 185.966 285.673 186.833 287.087 C 187.309 287.864,188.253 289.445,188.931 290.601 C 189.782 292.053,190.317 292.649,190.664 292.530 C 190.941 292.435,192.292 291.957,193.667 291.468 C 198.236 289.843,204.056 290.001,208.269 291.864 C 209.277 292.310,210.124 292.636,210.150 292.588 C 210.176 292.539,211.031 291.150,212.049 289.500 C 213.068 287.850,213.988 286.344,214.094 286.152 C 214.223 285.921,213.570 285.850,212.146 285.941 C 210.968 286.016,209.153 285.971,208.111 285.841 L 206.218 285.604 210.035 284.027 C 213.209 282.715,216.674 280.912,218.955 279.385 C 219.292 279.159,218.888 278.802,217.396 278.007 C 211.080 274.640,209.044 269.120,211.945 263.227 C 212.829 261.432,213.957 260.176,219.174 255.173 C 222.574 251.913,225.305 249.194,225.243 249.132 C 224.428 248.317,203.473 245.729,202.860 246.367 C 202.729 246.504,200.324 276.865,200.330 278.306 C 200.332 278.749,200.245 279.023,200.137 278.915 C 199.980 278.758,197.698 249.113,197.673 246.917 C 197.666 246.249,196.447 246.215,190.333 246.709 M169.579 250.674 C 166.994 251.784,162.661 254.249,162.679 254.598 C 162.726 255.475,169.130 259.484,173.384 261.299 C 176.669 262.701,183.912 264.866,184.236 264.542 C 184.871 263.907,179.380 257.065,174.121 251.936 L 171.833 249.706 169.579 250.674 M225.632 253.583 C 218.480 260.960,215.551 265.265,218.083 264.679 C 227.262 262.554,239.764 256.224,238.290 254.448 C 237.420 253.399,230.635 250.000,229.413 250.000 C 229.244 250.000,227.542 251.612,225.632 253.583 M163.969 261.167 C 167.444 267.455,175.148 275.356,177.301 274.839 C 179.758 274.248,184.667 271.258,184.667 270.351 C 184.667 270.216,183.436 269.767,181.932 269.355 C 175.223 267.516,168.288 264.000,164.214 260.369 L 162.864 259.167 163.969 261.167 M236.109 261.448 C 232.207 264.742,225.070 268.185,219.349 269.534 C 217.875 269.882,216.668 270.264,216.667 270.382 C 216.665 271.234,221.668 274.244,224.085 274.845 C 226.143 275.357,233.972 267.508,237.319 261.577 C 237.912 260.526,238.345 259.677,238.282 259.689 C 238.218 259.701,237.241 260.493,236.109 261.448 " stroke="none" fill="#047a8b" fill-rule="evenodd"></path><path id="path3" d="M195.587 92.902 C 196.002 92.982,196.602 92.979,196.921 92.896 C 197.239 92.812,196.900 92.747,196.167 92.751 C 195.433 92.754,195.173 92.823,195.587 92.902 M204.750 92.896 C 205.071 92.980,205.596 92.980,205.917 92.896 C 206.237 92.813,205.975 92.744,205.333 92.744 C 204.692 92.744,204.429 92.813,204.750 92.896 M163.095 107.167 C 163.098 108.083,163.163 108.419,163.239 107.912 C 163.316 107.405,163.314 106.655,163.235 106.245 C 163.156 105.835,163.093 106.250,163.095 107.167 M238.077 111.333 C 238.077 111.975,238.146 112.237,238.230 111.917 C 238.314 111.596,238.314 111.071,238.230 110.750 C 238.146 110.429,238.077 110.692,238.077 111.333 M48.653 129.417 C 49.470 130.287,50.183 131.000,50.236 131.000 C 50.486 131.000,50.222 130.701,48.750 129.319 L 47.167 127.833 48.653 129.417 M188.500 137.667 L 187.167 137.905 188.583 137.953 C 189.362 137.979,190.000 137.850,190.000 137.667 C 190.000 137.483,189.963 137.355,189.917 137.381 C 189.871 137.407,189.233 137.535,188.500 137.667 M212.250 137.902 C 212.662 137.981,213.338 137.981,213.750 137.902 C 214.162 137.822,213.825 137.757,213.000 137.757 C 212.175 137.757,211.838 137.822,212.250 137.902 M134.730 172.733 L 134.667 174.965 132.917 175.088 L 131.167 175.210 132.927 175.272 C 134.995 175.344,135.085 175.217,134.914 172.463 L 134.793 170.500 134.730 172.733 M242.433 172.333 C 242.433 173.342,242.496 173.754,242.572 173.250 C 242.648 172.746,242.648 171.921,242.572 171.417 C 242.496 170.912,242.433 171.325,242.433 172.333 M124.472 177.000 C 124.472 180.392,124.521 181.779,124.582 180.083 C 124.642 178.387,124.642 175.612,124.582 173.917 C 124.521 172.221,124.472 173.608,124.472 177.000 M142.489 177.833 L 142.500 184.833 144.167 184.859 L 145.833 184.885 144.257 184.759 L 142.680 184.632 142.579 177.733 L 142.479 170.833 142.489 177.833 M187.091 175.333 C 187.091 176.158,187.156 176.496,187.235 176.083 C 187.315 175.671,187.315 174.996,187.235 174.583 C 187.156 174.171,187.091 174.508,187.091 175.333 M217.794 177.833 C 217.795 180.033,217.849 180.890,217.914 179.737 C 217.979 178.584,217.979 176.784,217.913 175.737 C 217.847 174.690,217.793 175.633,217.794 177.833 M235.820 179.583 L 235.833 184.833 237.752 184.861 L 239.670 184.888 237.843 184.761 L 236.017 184.634 235.912 179.483 L 235.807 174.333 235.820 179.583 M303.725 176.105 C 303.326 176.529,303.000 176.979,303.000 177.105 C 303.000 177.231,309.412 177.298,317.250 177.254 L 331.500 177.174 317.362 177.083 L 303.224 176.993 304.003 176.163 C 304.432 175.707,304.708 175.333,304.616 175.333 C 304.525 175.333,304.123 175.681,303.725 176.105 M271.917 176.246 C 272.879 176.313,274.454 176.313,275.417 176.246 C 276.379 176.178,275.592 176.123,273.667 176.123 C 271.742 176.123,270.954 176.178,271.917 176.246 M84.083 176.917 L 70.000 177.007 70.080 192.420 L 70.160 207.833 70.250 192.583 L 70.340 177.333 84.337 177.333 C 93.446 177.333,98.333 177.217,98.333 177.000 C 98.333 176.817,98.296 176.702,98.250 176.746 C 98.204 176.790,91.829 176.867,84.083 176.917 M132.917 180.236 L 134.667 180.368 134.667 182.507 L 134.667 184.647 130.499 184.756 L 126.332 184.864 130.583 184.849 L 134.833 184.833 134.833 182.500 L 134.833 180.167 133.000 180.135 L 131.167 180.103 132.917 180.236 M88.150 196.500 C 88.150 203.100,88.195 205.847,88.249 202.605 C 88.304 199.363,88.304 193.963,88.250 190.605 C 88.195 187.247,88.151 189.900,88.150 196.500 M98.666 194.400 C 98.575 199.846,98.615 204.186,98.755 204.045 C 98.896 203.905,98.970 199.449,98.922 194.145 L 98.833 184.500 98.666 194.400 M150.755 184.906 C 151.261 184.982,152.011 184.980,152.421 184.901 C 152.831 184.822,152.417 184.760,151.500 184.762 C 150.583 184.765,150.248 184.829,150.755 184.906 M188.750 184.905 C 189.254 184.982,190.079 184.982,190.583 184.905 C 191.088 184.829,190.675 184.767,189.667 184.767 C 188.658 184.767,188.246 184.829,188.750 184.905 M201.083 184.914 C 202.321 184.978,204.346 184.978,205.583 184.914 C 206.821 184.850,205.808 184.797,203.333 184.797 C 200.858 184.797,199.846 184.850,201.083 184.914 M218.069 184.914 C 219.298 184.977,221.398 184.978,222.735 184.914 C 224.073 184.851,223.067 184.799,220.500 184.798 C 217.933 184.798,216.839 184.850,218.069 184.914 M253.589 184.908 C 254.188 184.982,255.088 184.981,255.589 184.905 C 256.090 184.829,255.600 184.768,254.500 184.770 C 253.400 184.772,252.990 184.834,253.589 184.908 M269.417 184.914 C 270.837 184.977,273.162 184.977,274.583 184.914 C 276.004 184.852,274.842 184.801,272.000 184.801 C 269.158 184.801,267.996 184.852,269.417 184.914 M217.333 195.167 C 218.514 196.358,219.556 197.333,219.647 197.333 C 219.739 197.333,218.848 196.358,217.667 195.167 C 216.486 193.975,215.444 193.000,215.353 193.000 C 215.261 193.000,216.152 193.975,217.333 195.167 M260.818 197.416 L 260.833 201.833 265.000 201.850 L 269.167 201.867 265.093 201.757 L 261.019 201.646 260.911 197.323 L 260.803 192.999 260.818 197.416 M287.739 197.240 L 287.667 201.646 283.583 201.751 L 279.500 201.856 283.594 201.928 C 288.439 202.013,288.055 202.452,287.916 196.982 L 287.811 192.833 287.739 197.240 M304.750 193.248 C 306.171 193.310,308.496 193.310,309.917 193.248 C 311.337 193.185,310.175 193.134,307.333 193.134 C 304.492 193.134,303.329 193.185,304.750 193.248 M255.405 197.578 L 255.333 201.989 246.083 202.084 L 236.833 202.178 246.094 202.255 C 253.460 202.317,255.388 202.244,255.521 201.898 C 255.613 201.659,255.641 199.596,255.583 197.315 L 255.477 193.167 255.405 197.578 M219.822 215.667 C 219.822 225.658,219.865 229.746,219.916 224.750 C 219.968 219.754,219.968 211.579,219.916 206.583 C 219.865 201.587,219.822 205.675,219.822 215.667 M127.583 201.915 C 129.096 201.976,131.571 201.976,133.083 201.915 C 134.596 201.853,133.358 201.802,130.333 201.802 C 127.308 201.802,126.071 201.853,127.583 201.915 M164.583 201.915 C 166.096 201.976,168.571 201.976,170.083 201.915 C 171.596 201.853,170.358 201.802,167.333 201.802 C 164.308 201.802,163.071 201.853,164.583 201.915 M201.583 201.915 C 203.096 201.976,205.571 201.976,207.083 201.915 C 208.596 201.853,207.358 201.802,204.333 201.802 C 201.308 201.802,200.071 201.853,201.583 201.915 M240.755 209.239 C 241.261 209.316,242.011 209.314,242.421 209.235 C 242.831 209.156,242.417 209.093,241.500 209.095 C 240.583 209.098,240.248 209.163,240.755 209.239 M255.332 214.266 L 255.498 219.167 255.592 214.526 C 255.644 211.974,255.569 209.769,255.426 209.625 C 255.284 209.482,255.241 211.570,255.332 214.266 M166.417 210.245 C 167.287 210.314,168.712 210.314,169.583 210.245 C 170.454 210.176,169.742 210.120,168.000 210.120 C 166.258 210.120,165.546 210.176,166.417 210.245 M98.817 227.667 C 98.817 234.358,98.862 237.096,98.916 233.750 C 98.971 230.404,98.971 224.929,98.916 221.583 C 98.862 218.237,98.817 220.975,98.817 227.667 M242.083 218.563 C 242.404 218.647,242.929 218.647,243.250 218.563 C 243.571 218.479,243.308 218.411,242.667 218.411 C 242.025 218.411,241.762 218.479,242.083 218.563 M166.500 219.502 C 167.262 219.768,169.274 219.840,169.124 219.597 C 169.034 219.452,168.332 219.345,167.564 219.360 C 166.795 219.374,166.317 219.438,166.500 219.502 M88.151 220.086 C 88.063 220.317,88.030 225.304,88.079 231.170 L 88.167 241.833 88.334 230.750 C 88.425 224.654,88.458 219.666,88.406 219.667 C 88.355 219.667,88.240 219.855,88.151 220.086 M162.076 226.727 C 162.000 233.929,161.997 233.954,161.250 234.098 L 160.500 234.243 161.260 234.288 C 162.342 234.352,162.358 234.229,162.250 226.491 L 162.152 219.500 162.076 226.727 M69.924 238.424 C 69.974 245.972,70.124 252.257,70.257 252.391 C 70.391 252.525,70.459 246.458,70.409 238.909 C 70.359 231.361,70.209 225.076,70.076 224.942 C 69.943 224.809,69.874 230.875,69.924 238.424 M199.120 230.667 C 199.120 232.408,199.176 233.121,199.245 232.250 C 199.314 231.379,199.314 229.954,199.245 229.083 C 199.176 228.213,199.120 228.925,199.120 230.667 M178.254 233.569 C 178.669 233.649,179.269 233.646,179.587 233.562 C 179.906 233.479,179.567 233.414,178.833 233.417 C 178.100 233.421,177.839 233.489,178.254 233.569 M211.427 233.579 C 212.303 233.648,213.653 233.647,214.427 233.577 C 215.200 233.507,214.483 233.451,212.833 233.452 C 211.183 233.453,210.550 233.510,211.427 233.579 M322.116 237.000 C 322.116 238.558,322.174 239.196,322.244 238.417 C 322.314 237.637,322.314 236.362,322.244 235.583 C 322.174 234.804,322.116 235.442,322.116 237.000 " stroke="none" fill="#625888" fill-rule="evenodd"></path><path id="path4" d="M6.823 2.885 C 7.441 7.024,14.501 33.856,16.874 41.084 C 17.340 42.505,17.672 43.793,17.611 43.945 C 17.550 44.097,13.922 42.512,9.549 40.423 C 5.176 38.333,1.520 36.703,1.423 36.799 C 0.904 37.318,11.599 66.841,16.893 79.500 C 25.105 99.140,35.298 120.121,39.159 125.333 C 47.510 136.606,61.861 146.720,76.250 151.475 C 77.213 151.793,78.000 152.241,78.000 152.471 C 78.000 153.307,85.005 166.915,86.938 169.833 L 88.924 172.833 77.296 172.921 L 65.667 173.009 65.667 189.280 L 65.667 205.551 54.583 210.808 C 48.487 213.699,43.384 216.174,43.241 216.308 C 43.099 216.442,48.086 219.050,54.325 222.104 L 65.667 227.657 65.667 241.273 L 65.667 254.888 76.729 261.675 L 87.791 268.461 100.812 266.923 L 113.833 265.384 148.167 285.226 C 167.050 296.139,182.667 305.240,182.871 305.451 C 183.074 305.661,184.324 310.858,185.646 317.000 C 192.642 349.479,195.584 363.249,197.849 374.121 C 199.971 384.302,200.667 387.301,200.667 386.264 C 200.667 385.883,205.548 362.699,209.494 344.333 C 211.760 333.792,214.547 320.817,215.688 315.500 C 216.829 310.183,217.929 305.663,218.131 305.455 C 218.334 305.247,233.958 296.142,252.852 285.222 L 287.203 265.368 300.226 266.910 L 313.249 268.451 324.291 261.668 L 335.333 254.884 335.333 241.276 L 335.333 227.669 346.750 221.956 L 358.167 216.243 357.015 215.705 C 356.381 215.409,351.281 212.984,345.681 210.315 L 335.500 205.464 335.413 189.399 L 335.327 173.333 323.515 173.333 L 311.703 173.333 313.481 170.750 C 315.512 167.800,318.678 161.949,321.310 156.284 L 323.115 152.400 326.307 151.146 C 339.625 145.911,352.586 136.821,360.129 127.424 C 368.271 117.281,388.931 71.761,395.491 49.512 C 397.219 43.652,398.815 37.037,398.563 36.785 C 398.494 36.716,395.061 38.294,390.934 40.292 C 386.807 42.290,383.134 44.018,382.772 44.133 C 382.187 44.319,382.445 43.185,385.056 34.088 C 388.485 22.144,393.545 2.101,393.215 1.771 C 392.750 1.305,348.587 31.340,319.667 51.790 C 294.031 69.918,263.333 92.683,246.257 106.231 C 241.333 110.139,241.475 110.143,241.250 106.059 C 241.008 101.676,240.257 99.962,237.410 97.299 C 236.215 96.181,235.381 95.168,235.556 95.050 C 253.296 83.053,256.346 78.879,254.838 68.667 C 254.527 66.558,254.236 64.796,254.191 64.749 C 254.146 64.703,248.498 68.831,241.638 73.923 C 234.779 79.014,227.184 84.649,224.761 86.444 L 220.356 89.708 216.928 88.859 C 205.631 86.061,194.159 86.071,182.758 88.887 L 179.348 89.729 162.424 77.157 L 145.500 64.586 144.874 68.543 C 143.427 77.698,145.970 82.076,157.461 90.219 C 160.966 92.702,163.962 94.855,164.118 95.002 C 164.275 95.150,163.440 96.222,162.262 97.385 C 159.375 100.237,158.735 101.672,158.456 105.925 C 158.176 110.200,158.444 110.217,152.582 105.565 C 120.588 80.178,63.795 39.461,14.207 6.360 L 6.581 1.269 6.823 2.885 M20.167 15.453 C 61.537 43.008,115.855 82.046,150.352 109.015 L 157.871 114.893 160.638 113.530 L 163.406 112.167 163.183 109.092 C 162.794 103.701,165.318 100.551,171.790 98.351 L 173.421 97.797 168.960 94.462 C 166.507 92.627,162.557 89.786,160.183 88.147 C 152.738 83.008,149.807 79.524,149.189 75.083 C 148.919 73.140,147.861 72.465,164.454 84.816 L 179.408 95.946 180.954 95.457 C 192.135 91.920,207.475 91.789,219.014 95.132 C 220.557 95.579,221.973 95.852,222.160 95.738 C 222.472 95.549,250.618 74.669,251.591 73.905 C 252.262 73.378,252.360 73.767,252.015 75.588 C 251.141 80.196,248.946 82.626,239.572 89.362 C 235.682 92.157,231.548 95.193,230.383 96.110 L 228.267 97.777 230.254 98.497 C 236.435 100.735,238.333 103.161,238.333 108.823 L 238.333 112.270 241.017 113.844 L 243.701 115.417 244.977 114.392 C 260.300 102.078,290.303 79.629,317.000 60.503 C 340.209 43.875,387.823 11.046,388.193 11.415 C 388.505 11.727,382.748 32.650,378.785 45.611 C 377.590 49.522,376.662 52.773,376.725 52.836 C 376.787 52.898,380.490 51.164,384.954 48.982 C 392.727 45.181,393.059 45.052,392.841 45.924 C 392.055 49.073,384.088 69.779,379.399 80.864 C 373.849 93.983,365.374 111.524,361.177 118.580 C 353.725 131.108,339.317 142.266,323.757 147.560 L 320.014 148.833 317.977 153.333 C 314.048 162.010,310.417 168.141,305.785 173.917 L 303.312 177.000 317.323 177.000 L 331.333 177.000 331.333 192.441 L 331.333 207.882 339.667 211.973 C 344.250 214.224,348.000 216.166,348.000 216.290 C 348.000 216.414,344.252 218.446,339.670 220.805 L 331.341 225.094 331.254 238.742 L 331.167 252.390 322.000 258.083 L 312.833 263.776 309.333 263.378 C 307.408 263.159,301.558 262.472,296.333 261.852 L 286.833 260.724 279.000 265.200 C 274.692 267.662,258.352 277.061,242.690 286.088 L 214.214 302.500 207.536 332.579 C 203.863 349.123,200.762 362.548,200.645 362.412 C 200.527 362.277,197.621 349.267,194.187 333.500 C 190.752 317.733,187.804 304.286,187.634 303.616 C 187.196 301.889,116.133 260.778,113.833 260.921 C 111.346 261.076,99.913 262.363,95.215 263.016 C 92.644 263.374,90.124 263.667,89.614 263.667 C 88.999 263.667,85.569 261.755,79.427 257.991 L 70.167 252.316 70.000 238.630 L 69.833 224.944 61.713 220.657 C 57.247 218.299,53.510 216.288,53.408 216.186 C 53.307 216.085,56.999 214.171,61.612 211.934 L 70.000 207.866 70.000 192.433 L 70.000 177.000 84.000 177.000 C 91.700 177.000,98.000 176.931,98.000 176.847 C 98.000 176.763,96.942 175.376,95.648 173.764 C 90.693 167.590,88.380 163.650,83.473 153.031 L 81.408 148.563 77.311 147.119 C 63.923 142.401,51.058 133.450,43.834 123.829 C 38.887 117.240,29.319 97.957,20.641 77.085 C 16.739 67.699,8.084 44.667,8.460 44.667 C 8.521 44.667,11.930 46.334,16.035 48.373 C 23.855 52.256,25.000 52.777,25.000 52.452 C 25.000 52.342,24.314 50.134,23.475 47.543 C 20.573 38.577,13.333 12.606,13.333 11.160 C 13.333 10.897,13.238 10.837,20.167 15.453 M127.083 170.914 C 128.504 170.977,130.829 170.977,132.250 170.914 C 133.671 170.852,132.508 170.801,129.667 170.801 C 126.825 170.801,125.662 170.852,127.083 170.914 M143.417 170.905 C 143.921 170.982,144.746 170.982,145.250 170.905 C 145.754 170.829,145.342 170.767,144.333 170.767 C 143.325 170.767,142.912 170.829,143.417 170.905 M149.904 170.874 C 149.774 171.004,149.667 172.429,149.667 174.039 L 149.667 176.967 147.832 177.094 L 145.997 177.221 147.915 177.194 L 149.833 177.167 149.929 174.083 L 150.025 171.000 151.506 171.000 L 152.986 171.000 153.087 177.917 L 153.188 184.833 153.177 177.833 L 153.167 170.833 151.654 170.735 C 150.822 170.680,150.035 170.743,149.904 170.874 M160.815 171.093 C 160.725 171.328,160.693 174.440,160.743 178.010 L 160.833 184.500 162.500 184.526 L 164.167 184.552 162.583 184.425 L 161.000 184.298 161.000 177.659 L 161.000 171.019 165.583 170.916 L 170.167 170.813 165.573 170.740 C 162.095 170.684,160.939 170.770,160.815 171.093 M200.575 170.902 L 202.317 171.034 202.421 176.267 L 202.525 181.500 202.512 176.167 L 202.500 170.833 200.667 170.802 L 198.833 170.770 200.575 170.902 M216.583 170.914 C 217.912 170.977,220.088 170.977,221.417 170.914 C 222.746 170.851,221.658 170.799,219.000 170.799 C 216.342 170.799,215.254 170.851,216.583 170.914 M232.801 171.132 C 232.141 172.852,232.798 174.166,234.333 174.194 L 235.833 174.221 234.417 174.092 L 233.000 173.963 233.000 172.491 L 233.000 171.018 237.750 170.916 L 242.500 170.814 237.740 170.740 C 233.925 170.681,232.944 170.759,232.801 171.132 M249.467 171.132 C 248.807 172.852,249.465 174.166,251.000 174.194 L 252.500 174.221 251.083 174.092 L 249.667 173.963 249.667 172.491 L 249.667 171.018 254.417 170.916 L 259.167 170.814 254.406 170.740 C 250.592 170.681,249.610 170.759,249.467 171.132 M272.000 170.912 L 277.000 171.017 277.000 172.497 L 277.000 173.977 273.583 174.091 L 270.167 174.205 273.667 174.186 L 277.167 174.167 277.167 172.500 L 277.167 170.833 272.083 170.820 L 266.999 170.806 272.000 170.912 M181.917 171.248 C 183.246 171.311,185.421 171.311,186.750 171.248 C 188.079 171.184,186.992 171.132,184.333 171.132 C 181.675 171.132,180.588 171.184,181.917 171.248 M190.459 176.333 C 190.459 178.442,190.514 179.304,190.580 178.250 C 190.646 177.196,190.646 175.471,190.580 174.417 C 190.514 173.362,190.459 174.225,190.459 176.333 M165.250 173.908 C 165.846 173.982,166.821 173.982,167.417 173.908 C 168.012 173.834,167.525 173.773,166.333 173.773 C 165.142 173.773,164.654 173.834,165.250 173.908 M129.661 174.237 C 130.483 174.315,131.282 174.556,131.437 174.773 C 131.631 175.045,131.676 175.012,131.583 174.667 C 131.488 174.315,130.961 174.156,129.807 174.131 L 128.167 174.095 129.661 174.237 M183.091 175.333 C 183.091 176.158,183.156 176.496,183.235 176.083 C 183.315 175.671,183.315 174.996,183.235 174.583 C 183.156 174.171,183.091 174.508,183.091 175.333 M277.056 177.738 L 277.000 179.310 273.583 179.418 L 270.167 179.526 273.594 179.596 C 277.411 179.675,277.471 179.639,277.245 177.452 C 277.118 176.222,277.110 176.234,277.056 177.738 M165.250 177.241 C 165.846 177.315,166.821 177.315,167.417 177.241 C 168.012 177.167,167.525 177.107,166.333 177.107 C 165.142 177.107,164.654 177.167,165.250 177.241 M183.064 182.233 L 183.000 184.632 181.250 184.754 L 179.500 184.877 181.260 184.938 C 183.343 185.011,183.413 184.906,183.248 181.965 L 183.128 179.833 183.064 182.233 M149.776 182.500 C 149.778 183.783,149.838 184.267,149.910 183.576 C 149.982 182.884,149.981 181.834,149.907 181.243 C 149.834 180.651,149.775 181.217,149.776 182.500 M277.095 183.167 C 277.098 184.083,277.163 184.419,277.239 183.912 C 277.316 183.405,277.314 182.655,277.235 182.245 C 277.156 181.835,277.093 182.250,277.095 183.167 M169.083 184.572 C 169.587 184.648,170.412 184.648,170.917 184.572 C 171.421 184.496,171.008 184.433,170.000 184.433 C 168.992 184.433,168.579 184.496,169.083 184.572 M297.583 184.583 C 302.029 184.636,309.304 184.636,313.750 184.583 C 318.196 184.531,314.558 184.488,305.667 184.488 C 296.775 184.488,293.137 184.531,297.583 184.583 M293.150 199.833 C 293.150 206.067,293.195 208.570,293.250 205.395 C 293.304 202.221,293.304 197.121,293.249 194.062 C 293.194 191.003,293.150 193.600,293.150 199.833 M143.081 195.172 L 145.328 197.511 145.417 216.339 L 145.506 235.167 145.586 216.324 L 145.667 197.482 143.250 195.158 L 140.833 192.833 143.081 195.172 M302.135 198.500 C 302.135 201.433,302.186 202.589,302.248 201.068 C 302.310 199.546,302.310 197.146,302.247 195.734 C 302.185 194.322,302.135 195.567,302.135 198.500 M182.079 207.899 L 182.000 218.965 180.250 219.088 L 178.500 219.210 180.260 219.272 C 182.519 219.351,182.358 220.290,182.250 207.664 L 182.157 196.833 182.079 207.899 M115.489 215.000 C 115.489 224.808,115.531 228.821,115.583 223.917 C 115.635 219.012,115.635 210.987,115.583 206.083 C 115.531 201.179,115.489 205.192,115.489 215.000 M189.489 215.667 C 189.489 225.658,189.531 229.746,189.583 224.750 C 189.635 219.754,189.635 211.579,189.583 206.583 C 189.531 201.587,189.489 205.675,189.489 215.667 M279.489 219.333 C 279.489 229.142,279.531 233.154,279.583 228.250 C 279.635 223.346,279.635 215.321,279.583 210.417 C 279.531 205.512,279.489 209.525,279.489 219.333 M209.821 217.667 C 209.821 226.375,209.864 229.938,209.916 225.583 C 209.969 221.229,209.969 214.104,209.916 209.750 C 209.864 205.396,209.821 208.958,209.821 217.667 M237.755 209.239 C 238.261 209.316,239.011 209.314,239.421 209.235 C 239.831 209.156,239.417 209.093,238.500 209.095 C 237.583 209.098,237.248 209.163,237.755 209.239 M252.417 209.572 C 252.921 209.648,253.746 209.648,254.250 209.572 C 254.754 209.496,254.342 209.433,253.333 209.433 C 252.325 209.433,251.912 209.496,252.417 209.572 M244.254 218.569 C 244.669 218.649,245.269 218.646,245.587 218.562 C 245.906 218.479,245.567 218.414,244.833 218.417 C 244.100 218.421,243.839 218.489,244.254 218.569 M252.083 218.896 C 252.404 218.980,252.929 218.980,253.250 218.896 C 253.571 218.813,253.308 218.744,252.667 218.744 C 252.025 218.744,251.762 218.813,252.083 218.896 M164.750 219.563 C 165.071 219.647,165.596 219.647,165.917 219.563 C 166.237 219.479,165.975 219.411,165.333 219.411 C 164.692 219.411,164.429 219.479,164.750 219.563 M312.805 226.000 C 312.805 229.392,312.855 230.779,312.915 229.083 C 312.976 227.387,312.976 224.612,312.915 222.917 C 312.855 221.221,312.805 222.608,312.805 226.000 M293.155 232.139 C 293.165 237.455,293.245 238.466,293.667 238.581 C 294.029 238.680,294.054 238.637,293.758 238.427 C 293.467 238.221,293.319 236.363,293.246 231.985 L 293.143 225.833 293.155 232.139 M174.302 233.437 C 174.452 233.585,175.307 233.658,176.203 233.598 L 177.833 233.489 175.932 233.328 C 174.887 233.239,174.153 233.288,174.302 233.437 M216.250 233.569 C 216.662 233.648,217.338 233.648,217.750 233.569 C 218.162 233.489,217.825 233.424,217.000 233.424 C 216.175 233.424,215.838 233.489,216.250 233.569 M159.083 234.230 C 159.404 234.314,159.929 234.314,160.250 234.230 C 160.571 234.146,160.308 234.077,159.667 234.077 C 159.025 234.077,158.762 234.146,159.083 234.230 M236.587 234.569 C 237.002 234.649,237.602 234.646,237.921 234.562 C 238.239 234.479,237.900 234.414,237.167 234.417 C 236.433 234.421,236.173 234.489,236.587 234.569 M322.095 241.167 C 322.098 242.083,322.163 242.419,322.239 241.912 C 322.316 241.405,322.314 240.655,322.235 240.245 C 322.156 239.835,322.093 240.250,322.095 241.167 " stroke="none" fill="#8c84a1" fill-rule="evenodd"></path></g></svg>