<svg id="svg" version="1.1" xmlns="http://www.w3.org/2000/svg" xmlns:xlink="http://www.w3.org/1999/xlink" width="400" height="403.3333333333333" viewBox="0, 0, 400,403.3333333333333"><g id="svgg"><path id="path0" d="M345.489 112.444 C 345.479 123.286,345.177 128.160,343.978 136.824 C 343.623 139.386,343.333 141.606,343.333 141.758 C 343.333 141.910,345.420 140.939,347.971 139.601 L 352.609 137.167 354.221 138.297 C 355.108 138.919,356.759 140.086,357.889 140.890 L 359.945 142.353 359.463 140.260 C 356.927 129.266,347.819 104.063,345.555 101.778 C 345.525 101.747,345.495 106.547,345.489 112.444 M33.304 104.917 C 27.732 117.017,23.768 128.737,21.001 141.295 C 20.102 145.376,19.984 145.413,24.505 140.196 C 27.629 136.591,28.523 135.746,28.957 135.982 C 29.256 136.145,31.262 137.991,33.417 140.085 C 35.571 142.178,37.333 143.857,37.333 143.816 C 37.333 143.774,37.046 142.336,36.695 140.620 C 35.051 132.580,34.136 119.567,34.489 109.250 C 34.742 101.845,34.733 101.813,33.304 104.917 M180.000 169.367 C 168.631 169.675,140.899 171.070,121.726 172.297 C 116.433 172.636,117.060 172.107,115.170 177.833 C 111.002 190.460,108.052 203.577,106.475 216.500 C 106.162 219.067,105.869 221.212,105.824 221.268 C 105.778 221.324,103.512 221.590,100.787 221.858 C 81.726 223.738,61.705 228.033,44.223 233.992 C 35.385 237.005,35.556 236.725,39.917 241.019 C 53.190 254.086,73.918 256.929,94.227 248.469 C 96.664 247.453,98.823 246.724,99.024 246.848 C 99.551 247.174,100.445 249.365,102.895 256.333 C 106.603 266.880,107.952 269.762,110.521 272.620 C 116.125 278.853,125.377 278.965,131.308 272.872 C 132.972 271.162,132.967 271.157,129.612 270.854 C 116.437 269.666,108.396 261.704,106.521 247.991 L 106.315 246.482 104.241 246.090 C 96.579 244.641,100.926 232.889,109.303 232.404 C 116.368 231.995,123.390 235.901,133.994 246.138 C 146.124 257.849,150.960 261.123,159.000 263.069 C 170.448 265.840,179.322 261.127,185.175 249.167 C 186.670 246.111,188.333 241.123,188.333 239.694 C 188.333 239.466,187.382 239.333,185.750 239.332 C 177.145 239.327,149.206 236.669,147.357 235.679 C 146.414 235.175,146.278 234.389,147.008 233.659 C 147.806 232.861,147.218 232.861,153.762 233.659 C 163.853 234.889,181.881 236.333,187.154 236.333 L 189.000 236.333 189.000 231.723 L 189.000 227.114 181.583 226.710 C 168.220 225.982,148.983 223.573,146.676 222.338 C 145.760 221.848,145.489 220.702,146.135 220.056 C 146.628 219.563,147.001 219.568,150.752 220.118 C 164.745 222.171,188.183 224.260,188.924 223.521 C 189.058 223.388,189.217 220.913,189.278 218.021 L 189.390 212.763 188.112 212.552 C 187.409 212.436,185.333 212.339,183.500 212.337 C 174.083 212.325,148.588 209.513,147.161 208.328 C 146.889 208.103,146.667 207.565,146.667 207.132 C 146.667 205.994,147.598 205.883,152.184 206.475 C 161.548 207.683,170.668 208.410,185.750 209.151 L 189.333 209.327 189.333 204.352 C 189.333 198.989,189.593 197.667,190.647 197.667 C 191.771 197.667,192.000 198.741,192.000 204.025 L 192.000 209.093 197.083 208.861 C 206.939 208.411,216.246 207.479,229.396 205.626 C 232.517 205.186,233.333 205.408,233.333 206.696 C 233.333 207.633,232.641 207.851,226.167 208.955 C 216.572 210.591,206.125 211.792,198.167 212.175 C 195.967 212.280,193.679 212.441,193.083 212.532 L 192.000 212.697 192.000 218.222 L 192.000 223.748 197.583 223.527 C 210.747 223.007,219.913 222.192,226.500 220.956 C 231.653 219.989,233.564 219.833,234.166 220.333 C 234.954 220.986,234.755 221.937,233.719 222.473 C 231.298 223.725,202.258 226.986,193.417 226.998 L 192.333 227.000 192.333 231.712 L 192.333 236.423 196.917 236.200 C 208.378 235.641,217.623 234.837,228.474 233.457 C 236.352 232.454,238.466 232.935,236.000 235.166 C 235.029 236.046,214.158 238.421,199.167 239.358 C 195.867 239.564,193.142 239.755,193.112 239.783 C 193.082 239.811,193.571 241.783,194.198 244.167 C 197.644 257.267,204.608 263.054,216.333 262.559 C 225.999 262.151,230.176 259.697,243.667 246.503 C 255.695 234.739,260.759 231.830,269.167 231.855 C 274.794 231.871,277.663 233.335,278.984 236.866 C 280.566 241.096,279.547 243.283,275.536 244.269 L 273.238 244.833 272.443 248.792 C 269.554 263.175,262.230 270.130,248.492 271.538 L 246.375 271.754 247.271 272.902 C 249.405 275.636,254.865 277.201,258.869 276.227 C 267.063 274.232,269.909 271.062,275.157 258.085 C 278.768 249.155,280.643 245.000,281.063 245.000 C 281.230 245.000,281.805 245.227,282.341 245.504 C 291.901 250.448,308.327 252.924,316.833 250.704 C 325.930 248.330,335.472 242.614,340.421 236.575 L 341.642 235.085 336.904 233.246 C 318.362 226.049,297.621 221.734,275.583 220.489 C 273.429 220.367,271.667 220.129,271.667 219.960 C 271.667 219.790,271.365 216.692,270.996 213.076 C 269.333 196.788,267.402 186.287,264.105 175.601 L 262.902 171.702 261.201 171.520 C 259.588 171.347,244.999 170.731,225.167 169.999 C 220.217 169.817,210.917 169.588,204.500 169.492 C 198.083 169.396,191.933 169.275,190.833 169.223 C 189.733 169.170,184.858 169.235,180.000 169.367 M187.167 268.793 C 177.937 278.447,163.057 280.775,147.063 275.070 C 144.806 274.264,144.334 274.182,144.516 274.624 C 152.593 294.301,153.539 318.803,147.036 339.917 C 146.683 341.063,146.460 342.000,146.540 342.000 C 146.620 342.000,147.544 341.567,148.593 341.038 C 172.274 329.097,205.616 329.159,230.233 341.190 C 236.419 344.213,236.116 344.221,235.145 341.059 C 228.977 320.975,229.051 297.179,235.346 276.672 C 236.048 274.384,236.577 272.466,236.522 272.411 C 236.467 272.356,234.759 272.991,232.727 273.823 C 215.042 281.067,200.514 278.650,191.166 266.911 L 190.167 265.656 187.167 268.793 M133.561 275.523 C 127.341 279.750,119.394 281.177,114.583 278.931 C 109.635 276.622,115.247 284.933,120.326 287.436 C 127.421 290.932,133.614 286.197,135.173 276.083 C 135.428 274.431,135.256 274.371,133.561 275.523 M266.809 275.830 C 262.396 279.193,253.320 279.763,247.877 277.020 L 245.253 275.697 245.471 277.058 C 246.985 286.528,256.917 289.329,263.609 282.175 C 266.258 279.344,268.792 274.319,266.809 275.830 M136.679 280.791 C 134.295 289.304,126.015 293.300,118.650 289.491 C 117.277 288.781,117.262 288.736,121.225 297.393 C 129.358 315.161,143.008 340.143,144.018 339.110 C 144.368 338.751,145.213 332.914,145.650 327.833 C 147.007 312.031,144.260 294.919,138.239 281.681 L 137.119 279.218 136.679 280.791 M242.650 280.858 C 241.064 284.959,237.988 297.507,236.692 305.167 C 234.743 316.688,234.849 331.222,236.930 337.833 L 237.560 339.833 244.379 326.167 C 248.129 318.650,252.232 310.250,253.495 307.500 C 255.766 302.557,261.964 288.219,261.877 288.111 C 261.853 288.080,261.012 288.267,260.010 288.527 C 253.697 290.165,248.384 287.861,244.242 281.692 L 243.028 279.884 242.650 280.858 M229.975 280.977 C 231.442 281.906,225.713 296.831,221.392 303.333 C 206.407 325.884,175.519 327.522,161.344 306.516 C 155.894 298.439,150.831 282.070,153.679 281.735 C 154.491 281.640,154.527 281.723,154.920 284.611 C 158.503 310.914,179.710 325.384,202.262 316.913 C 214.522 312.308,224.048 299.587,228.345 282.083 C 228.692 280.670,229.077 280.409,229.975 280.977 M182.817 334.680 C 167.252 335.729,152.019 340.589,140.246 348.263 L 137.326 350.167 137.516 352.500 C 138.884 369.302,142.532 380.037,150.234 389.925 C 152.807 393.228,152.894 393.289,157.333 394.829 C 176.902 401.619,203.154 401.282,223.667 393.979 C 226.486 392.975,226.510 392.956,228.559 390.235 C 236.248 380.020,241.828 366.308,242.873 355.060 L 243.088 352.752 241.357 351.383 C 226.722 339.815,203.774 333.267,182.817 334.680 M217.347 348.336 C 223.393 349.482,228.336 354.652,227.907 359.381 C 226.898 370.503,212.066 374.736,204.067 366.186 C 201.379 363.312,201.045 363.820,202.393 368.737 C 202.987 370.904,203.038 371.437,202.673 371.663 C 201.880 372.153,201.357 371.642,200.145 369.188 C 197.394 363.622,197.979 358.536,201.925 353.704 C 205.201 349.693,212.009 347.324,217.347 348.336 M168.423 350.156 C 178.394 352.269,182.956 361.842,178.346 370.976 C 176.560 374.514,174.971 373.963,176.273 370.257 C 176.676 369.107,177.005 367.509,177.003 366.705 L 177.000 365.244 175.250 367.065 C 168.960 373.611,159.651 373.953,154.066 367.842 C 145.749 358.742,155.024 347.317,168.423 350.156 M200.667 380.821 C 209.084 381.720,216.547 383.550,223.417 386.401 C 226.966 387.873,226.915 387.825,226.056 388.941 L 225.460 389.716 218.970 387.558 C 198.848 380.866,179.661 380.941,159.250 387.791 C 154.397 389.420,153.963 389.511,153.500 389.000 C 152.740 388.160,152.762 388.142,156.417 386.731 C 170.326 381.359,186.047 379.260,200.667 380.821 " stroke="none" fill="#ca0b3b" fill-rule="evenodd"></path><path id="path1" d="M23.829 144.737 L 19.167 149.699 18.741 152.766 C 18.083 157.508,18.414 169.236,19.326 173.500 C 25.549 202.608,50.051 217.040,93.429 217.144 C 104.289 217.170,103.462 217.403,103.817 214.209 C 104.737 205.919,108.721 189.138,112.337 178.324 C 114.054 173.186,114.058 173.266,112.083 173.488 C 98.893 174.972,75.149 175.303,69.159 174.088 C 57.971 171.818,49.669 166.913,43.900 159.167 C 42.029 156.654,41.239 155.216,39.781 151.675 C 38.860 149.439,37.203 147.536,32.631 143.463 L 28.491 139.776 23.829 144.737 M347.138 144.004 C 343.102 146.263,341.678 147.235,341.183 148.070 C 328.645 169.236,317.344 173.783,280.121 172.641 C 272.540 172.409,266.273 172.282,266.195 172.361 C 266.116 172.439,266.641 174.752,267.360 177.502 C 270.209 188.386,272.085 198.087,273.838 210.992 C 274.323 214.562,274.769 217.563,274.830 217.661 C 275.127 218.142,289.385 217.025,296.667 215.950 C 342.982 209.115,365.523 185.320,360.785 148.266 C 360.589 146.728,360.520 146.651,357.209 144.231 C 352.191 140.563,353.242 140.587,347.138 144.004 M266.631 247.201 C 265.440 247.695,265.426 247.723,265.224 250.116 C 264.430 259.505,258.436 265.667,250.097 265.667 C 248.685 265.667,248.667 265.681,248.667 266.833 C 248.667 268.217,249.120 268.282,253.405 267.518 C 262.410 265.912,268.333 258.151,268.333 247.956 C 268.333 246.514,268.309 246.503,266.631 247.201 M111.083 247.903 C 110.410 248.032,110.333 248.240,110.333 249.953 C 110.333 257.475,116.220 264.752,123.701 266.479 C 127.138 267.272,131.114 267.313,131.268 266.557 C 131.625 264.803,131.171 264.443,128.294 264.204 C 119.456 263.466,113.700 257.646,113.672 249.417 C 113.668 248.418,113.527 248.000,113.194 248.000 C 112.934 248.000,112.521 247.946,112.277 247.880 C 112.033 247.814,111.496 247.825,111.083 247.903 " stroke="none" fill="#fbfbfb" fill-rule="evenodd"></path><path id="path2" d="M17.550 0.799 C 3.339 5.945,-3.589 24.438,1.351 44.038 C 7.950 70.218,37.795 72.581,46.005 47.573 C 47.300 43.627,47.225 43.521,41.609 41.310 C 37.795 39.809,37.204 39.801,36.616 41.241 C 32.726 50.776,27.604 53.808,22.874 49.378 C 17.161 44.027,16.649 22.677,22.091 16.773 C 27.042 11.402,34.777 15.323,36.680 24.167 C 37.300 27.051,37.214 27.000,41.500 27.000 C 46.464 27.000,46.025 28.278,45.921 14.127 L 45.833 2.167 41.500 2.089 L 37.167 2.012 36.500 3.060 C 35.296 4.955,34.953 4.971,32.437 3.252 C 27.689 0.008,22.222 -0.893,17.550 0.799 M181.217 0.801 C 167.061 5.912,160.097 24.516,165.023 44.059 C 171.329 69.074,200.087 72.727,208.989 49.644 C 211.194 43.924,211.071 43.620,205.673 41.475 C 201.472 39.806,200.879 39.780,200.283 41.241 C 194.791 54.703,185.914 54.835,182.791 41.500 C 181.841 37.444,181.933 26.240,182.947 22.529 C 186.146 10.816,197.823 11.915,200.355 24.167 C 200.915 26.878,201.130 27.000,205.356 27.000 C 210.099 27.000,209.691 28.240,209.588 14.127 L 209.500 2.167 205.167 2.089 L 200.833 2.012 200.167 3.060 C 198.965 4.951,198.641 4.962,196.016 3.201 C 191.289 0.029,185.813 -0.859,181.217 0.801 M305.167 0.760 C 291.576 5.940,284.917 21.550,288.192 40.557 C 291.356 58.925,305.712 69.205,320.666 63.811 C 330.939 60.105,337.321 49.246,337.331 35.457 C 337.334 31.730,338.148 31.975,326.127 32.078 L 315.833 32.167 315.833 37.167 L 315.833 42.167 319.667 42.333 L 323.500 42.500 323.431 43.976 C 323.166 49.633,315.610 53.301,311.039 49.990 C 305.817 46.207,304.049 27.125,308.168 18.997 C 311.773 11.884,321.640 13.372,324.369 21.440 L 324.953 23.167 328.959 23.260 C 334.115 23.380,333.698 24.387,333.588 12.096 L 333.500 2.167 329.094 2.074 L 324.687 1.981 323.839 3.324 C 322.779 5.003,322.581 4.997,319.899 3.199 C 315.243 0.077,309.468 -0.879,305.167 0.760 M368.580 1.692 C 352.842 3.826,341.781 21.512,344.820 39.685 C 349.616 68.364,382.935 74.904,395.669 49.667 C 407.078 27.053,391.039 -1.353,368.580 1.692 M58.559 2.218 C 58.435 2.343,58.333 4.803,58.333 7.687 C 58.333 13.658,58.159 13.333,61.361 13.333 L 63.333 13.333 63.333 32.985 L 63.333 52.637 60.917 52.735 L 58.500 52.833 58.500 58.333 L 58.500 63.833 71.576 63.921 L 84.652 64.008 84.838 63.254 C 84.941 62.839,84.982 60.325,84.929 57.667 L 84.833 52.833 82.750 52.734 L 80.667 52.635 80.667 45.162 C 80.667 38.116,80.703 37.670,81.311 37.345 C 82.343 36.793,94.391 36.892,95.166 37.458 C 95.852 37.960,96.350 47.835,95.857 51.128 L 95.630 52.636 93.565 52.735 L 91.500 52.833 91.404 57.667 C 91.352 60.325,91.392 62.839,91.495 63.254 L 91.681 64.008 104.757 63.921 L 117.833 63.833 117.833 58.333 L 117.833 52.833 115.417 52.735 L 113.000 52.637 113.000 32.985 L 113.000 13.333 114.973 13.333 C 118.182 13.333,118.000 13.687,118.000 7.464 L 118.000 2.000 105.039 2.000 L 92.078 2.000 91.877 2.750 C 91.611 3.741,91.610 10.299,91.875 11.625 C 92.070 12.598,92.178 12.667,93.514 12.667 C 96.132 12.667,96.000 12.293,96.000 19.675 C 96.000 23.307,95.909 26.516,95.798 26.806 C 95.492 27.603,80.841 27.603,80.536 26.806 C 80.424 26.516,80.333 23.294,80.333 19.646 C 80.333 12.182,80.095 12.814,83.000 12.590 L 84.167 12.500 84.167 7.333 L 84.167 2.167 71.476 2.079 C 64.496 2.031,58.684 2.094,58.559 2.218 M128.869 2.527 C 128.476 3.551,128.645 12.179,129.067 12.600 C 129.293 12.826,130.378 13.000,131.567 13.000 L 133.667 13.000 133.667 32.819 L 133.667 52.637 131.250 52.735 L 128.833 52.833 128.738 57.667 C 128.685 60.325,128.725 62.837,128.827 63.250 L 129.013 64.000 141.773 64.000 C 151.253 64.000,154.636 63.897,154.933 63.600 C 155.384 63.149,155.506 53.787,155.070 53.101 C 154.928 52.878,153.863 52.658,152.658 52.601 L 150.500 52.500 150.500 33.000 L 150.500 13.500 151.833 13.411 C 154.897 13.207,154.667 13.688,154.667 7.494 L 154.667 2.000 141.869 2.000 C 130.507 2.000,129.049 2.059,128.869 2.527 M232.494 2.750 C 232.392 3.163,232.352 5.675,232.404 8.333 L 232.500 13.167 235.000 13.266 C 236.374 13.321,237.609 13.475,237.742 13.609 C 237.968 13.834,226.366 50.887,225.721 52.000 C 225.530 52.330,224.705 52.557,223.299 52.667 L 221.167 52.833 221.167 58.333 L 221.167 63.833 230.459 63.922 C 241.703 64.029,240.667 64.569,240.667 58.604 C 240.667 52.772,240.616 52.667,237.822 52.667 C 235.284 52.667,235.351 52.965,236.852 48.322 L 238.037 44.655 246.602 44.744 L 255.167 44.833 256.223 47.882 C 257.880 52.662,257.922 52.470,255.168 52.667 C 252.897 52.829,252.831 52.859,252.625 53.833 C 252.280 55.457,252.305 62.217,252.660 63.149 L 252.986 64.008 266.077 63.921 L 279.167 63.833 279.167 58.333 L 279.167 52.833 277.112 52.735 C 275.981 52.681,274.909 52.456,274.729 52.235 C 274.385 51.814,262.333 14.033,262.333 13.377 C 262.333 13.128,263.229 13.000,264.964 13.000 C 268.165 13.000,268.000 13.298,268.000 7.500 C 268.000 5.055,267.909 2.817,267.798 2.527 C 267.617 2.056,265.749 2.000,250.137 2.000 L 232.679 2.000 232.494 2.750 M374.772 14.329 C 383.313 19.745,384.146 44.182,376.047 51.757 C 366.092 61.069,356.993 36.011,364.461 19.848 C 367.134 14.064,371.049 11.968,374.772 14.329 M249.366 26.417 C 250.863 31.046,252.159 35.021,252.246 35.250 C 252.369 35.573,251.119 35.667,246.667 35.667 C 242.220 35.667,240.962 35.573,241.075 35.250 C 241.155 35.021,242.409 31.047,243.861 26.418 C 245.312 21.790,246.532 18.002,246.572 18.002 C 246.611 18.001,247.869 21.787,249.366 26.417 M301.657 78.940 C 291.533 82.283,286.405 92.175,289.211 102.951 C 290.727 108.770,293.772 111.791,303.024 116.653 C 311.015 120.852,312.329 122.112,312.875 126.091 C 313.891 133.506,300.788 131.007,297.104 123.083 L 295.980 120.667 292.830 120.667 C 288.940 120.667,289.288 119.515,289.407 132.000 L 289.500 141.833 292.583 141.929 C 294.411 141.986,295.667 141.894,295.667 141.703 C 295.667 139.845,298.868 138.567,300.469 139.786 C 312.241 148.757,329.341 139.927,329.424 124.833 C 329.476 115.405,325.872 110.437,314.821 104.701 C 307.069 100.678,303.768 96.683,305.471 93.389 C 307.906 88.681,318.159 92.914,320.466 99.580 C 320.966 101.023,321.528 101.252,324.686 101.300 C 328.243 101.354,328.024 102.106,327.922 90.167 L 327.833 79.833 324.776 79.738 L 321.719 79.642 320.778 80.905 C 319.107 83.146,318.395 83.208,315.621 81.355 C 311.397 78.535,305.812 77.569,301.657 78.940 M114.182 80.199 C 113.732 80.648,113.664 81.517,113.741 85.782 L 113.833 90.833 115.500 90.920 C 116.417 90.968,117.497 91.082,117.901 91.173 L 118.634 91.338 118.744 109.252 C 118.870 129.749,118.758 128.923,122.058 133.857 C 131.068 147.326,154.075 147.402,160.584 133.982 C 162.732 129.555,162.752 129.337,162.911 109.427 L 163.054 91.353 164.111 91.178 C 164.691 91.081,165.842 90.964,166.667 90.918 L 168.167 90.833 168.258 85.578 L 168.350 80.323 167.487 79.995 C 165.918 79.398,148.476 79.572,147.857 80.190 C 147.292 80.756,147.068 89.400,147.598 90.233 C 147.744 90.463,148.837 90.675,150.176 90.733 L 152.500 90.833 152.500 108.167 C 152.500 125.424,152.497 125.506,151.761 126.881 C 148.783 132.450,140.731 133.186,136.525 128.272 C 134.349 125.731,134.317 125.403,134.413 107.154 L 134.500 90.833 137.000 90.667 L 139.500 90.500 139.593 85.502 C 139.674 81.095,139.618 80.455,139.112 80.086 C 138.153 79.384,114.891 79.490,114.182 80.199 M179.083 80.221 C 178.774 80.346,178.667 81.792,178.667 85.846 L 178.667 91.303 179.750 91.483 C 180.346 91.581,181.433 91.701,182.167 91.748 L 183.500 91.833 183.500 111.167 L 183.500 130.500 181.167 130.667 L 178.833 130.833 178.833 136.333 L 178.833 141.833 200.130 141.919 C 215.708 141.982,221.549 141.903,221.884 141.624 C 222.259 141.313,222.327 139.322,222.255 130.705 L 222.167 120.167 217.333 120.167 L 212.500 120.167 212.407 125.144 C 212.352 128.120,212.168 130.297,211.950 130.560 C 211.494 131.109,200.982 131.192,199.978 130.655 C 199.166 130.221,198.944 91.958,199.750 91.436 C 199.979 91.288,201.142 91.092,202.333 91.000 L 204.500 90.833 204.592 85.878 C 204.655 82.508,204.562 80.776,204.302 80.462 C 203.922 80.004,180.182 79.777,179.083 80.221 M233.678 80.645 C 233.257 81.433,233.225 90.313,233.642 90.971 C 233.827 91.264,234.799 91.516,236.220 91.638 L 238.500 91.833 238.500 111.167 L 238.500 130.500 236.253 130.599 C 233.504 130.719,233.608 130.453,233.738 137.000 L 233.833 141.833 255.130 141.919 C 270.708 141.982,276.549 141.903,276.884 141.624 C 277.259 141.313,277.327 139.322,277.255 130.705 L 277.167 120.167 272.526 120.074 C 266.929 119.961,267.345 119.525,267.338 125.517 C 267.335 128.709,267.206 130.327,266.933 130.600 C 266.422 131.111,255.920 131.159,254.978 130.655 C 254.352 130.320,254.333 129.748,254.333 110.837 L 254.333 91.364 255.417 91.183 C 256.012 91.084,257.175 90.964,258.000 90.918 L 259.500 90.833 259.592 85.878 C 259.655 82.508,259.562 80.776,259.302 80.462 C 258.604 79.621,234.133 79.796,233.678 80.645 M54.817 80.756 C 54.724 80.997,54.690 83.513,54.741 86.347 L 54.833 91.500 57.333 91.667 L 59.833 91.833 59.926 110.500 C 60.034 132.562,60.257 130.667,57.560 130.667 C 56.376 130.667,55.293 130.840,55.067 131.067 C 54.438 131.695,54.510 141.535,55.145 141.779 C 55.407 141.880,64.246 141.990,74.786 142.024 L 93.949 142.087 96.099 141.081 C 107.870 135.572,108.157 118.234,96.589 111.401 C 95.423 110.712,95.430 110.664,96.846 109.700 C 107.293 102.585,106.006 87.488,94.466 81.784 L 91.869 80.500 73.427 80.408 C 58.419 80.334,54.954 80.399,54.817 80.756 M341.795 90.083 C 342.449 95.672,342.757 102.285,342.759 110.833 C 342.774 159.080,327.231 173.037,277.167 169.732 C 265.269 168.947,232.209 167.681,205.333 166.982 C 182.906 166.399,166.309 167.041,123.500 170.148 C 90.678 172.530,86.267 172.780,81.333 172.545 C 62.314 171.636,49.740 164.797,43.052 151.722 C 38.540 142.902,37.138 132.593,36.702 105.014 L 36.500 92.195 33.447 97.847 C 15.237 131.566,10.426 167.317,21.212 188.770 C 30.722 207.683,54.960 219.200,87.833 220.425 L 89.833 220.500 87.333 220.950 C 85.958 221.197,82.358 221.844,79.333 222.389 C 68.861 224.273,54.329 227.979,46.667 230.721 C 42.613 232.171,33.012 236.188,32.589 236.611 C 32.452 236.748,33.672 238.504,35.302 240.514 C 47.844 255.982,71.832 260.305,94.265 251.141 C 95.861 250.489,97.392 249.888,97.667 249.804 C 98.051 249.688,98.502 250.715,99.616 254.243 C 104.060 268.312,123.233 309.739,134.524 329.667 C 136.654 333.425,138.926 337.447,139.573 338.603 L 140.750 340.707 140.135 342.103 C 139.797 342.872,138.406 344.608,137.044 345.962 L 134.567 348.423 134.775 352.989 C 135.505 369.036,140.791 383.736,149.522 394.000 C 152.341 397.314,163.944 400.812,176.667 402.183 C 196.395 404.309,225.515 399.961,230.068 394.210 C 237.972 384.226,244.822 367.740,246.368 354.981 L 246.771 351.661 244.557 349.368 C 242.380 347.113,240.000 343.030,240.000 341.550 C 240.000 341.201,240.902 339.172,242.004 337.041 C 250.972 319.707,270.420 277.514,275.670 264.000 C 277.534 259.203,281.586 249.303,281.754 249.135 C 281.810 249.079,283.334 249.629,285.141 250.356 C 307.171 259.222,329.602 254.496,343.342 238.095 C 346.442 234.395,346.481 234.708,342.761 233.416 C 325.608 227.460,320.640 226.026,305.500 222.665 C 299.633 221.363,294.711 220.265,294.561 220.225 C 294.411 220.184,297.561 219.429,301.561 218.546 C 366.837 204.131,380.622 166.975,346.498 97.417 C 341.781 87.801,341.471 87.317,341.795 90.083 M81.667 91.015 C 87.432 91.927,90.607 95.729,89.368 100.235 C 88.391 103.786,85.988 105.146,80.667 105.158 L 76.833 105.167 76.743 98.376 C 76.630 89.902,76.440 90.187,81.667 91.015 M347.992 106.417 C 352.033 114.831,360.812 141.299,359.873 142.238 C 359.796 142.315,358.141 141.232,356.196 139.831 L 352.659 137.284 348.191 139.642 C 345.733 140.939,343.588 142.000,343.425 142.000 C 343.261 142.000,343.395 140.087,343.723 137.750 C 344.898 129.379,345.351 122.126,345.333 112.018 C 345.323 106.600,345.319 102.054,345.324 101.917 C 345.352 101.152,345.935 102.135,347.992 106.417 M34.780 115.172 C 34.943 128.215,35.253 132.231,36.675 139.748 C 37.048 141.718,37.450 143.593,37.569 143.915 C 37.688 144.237,35.804 142.587,33.383 140.250 C 30.962 137.912,28.844 136.000,28.676 136.000 C 28.509 136.000,26.882 137.688,25.061 139.750 C 23.240 141.813,21.369 143.852,20.903 144.282 L 20.055 145.064 20.869 141.282 C 23.078 131.017,26.926 119.066,31.103 109.500 C 33.152 104.809,34.369 102.258,34.498 102.387 C 34.566 102.455,34.694 108.209,34.780 115.172 M81.762 115.674 C 93.010 117.300,92.143 130.197,80.788 130.156 C 76.439 130.140,76.667 130.553,76.667 122.693 C 76.667 114.568,76.424 114.902,81.762 115.674 M32.982 143.547 C 37.879 147.960,38.981 149.343,40.485 152.964 C 44.048 161.540,52.709 168.967,63.118 172.373 C 71.690 175.178,81.709 175.515,105.583 173.802 C 110.029 173.483,113.753 173.308,113.858 173.413 C 113.963 173.518,113.227 176.133,112.221 179.224 C 108.881 189.496,106.198 200.429,104.669 210.000 C 104.273 212.475,103.843 215.100,103.713 215.833 L 103.477 217.167 92.489 217.161 C 48.478 217.141,23.287 201.276,18.679 170.677 C 17.789 164.764,17.991 152.822,19.026 150.097 C 19.280 149.429,28.187 139.667,28.542 139.667 C 28.616 139.667,30.614 141.413,32.982 143.547 M354.037 141.777 C 361.151 146.671,360.759 146.126,361.360 151.947 C 365.360 190.713,335.295 214.711,278.774 217.865 L 274.714 218.092 274.517 216.963 C 274.409 216.341,273.791 212.083,273.143 207.500 C 271.724 197.460,269.893 188.073,267.659 179.375 C 266.747 175.823,266.000 172.787,266.000 172.627 C 266.000 172.466,274.283 172.373,284.750 172.419 C 304.744 172.505,305.747 172.447,312.649 170.808 C 324.437 168.008,330.786 163.325,338.596 151.667 C 340.376 149.008,341.919 146.792,342.024 146.742 C 342.129 146.692,344.454 145.379,347.190 143.825 C 352.799 140.641,352.511 140.727,354.037 141.777 M219.333 169.670 C 231.046 170.074,252.411 170.916,258.542 171.216 L 262.918 171.431 264.281 175.799 C 267.733 186.867,270.414 202.195,271.521 217.201 L 271.745 220.234 276.759 220.461 C 296.705 221.361,320.232 226.367,337.821 233.454 C 342.313 235.264,342.244 234.944,338.878 238.387 C 325.123 252.455,304.695 255.479,284.218 246.479 L 280.936 245.037 279.334 248.435 C 278.453 250.304,276.985 253.783,276.073 256.167 C 271.168 268.976,269.165 271.921,263.500 274.648 C 257.243 277.660,251.236 277.159,247.480 273.312 C 245.938 271.734,245.784 271.874,249.797 271.207 C 263.780 268.880,270.561 261.541,272.837 246.266 L 273.071 244.699 274.952 244.294 C 278.923 243.441,280.034 242.037,279.366 238.713 C 278.361 233.705,275.924 232.167,269.000 232.167 C 260.557 232.167,256.221 234.519,245.667 244.824 C 231.795 258.368,227.795 261.102,219.817 262.493 C 206.265 264.857,197.563 258.282,193.671 242.736 C 192.792 239.225,192.454 239.475,198.404 239.222 C 205.442 238.922,222.785 237.237,233.800 235.783 C 236.266 235.458,237.369 234.120,235.917 233.215 C 235.262 232.807,234.255 232.865,228.000 233.669 C 216.933 235.091,201.933 236.317,195.464 236.328 L 192.428 236.333 192.214 234.284 C 191.465 227.115,191.672 226.680,195.833 226.671 C 205.345 226.651,232.639 223.398,234.056 222.116 C 236.145 220.226,234.064 219.751,228.291 220.801 C 219.616 222.378,211.373 223.156,198.583 223.603 L 191.999 223.833 192.000 218.083 L 192.000 212.333 193.632 212.333 C 202.948 212.333,231.876 208.533,232.866 207.179 C 234.069 205.533,232.516 205.195,227.511 206.014 C 219.141 207.385,204.004 208.797,194.583 209.087 L 191.998 209.167 191.999 204.272 C 192.000 199.301,191.724 197.667,190.882 197.667 C 189.738 197.667,189.502 198.682,189.387 204.098 L 189.273 209.429 183.553 209.202 C 173.124 208.788,158.421 207.537,150.196 206.364 C 147.093 205.921,145.219 207.202,147.322 208.327 C 149.442 209.462,170.544 211.752,183.083 212.209 L 189.333 212.436 189.333 218.051 L 189.333 223.667 186.417 223.663 C 179.936 223.656,164.303 222.223,153.584 220.655 C 149.959 220.124,146.770 219.776,146.497 219.881 C 145.735 220.173,145.898 221.584,146.759 222.149 C 148.760 223.459,170.008 226.079,182.897 226.603 C 186.232 226.739,189.039 226.928,189.135 227.024 C 189.231 227.120,189.216 229.277,189.101 231.817 L 188.893 236.435 182.530 236.218 C 175.247 235.969,167.871 235.370,156.667 234.116 C 147.961 233.141,147.808 233.134,147.140 233.689 C 146.531 234.194,146.538 234.811,147.158 235.326 C 148.375 236.336,168.122 238.415,183.750 239.178 C 189.123 239.440,188.859 239.110,187.483 243.859 C 183.980 255.949,175.072 263.984,165.167 263.990 C 155.162 263.996,148.502 260.167,133.273 245.653 C 118.110 231.201,106.253 228.254,101.516 237.760 C 99.277 242.252,100.642 245.510,105.038 246.166 L 106.576 246.395 106.774 248.448 C 108.008 261.254,116.065 269.028,129.933 270.794 L 133.167 271.206 131.263 273.076 C 125.215 279.015,116.643 279.026,110.812 273.101 C 108.392 270.642,106.110 265.980,103.175 257.500 C 100.448 249.620,99.247 246.815,98.634 246.892 C 98.377 246.924,96.127 247.790,93.633 248.816 C 73.346 257.162,52.531 254.017,39.250 240.599 C 35.660 236.972,35.657 237.073,39.417 235.606 C 55.491 229.331,79.433 223.866,99.858 221.810 C 105.759 221.216,105.986 221.131,105.996 219.500 C 106.018 216.203,108.623 201.241,110.494 193.667 C 112.754 184.521,116.449 172.716,117.124 172.488 C 117.785 172.264,159.826 169.952,174.500 169.332 C 182.205 169.006,205.054 169.179,219.333 169.670 M268.242 249.750 C 267.896 255.387,265.714 260.391,262.198 263.612 C 258.164 267.306,248.500 269.579,248.500 266.834 C 248.500 265.842,248.517 265.833,251.167 265.430 C 255.577 264.760,258.066 263.621,260.747 261.048 C 263.199 258.694,264.215 255.896,265.212 248.753 C 265.368 247.632,266.523 246.707,267.799 246.680 C 268.389 246.668,268.418 246.875,268.242 249.750 M113.769 249.500 C 114.686 255.185,115.772 257.757,118.199 259.994 C 120.808 262.400,124.078 263.622,129.383 264.176 C 131.426 264.390,131.748 264.760,131.412 266.514 L 131.237 267.428 128.035 267.227 C 118.781 266.646,112.281 261.311,110.501 252.833 C 109.550 248.301,109.764 247.651,112.167 247.768 C 113.496 247.833,113.501 247.838,113.769 249.500 M193.667 269.460 C 202.646 279.004,217.089 280.319,234.105 273.142 C 237.356 271.771,237.180 271.578,235.974 275.181 C 229.421 294.746,228.944 319.212,234.729 339.000 C 236.471 344.960,236.736 344.651,231.990 342.194 C 207.784 329.668,174.389 328.951,150.222 340.439 C 148.083 341.455,146.333 342.185,146.333 342.059 C 146.333 341.934,146.787 340.257,147.341 338.333 C 150.149 328.584,150.937 323.892,151.234 315.167 C 151.647 303.057,149.710 290.289,145.630 278.214 C 144.895 276.040,144.341 274.218,144.397 274.165 C 144.454 274.112,146.054 274.590,147.953 275.227 C 163.748 280.520,177.678 278.266,186.667 268.963 L 190.167 265.341 190.833 266.249 C 191.200 266.748,192.475 268.193,193.667 269.460 M135.333 275.582 C 135.333 280.403,131.545 286.767,127.831 288.185 C 122.307 290.295,114.036 285.121,112.479 278.584 L 112.261 277.668 114.464 278.699 C 119.597 281.101,128.444 279.492,133.862 275.171 C 134.991 274.271,135.333 274.367,135.333 275.582 M267.367 276.658 C 265.417 281.791,259.652 286.667,255.535 286.667 C 251.033 286.667,246.313 282.236,245.356 277.111 C 244.983 275.117,244.984 275.116,246.486 276.136 C 251.321 279.417,259.330 279.508,265.359 276.351 C 266.720 275.638,267.870 275.043,267.915 275.028 C 267.960 275.012,267.714 275.746,267.367 276.658 M138.751 282.520 C 145.507 297.613,147.801 318.530,144.708 336.833 L 144.145 340.167 142.525 337.667 C 135.650 327.058,128.344 313.302,120.726 296.624 C 116.744 287.906,116.881 288.562,119.238 289.513 C 127.582 292.883,133.727 289.509,136.817 279.861 C 137.089 279.012,137.328 279.340,138.751 282.520 M244.451 281.781 C 248.797 287.873,253.413 289.946,259.466 288.526 C 260.730 288.230,261.824 288.046,261.896 288.118 C 262.390 288.612,251.976 311.390,243.657 328.009 L 237.572 340.167 236.941 338.333 C 233.762 329.092,234.745 309.916,239.325 291.833 C 240.074 288.878,242.758 279.667,242.870 279.667 C 242.909 279.667,243.621 280.618,244.451 281.781 M228.344 282.583 C 222.706 307.807,203.443 323.054,182.667 318.738 C 168.208 315.735,158.039 303.609,154.982 285.727 C 154.256 281.479,154.262 281.495,153.472 281.798 C 151.945 282.384,154.707 293.734,158.002 300.416 C 164.079 312.738,172.533 319.051,185.167 320.698 C 203.622 323.104,218.941 312.548,227.102 291.802 C 228.823 287.426,230.364 281.497,229.901 281.034 C 229.168 280.301,228.765 280.703,228.344 282.583 M197.500 334.674 C 213.320 336.140,232.127 343.412,242.435 352.050 L 243.370 352.833 242.836 356.500 C 240.704 371.143,230.940 391.374,224.867 393.728 C 205.083 401.398,177.578 401.921,157.584 395.006 C 152.389 393.209,152.439 393.249,148.422 387.703 C 142.156 379.051,137.337 363.361,137.334 351.604 L 137.333 350.042 140.109 348.214 C 155.624 337.997,177.547 332.825,197.500 334.674 M210.211 348.844 C 200.869 351.192,196.080 360.730,200.167 368.850 C 202.136 372.764,203.597 372.386,202.167 368.333 C 201.205 365.608,201.624 362.552,202.687 364.538 C 207.040 372.672,221.367 372.386,226.242 364.068 C 231.447 355.186,221.723 345.951,210.211 348.844 M160.000 350.477 C 148.940 353.555,147.898 365.636,158.253 370.734 C 163.817 373.474,170.935 371.778,175.426 366.644 L 177.000 364.845 177.000 366.752 C 177.000 367.831,176.720 369.397,176.355 370.358 C 175.280 373.185,176.453 374.045,177.909 371.497 C 184.717 359.577,173.714 346.661,160.000 350.477 M184.484 380.657 C 170.882 381.658,149.603 387.590,153.816 389.206 C 154.081 389.308,155.725 388.857,157.468 388.204 C 176.876 380.934,198.511 380.598,218.441 387.258 C 225.188 389.512,225.998 389.617,226.264 388.267 C 226.449 387.332,217.657 384.107,210.667 382.546 C 203.132 380.864,192.297 380.082,184.484 380.657 " stroke="none" fill="#040404" fill-rule="evenodd"></path><path id="path3" d="M345.474 112.833 C 345.475 116.683,345.523 118.213,345.582 116.232 C 345.641 114.251,345.641 111.101,345.582 109.232 C 345.522 107.363,345.474 108.983,345.474 112.833 M34.470 113.833 C 34.469 116.950,34.519 118.270,34.581 116.766 C 34.643 115.263,34.643 112.713,34.582 111.100 C 34.521 109.487,34.470 110.717,34.470 113.833 M345.077 124.667 C 345.077 125.308,345.146 125.571,345.230 125.250 C 345.314 124.929,345.314 124.404,345.230 124.083 C 345.146 123.763,345.077 124.025,345.077 124.667 M34.744 125.000 C 34.744 125.642,34.813 125.904,34.896 125.583 C 34.980 125.263,34.980 124.737,34.896 124.417 C 34.813 124.096,34.744 124.358,34.744 125.000 M34.333 141.167 C 35.329 142.175,36.219 143.000,36.311 143.000 C 36.402 143.000,35.662 142.175,34.667 141.167 C 33.671 140.158,32.781 139.333,32.689 139.333 C 32.598 139.333,33.338 140.158,34.333 141.167 M182.930 169.247 C 184.083 169.312,185.883 169.312,186.930 169.246 C 187.977 169.180,187.033 169.127,184.833 169.127 C 182.633 169.128,181.777 169.182,182.930 169.247 M192.599 169.248 C 194.120 169.310,196.520 169.310,197.932 169.247 C 199.345 169.185,198.100 169.135,195.167 169.135 C 192.233 169.135,191.078 169.186,192.599 169.248 M172.250 169.574 C 172.846 169.648,173.821 169.648,174.417 169.574 C 175.012 169.501,174.525 169.440,173.333 169.440 C 172.142 169.440,171.654 169.501,172.250 169.574 M209.750 169.576 C 210.438 169.648,211.563 169.648,212.250 169.576 C 212.938 169.504,212.375 169.445,211.000 169.445 C 209.625 169.445,209.063 169.504,209.750 169.576 M164.417 169.905 C 164.921 169.982,165.746 169.982,166.250 169.905 C 166.754 169.829,166.342 169.767,165.333 169.767 C 164.325 169.767,163.912 169.829,164.417 169.905 M220.576 169.907 C 221.168 169.981,222.218 169.982,222.909 169.910 C 223.601 169.838,223.117 169.778,221.833 169.776 C 220.550 169.775,219.984 169.834,220.576 169.907 M157.583 170.235 C 157.996 170.315,158.671 170.315,159.083 170.235 C 159.496 170.156,159.158 170.091,158.333 170.091 C 157.508 170.091,157.171 170.156,157.583 170.235 M230.589 170.242 C 231.188 170.316,232.088 170.314,232.589 170.238 C 233.090 170.162,232.600 170.101,231.500 170.103 C 230.400 170.105,229.990 170.167,230.589 170.242 M151.088 170.573 C 151.595 170.649,152.345 170.647,152.755 170.568 C 153.165 170.489,152.750 170.426,151.833 170.429 C 150.917 170.431,150.581 170.496,151.088 170.573 M239.083 170.572 C 239.588 170.648,240.412 170.648,240.917 170.572 C 241.421 170.496,241.008 170.433,240.000 170.433 C 238.992 170.433,238.579 170.496,239.083 170.572 M144.917 170.902 C 145.329 170.981,146.004 170.981,146.417 170.902 C 146.829 170.822,146.492 170.757,145.667 170.757 C 144.842 170.757,144.504 170.822,144.917 170.902 M247.589 170.908 C 248.188 170.982,249.088 170.981,249.589 170.905 C 250.090 170.829,249.600 170.768,248.500 170.770 C 247.400 170.772,246.990 170.834,247.589 170.908 M139.254 171.236 C 139.669 171.315,140.269 171.312,140.587 171.229 C 140.906 171.146,140.567 171.080,139.833 171.084 C 139.100 171.088,138.839 171.156,139.254 171.236 M255.088 171.239 C 255.595 171.316,256.345 171.314,256.755 171.235 C 257.165 171.156,256.750 171.093,255.833 171.095 C 254.917 171.098,254.581 171.163,255.088 171.239 M133.250 171.569 C 133.662 171.648,134.337 171.648,134.750 171.569 C 135.162 171.489,134.825 171.424,134.000 171.424 C 133.175 171.424,132.837 171.489,133.250 171.569 M127.587 171.902 C 128.002 171.982,128.602 171.979,128.921 171.896 C 129.239 171.812,128.900 171.747,128.167 171.751 C 127.433 171.754,127.173 171.823,127.587 171.902 M121.917 172.235 C 122.329 172.315,123.004 172.315,123.417 172.235 C 123.829 172.156,123.492 172.091,122.667 172.091 C 121.842 172.091,121.504 172.156,121.917 172.235 M208.417 208.230 C 208.737 208.314,209.262 208.314,209.583 208.230 C 209.904 208.146,209.642 208.077,209.000 208.077 C 208.358 208.077,208.096 208.146,208.417 208.230 M171.417 208.563 C 171.737 208.647,172.262 208.647,172.583 208.563 C 172.904 208.479,172.642 208.411,172.000 208.411 C 171.358 208.411,171.096 208.479,171.417 208.563 M204.083 208.563 C 204.404 208.647,204.929 208.647,205.250 208.563 C 205.571 208.479,205.308 208.411,204.667 208.411 C 204.025 208.411,203.762 208.479,204.083 208.563 M176.583 208.902 C 176.996 208.981,177.671 208.981,178.083 208.902 C 178.496 208.822,178.158 208.757,177.333 208.757 C 176.508 208.757,176.171 208.822,176.583 208.902 M198.421 208.906 C 198.928 208.982,199.678 208.980,200.088 208.901 C 200.498 208.822,200.083 208.760,199.167 208.762 C 198.250 208.765,197.915 208.829,198.421 208.906 M183.576 209.241 C 184.168 209.314,185.218 209.315,185.909 209.243 C 186.601 209.171,186.117 209.111,184.833 209.109 C 183.550 209.108,182.984 209.167,183.576 209.241 M169.417 211.563 C 169.737 211.647,170.262 211.647,170.583 211.563 C 170.904 211.479,170.642 211.411,170.000 211.411 C 169.358 211.411,169.096 211.479,169.417 211.563 M173.750 211.896 C 174.071 211.980,174.596 211.980,174.917 211.896 C 175.237 211.813,174.975 211.744,174.333 211.744 C 173.692 211.744,173.429 211.813,173.750 211.896 M202.083 211.896 C 202.404 211.980,202.929 211.980,203.250 211.896 C 203.571 211.813,203.308 211.744,202.667 211.744 C 202.025 211.744,201.762 211.813,202.083 211.896 M179.083 212.239 C 179.588 212.315,180.412 212.315,180.917 212.239 C 181.421 212.162,181.008 212.100,180.000 212.100 C 178.992 212.100,178.579 212.162,179.083 212.239 M197.417 212.230 C 197.737 212.314,198.262 212.314,198.583 212.230 C 198.904 212.146,198.642 212.077,198.000 212.077 C 197.358 212.077,197.096 212.146,197.417 212.230 M275.917 220.569 C 276.329 220.648,277.004 220.648,277.417 220.569 C 277.829 220.489,277.492 220.424,276.667 220.424 C 275.842 220.424,275.504 220.489,275.917 220.569 M281.417 220.896 C 281.737 220.980,282.262 220.980,282.583 220.896 C 282.904 220.813,282.642 220.744,282.000 220.744 C 281.358 220.744,281.096 220.813,281.417 220.896 M211.417 222.896 C 211.737 222.980,212.262 222.980,212.583 222.896 C 212.904 222.813,212.642 222.744,212.000 222.744 C 211.358 222.744,211.096 222.813,211.417 222.896 M176.921 223.236 C 177.335 223.315,177.935 223.312,178.254 223.229 C 178.573 223.146,178.233 223.080,177.500 223.084 C 176.767 223.088,176.506 223.156,176.921 223.236 M206.254 223.236 C 206.669 223.315,207.269 223.312,207.587 223.229 C 207.906 223.146,207.567 223.080,206.833 223.084 C 206.100 223.088,205.839 223.156,206.254 223.236 M182.250 223.569 C 182.662 223.648,183.338 223.648,183.750 223.569 C 184.162 223.489,183.825 223.424,183.000 223.424 C 182.175 223.424,181.838 223.489,182.250 223.569 M198.583 223.574 C 199.179 223.648,200.154 223.648,200.750 223.574 C 201.346 223.501,200.858 223.440,199.667 223.440 C 198.475 223.440,197.987 223.501,198.583 223.574 M173.417 226.230 C 173.737 226.314,174.262 226.314,174.583 226.230 C 174.904 226.146,174.642 226.077,174.000 226.077 C 173.358 226.077,173.096 226.146,173.417 226.230 M205.417 226.230 C 205.737 226.314,206.262 226.314,206.583 226.230 C 206.904 226.146,206.642 226.077,206.000 226.077 C 205.358 226.077,205.096 226.146,205.417 226.230 M178.254 226.569 C 178.669 226.649,179.269 226.646,179.587 226.562 C 179.906 226.479,179.567 226.414,178.833 226.417 C 178.100 226.421,177.839 226.489,178.254 226.569 M200.583 226.569 C 200.996 226.648,201.671 226.648,202.083 226.569 C 202.496 226.489,202.158 226.424,201.333 226.424 C 200.508 226.424,200.171 226.489,200.583 226.569 M184.750 226.909 C 185.438 226.981,186.563 226.981,187.250 226.909 C 187.938 226.838,187.375 226.779,186.000 226.779 C 184.625 226.779,184.063 226.838,184.750 226.909 M193.923 226.908 C 194.522 226.982,195.422 226.981,195.923 226.905 C 196.424 226.829,195.933 226.768,194.833 226.770 C 193.733 226.772,193.324 226.834,193.923 226.908 M189.095 228.500 C 189.098 229.417,189.163 229.752,189.239 229.245 C 189.316 228.739,189.314 227.989,189.235 227.579 C 189.156 227.169,189.093 227.583,189.095 228.500 M192.123 230.333 C 192.123 232.258,192.178 233.046,192.246 232.083 C 192.313 231.121,192.313 229.546,192.246 228.583 C 192.178 227.621,192.123 228.408,192.123 230.333 M267.917 231.908 C 268.512 231.982,269.487 231.982,270.083 231.908 C 270.679 231.834,270.192 231.773,269.000 231.773 C 267.808 231.773,267.321 231.834,267.917 231.908 M170.750 235.563 C 171.071 235.647,171.596 235.647,171.917 235.563 C 172.237 235.479,171.975 235.411,171.333 235.411 C 170.692 235.411,170.429 235.479,170.750 235.563 M209.083 235.563 C 209.404 235.647,209.929 235.647,210.250 235.563 C 210.571 235.479,210.308 235.411,209.667 235.411 C 209.025 235.411,208.762 235.479,209.083 235.563 M175.254 235.902 C 175.669 235.982,176.269 235.979,176.587 235.896 C 176.906 235.812,176.567 235.747,175.833 235.751 C 175.100 235.754,174.839 235.823,175.254 235.902 M204.254 235.902 C 204.669 235.982,205.269 235.979,205.587 235.896 C 205.906 235.812,205.567 235.747,204.833 235.751 C 204.100 235.754,203.839 235.823,204.254 235.902 M180.917 236.235 C 181.329 236.315,182.004 236.315,182.417 236.235 C 182.829 236.156,182.492 236.091,181.667 236.091 C 180.842 236.091,180.504 236.156,180.917 236.235 M198.088 236.239 C 198.595 236.316,199.345 236.314,199.755 236.235 C 200.165 236.156,199.750 236.093,198.833 236.095 C 197.917 236.098,197.581 236.163,198.088 236.239 M170.750 238.563 C 171.071 238.647,171.596 238.647,171.917 238.563 C 172.237 238.479,171.975 238.411,171.333 238.411 C 170.692 238.411,170.429 238.479,170.750 238.563 M209.083 238.563 C 209.404 238.647,209.929 238.647,210.250 238.563 C 210.571 238.479,210.308 238.411,209.667 238.411 C 209.025 238.411,208.762 238.479,209.083 238.563 M175.587 238.902 C 176.002 238.982,176.602 238.979,176.921 238.896 C 177.239 238.812,176.900 238.747,176.167 238.751 C 175.433 238.754,175.173 238.823,175.587 238.902 M39.500 241.000 C 40.589 242.100,41.554 243.000,41.646 243.000 C 41.737 243.000,40.922 242.100,39.833 241.000 C 38.745 239.900,37.779 239.000,37.688 239.000 C 37.596 239.000,38.411 239.900,39.500 241.000 M181.755 239.239 C 182.261 239.316,183.011 239.314,183.421 239.235 C 183.831 239.156,183.417 239.093,182.500 239.095 C 181.583 239.098,181.248 239.163,181.755 239.239 M200.750 239.230 C 201.071 239.314,201.596 239.314,201.917 239.230 C 202.237 239.146,201.975 239.077,201.333 239.077 C 200.692 239.077,200.429 239.146,200.750 239.230 M194.083 239.572 C 194.588 239.648,195.412 239.648,195.917 239.572 C 196.421 239.496,196.008 239.433,195.000 239.433 C 193.992 239.433,193.579 239.496,194.083 239.572 M100.417 241.500 C 100.421 242.233,100.489 242.494,100.569 242.079 C 100.649 241.665,100.646 241.065,100.562 240.746 C 100.479 240.427,100.414 240.767,100.417 241.500 M244.996 245.250 L 240.167 250.167 245.083 245.338 C 249.651 240.852,250.151 240.333,249.912 240.333 C 249.864 240.333,247.652 242.546,244.996 245.250 M131.500 244.000 C 132.958 245.467,134.226 246.667,134.318 246.667 C 134.409 246.667,133.291 245.467,131.833 244.000 C 130.375 242.533,129.107 241.333,129.016 241.333 C 128.924 241.333,130.042 242.533,131.500 244.000 M138.000 250.104 C 138.000 250.162,138.487 250.649,139.083 251.188 L 140.167 252.167 139.188 251.083 C 138.275 250.074,138.000 249.847,138.000 250.104 M304.254 251.569 C 304.669 251.649,305.269 251.646,305.587 251.562 C 305.906 251.479,305.567 251.414,304.833 251.417 C 304.100 251.421,303.839 251.489,304.254 251.569 M65.750 253.230 C 66.071 253.314,66.596 253.314,66.917 253.230 C 67.237 253.146,66.975 253.077,66.333 253.077 C 65.692 253.077,65.429 253.146,65.750 253.230 M72.587 253.236 C 73.002 253.315,73.602 253.312,73.921 253.229 C 74.239 253.146,73.900 253.080,73.167 253.084 C 72.433 253.088,72.173 253.156,72.587 253.236 M113.319 263.750 C 114.701 265.222,115.000 265.486,115.000 265.236 C 115.000 265.183,114.287 264.470,113.417 263.653 L 111.833 262.167 113.319 263.750 M214.083 262.909 C 214.771 262.981,215.896 262.981,216.583 262.909 C 217.271 262.838,216.708 262.779,215.333 262.779 C 213.958 262.779,213.396 262.838,214.083 262.909 M265.000 264.500 C 264.190 265.325,263.603 266.000,263.695 266.000 C 263.786 266.000,264.524 265.325,265.333 264.500 C 266.143 263.675,266.730 263.000,266.639 263.000 C 266.547 263.000,265.810 263.675,265.000 264.500 M188.982 266.583 L 187.833 267.833 189.016 266.750 C 189.984 265.863,190.284 265.742,190.667 266.083 C 191.065 266.438,191.069 266.413,190.693 265.917 C 190.144 265.191,190.328 265.119,188.982 266.583 M186.000 269.833 C 185.190 270.658,184.603 271.333,184.695 271.333 C 184.786 271.333,185.524 270.658,186.333 269.833 C 187.143 269.008,187.730 268.333,187.639 268.333 C 187.547 268.333,186.810 269.008,186.000 269.833 M193.833 270.000 C 194.736 270.917,195.550 271.667,195.642 271.667 C 195.733 271.667,195.070 270.917,194.167 270.000 C 193.264 269.083,192.450 268.333,192.358 268.333 C 192.267 268.333,192.930 269.083,193.833 270.000 M131.146 273.083 L 130.167 274.167 131.250 273.188 C 132.260 272.275,132.487 272.000,132.229 272.000 C 132.172 272.000,131.684 272.487,131.146 273.083 M211.583 277.902 C 211.996 277.981,212.671 277.981,213.083 277.902 C 213.496 277.822,213.158 277.757,212.333 277.757 C 211.508 277.757,211.171 277.822,211.583 277.902 M215.088 277.906 C 215.595 277.982,216.345 277.980,216.755 277.901 C 217.165 277.822,216.750 277.760,215.833 277.762 C 214.917 277.765,214.581 277.829,215.088 277.906 M254.750 278.905 C 255.254 278.982,256.079 278.982,256.583 278.905 C 257.087 278.829,256.675 278.767,255.667 278.767 C 254.658 278.767,254.246 278.829,254.750 278.905 M263.146 282.750 L 262.167 283.833 263.250 282.854 C 263.846 282.316,264.333 281.828,264.333 281.771 C 264.333 281.513,264.058 281.740,263.146 282.750 M246.000 284.104 C 246.000 284.162,246.487 284.649,247.083 285.188 L 248.167 286.167 247.188 285.083 C 246.275 284.074,246.000 283.847,246.000 284.104 M254.755 286.573 C 255.261 286.649,256.011 286.647,256.421 286.568 C 256.831 286.489,256.417 286.426,255.500 286.429 C 254.583 286.431,254.248 286.496,254.755 286.573 M230.744 301.333 C 230.744 301.975,230.813 302.237,230.896 301.917 C 230.980 301.596,230.980 301.071,230.896 300.750 C 230.813 300.429,230.744 300.692,230.744 301.333 M151.084 305.167 C 151.088 305.900,151.156 306.161,151.236 305.746 C 151.315 305.331,151.312 304.731,151.229 304.413 C 151.146 304.094,151.080 304.433,151.084 305.167 M214.487 309.083 L 212.833 310.833 214.583 309.179 C 216.209 307.642,216.486 307.333,216.237 307.333 C 216.185 307.333,215.397 308.121,214.487 309.083 M215.156 310.750 L 213.167 312.833 215.250 310.844 C 216.396 309.750,217.333 308.812,217.333 308.760 C 217.333 308.514,217.004 308.815,215.156 310.750 M145.751 312.833 C 145.754 313.567,145.823 313.827,145.902 313.413 C 145.982 312.998,145.979 312.398,145.896 312.079 C 145.812 311.761,145.747 312.100,145.751 312.833 M235.429 313.833 C 235.431 314.750,235.496 315.085,235.573 314.579 C 235.649 314.072,235.647 313.322,235.568 312.912 C 235.489 312.502,235.426 312.917,235.429 313.833 M230.751 317.167 C 230.754 317.900,230.823 318.161,230.902 317.746 C 230.982 317.331,230.979 316.731,230.896 316.413 C 230.812 316.094,230.747 316.433,230.751 317.167 M151.077 319.000 C 151.077 319.642,151.146 319.904,151.230 319.583 C 151.314 319.262,151.314 318.737,151.230 318.417 C 151.146 318.096,151.077 318.358,151.077 319.000 M235.127 323.500 C 235.128 325.700,235.182 326.557,235.247 325.404 C 235.312 324.251,235.312 322.451,235.246 321.404 C 235.180 320.357,235.127 321.300,235.127 323.500 M145.751 326.500 C 145.754 327.233,145.823 327.494,145.902 327.079 C 145.982 326.665,145.979 326.065,145.896 325.746 C 145.812 325.427,145.747 325.767,145.751 326.500 M187.250 332.247 C 188.396 332.312,190.271 332.312,191.417 332.247 C 192.563 332.182,191.625 332.128,189.333 332.128 C 187.042 332.128,186.104 332.182,187.250 332.247 M180.417 332.563 C 180.737 332.647,181.262 332.647,181.583 332.563 C 181.904 332.479,181.642 332.411,181.000 332.411 C 180.358 332.411,180.096 332.479,180.417 332.563 M184.088 334.573 C 184.595 334.649,185.345 334.647,185.755 334.568 C 186.165 334.489,185.750 334.426,184.833 334.429 C 183.917 334.431,183.581 334.496,184.088 334.573 M193.088 334.573 C 193.595 334.649,194.345 334.647,194.755 334.568 C 195.165 334.489,194.750 334.426,193.833 334.429 C 192.917 334.431,192.581 334.496,193.088 334.573 M214.250 348.235 C 214.662 348.315,215.338 348.315,215.750 348.235 C 216.162 348.156,215.825 348.091,215.000 348.091 C 214.175 348.091,213.838 348.156,214.250 348.235 M163.243 349.907 C 163.834 349.981,164.884 349.982,165.576 349.910 C 166.267 349.838,165.783 349.778,164.500 349.776 C 163.217 349.775,162.651 349.834,163.243 349.907 M202.649 352.917 L 201.500 354.167 202.750 353.018 C 203.913 351.949,204.153 351.667,203.899 351.667 C 203.843 351.667,203.281 352.229,202.649 352.917 M137.417 353.167 C 137.421 353.900,137.489 354.161,137.569 353.746 C 137.649 353.331,137.646 352.731,137.562 352.413 C 137.479 352.094,137.414 352.433,137.417 353.167 M242.547 352.333 C 242.757 352.608,243.002 353.133,243.092 353.500 C 243.248 354.133,243.258 354.131,243.295 353.457 C 243.316 353.067,243.071 352.542,242.750 352.291 C 242.243 351.893,242.216 351.898,242.547 352.333 M153.479 354.083 L 152.500 355.167 153.583 354.188 C 154.593 353.275,154.820 353.000,154.562 353.000 C 154.505 353.000,154.017 353.488,153.479 354.083 M150.744 360.667 C 150.744 361.308,150.813 361.571,150.896 361.250 C 150.980 360.929,150.980 360.404,150.896 360.083 C 150.813 359.762,150.744 360.025,150.744 360.667 M198.429 362.500 C 198.431 363.417,198.496 363.752,198.573 363.245 C 198.649 362.739,198.647 361.989,198.568 361.579 C 198.489 361.169,198.426 361.583,198.429 362.500 M224.315 366.583 L 223.167 367.833 224.417 366.685 C 225.580 365.615,225.820 365.333,225.565 365.333 C 225.510 365.333,224.947 365.896,224.315 366.583 M213.587 370.902 C 214.002 370.982,214.602 370.979,214.921 370.896 C 215.239 370.812,214.900 370.747,214.167 370.751 C 213.433 370.754,213.173 370.823,213.587 370.902 M162.917 372.235 C 163.329 372.315,164.004 372.315,164.417 372.235 C 164.829 372.156,164.492 372.091,163.667 372.091 C 162.842 372.091,162.504 372.156,162.917 372.235 M185.755 380.573 C 186.261 380.649,187.011 380.647,187.421 380.568 C 187.831 380.489,187.417 380.426,186.500 380.429 C 185.583 380.431,185.248 380.496,185.755 380.573 M195.088 380.573 C 195.595 380.649,196.345 380.647,196.755 380.568 C 197.165 380.489,196.750 380.426,195.833 380.429 C 194.917 380.431,194.581 380.496,195.088 380.573 M189.093 382.579 C 189.970 382.648,191.320 382.647,192.093 382.577 C 192.867 382.507,192.150 382.451,190.500 382.452 C 188.850 382.453,188.217 382.510,189.093 382.579 M182.254 382.902 C 182.669 382.982,183.269 382.979,183.587 382.896 C 183.906 382.812,183.567 382.747,182.833 382.751 C 182.100 382.754,181.839 382.823,182.254 382.902 M197.083 399.563 C 197.404 399.647,197.929 399.647,198.250 399.563 C 198.571 399.479,198.308 399.411,197.667 399.411 C 197.025 399.411,196.762 399.479,197.083 399.563 M186.250 399.914 C 187.579 399.977,189.754 399.977,191.083 399.914 C 192.412 399.851,191.325 399.799,188.667 399.799 C 186.008 399.799,184.921 399.851,186.250 399.914 " stroke="none" fill="#460b15" fill-rule="evenodd"></path><path id="path4" d="M26.315 141.917 L 25.167 143.167 26.417 142.018 C 27.104 141.386,27.667 140.824,27.667 140.768 C 27.667 140.513,27.385 140.753,26.315 141.917 M20.812 147.750 L 19.833 148.833 20.917 147.854 C 21.512 147.316,22.000 146.828,22.000 146.771 C 22.000 146.513,21.725 146.740,20.812 147.750 M361.411 154.333 C 361.411 154.975,361.479 155.237,361.563 154.917 C 361.647 154.596,361.647 154.071,361.563 153.750 C 361.479 153.429,361.411 153.692,361.411 154.333 M18.126 161.333 C 18.126 163.442,18.180 164.304,18.246 163.250 C 18.312 162.196,18.312 160.471,18.246 159.417 C 18.180 158.362,18.126 159.225,18.126 161.333 M361.417 161.500 C 361.421 162.233,361.489 162.494,361.569 162.079 C 361.649 161.665,361.646 161.065,361.562 160.746 C 361.479 160.427,361.414 160.767,361.417 161.500 M276.917 172.574 C 277.512 172.648,278.487 172.648,279.083 172.574 C 279.679 172.501,279.192 172.440,278.000 172.440 C 276.808 172.440,276.321 172.501,276.917 172.574 M289.083 172.915 C 290.688 172.976,293.313 172.976,294.917 172.915 C 296.521 172.854,295.208 172.804,292.000 172.804 C 288.792 172.804,287.479 172.854,289.083 172.915 M110.587 173.569 C 111.002 173.649,111.602 173.646,111.921 173.562 C 112.239 173.479,111.900 173.414,111.167 173.417 C 110.433 173.421,110.173 173.489,110.587 173.569 M105.750 173.896 C 106.071 173.980,106.596 173.980,106.917 173.896 C 107.237 173.813,106.975 173.744,106.333 173.744 C 105.692 173.744,105.429 173.813,105.750 173.896 M96.083 174.563 C 96.404 174.647,96.929 174.647,97.250 174.563 C 97.571 174.479,97.308 174.411,96.667 174.411 C 96.025 174.411,95.763 174.479,96.083 174.563 M74.921 174.902 C 75.335 174.982,75.935 174.979,76.254 174.896 C 76.573 174.812,76.233 174.747,75.500 174.751 C 74.767 174.754,74.506 174.823,74.921 174.902 M87.093 174.912 C 87.970 174.981,89.320 174.980,90.093 174.910 C 90.867 174.840,90.150 174.784,88.500 174.785 C 86.850 174.786,86.217 174.843,87.093 174.912 M346.818 194.750 L 345.500 196.167 346.917 194.849 C 348.234 193.624,348.487 193.333,348.234 193.333 C 348.180 193.333,347.542 193.971,346.818 194.750 M31.000 197.438 C 31.000 197.495,31.488 197.983,32.083 198.521 L 33.167 199.500 32.188 198.417 C 31.275 197.407,31.000 197.180,31.000 197.438 M103.333 216.611 C 103.333 216.850,102.660 217.023,101.583 217.060 L 99.833 217.120 101.463 217.247 C 102.996 217.366,104.069 216.958,103.561 216.450 C 103.436 216.325,103.333 216.397,103.333 216.611 M79.750 216.896 C 80.071 216.980,80.596 216.980,80.917 216.896 C 81.237 216.813,80.975 216.744,80.333 216.744 C 79.692 216.744,79.429 216.813,79.750 216.896 M85.256 217.242 C 85.855 217.316,86.755 217.314,87.256 217.238 C 87.757 217.162,87.267 217.101,86.167 217.103 C 85.067 217.105,84.657 217.167,85.256 217.242 M282.254 217.569 C 282.669 217.649,283.269 217.646,283.587 217.562 C 283.906 217.479,283.567 217.414,282.833 217.417 C 282.100 217.421,281.839 217.489,282.254 217.569 M276.083 217.905 C 276.587 217.982,277.412 217.982,277.917 217.905 C 278.421 217.829,278.008 217.767,277.000 217.767 C 275.992 217.767,275.579 217.829,276.083 217.905 M110.077 249.333 C 110.077 249.975,110.146 250.237,110.230 249.917 C 110.314 249.596,110.314 249.071,110.230 248.750 C 110.146 248.429,110.077 248.692,110.077 249.333 M260.649 261.250 L 259.500 262.500 260.750 261.351 C 261.913 260.282,262.153 260.000,261.899 260.000 C 261.843 260.000,261.281 260.563,260.649 261.250 " stroke="none" fill="#5c5c5c" fill-rule="evenodd"></path></g></svg>