<svg id="svg" version="1.1" xmlns="http://www.w3.org/2000/svg" xmlns:xlink="http://www.w3.org/1999/xlink" width="400" height="400" viewBox="0, 0, 400,400"><g id="svgg"><path id="path0" d="M190.667 6.017 C 72.469 11.683,-13.063 120.659,9.377 237.000 C 28.248 334.839,119.570 402.842,218.833 392.973 C 328.093 382.111,406.725 282.841,392.151 174.167 C 378.745 74.199,291.268 1.195,190.667 6.017 M217.167 35.135 C 320.084 46.685,387.516 147.141,358.825 246.167 C 340.558 309.216,285.567 356.121,220.500 364.153 C 130.178 375.302,47.598 311.703,35.705 221.833 C 23.202 127.350,91.625 42.898,187.333 34.684 C 192.629 34.229,211.660 34.517,217.167 35.135 " stroke="none" fill="#14448c" fill-rule="evenodd"></path><path id="path1" d="M190.414 34.685 C 63.184 41.919,-8.490 185.464,62.183 291.500 C 132.529 397.046,291.022 387.141,347.843 273.648 C 404.443 160.596,316.760 27.501,190.414 34.685 M207.167 44.009 C 267.765 47.251,320.980 84.547,343.823 139.784 C 345.240 143.210,345.207 143.594,343.677 141.464 C 323.838 113.839,283.362 91.148,239.707 83.179 C 225.528 80.590,216.718 79.850,200.000 79.841 C 139.698 79.808,82.754 104.195,55.937 141.538 C 50.544 149.048,62.784 124.344,69.507 114.150 C 96.748 72.847,142.182 46.701,191.333 44.044 C 198.855 43.638,200.174 43.635,207.167 44.009 M219.167 88.489 C 258.639 92.224,293.285 105.594,318.965 127.000 C 340.595 145.030,354.546 169.095,355.536 190.083 L 355.768 195.000 340.551 195.000 L 325.333 195.000 325.333 199.833 L 325.333 204.667 340.548 204.667 L 355.764 204.667 355.526 209.250 C 354.067 237.404,331.560 267.883,297.980 287.178 C 221.406 331.178,108.190 314.719,61.651 252.822 C 51.033 238.700,44.656 223.101,44.112 209.917 L 43.896 204.667 59.115 204.667 L 74.333 204.667 74.333 199.833 L 74.333 195.000 59.167 195.000 L 44.000 195.000 44.009 192.417 C 44.078 171.471,57.826 146.513,79.482 128.016 C 113.653 98.829,167.480 83.597,219.167 88.489 M87.844 142.649 C 86.486 144.847,90.075 149.499,93.500 149.980 L 94.833 150.167 94.919 171.750 L 95.005 193.333 106.419 193.331 C 119.276 193.329,119.755 193.263,121.824 191.194 C 124.649 188.368,124.778 187.634,124.923 173.500 C 125.162 150.080,124.633 145.070,121.726 143.263 L 120.500 142.500 104.277 142.405 C 93.519 142.341,87.983 142.424,87.844 142.649 M132.000 167.833 L 132.000 193.333 143.833 193.333 L 155.667 193.333 155.667 189.333 L 155.667 185.333 149.500 185.333 L 143.333 185.333 143.333 179.000 L 143.333 172.667 147.667 172.667 L 152.000 172.667 152.000 167.167 L 152.000 161.667 147.667 161.667 L 143.333 161.667 143.333 155.833 L 143.333 150.000 149.500 150.000 L 155.667 150.000 155.667 146.167 L 155.667 142.333 143.833 142.333 L 132.000 142.333 132.000 167.833 M162.000 146.333 L 162.000 150.333 165.833 150.333 L 169.667 150.333 169.667 172.008 L 169.667 193.682 175.417 193.591 L 181.167 193.500 181.252 171.750 L 181.338 150.000 182.513 150.000 C 185.676 150.000,187.834 147.744,188.492 143.750 L 188.725 142.333 175.363 142.333 L 162.000 142.333 162.000 146.333 M194.667 167.833 L 194.667 193.333 200.500 193.333 L 206.333 193.333 206.333 182.500 L 206.333 171.667 208.096 171.667 C 212.843 171.667,213.518 172.840,213.810 181.602 C 214.154 191.905,215.583 194.000,222.265 194.000 L 224.368 194.000 224.268 183.583 L 224.167 173.167 223.140 171.333 L 222.113 169.500 222.899 168.354 C 224.528 165.979,224.784 164.147,224.555 156.500 C 224.124 142.064,224.459 142.333,206.929 142.333 L 194.667 142.333 194.667 167.833 M239.750 142.839 C 231.442 144.644,230.999 146.001,231.003 169.613 L 231.007 187.500 231.801 189.206 C 235.292 196.703,256.280 195.965,260.436 188.198 C 261.163 186.839,261.167 186.748,261.167 167.833 L 261.167 148.833 260.217 146.900 C 258.427 143.254,255.777 142.319,247.347 142.360 C 244.051 142.376,240.995 142.568,239.750 142.839 M267.667 167.833 L 267.667 193.333 273.333 193.333 L 279.000 193.333 279.000 167.833 L 279.000 142.333 273.333 142.333 L 267.667 142.333 267.667 167.833 M285.000 146.167 L 285.000 150.000 288.833 150.000 L 292.667 150.000 292.667 171.833 L 292.667 193.667 298.498 193.667 L 304.329 193.667 304.414 171.917 L 304.500 150.167 306.003 149.994 C 309.057 149.642,311.162 147.376,311.561 144.013 L 311.760 142.333 298.380 142.333 L 285.000 142.333 285.000 146.167 M110.833 150.289 C 112.799 150.703,112.986 151.688,113.220 162.871 C 113.335 168.350,113.316 175.646,113.178 179.083 L 112.928 185.333 109.631 185.333 L 106.333 185.333 106.333 167.889 C 106.333 158.294,106.433 150.344,106.556 150.222 C 106.823 149.955,109.440 149.996,110.833 150.289 M211.654 150.660 C 212.705 151.222,213.000 152.899,213.000 158.309 C 213.000 165.032,213.019 165.000,209.148 165.000 L 206.333 165.000 206.333 157.667 L 206.333 150.333 208.689 150.333 C 209.984 150.333,211.318 150.480,211.654 150.660 M247.818 150.540 C 249.351 151.129,249.453 152.040,249.583 166.333 C 249.650 173.758,249.584 180.733,249.436 181.833 L 249.166 183.833 247.074 183.933 C 245.135 184.025,244.908 183.960,243.991 183.042 L 243.000 182.051 243.005 166.942 C 243.007 158.632,243.100 151.496,243.210 151.083 C 243.416 150.317,246.338 149.972,247.818 150.540 M250.583 204.217 C 250.034 204.373,250.000 205.912,250.000 230.524 L 250.000 256.667 255.833 256.667 L 261.667 256.667 261.667 246.278 C 261.667 240.564,261.746 235.968,261.843 236.066 C 261.941 236.163,263.798 240.800,265.971 246.371 L 269.921 256.500 275.961 256.591 L 282.000 256.682 282.000 230.508 L 282.000 204.333 276.000 204.333 L 270.000 204.333 269.994 215.417 L 269.989 226.500 268.818 223.000 C 264.688 210.645,256.756 202.474,250.583 204.217 M85.667 204.773 C 85.667 207.546,88.268 211.051,90.835 211.737 L 92.333 212.138 92.333 234.402 L 92.333 256.667 98.329 256.667 L 104.324 256.667 104.412 245.583 L 104.500 234.500 111.000 234.333 C 122.283 234.044,123.192 232.865,122.915 218.871 C 122.703 208.154,121.892 205.741,118.151 204.703 C 116.081 204.128,85.667 204.194,85.667 204.773 M130.000 230.500 L 130.000 256.667 135.667 256.667 L 141.333 256.667 141.333 230.500 L 141.333 204.333 135.667 204.333 L 130.000 204.333 130.000 230.500 M153.334 204.708 C 150.431 205.865,149.900 207.351,149.729 214.789 C 149.509 224.385,150.943 227.061,157.551 229.378 C 160.546 230.428,160.333 229.601,160.333 240.207 L 160.333 249.667 155.500 249.667 L 150.667 249.667 150.672 252.750 C 150.679 257.065,150.029 256.748,158.537 256.581 C 166.591 256.423,167.548 256.236,169.684 254.408 C 172.183 252.269,172.137 252.534,172.274 239.654 C 172.436 224.476,172.459 224.550,166.562 221.734 C 161.694 219.410,160.333 217.760,160.333 214.183 L 160.333 212.000 165.617 212.000 C 170.547 212.000,170.976 211.950,172.016 211.249 C 173.844 210.017,175.239 206.820,174.755 204.970 C 174.566 204.244,155.092 204.007,153.334 204.708 M181.000 208.333 L 181.000 212.333 185.000 212.333 L 189.000 212.333 189.000 234.500 L 189.000 256.667 195.000 256.667 L 201.000 256.667 201.000 234.500 L 201.000 212.333 202.083 212.326 C 205.378 212.304,208.333 209.053,208.333 205.450 L 208.333 204.333 194.667 204.333 L 181.000 204.333 181.000 208.333 M220.875 204.848 C 216.657 205.901,213.861 208.309,212.831 211.778 C 212.198 213.909,212.088 249.268,212.707 251.499 C 214.976 259.673,237.708 259.487,241.807 251.261 L 242.667 249.536 242.667 230.654 C 242.667 207.713,242.634 207.532,238.036 205.376 C 235.703 204.283,224.522 203.939,220.875 204.848 M291.987 205.083 C 289.343 206.417,288.950 207.723,288.887 215.405 C 288.809 224.753,290.422 227.423,297.500 229.665 C 299.780 230.387,299.667 229.834,299.667 240.207 L 299.667 249.667 294.833 249.667 L 290.000 249.667 290.000 253.198 L 290.000 256.730 297.583 256.602 C 305.742 256.464,306.468 256.327,308.902 254.470 C 311.353 252.601,311.368 252.502,311.261 238.342 L 311.167 225.703 310.018 224.518 C 309.386 223.866,307.511 222.639,305.851 221.790 C 300.456 219.031,299.629 218.057,299.548 214.365 L 299.500 212.167 305.060 212.000 C 312.173 211.787,313.540 210.880,313.935 206.113 L 314.083 204.333 303.779 204.333 C 293.756 204.333,293.434 204.354,291.987 205.083 M110.333 213.000 C 110.958 213.624,111.000 214.111,111.000 220.667 L 111.000 227.667 107.667 227.667 L 104.333 227.667 104.333 220.000 L 104.333 212.333 107.000 212.333 C 109.222 212.333,109.778 212.444,110.333 213.000 M229.114 212.703 C 230.795 213.469,230.826 213.754,230.936 229.667 C 231.057 247.227,231.124 246.557,229.214 246.844 C 227.479 247.104,225.624 246.420,224.847 245.234 C 224.258 244.335,224.185 213.653,224.770 212.750 C 225.106 212.230,228.008 212.199,229.114 212.703 M59.642 262.833 C 85.539 293.737,127.670 313.646,179.000 319.234 C 186.831 320.087,212.978 320.084,220.833 319.229 C 273.814 313.466,317.545 292.044,342.765 259.500 C 345.328 256.193,345.340 256.403,342.913 262.000 C 312.371 332.409,234.618 370.247,160.399 350.819 C 114.480 338.799,75.701 305.646,56.899 262.333 C 54.443 256.674,54.307 256.134,55.858 258.167 C 56.556 259.083,58.260 261.183,59.642 262.833 " stroke="none" fill="#eeeded" fill-rule="evenodd"></path><path id="path2" d="M188.500 44.344 C 135.446 48.621,88.977 78.389,63.475 124.438 C 60.337 130.104,54.107 143.412,55.097 142.333 C 55.181 142.242,56.498 140.592,58.023 138.667 C 79.818 111.156,118.677 90.172,161.667 82.700 C 231.670 70.531,305.941 93.628,341.642 138.667 C 343.168 140.592,344.485 142.242,344.569 142.333 C 345.086 142.896,341.315 134.281,339.156 129.969 C 311.172 74.059,250.146 39.376,188.500 44.344 M191.000 88.024 C 111.577 91.032,44.243 139.691,44.003 194.250 L 44.000 195.000 59.167 195.000 L 74.333 195.000 74.333 199.833 L 74.333 204.667 59.167 204.667 L 44.000 204.667 44.003 205.750 C 44.097 240.457,74.824 277.106,119.760 296.107 C 207.464 333.191,320.198 301.780,349.842 232.000 C 352.706 225.258,354.880 217.082,355.161 212.000 C 355.267 210.075,355.431 207.637,355.527 206.583 L 355.700 204.667 340.517 204.667 L 325.333 204.667 325.333 199.833 L 325.333 195.000 340.500 195.000 C 353.382 195.000,355.667 194.929,355.667 194.527 C 355.667 167.317,336.919 138.149,306.333 117.770 C 275.183 97.016,234.003 86.395,191.000 88.024 M120.833 142.608 C 124.769 144.318,124.833 144.721,124.833 167.500 L 124.833 186.500 123.963 188.356 C 121.626 193.339,120.513 193.667,105.939 193.667 L 94.667 193.667 94.667 172.044 L 94.667 150.421 93.475 150.227 C 90.262 149.706,87.667 146.662,87.667 143.417 L 87.667 141.965 103.750 142.069 C 116.048 142.149,120.069 142.275,120.833 142.608 M155.667 146.167 L 155.667 150.333 149.667 150.333 L 143.667 150.333 143.667 156.000 L 143.667 161.667 147.833 161.667 L 152.000 161.667 152.000 167.333 L 152.000 173.000 147.833 173.000 L 143.667 173.000 143.667 179.000 L 143.667 185.000 149.667 185.000 L 155.667 185.000 155.667 189.333 L 155.667 193.667 143.833 193.667 L 132.000 193.667 132.000 167.833 L 132.000 142.000 143.833 142.000 L 155.667 142.000 155.667 146.167 M188.667 143.435 C 188.667 146.734,186.076 149.790,182.925 150.208 L 181.333 150.419 181.333 172.043 L 181.333 193.667 175.333 193.667 L 169.333 193.667 169.333 172.000 L 169.333 150.333 165.500 150.333 L 161.667 150.333 161.667 146.389 C 161.667 144.219,161.767 142.344,161.889 142.222 C 162.011 142.100,168.086 142.000,175.389 142.000 L 188.667 142.000 188.667 143.435 M221.000 143.000 C 223.957 144.643,224.660 147.566,224.664 158.226 L 224.667 165.285 223.541 167.444 L 222.416 169.603 223.458 171.705 L 224.500 173.806 224.601 184.070 L 224.702 194.333 222.745 194.333 C 215.602 194.333,213.974 192.047,213.693 181.617 C 213.455 172.805,213.022 172.000,208.521 172.000 L 206.676 172.000 206.588 182.750 L 206.500 193.500 200.583 193.591 L 194.667 193.682 194.667 167.822 L 194.667 141.963 207.083 142.065 L 219.500 142.167 221.000 143.000 M255.588 142.819 C 257.660 143.460,259.423 144.909,260.436 146.802 C 261.160 148.155,261.167 148.333,261.260 167.407 L 261.354 186.648 260.525 188.285 C 258.319 192.638,252.685 194.585,243.270 194.248 C 236.093 193.991,233.478 192.884,231.754 189.374 L 230.833 187.500 230.833 169.333 C 230.833 147.226,230.991 146.514,236.489 143.824 C 240.243 141.987,251.062 141.418,255.588 142.819 M279.167 167.833 L 279.167 193.500 273.417 193.591 L 267.667 193.682 267.667 167.833 L 267.667 141.984 273.417 142.075 L 279.167 142.167 279.167 167.833 M311.751 143.491 C 311.518 147.268,308.783 150.300,305.586 150.326 L 304.672 150.333 304.586 171.917 L 304.500 193.500 298.583 193.591 L 292.667 193.682 292.667 172.008 L 292.667 150.333 288.833 150.333 L 285.000 150.333 285.000 146.163 L 285.000 141.992 298.417 142.080 L 311.833 142.167 311.751 143.491 M106.667 167.667 L 106.667 185.000 109.856 185.000 L 113.045 185.000 112.939 168.750 C 112.812 149.299,113.042 150.348,108.917 150.338 L 106.667 150.333 106.667 167.667 M206.667 157.629 L 206.667 165.000 209.322 165.000 C 212.586 165.000,212.517 165.099,212.835 159.957 C 213.323 152.076,212.738 150.601,209.040 150.392 L 206.667 150.258 206.667 157.629 M243.667 150.637 C 243.014 151.079,242.706 179.664,243.331 181.776 C 243.908 183.723,247.460 184.826,248.810 183.476 C 250.044 182.242,249.462 152.075,248.184 151.014 C 247.549 150.487,244.291 150.216,243.667 150.637 M119.161 205.000 C 122.241 206.545,122.926 208.879,123.218 218.833 C 123.618 232.443,122.085 234.410,110.917 234.615 L 104.667 234.729 104.667 245.865 L 104.667 257.000 98.500 257.000 L 92.333 257.000 92.333 234.719 L 92.333 212.439 91.068 212.060 C 88.312 211.234,85.667 207.882,85.667 205.216 L 85.667 203.975 101.583 204.071 L 117.500 204.167 119.161 205.000 M141.585 230.417 L 141.500 256.833 135.667 256.833 L 129.833 256.833 129.747 230.833 C 129.700 216.533,129.733 204.646,129.820 204.417 C 129.939 204.105,131.455 204.000,135.825 204.000 L 141.671 204.000 141.585 230.417 M174.930 205.667 C 175.236 210.405,172.440 212.333,165.263 212.333 L 160.333 212.333 160.335 213.750 C 160.340 217.456,161.620 219.111,166.248 221.393 C 172.559 224.505,172.333 223.854,172.333 238.946 L 172.333 251.258 171.250 252.879 C 170.511 253.984,169.583 254.818,168.333 255.500 L 166.500 256.500 158.583 256.605 L 150.667 256.710 150.667 253.188 L 150.667 249.667 155.505 249.667 L 160.344 249.667 160.255 240.095 L 160.167 230.524 157.833 229.658 C 150.750 227.027,149.484 224.906,149.537 215.753 C 149.604 204.108,149.742 204.005,165.000 204.103 L 174.833 204.167 174.930 205.667 M208.558 205.705 C 208.115 209.446,205.847 211.981,202.493 212.484 L 201.000 212.708 201.000 234.854 L 201.000 257.000 195.000 257.000 L 189.000 257.000 189.000 234.833 L 189.000 212.667 185.000 212.667 L 181.000 212.667 181.000 208.333 L 181.000 204.000 194.880 204.000 L 208.760 204.000 208.558 205.705 M237.428 204.987 C 242.792 207.035,242.833 207.230,242.833 230.667 C 242.833 252.376,242.988 251.094,240.044 253.754 C 234.224 259.012,217.538 258.959,213.707 253.670 C 212.008 251.324,211.942 250.409,212.066 230.833 C 212.194 210.474,212.119 211.089,214.854 208.047 C 218.259 204.260,230.999 202.533,237.428 204.987 M256.503 205.154 C 261.508 207.602,265.724 213.571,268.875 222.667 L 269.971 225.833 269.986 214.909 L 270.000 203.985 276.083 204.076 L 282.167 204.167 282.167 230.500 L 282.167 256.833 276.038 256.833 L 269.909 256.833 266.038 246.924 L 262.167 237.014 262.000 246.924 L 261.833 256.833 255.833 256.833 L 249.833 256.833 249.747 230.833 C 249.700 216.533,249.740 204.626,249.837 204.372 C 250.138 203.586,254.294 204.073,256.503 205.154 M314.198 204.840 C 314.476 205.945,313.807 208.565,312.911 209.885 C 311.535 211.911,310.723 212.155,304.917 212.279 L 299.667 212.392 299.667 214.207 C 299.667 217.745,300.694 218.958,306.008 221.687 C 311.929 224.729,311.764 224.193,311.611 239.848 C 311.487 252.494,311.545 252.161,309.041 254.423 C 306.895 256.362,305.281 256.667,297.155 256.667 L 290.098 256.667 289.882 254.116 C 289.764 252.714,289.667 251.139,289.667 250.616 L 289.667 249.667 294.500 249.667 L 299.333 249.667 299.333 240.013 L 299.333 230.359 297.925 229.980 C 291.414 228.227,288.924 224.989,288.726 218.021 C 288.338 204.366,288.646 204.089,304.244 204.034 L 313.987 204.000 314.198 204.840 M104.333 219.798 L 104.333 227.333 107.500 227.333 L 110.667 227.333 110.667 220.374 C 110.667 212.175,110.845 212.558,106.949 212.382 L 104.333 212.263 104.333 219.798 M224.770 213.083 C 224.325 213.770,224.214 242.654,224.650 244.271 C 225.130 246.054,226.343 246.740,228.766 246.600 L 230.500 246.500 230.500 230.220 L 230.500 213.941 229.713 213.304 C 228.780 212.549,225.218 212.390,224.770 213.083 M55.000 257.457 C 55.000 259.695,64.884 278.434,70.392 286.639 C 138.983 388.808,293.833 374.566,342.958 261.570 C 344.996 256.883,345.015 256.772,343.443 258.869 C 329.411 277.576,305.193 295.044,278.667 305.591 C 200.117 336.825,101.721 316.576,57.152 260.006 C 55.968 258.504,55.000 257.357,55.000 257.457 " stroke="none" fill="#cc042c" fill-rule="evenodd"></path><path id="path3" d="M186.667 0.235 C 72.272 7.185,-13.104 111.058,1.511 225.504 C 12.352 310.395,76.579 379.213,160.609 395.973 C 174.840 398.812,182.366 399.486,199.833 399.486 C 311.038 399.486,399.687 310.926,399.687 199.833 C 399.687 83.955,302.807 -6.821,186.667 0.235 M208.333 6.007 C 331.945 11.941,418.065 128.158,387.779 248.167 C 368.819 323.298,304.811 380.841,228.000 391.809 C 98.951 410.236,-10.605 300.599,7.856 171.500 C 21.835 73.739,109.626 1.268,208.333 6.007 M191.583 34.574 C 192.179 34.648,193.154 34.648,193.750 34.574 C 194.346 34.501,193.858 34.440,192.667 34.440 C 191.475 34.440,190.987 34.501,191.583 34.574 M205.923 34.575 C 206.522 34.649,207.422 34.648,207.923 34.572 C 208.424 34.495,207.933 34.435,206.833 34.437 C 205.733 34.438,205.324 34.501,205.923 34.575 M186.417 34.896 C 186.737 34.980,187.262 34.980,187.583 34.896 C 187.904 34.813,187.642 34.744,187.000 34.744 C 186.358 34.744,186.096 34.813,186.417 34.896 M212.083 34.896 C 212.404 34.980,212.929 34.980,213.250 34.896 C 213.571 34.813,213.308 34.744,212.667 34.744 C 212.025 34.744,211.762 34.813,212.083 34.896 M197.083 43.905 C 197.588 43.982,198.412 43.982,198.917 43.905 C 199.421 43.829,199.008 43.767,198.000 43.767 C 196.992 43.767,196.579 43.829,197.083 43.905 M200.750 43.905 C 201.254 43.982,202.079 43.982,202.583 43.905 C 203.088 43.829,202.675 43.767,201.667 43.767 C 200.658 43.767,200.246 43.829,200.750 43.905 M82.662 82.917 L 78.500 87.167 82.750 83.005 C 85.087 80.716,87.000 78.804,87.000 78.755 C 87.000 78.516,86.527 78.969,82.662 82.917 M200.228 142.249 C 203.379 142.304,208.629 142.304,211.895 142.250 C 215.161 142.195,212.583 142.150,206.167 142.150 C 199.750 142.150,197.078 142.195,200.228 142.249 M94.248 150.243 C 94.569 150.470,94.682 155.364,94.751 172.018 L 94.841 193.500 94.837 171.861 C 94.834 152.911,94.771 150.205,94.333 150.086 C 93.966 149.985,93.943 150.027,94.248 150.243 M286.930 150.247 C 288.083 150.312,289.883 150.312,290.930 150.246 C 291.977 150.180,291.033 150.127,288.833 150.127 C 286.633 150.128,285.777 150.182,286.930 150.247 M124.770 155.167 C 124.772 156.267,124.834 156.676,124.908 156.077 C 124.982 155.478,124.981 154.578,124.905 154.077 C 124.829 153.576,124.768 154.067,124.770 155.167 M249.484 169.000 C 249.484 175.692,249.528 178.429,249.583 175.083 C 249.637 171.738,249.637 166.262,249.583 162.917 C 249.528 159.571,249.484 162.308,249.484 169.000 M113.122 162.500 C 113.123 164.333,113.179 165.041,113.246 164.072 C 113.314 163.104,113.313 161.604,113.245 160.739 C 113.176 159.874,113.121 160.667,113.122 162.500 M113.123 176.000 C 113.123 177.925,113.178 178.713,113.246 177.750 C 113.313 176.787,113.313 175.213,113.246 174.250 C 113.178 173.287,113.123 174.075,113.123 176.000 M34.751 186.833 C 34.754 187.567,34.823 187.827,34.902 187.413 C 34.982 186.998,34.979 186.398,34.896 186.079 C 34.812 185.761,34.747 186.100,34.751 186.833 M364.744 187.000 C 364.744 187.642,364.813 187.904,364.896 187.583 C 364.980 187.262,364.980 186.737,364.896 186.417 C 364.813 186.096,364.744 186.358,364.744 187.000 M34.440 192.333 C 34.440 193.525,34.501 194.012,34.574 193.417 C 34.648 192.821,34.648 191.846,34.574 191.250 C 34.501 190.654,34.440 191.142,34.440 192.333 M365.107 192.667 C 365.107 193.858,365.167 194.346,365.241 193.750 C 365.315 193.154,365.315 192.179,365.241 191.583 C 365.167 190.987,365.107 191.475,365.107 192.667 M137.938 193.583 C 141.296 193.637,146.696 193.637,149.938 193.583 C 153.181 193.528,150.433 193.484,143.833 193.484 C 137.233 193.484,134.581 193.529,137.938 193.583 M270.417 193.582 C 272.021 193.643,274.646 193.643,276.250 193.582 C 277.854 193.520,276.542 193.470,273.333 193.470 C 270.125 193.470,268.813 193.520,270.417 193.582 M226.755 204.239 C 227.261 204.316,228.011 204.314,228.421 204.235 C 228.831 204.156,228.417 204.093,227.500 204.095 C 226.583 204.098,226.248 204.163,226.755 204.239 M141.492 230.500 C 141.492 244.983,141.533 250.860,141.583 243.559 C 141.633 236.257,141.633 224.407,141.583 217.225 C 141.533 210.043,141.492 216.017,141.492 230.500 M34.440 207.333 C 34.440 208.525,34.501 209.012,34.574 208.417 C 34.648 207.821,34.648 206.846,34.574 206.250 C 34.501 205.654,34.440 206.142,34.440 207.333 M365.103 207.167 C 365.105 208.267,365.167 208.676,365.242 208.077 C 365.316 207.478,365.314 206.578,365.238 206.077 C 365.162 205.576,365.101 206.067,365.103 207.167 M34.751 212.833 C 34.754 213.567,34.823 213.827,34.902 213.413 C 34.982 212.998,34.979 212.398,34.896 212.079 C 34.812 211.761,34.747 212.100,34.751 212.833 M364.744 212.667 C 364.744 213.308,364.813 213.571,364.896 213.250 C 364.980 212.929,364.980 212.404,364.896 212.083 C 364.813 211.762,364.744 212.025,364.744 212.667 M299.429 213.833 C 299.431 214.750,299.496 215.085,299.573 214.579 C 299.649 214.072,299.647 213.322,299.568 212.912 C 299.489 212.502,299.426 212.917,299.429 213.833 M242.821 231.000 C 242.821 240.258,242.864 244.046,242.916 239.417 C 242.969 234.788,242.969 227.213,242.916 222.583 C 242.864 217.954,242.821 221.742,242.821 231.000 M212.155 232.000 C 212.155 241.258,212.197 245.046,212.250 240.417 C 212.302 235.788,212.302 228.213,212.250 223.583 C 212.197 218.954,212.155 222.742,212.155 232.000 M35.077 216.667 C 35.077 217.308,35.146 217.571,35.230 217.250 C 35.314 216.929,35.314 216.404,35.230 216.083 C 35.146 215.762,35.077 216.025,35.077 216.667 M311.470 237.333 C 311.470 240.542,311.520 241.854,311.582 240.250 C 311.643 238.646,311.643 236.021,311.582 234.417 C 311.520 232.813,311.470 234.125,311.470 237.333 M227.750 246.896 C 228.071 246.980,228.596 246.980,228.917 246.896 C 229.237 246.813,228.975 246.744,228.333 246.744 C 227.692 246.744,227.429 246.813,227.750 246.896 M316.662 316.917 L 312.167 321.500 316.750 317.005 C 321.008 312.829,321.484 312.333,321.245 312.333 C 321.197 312.333,319.134 314.396,316.662 316.917 M82.667 316.833 C 84.217 318.392,85.560 319.667,85.652 319.667 C 85.744 319.667,84.550 318.392,83.000 316.833 C 81.450 315.275,80.106 314.000,80.015 314.000 C 79.923 314.000,81.116 315.275,82.667 316.833 M198.417 320.245 C 199.287 320.314,200.713 320.314,201.583 320.245 C 202.454 320.176,201.742 320.120,200.000 320.120 C 198.258 320.120,197.546 320.176,198.417 320.245 M124.333 347.165 C 124.333 347.389,127.707 349.070,127.857 348.921 C 127.925 348.852,127.161 348.394,126.157 347.902 C 125.154 347.410,124.333 347.078,124.333 347.165 M182.417 364.563 C 182.737 364.647,183.262 364.647,183.583 364.563 C 183.904 364.479,183.642 364.411,183.000 364.411 C 182.358 364.411,182.096 364.479,182.417 364.563 M216.083 364.563 C 216.404 364.647,216.929 364.647,217.250 364.563 C 217.571 364.479,217.308 364.411,216.667 364.411 C 216.025 364.411,215.762 364.479,216.083 364.563 M186.083 364.896 C 186.404 364.980,186.929 364.980,187.250 364.896 C 187.571 364.813,187.308 364.744,186.667 364.744 C 186.025 364.744,185.762 364.813,186.083 364.896 M212.254 364.902 C 212.669 364.982,213.269 364.979,213.587 364.896 C 213.906 364.812,213.567 364.747,212.833 364.751 C 212.100 364.754,211.839 364.823,212.254 364.902 M191.250 365.241 C 191.846 365.315,192.821 365.315,193.417 365.241 C 194.012 365.167,193.525 365.107,192.333 365.107 C 191.142 365.107,190.654 365.167,191.250 365.241 M206.250 365.241 C 206.846 365.315,207.821 365.315,208.417 365.241 C 209.012 365.167,208.525 365.107,207.333 365.107 C 206.142 365.107,205.654 365.167,206.250 365.241 " stroke="none" fill="#b48fa5" fill-rule="evenodd"></path><path id="path4" d="M190.417 44.230 C 190.737 44.314,191.262 44.314,191.583 44.230 C 191.904 44.146,191.642 44.077,191.000 44.077 C 190.358 44.077,190.096 44.146,190.417 44.230 M208.083 44.230 C 208.404 44.314,208.929 44.314,209.250 44.230 C 209.571 44.146,209.308 44.077,208.667 44.077 C 208.025 44.077,207.762 44.146,208.083 44.230 M196.767 79.582 C 198.564 79.642,201.414 79.642,203.101 79.581 C 204.787 79.521,203.317 79.472,199.833 79.472 C 196.350 79.473,194.970 79.522,196.767 79.582 M186.750 79.896 C 187.071 79.980,187.596 79.980,187.917 79.896 C 188.237 79.813,187.975 79.744,187.333 79.744 C 186.692 79.744,186.429 79.813,186.750 79.896 M211.750 79.896 C 212.071 79.980,212.596 79.980,212.917 79.896 C 213.237 79.813,212.975 79.744,212.333 79.744 C 211.692 79.744,211.429 79.813,211.750 79.896 M316.833 83.000 C 317.922 84.100,318.887 85.000,318.979 85.000 C 319.071 85.000,318.255 84.100,317.167 83.000 C 316.078 81.900,315.113 81.000,315.021 81.000 C 314.929 81.000,315.745 81.900,316.833 83.000 M92.982 86.250 L 91.833 87.500 93.083 86.351 C 93.771 85.719,94.333 85.157,94.333 85.101 C 94.333 84.847,94.051 85.087,92.982 86.250 M306.500 86.333 C 307.216 87.067,307.877 87.667,307.969 87.667 C 308.060 87.667,307.549 87.067,306.833 86.333 C 306.117 85.600,305.456 85.000,305.365 85.000 C 305.273 85.000,305.784 85.600,306.500 86.333 M193.427 87.912 C 194.303 87.981,195.653 87.980,196.427 87.910 C 197.200 87.840,196.483 87.784,194.833 87.785 C 193.183 87.786,192.550 87.843,193.427 87.912 M203.427 87.912 C 204.303 87.981,205.653 87.980,206.427 87.910 C 207.200 87.840,206.483 87.784,204.833 87.785 C 203.183 87.786,202.550 87.843,203.427 87.912 M185.750 88.230 C 186.071 88.314,186.596 88.314,186.917 88.230 C 187.237 88.146,186.975 88.077,186.333 88.077 C 185.692 88.077,185.429 88.146,185.750 88.230 M212.750 88.230 C 213.071 88.314,213.596 88.314,213.917 88.230 C 214.237 88.146,213.975 88.077,213.333 88.077 C 212.692 88.077,212.429 88.146,212.750 88.230 M85.982 93.250 L 84.833 94.500 86.083 93.351 C 86.771 92.719,87.333 92.157,87.333 92.101 C 87.333 91.847,87.051 92.087,85.982 93.250 M313.333 93.167 C 313.955 93.808,314.539 94.333,314.631 94.333 C 314.722 94.333,314.289 93.808,313.667 93.167 C 313.045 92.525,312.461 92.000,312.369 92.000 C 312.278 92.000,312.711 92.525,313.333 93.167 M71.479 124.417 L 70.500 125.500 71.583 124.521 C 72.179 123.983,72.667 123.495,72.667 123.438 C 72.667 123.180,72.392 123.407,71.479 124.417 M72.151 134.750 L 70.833 136.167 72.250 134.849 C 73.567 133.624,73.820 133.333,73.568 133.333 C 73.513 133.333,72.876 133.971,72.151 134.750 M327.319 134.750 C 328.137 135.621,328.849 136.333,328.903 136.333 C 329.153 136.333,328.888 136.034,327.417 134.653 L 325.833 133.167 327.319 134.750 M95.250 142.250 C 99.513 142.302,106.488 142.302,110.750 142.250 C 115.013 142.197,111.525 142.154,103.000 142.154 C 94.475 142.154,90.988 142.197,95.250 142.250 M137.938 142.250 C 141.296 142.304,146.696 142.304,149.938 142.249 C 153.181 142.195,150.433 142.150,143.833 142.150 C 137.233 142.151,134.581 142.195,137.938 142.250 M161.811 142.437 C 161.719 142.677,161.692 144.590,161.751 146.687 L 161.857 150.500 161.929 146.420 L 162.000 142.341 175.417 142.250 L 188.833 142.159 175.406 142.079 C 164.582 142.015,161.947 142.085,161.811 142.437 M245.083 142.247 C 246.321 142.311,248.346 142.311,249.583 142.247 C 250.821 142.183,249.808 142.131,247.333 142.131 C 244.858 142.131,243.846 142.183,245.083 142.247 M273.248 142.245 L 278.996 142.349 279.084 167.841 L 279.173 193.333 279.170 167.750 L 279.167 142.167 273.333 142.154 L 267.500 142.142 273.248 142.245 M298.227 142.248 C 310.630 142.334,311.632 142.384,311.760 142.920 C 311.864 143.355,311.891 143.333,311.866 142.833 C 311.834 142.178,311.598 142.167,298.333 142.161 L 284.833 142.155 298.227 142.248 M107.587 150.236 C 108.002 150.315,108.602 150.312,108.921 150.229 C 109.239 150.146,108.900 150.080,108.167 150.084 C 107.433 150.088,107.173 150.156,107.587 150.236 M143.408 155.917 L 143.483 161.833 143.583 156.091 L 143.682 150.348 149.758 150.249 L 155.833 150.151 149.583 150.075 L 143.333 150.000 143.408 155.917 M106.496 167.833 L 106.500 185.167 109.751 185.186 L 113.002 185.205 109.837 185.090 L 106.673 184.976 106.582 167.738 L 106.491 150.500 106.496 167.833 M124.762 151.833 C 124.765 152.750,124.829 153.085,124.906 152.579 C 124.982 152.072,124.980 151.322,124.901 150.912 C 124.822 150.502,124.760 150.917,124.762 151.833 M169.491 172.000 C 169.491 184.008,169.532 188.921,169.583 182.917 C 169.634 176.912,169.634 167.087,169.583 161.083 C 169.532 155.079,169.491 159.992,169.491 172.000 M206.476 157.667 C 206.476 161.792,206.524 163.479,206.582 161.417 C 206.641 159.354,206.641 155.979,206.582 153.917 C 206.524 151.854,206.476 153.542,206.476 157.667 M304.491 171.833 C 304.491 183.750,304.532 188.577,304.583 182.559 C 304.634 176.542,304.634 166.792,304.583 160.892 C 304.532 154.993,304.490 159.917,304.491 171.833 M230.821 169.500 C 230.821 178.850,230.864 182.723,230.916 178.107 C 230.969 173.490,230.969 165.840,230.916 161.107 C 230.864 156.373,230.822 160.150,230.821 169.500 M212.767 161.667 C 212.767 162.675,212.829 163.087,212.905 162.583 C 212.982 162.079,212.982 161.254,212.905 160.750 C 212.829 160.246,212.767 160.658,212.767 161.667 M113.125 169.167 C 113.125 171.183,113.180 171.965,113.247 170.904 C 113.313 169.844,113.312 168.194,113.245 167.238 C 113.178 166.282,113.124 167.150,113.125 169.167 M206.333 182.492 L 206.333 193.318 200.500 193.421 L 194.666 193.524 200.583 193.512 L 206.500 193.500 206.588 182.768 L 206.676 172.036 208.255 171.911 L 209.833 171.787 208.083 171.727 L 206.333 171.667 206.333 182.492 M143.333 179.000 L 143.333 185.333 149.583 185.258 L 155.833 185.183 149.750 185.084 L 143.667 184.985 143.667 179.002 L 143.667 173.020 147.917 172.916 L 152.167 172.812 147.750 172.739 L 143.333 172.667 143.333 179.000 M224.333 184.317 L 224.333 193.968 222.250 194.087 L 220.167 194.205 222.417 194.269 L 224.667 194.333 224.667 184.500 C 224.667 179.092,224.592 174.667,224.500 174.667 C 224.408 174.667,224.333 179.010,224.333 184.317 M213.767 185.333 C 213.767 186.342,213.829 186.754,213.905 186.250 C 213.982 185.746,213.982 184.921,213.905 184.417 C 213.829 183.912,213.767 184.325,213.767 185.333 M44.084 190.500 C 44.088 191.233,44.156 191.494,44.236 191.079 C 44.315 190.665,44.312 190.065,44.229 189.746 C 44.146 189.427,44.080 189.767,44.084 190.500 M355.417 190.833 C 355.421 191.567,355.489 191.827,355.569 191.413 C 355.649 190.998,355.646 190.398,355.562 190.079 C 355.479 189.761,355.414 190.100,355.417 190.833 M100.228 193.583 C 103.379 193.637,108.629 193.638,111.895 193.583 C 115.161 193.528,112.583 193.484,106.167 193.483 C 99.750 193.483,97.078 193.528,100.228 193.583 M92.773 204.250 C 96.772 204.303,103.222 204.303,107.106 204.250 C 110.989 204.196,107.717 204.153,99.833 204.153 C 91.950 204.153,88.773 204.197,92.773 204.250 M129.820 204.417 C 129.733 204.646,129.700 216.533,129.747 230.833 L 129.833 256.833 135.584 256.845 L 141.334 256.858 135.667 256.754 L 130.000 256.651 130.000 230.500 L 130.000 204.349 135.917 204.249 L 141.833 204.150 135.906 204.075 C 131.415 204.018,129.941 204.101,129.820 204.417 M158.333 204.236 C 167.107 204.471,174.924 204.478,174.782 204.250 C 174.697 204.112,170.174 204.032,164.730 204.071 C 159.287 204.110,156.408 204.184,158.333 204.236 M194.562 204.250 L 208.292 204.341 208.426 205.420 C 208.557 206.479,208.561 206.475,208.613 205.250 L 208.667 204.000 194.750 204.080 L 180.833 204.159 194.562 204.250 M224.417 204.230 C 224.737 204.314,225.262 204.314,225.583 204.230 C 225.904 204.146,225.642 204.077,225.000 204.077 C 224.358 204.077,224.096 204.146,224.417 204.230 M229.909 204.241 C 230.501 204.314,231.551 204.315,232.243 204.243 C 232.934 204.171,232.450 204.111,231.167 204.109 C 229.883 204.108,229.317 204.167,229.909 204.241 M249.820 204.417 C 249.733 204.646,249.700 216.533,249.747 230.833 L 249.833 256.833 255.833 256.833 L 261.833 256.833 262.000 246.717 C 262.092 241.153,262.056 236.428,261.922 236.217 C 261.787 236.006,261.675 240.521,261.672 246.250 L 261.667 256.667 255.833 256.667 L 250.000 256.667 250.000 230.528 C 250.000 209.929,250.088 204.353,250.417 204.221 C 250.743 204.089,250.741 204.047,250.406 204.026 C 250.171 204.012,249.908 204.188,249.820 204.417 M276.000 204.246 L 282.000 204.348 282.000 230.522 L 282.000 256.695 275.849 256.598 C 272.466 256.544,269.815 256.616,269.957 256.758 C 270.099 256.900,272.905 256.975,276.191 256.925 L 282.167 256.833 282.167 230.500 L 282.167 204.167 276.083 204.155 L 269.999 204.143 276.000 204.246 M299.271 204.249 C 302.078 204.305,306.578 204.305,309.271 204.249 C 311.963 204.193,309.667 204.148,304.167 204.148 C 298.667 204.148,296.463 204.194,299.271 204.249 M314.077 205.667 C 314.077 206.308,314.146 206.571,314.230 206.250 C 314.314 205.929,314.314 205.404,314.230 205.083 C 314.146 204.762,314.077 205.025,314.077 205.667 M355.429 207.833 C 355.431 208.750,355.496 209.085,355.573 208.579 C 355.649 208.072,355.647 207.322,355.568 206.912 C 355.489 206.502,355.426 206.917,355.429 207.833 M44.084 209.833 C 44.088 210.567,44.156 210.827,44.236 210.413 C 44.315 209.998,44.312 209.398,44.229 209.079 C 44.146 208.761,44.080 209.100,44.084 209.833 M288.751 211.833 C 288.754 212.567,288.823 212.827,288.902 212.413 C 288.982 211.998,288.979 211.398,288.896 211.079 C 288.812 210.761,288.747 211.100,288.751 211.833 M162.750 212.248 C 164.171 212.310,166.496 212.310,167.917 212.248 C 169.337 212.185,168.175 212.134,165.333 212.134 C 162.492 212.134,161.329 212.185,162.750 212.248 M302.099 212.248 C 303.528 212.311,305.778 212.310,307.099 212.247 C 308.419 212.184,307.250 212.133,304.500 212.133 C 301.750 212.134,300.669 212.185,302.099 212.248 M182.917 212.580 C 184.063 212.645,185.938 212.645,187.083 212.580 C 188.229 212.515,187.292 212.462,185.000 212.462 C 182.708 212.462,181.771 212.515,182.917 212.580 M224.881 212.589 C 224.794 212.730,225.348 212.797,226.111 212.739 C 228.354 212.565,228.627 212.414,226.770 212.372 C 225.818 212.351,224.968 212.449,224.881 212.589 M149.433 215.000 C 149.433 216.008,149.496 216.421,149.572 215.917 C 149.648 215.412,149.648 214.588,149.572 214.083 C 149.496 213.579,149.433 213.992,149.433 215.000 M110.742 220.571 L 110.667 227.309 107.417 227.418 L 104.167 227.527 107.427 227.597 C 111.382 227.682,111.039 228.397,110.916 220.324 L 110.818 213.833 110.742 220.571 M224.411 215.333 C 224.411 215.975,224.479 216.237,224.563 215.917 C 224.647 215.596,224.647 215.071,224.563 214.750 C 224.479 214.429,224.411 214.692,224.411 215.333 M123.136 221.167 C 123.136 224.283,123.186 225.603,123.248 224.100 C 123.309 222.596,123.310 220.046,123.248 218.433 C 123.187 216.820,123.137 218.050,123.136 221.167 M230.820 230.833 C 230.820 238.900,230.863 242.152,230.916 238.061 C 230.969 233.969,230.969 227.369,230.916 223.394 C 230.863 219.419,230.820 222.767,230.820 230.833 M149.424 219.333 C 149.424 220.158,149.489 220.496,149.569 220.083 C 149.648 219.671,149.648 218.996,149.569 218.583 C 149.489 218.171,149.424 218.508,149.424 219.333 M311.445 229.333 C 311.445 230.708,311.504 231.271,311.576 230.583 C 311.648 229.896,311.648 228.771,311.576 228.083 C 311.504 227.396,311.445 227.958,311.445 229.333 M299.479 240.833 C 299.479 245.783,299.525 247.855,299.582 245.437 C 299.639 243.018,299.639 238.968,299.583 236.437 C 299.526 233.905,299.479 235.883,299.479 240.833 M104.556 234.556 C 104.433 234.678,104.333 239.699,104.333 245.715 L 104.333 256.652 98.250 256.750 L 92.167 256.849 98.417 256.925 L 104.667 257.000 104.667 245.841 L 104.667 234.682 110.417 234.583 L 116.167 234.483 110.472 234.408 C 107.340 234.367,104.678 234.433,104.556 234.556 M311.455 246.167 C 311.456 248.000,311.512 248.707,311.579 247.739 C 311.647 246.770,311.646 245.270,311.578 244.405 C 311.509 243.541,311.454 244.333,311.455 246.167 M289.770 251.500 C 289.772 252.600,289.834 253.010,289.908 252.411 C 289.982 251.812,289.981 250.912,289.905 250.411 C 289.829 249.910,289.768 250.400,289.770 251.500 M191.917 256.915 C 193.612 256.976,196.387 256.976,198.083 256.915 C 199.779 256.855,198.392 256.805,195.000 256.805 C 191.608 256.805,190.221 256.855,191.917 256.915 M224.750 257.578 C 225.621 257.647,227.046 257.647,227.917 257.578 C 228.787 257.510,228.075 257.453,226.333 257.453 C 224.592 257.453,223.879 257.510,224.750 257.578 M72.000 264.833 C 73.550 266.392,74.894 267.667,74.985 267.667 C 75.077 267.667,73.884 266.392,72.333 264.833 C 70.783 263.275,69.440 262.000,69.348 262.000 C 69.256 262.000,70.450 263.275,72.000 264.833 M332.492 271.083 L 329.833 273.833 332.583 271.174 C 335.137 268.705,335.485 268.333,335.242 268.333 C 335.192 268.333,333.955 269.571,332.492 271.083 M66.667 270.833 C 67.662 271.842,68.552 272.667,68.644 272.667 C 68.736 272.667,67.996 271.842,67.000 270.833 C 66.004 269.825,65.114 269.000,65.023 269.000 C 64.931 269.000,65.671 269.825,66.667 270.833 M84.333 304.771 C 84.333 304.828,84.821 305.316,85.417 305.854 L 86.500 306.833 85.521 305.750 C 84.608 304.740,84.333 304.513,84.333 304.771 M185.587 311.569 C 186.002 311.649,186.602 311.646,186.921 311.562 C 187.239 311.479,186.900 311.414,186.167 311.417 C 185.433 311.421,185.173 311.489,185.587 311.569 M212.750 311.563 C 213.071 311.647,213.596 311.647,213.917 311.563 C 214.237 311.479,213.975 311.411,213.333 311.411 C 212.692 311.411,212.429 311.479,212.750 311.563 M192.925 311.911 C 193.709 311.982,194.909 311.981,195.592 311.909 C 196.275 311.837,195.633 311.780,194.167 311.781 C 192.700 311.782,192.141 311.841,192.925 311.911 M204.259 311.911 C 205.043 311.982,206.243 311.981,206.925 311.909 C 207.608 311.837,206.967 311.780,205.500 311.781 C 204.033 311.782,203.475 311.841,204.259 311.911 M305.812 314.083 L 304.833 315.167 305.917 314.188 C 306.512 313.649,307.000 313.162,307.000 313.104 C 307.000 312.847,306.725 313.074,305.812 314.083 M185.417 319.896 C 185.737 319.980,186.262 319.980,186.583 319.896 C 186.904 319.813,186.642 319.744,186.000 319.744 C 185.358 319.744,185.096 319.813,185.417 319.896 M213.083 319.896 C 213.404 319.980,213.929 319.980,214.250 319.896 C 214.571 319.813,214.308 319.744,213.667 319.744 C 213.025 319.744,212.762 319.813,213.083 319.896 M192.917 320.244 C 193.696 320.314,194.971 320.314,195.750 320.244 C 196.529 320.174,195.892 320.116,194.333 320.116 C 192.775 320.116,192.137 320.174,192.917 320.244 M204.259 320.244 C 205.043 320.315,206.243 320.314,206.925 320.242 C 207.608 320.171,206.967 320.113,205.500 320.114 C 204.033 320.115,203.475 320.174,204.259 320.244 M197.402 355.914 C 198.632 355.977,200.732 355.978,202.069 355.914 C 203.406 355.851,202.400 355.799,199.833 355.798 C 197.267 355.798,196.173 355.850,197.402 355.914 " stroke="none" fill="#d36a80" fill-rule="evenodd"></path></g></svg>