<svg width="438" height="347" viewBox="0 0 438 347" fill="none" xmlns="http://www.w3.org/2000/svg">
<ellipse cx="219.127" cy="244.523" rx="208.127" ry="85.6994" stroke="#1F277F" stroke-width="10"/>
<path d="M315.549 243.003C291.421 267.132 260.199 279.844 228.596 281.141C193.403 282.585 157.737 269.873 130.868 243.003C106.739 218.874 94.0264 187.653 92.7295 156.05C91.2852 120.857 103.998 85.1911 130.868 58.3213C159.325 29.8637 197.649 17.2857 234.829 20.5873C264.278 23.2025 293.009 35.7805 315.549 58.3213C340.746 83.5177 353.494 116.449 353.793 149.472C354.099 183.288 341.351 217.201 315.549 243.003Z" fill="#08085E"/>
<path d="M315.549 243.003C291.421 267.132 260.199 279.844 228.596 281.141M315.549 243.003C341.351 217.201 354.099 183.288 353.793 149.472M315.549 243.003C171.649 223.132 132.47 111.602 130.868 58.3213M130.868 243.003L315.549 58.3213M130.868 243.003C106.739 218.874 94.0264 187.653 92.7295 156.05M130.868 243.003C157.737 269.873 193.403 282.585 228.596 281.141M130.868 58.3213C103.998 85.1911 91.2852 120.857 92.7295 156.05M130.868 58.3213C159.325 29.8637 197.649 17.2857 234.829 20.5873M315.549 58.3213C293.009 35.7805 264.278 23.2025 234.829 20.5873M315.549 58.3213C340.746 83.5177 353.494 116.449 353.793 149.472M92.7295 156.05C136.487 173.899 212.156 140.949 234.829 20.5873M228.596 281.141C208.903 255.118 206.373 192.353 353.793 149.472" stroke="#FF9820" stroke-width="10"/>
</svg>
