<svg id="svg" version="1.1" xmlns="http://www.w3.org/2000/svg" xmlns:xlink="http://www.w3.org/1999/xlink" width="400" height="400" viewBox="0, 0, 400,400"><g id="svgg"><path id="path0" d="M118.502 46.872 C 103.093 50.597,98.107 66.133,106.646 83.812 L 107.924 86.458 105.992 88.703 C 91.124 105.978,83.488 128.980,86.141 148.500 C 86.569 151.647,87.924 158.000,88.168 158.000 C 88.230 158.000,89.593 156.350,91.197 154.333 C 94.356 150.361,94.556 150.210,94.850 151.583 C 99.596 173.806,112.387 197.253,124.333 205.627 L 126.833 207.380 127.389 203.440 C 127.694 201.273,127.957 198.938,127.972 198.250 C 128.012 196.452,128.058 196.486,133.350 202.210 C 148.661 218.772,163.404 229.892,182.667 239.409 C 190.167 243.115,197.137 247.429,198.939 249.481 L 200.000 250.690 200.000 240.845 L 200.000 231.000 195.544 231.000 C 189.006 231.000,184.122 230.051,179.966 227.974 C 176.189 226.086,175.235 224.867,171.180 216.753 C 157.261 188.897,152.881 158.872,159.154 134.319 C 159.354 133.540,159.217 133.408,157.459 132.679 C 152.338 130.557,148.092 123.783,146.647 115.432 L 146.232 113.031 143.866 112.183 C 139.970 110.788,137.400 110.307,132.731 110.100 C 127.871 109.885,127.619 109.676,131.242 108.867 C 150.465 104.574,164.881 108.336,179.464 121.450 C 186.049 127.372,188.184 128.529,192.020 128.255 C 196.678 127.921,196.561 128.179,197.308 116.667 C 197.840 108.472,198.942 92.047,199.332 86.500 C 199.512 83.933,199.666 81.308,199.674 80.667 C 199.708 77.684,200.283 80.979,200.635 86.175 C 200.847 89.297,201.233 94.697,201.494 98.175 C 201.755 101.654,202.278 108.925,202.656 114.333 C 203.610 127.966,203.374 126.792,205.327 127.632 C 210.016 129.649,213.182 128.335,221.157 121.057 C 234.830 108.580,249.814 104.718,268.663 108.814 C 271.573 109.446,271.519 109.377,267.580 107.426 C 255.036 101.210,246.132 100.692,232.736 105.396 C 228.293 106.956,228.641 107.078,229.233 104.167 C 231.759 91.728,235.890 85.674,245.500 80.331 C 254.081 75.559,256.362 73.389,259.357 67.144 C 263.934 57.603,270.738 52.401,280.500 50.980 C 282.930 50.626,288.441 50.760,289.948 51.210 C 291.776 51.755,287.695 49.864,285.536 49.166 C 274.351 45.546,263.691 49.618,256.371 60.305 L 254.343 63.266 251.300 62.288 C 238.042 58.024,220.139 59.318,203.727 65.726 C 201.835 66.464,199.960 66.999,199.560 66.914 C 199.160 66.829,196.658 66.156,194.000 65.419 C 177.785 60.923,162.225 59.582,150.386 61.661 C 148.123 62.058,146.227 62.335,146.171 62.275 C 146.115 62.215,145.181 60.967,144.094 59.500 C 136.593 49.378,127.236 44.761,118.502 46.872 M127.622 55.763 C 130.928 57.098,133.199 58.632,136.540 61.783 C 140.250 65.282,140.180 65.016,137.591 65.776 C 131.659 67.520,123.738 72.506,115.444 79.719 C 111.493 83.156,111.522 83.145,111.820 81.083 C 112.275 77.931,114.961 73.512,118.007 70.905 L 119.351 69.755 118.479 69.183 C 117.175 68.329,114.442 68.158,112.257 68.793 C 109.838 69.496,109.863 69.503,110.564 68.305 C 113.436 63.402,120.184 61.374,126.501 63.517 C 127.784 63.952,125.225 62.033,123.167 61.017 C 121.060 59.977,116.951 59.000,114.681 59.000 C 113.131 59.000,113.046 58.853,114.083 57.964 C 117.938 54.660,122.896 53.854,127.622 55.763 M155.000 115.710 C 155.000 115.785,155.309 116.969,155.687 118.340 C 158.324 127.903,164.287 132.818,172.362 132.086 C 174.277 131.913,174.425 131.946,174.211 132.503 C 167.579 149.788,166.039 171.516,170.014 191.749 C 172.038 202.052,176.790 216.878,177.954 216.520 C 181.431 215.451,191.495 213.765,196.083 213.483 L 200.000 213.243 200.000 208.436 L 200.000 203.630 198.643 201.631 C 196.872 199.024,192.008 193.374,190.711 192.417 C 188.734 190.959,187.645 191.585,185.703 195.295 L 184.414 197.756 182.664 195.162 C 175.333 184.298,179.720 178.304,195.618 177.465 L 200.000 177.234 200.000 157.117 L 200.000 137.000 198.153 137.000 C 192.163 137.000,185.736 134.262,179.037 128.858 C 177.316 127.469,175.623 126.333,175.274 126.333 C 173.709 126.333,171.516 127.988,169.966 130.337 L 169.432 131.146 168.025 130.511 C 164.722 129.022,162.409 124.944,162.085 120.043 L 161.901 117.252 160.405 116.590 C 159.092 116.010,155.000 115.343,155.000 115.710 M244.364 116.028 C 243.556 116.187,242.094 116.549,241.114 116.834 L 239.333 117.352 239.333 119.106 C 239.333 123.865,237.126 128.224,233.667 130.298 C 232.083 131.248,231.890 131.203,230.861 129.649 C 228.674 126.345,226.045 125.677,223.553 127.795 C 222.607 128.599,220.655 130.099,219.215 131.128 L 216.597 133.000 219.987 133.000 L 223.377 133.000 224.711 135.848 C 234.320 156.353,234.981 186.176,226.396 211.897 C 224.918 216.324,225.013 216.303,227.455 211.667 C 238.598 190.510,239.769 159.653,230.366 135.000 C 229.393 132.449,229.389 132.456,231.884 132.223 C 238.635 131.592,246.333 122.908,246.333 115.923 C 246.333 115.635,246.377 115.633,244.364 116.028 M207.424 178.171 C 218.815 180.086,222.711 185.352,218.543 193.201 C 217.166 195.794,217.493 195.664,219.530 192.808 C 225.318 184.698,222.124 179.787,210.000 178.152 C 205.667 177.567,203.912 177.580,207.424 178.171 M194.000 219.008 C 184.911 219.407,179.333 220.182,179.333 221.048 C 179.333 224.063,186.514 225.666,200.000 225.663 C 213.181 225.660,219.667 224.400,219.667 221.843 C 219.667 219.942,206.317 218.468,194.000 219.008 M253.333 312.667 C 253.333 327.941,253.446 335.637,253.667 335.500 C 253.878 335.369,254.000 331.219,254.000 324.147 L 254.000 313.000 265.500 313.000 L 277.000 313.000 277.000 324.333 C 277.000 331.667,277.118 335.667,277.333 335.667 C 277.552 335.667,277.667 327.840,277.667 312.853 C 277.667 298.003,277.550 289.967,277.333 289.833 C 277.114 289.698,277.000 293.497,277.000 300.980 L 277.000 312.333 265.500 312.333 L 254.000 312.333 254.000 301.186 C 254.000 294.115,253.878 289.964,253.667 289.833 C 253.446 289.697,253.333 297.392,253.333 312.667 M294.556 289.889 C 294.180 290.264,294.291 335.667,294.667 335.667 C 294.886 335.667,295.000 327.778,295.000 312.667 C 295.000 300.017,294.950 289.667,294.889 289.667 C 294.828 289.667,294.678 289.767,294.556 289.889 M64.081 315.250 L 64.161 335.833 64.250 315.578 L 64.339 295.323 73.753 295.411 L 83.167 295.500 83.331 315.667 L 83.495 335.833 83.664 315.667 L 83.833 295.500 89.936 295.409 C 97.344 295.299,98.290 295.501,100.363 297.641 C 102.671 300.023,102.667 299.983,102.667 319.048 C 102.667 330.676,102.773 335.694,103.014 335.452 C 103.249 335.217,103.330 329.546,103.264 317.969 L 103.167 300.833 102.387 299.250 C 100.206 294.822,99.447 294.667,79.939 294.667 L 64.000 294.667 64.081 315.250 M118.922 312.667 L 118.833 330.667 133.833 330.589 L 148.833 330.511 134.167 330.339 L 119.500 330.167 119.411 321.583 L 119.322 313.000 132.161 313.000 C 140.498 313.000,145.000 312.883,145.000 312.667 C 145.000 312.450,140.500 312.333,132.167 312.333 L 119.333 312.333 119.333 303.833 L 119.333 295.333 134.000 295.333 C 143.556 295.333,148.667 295.217,148.667 295.000 C 148.667 294.783,143.502 294.667,133.839 294.667 L 119.011 294.667 118.922 312.667 M159.000 314.980 C 159.000 328.163,159.117 335.366,159.333 335.500 C 159.554 335.636,159.667 328.891,159.667 315.514 L 159.667 295.323 169.083 295.411 L 178.500 295.500 178.669 315.667 L 178.839 335.833 179.003 315.667 L 179.167 295.500 185.270 295.409 C 192.677 295.299,193.623 295.501,195.696 297.641 C 198.004 300.023,198.000 299.984,198.000 319.036 C 198.000 328.244,198.080 335.698,198.178 335.599 C 198.276 335.501,198.349 327.568,198.339 317.971 C 198.314 292.803,200.172 294.667,175.106 294.667 L 159.000 294.667 159.000 314.980 M214.000 314.957 C 214.000 328.155,214.117 335.366,214.333 335.500 C 214.553 335.636,214.667 332.337,214.667 325.853 L 214.667 316.000 222.947 316.000 C 236.644 316.000,238.495 314.662,238.275 304.917 C 238.147 299.233,237.509 297.692,234.518 295.842 L 232.887 294.833 223.444 294.727 L 214.000 294.620 214.000 314.957 M316.434 295.215 C 313.098 296.397,311.333 299.522,311.333 304.248 C 311.333 308.915,311.921 309.528,318.312 311.528 C 336.250 317.141,335.333 316.598,335.333 321.611 C 335.333 328.810,333.236 330.000,320.545 330.000 L 312.000 330.000 312.000 325.500 C 312.000 322.722,311.872 321.000,311.667 321.000 C 311.460 321.000,311.333 322.833,311.333 325.833 L 311.333 330.667 320.019 330.667 C 330.471 330.667,331.172 330.538,333.522 328.188 C 335.432 326.278,336.000 324.709,336.000 321.342 C 336.000 316.954,335.129 316.185,327.478 313.815 C 324.190 312.796,319.785 311.432,317.688 310.784 C 312.345 309.132,311.998 308.730,312.007 304.215 C 312.016 300.312,312.551 298.719,314.369 297.186 C 316.486 295.401,316.929 295.333,326.489 295.333 L 335.333 295.333 335.333 300.000 C 335.333 302.889,335.460 304.667,335.667 304.667 C 335.874 304.667,336.000 302.778,336.000 299.667 L 336.000 294.667 326.917 294.693 C 319.779 294.714,317.534 294.826,316.434 295.215 M233.261 295.851 C 236.726 297.299,237.669 299.310,237.659 305.237 C 237.645 314.390,236.280 315.333,223.045 315.333 L 214.667 315.333 214.667 305.333 L 214.667 295.333 223.344 295.333 C 230.435 295.333,232.248 295.428,233.261 295.851 " stroke="none" fill="#5c74ab" fill-rule="evenodd"></path><path id="path1" d="M117.667 35.832 C 95.036 40.387,83.277 63.974,93.856 83.589 L 95.342 86.344 92.214 91.089 C 73.521 119.437,69.743 152.264,82.795 172.939 C 83.910 174.706,83.729 174.752,86.520 171.980 L 88.889 169.626 90.151 173.563 C 96.521 193.436,110.868 211.940,129.621 224.470 C 134.252 227.564,133.821 227.613,134.480 223.917 C 134.783 222.221,135.101 220.626,135.188 220.373 C 135.292 220.071,136.466 220.994,138.590 223.047 C 147.234 231.402,152.956 235.342,170.333 244.907 C 184.792 252.866,190.965 257.244,197.521 264.192 L 199.876 266.687 203.697 262.927 C 209.788 256.934,216.114 252.380,225.750 247.052 C 228.454 245.557,232.879 243.111,235.583 241.618 C 246.729 235.462,253.400 230.646,261.632 222.812 C 264.973 219.632,264.710 219.569,265.351 223.711 C 265.938 227.495,265.796 227.458,269.727 224.849 C 288.992 212.061,304.443 192.141,310.001 172.925 C 310.387 171.591,310.776 170.285,310.865 170.022 C 310.976 169.694,311.815 170.324,313.528 172.022 L 316.029 174.500 316.666 173.667 C 317.995 171.930,320.685 166.334,321.801 162.984 C 328.991 141.403,323.694 114.825,307.309 90.265 L 304.706 86.363 306.523 82.765 C 312.943 70.050,311.031 56.854,301.270 46.513 C 286.464 30.828,262.772 31.898,250.793 48.792 L 250.113 49.752 247.140 49.292 C 235.335 47.470,218.014 49.360,205.500 53.837 C 199.693 55.915,200.085 55.876,196.965 54.673 C 183.616 49.525,168.364 47.559,154.395 49.184 L 149.956 49.700 149.276 48.836 C 140.822 38.089,129.531 33.444,117.667 35.832 M126.114 46.489 C 132.730 47.668,144.211 56.582,146.046 61.963 C 146.127 62.200,147.203 62.105,149.315 61.671 C 161.755 59.119,180.544 60.909,197.949 66.303 L 200.065 66.959 202.868 65.829 C 218.943 59.348,236.912 57.851,250.504 61.859 C 252.152 62.345,253.725 62.800,254.000 62.870 C 254.325 62.953,254.998 62.193,255.921 60.701 C 263.351 48.696,276.338 44.527,288.636 50.200 C 291.484 51.513,291.562 51.743,289.000 51.268 C 277.473 49.132,265.361 55.213,260.319 65.667 C 259.567 67.225,258.625 69.170,258.226 69.989 C 256.576 73.372,252.517 76.653,244.438 81.131 C 238.426 84.464,235.949 87.000,233.350 92.484 C 231.584 96.209,229.000 104.522,229.000 106.478 C 229.000 106.561,229.637 106.348,230.417 106.005 C 243.441 100.269,256.393 100.953,269.271 108.058 C 272.111 109.625,272.155 109.895,269.454 109.204 C 263.670 107.724,253.143 107.221,247.167 108.140 C 236.638 109.758,230.873 112.665,221.330 121.167 C 214.261 127.465,212.590 128.468,209.142 128.487 C 206.262 128.503,203.337 127.349,203.327 126.193 C 203.324 125.812,202.959 120.625,202.516 114.667 C 202.073 108.708,201.386 99.108,200.990 93.333 C 200.159 81.227,199.873 79.753,199.533 85.843 C 199.400 88.221,198.739 98.417,198.063 108.500 L 196.833 126.833 195.167 127.667 C 191.356 129.572,187.403 128.545,182.627 124.410 C 181.413 123.360,178.788 121.083,176.794 119.351 C 164.457 108.638,150.421 105.356,132.167 108.915 C 129.454 109.444,129.310 109.508,130.667 109.582 C 136.194 109.882,141.369 110.886,144.845 112.331 L 146.524 113.030 146.936 115.650 C 148.321 124.450,153.130 131.360,159.118 133.154 C 159.547 133.282,159.666 133.517,159.507 133.919 C 156.289 142.072,155.797 164.166,158.507 178.839 C 161.569 195.415,171.358 220.502,176.722 225.520 C 180.434 228.992,187.939 231.000,197.202 231.000 L 200.000 231.000 200.000 241.001 L 200.000 251.002 198.818 249.693 C 196.456 247.080,188.966 242.506,180.405 238.451 C 163.968 230.664,144.804 215.615,130.028 198.891 C 128.284 196.918,128.506 196.593,127.720 202.280 C 126.921 208.060,127.173 207.797,124.305 205.837 C 112.839 198.003,101.518 177.963,95.528 154.895 L 94.419 150.624 91.307 154.480 C 87.713 158.933,87.974 158.985,86.829 153.570 C 82.372 132.487,88.825 109.596,104.774 89.917 L 107.643 86.376 106.370 83.605 C 97.769 64.882,103.748 48.765,120.182 46.370 C 122.972 45.964,123.191 45.968,126.114 46.489 M118.284 55.622 C 117.432 55.963,116.028 56.750,115.165 57.370 L 113.595 58.498 114.881 58.714 C 115.588 58.833,117.217 59.105,118.500 59.319 C 121.255 59.778,125.108 61.538,126.461 62.956 L 127.423 63.963 125.628 63.472 C 121.487 62.337,116.855 62.920,113.913 64.947 C 112.718 65.770,109.960 69.000,110.452 69.000 C 110.541 69.000,111.536 68.764,112.663 68.475 C 115.278 67.805,117.096 68.043,118.989 69.303 C 119.386 69.567,119.060 70.063,117.278 71.909 C 111.754 77.631,109.649 84.583,114.833 79.983 C 122.554 73.132,131.898 67.178,137.333 65.644 C 139.642 64.993,139.631 64.859,137.055 62.364 C 130.648 56.158,123.420 53.561,118.284 55.622 M162.500 117.484 C 167.211 119.794,171.972 122.961,177.894 127.721 C 185.690 133.989,190.577 136.289,196.750 136.595 L 200.000 136.756 200.000 157.162 L 200.000 177.569 195.250 177.761 C 179.704 178.391,175.331 185.091,183.372 195.957 L 184.450 197.414 185.541 195.252 C 186.631 193.089,188.278 191.333,189.217 191.333 C 190.258 191.333,196.199 197.684,198.942 201.727 L 200.000 203.287 200.000 208.295 L 200.000 213.303 198.917 213.467 C 198.321 213.557,196.408 213.708,194.667 213.801 C 192.925 213.895,188.650 214.524,185.167 215.200 C 176.320 216.917,177.455 217.271,175.560 212.208 C 166.121 186.992,165.098 158.625,172.810 136.011 C 173.465 134.092,174.000 132.442,174.000 132.344 C 173.999 132.247,172.383 132.167,170.408 132.167 C 163.351 132.167,158.736 128.183,155.859 119.608 C 154.137 114.478,155.489 114.046,162.500 117.484 M246.333 116.202 C 246.333 123.208,239.272 131.289,232.160 132.420 L 229.748 132.804 230.530 134.882 C 240.558 161.524,238.484 194.966,225.529 215.500 C 224.403 217.284,224.433 217.113,226.152 211.956 C 234.790 186.034,234.156 156.663,224.506 135.777 L 223.387 133.356 219.616 133.261 L 215.845 133.167 217.672 132.002 C 219.569 130.792,223.761 127.502,225.500 125.857 C 231.467 120.213,246.333 113.323,246.333 116.202 M209.167 177.857 C 222.716 178.946,226.298 185.937,217.954 195.006 C 216.652 196.421,216.436 196.570,216.994 195.667 C 222.837 186.209,219.892 180.559,208.040 178.488 C 206.503 178.220,204.478 177.998,203.540 177.995 C 202.283 177.991,201.965 177.901,202.333 177.653 C 202.608 177.468,203.658 177.390,204.667 177.480 C 205.675 177.569,207.700 177.739,209.167 177.857 M210.013 219.147 C 213.455 219.580,217.874 220.387,219.417 220.864 C 220.177 221.100,220.170 222.409,219.404 223.102 C 215.289 226.827,186.734 226.980,180.795 223.310 C 179.444 222.475,178.961 221.096,179.805 220.480 C 181.780 219.036,202.024 218.143,210.013 219.147 M113.667 312.664 L 113.667 336.000 131.333 336.000 L 149.000 336.000 149.000 333.417 L 149.000 330.833 133.833 330.923 L 118.667 331.013 118.667 312.840 L 118.667 294.667 133.847 294.667 L 149.028 294.667 148.931 292.083 L 148.833 289.500 131.250 289.414 L 113.667 289.327 113.667 312.664 M209.000 312.667 L 209.000 336.000 211.500 336.000 L 214.000 336.000 214.000 315.333 L 214.000 294.667 223.177 294.667 C 234.395 294.667,235.537 295.019,237.779 299.167 C 239.716 302.750,238.651 311.306,235.946 313.900 C 233.863 315.897,233.259 316.000,223.677 316.000 L 215.000 316.000 215.000 326.000 L 215.000 336.000 217.500 336.000 L 220.000 336.000 220.000 328.500 L 220.000 321.000 226.488 321.000 C 235.142 321.000,237.976 319.977,240.993 315.763 C 245.228 309.849,244.549 298.184,239.687 293.322 C 236.100 289.735,234.113 289.333,219.955 289.333 L 209.000 289.333 209.000 312.667 M248.222 289.556 C 248.100 289.678,248.000 300.178,248.000 312.889 L 248.000 336.000 250.500 336.000 L 253.000 336.000 253.000 313.194 C 253.000 300.651,253.091 290.151,253.202 289.861 C 253.413 289.312,248.751 289.027,248.222 289.556 M254.079 300.750 L 254.167 312.167 265.417 312.254 L 276.667 312.342 276.667 301.365 C 276.667 295.328,276.760 290.144,276.875 289.846 C 277.058 289.369,276.768 289.316,274.458 289.402 L 271.833 289.500 271.745 298.417 L 271.656 307.333 265.328 307.333 L 259.000 307.333 259.000 298.333 L 259.000 289.333 256.496 289.333 L 253.991 289.333 254.079 300.750 M277.667 312.667 L 277.667 336.000 280.167 336.000 L 282.667 336.000 282.667 312.667 L 282.667 289.333 280.167 289.333 L 277.667 289.333 277.667 312.667 M289.333 312.667 L 289.333 336.000 291.833 336.000 L 294.333 336.000 294.333 312.667 L 294.333 289.333 291.833 289.333 L 289.333 289.333 289.333 312.667 M295.125 289.846 C 295.240 290.144,295.333 300.651,295.333 313.194 L 295.333 336.000 297.836 336.000 L 300.338 336.000 300.252 312.750 L 300.167 289.500 297.542 289.402 C 295.232 289.316,294.942 289.369,295.125 289.846 M316.368 289.861 C 309.264 291.771,305.414 297.892,306.142 306.118 C 306.645 311.803,309.067 314.264,316.333 316.471 C 318.442 317.111,322.383 318.317,325.091 319.151 C 327.800 319.985,330.088 320.667,330.175 320.667 C 330.637 320.667,330.257 323.354,329.697 324.046 C 329.077 324.813,328.906 324.836,323.030 324.938 L 317.000 325.042 317.000 322.854 L 317.000 320.667 314.491 320.667 L 311.981 320.667 312.074 325.250 L 312.167 329.833 321.000 329.833 C 333.072 329.833,335.333 328.494,335.333 321.342 C 335.333 317.164,334.900 316.871,323.571 313.378 C 311.100 309.534,311.168 309.584,311.170 304.167 C 311.171 300.551,311.656 299.025,313.404 297.129 C 315.687 294.652,316.472 294.500,327.000 294.500 L 336.167 294.500 336.258 299.750 L 336.350 305.000 338.842 305.000 L 341.333 305.000 341.333 297.167 L 341.333 289.333 329.750 289.355 C 320.732 289.372,317.768 289.484,316.368 289.861 M58.667 312.823 L 58.667 336.000 61.167 336.000 L 63.667 336.000 63.667 315.325 L 63.667 294.649 80.777 294.741 L 97.886 294.833 99.518 295.842 C 100.528 296.467,101.533 297.472,102.158 298.482 L 103.167 300.114 103.261 318.057 L 103.355 336.000 105.855 336.000 L 108.355 336.000 108.261 317.583 L 108.167 299.167 107.187 297.167 C 105.934 294.608,103.212 291.885,100.756 290.734 L 98.833 289.833 78.750 289.740 L 58.667 289.647 58.667 312.823 M154.000 312.823 L 154.000 336.000 156.500 336.000 L 159.000 336.000 159.000 315.333 L 159.000 294.667 175.768 294.667 L 192.536 294.667 194.241 295.516 C 196.077 296.431,197.526 298.057,198.210 299.970 C 198.536 300.884,198.641 305.284,198.652 318.583 L 198.667 336.000 201.180 336.000 L 203.693 336.000 203.597 317.583 L 203.500 299.167 202.520 297.167 C 201.267 294.608,198.545 291.885,196.089 290.734 L 194.167 289.833 174.083 289.740 L 154.000 289.647 154.000 312.823 M119.667 303.833 L 119.667 312.333 132.333 312.333 L 145.000 312.333 145.000 309.833 L 145.000 307.333 134.833 307.333 L 124.667 307.333 124.667 303.917 L 124.667 300.500 136.750 300.500 L 148.833 300.500 148.931 297.917 L 149.028 295.333 134.347 295.333 L 119.667 295.333 119.667 303.833 M215.000 305.138 L 215.000 315.000 223.680 315.000 C 236.137 315.000,237.669 313.945,237.665 305.375 C 237.660 296.678,236.078 295.556,223.583 295.390 L 215.000 295.275 215.000 305.138 M317.263 295.728 C 314.042 296.592,312.000 299.829,312.000 304.070 C 312.000 308.867,311.905 308.799,323.833 312.492 C 336.335 316.361,336.093 316.170,335.931 322.056 C 335.721 329.701,333.146 331.075,319.309 330.923 L 311.167 330.833 311.167 325.737 L 311.167 320.641 308.667 320.737 L 306.167 320.833 306.167 328.333 L 306.167 335.833 317.000 335.929 C 328.726 336.032,331.028 335.830,333.848 334.449 C 343.129 329.905,344.210 314.968,335.546 310.988 C 334.788 310.640,332.367 309.812,330.167 309.148 C 327.967 308.485,324.280 307.355,321.975 306.638 C 319.670 305.920,317.607 305.333,317.392 305.333 C 316.479 305.333,317.105 301.608,318.133 300.922 C 318.335 300.787,321.162 300.675,324.417 300.672 L 330.333 300.667 330.333 302.833 L 330.333 305.000 332.842 305.000 L 335.352 305.000 335.259 300.250 L 335.167 295.500 326.833 295.448 C 322.170 295.419,317.955 295.543,317.263 295.728 M64.667 315.833 L 64.667 336.000 67.167 336.000 L 69.667 336.000 69.667 318.333 L 69.667 300.667 73.833 300.667 L 78.000 300.667 78.000 318.333 L 78.000 336.000 80.500 336.000 L 83.000 336.000 83.000 315.833 L 83.000 295.667 73.833 295.667 L 64.667 295.667 64.667 315.833 M84.000 315.815 L 84.000 336.000 86.500 336.000 L 89.000 336.000 89.000 318.333 L 89.000 300.667 92.615 300.667 C 97.848 300.667,97.333 298.674,97.333 318.943 L 97.333 336.000 99.833 336.000 L 102.333 336.000 102.333 318.565 L 102.333 301.131 101.489 299.436 C 100.962 298.379,100.127 297.383,99.269 296.788 L 97.893 295.833 90.946 295.731 L 84.000 295.629 84.000 315.815 M160.000 315.833 L 160.000 336.000 162.500 336.000 L 165.000 336.000 165.000 318.333 L 165.000 300.667 169.167 300.667 L 173.333 300.667 173.333 318.333 L 173.333 336.000 175.833 336.000 L 178.333 336.000 178.333 315.833 L 178.333 295.667 169.167 295.667 L 160.000 295.667 160.000 315.833 M179.333 315.815 L 179.333 336.000 181.833 336.000 L 184.333 336.000 184.333 318.333 L 184.333 300.667 187.948 300.667 C 193.181 300.667,192.667 298.674,192.667 318.943 L 192.667 336.000 195.167 336.000 L 197.667 336.000 197.667 318.565 L 197.667 301.131 196.822 299.436 C 196.295 298.379,195.461 297.383,194.602 296.788 L 193.226 295.833 186.280 295.731 L 179.333 295.629 179.333 315.815 M232.083 301.377 C 232.553 301.938,232.667 302.719,232.667 305.370 C 232.667 310.118,232.846 310.000,225.667 310.000 L 220.000 310.000 220.000 305.250 L 219.999 300.500 225.750 300.590 C 231.116 300.674,231.539 300.726,232.083 301.377 M119.667 321.667 L 119.667 330.000 134.333 330.000 L 149.000 330.000 149.000 327.500 L 149.000 325.000 136.833 325.000 L 124.667 325.000 124.667 321.667 L 124.667 318.333 134.833 318.333 L 145.000 318.333 145.000 315.833 L 145.000 313.333 132.333 313.333 L 119.667 313.333 119.667 321.667 M254.000 324.667 L 254.000 336.000 256.500 336.000 L 259.000 336.000 259.000 327.167 L 259.000 318.333 265.328 318.333 L 271.656 318.333 271.744 327.083 L 271.833 335.833 274.250 335.931 L 276.667 336.029 276.667 324.681 L 276.667 313.333 265.333 313.333 L 254.000 313.333 254.000 324.667 M62.833 345.220 C 61.372 345.989,60.027 347.329,59.303 348.737 C 58.293 350.700,58.345 364.294,59.370 366.000 C 61.643 369.786,62.307 370.000,71.820 370.000 L 79.667 370.000 79.667 362.833 L 79.667 355.667 74.667 355.667 L 69.667 355.667 69.667 358.833 L 69.667 362.000 71.500 362.000 C 73.278 362.000,73.333 362.028,73.334 362.917 L 73.335 363.833 69.251 363.667 L 65.167 363.500 65.075 357.501 C 64.966 350.313,64.752 350.667,69.207 350.667 C 72.570 350.667,73.333 351.010,73.333 352.524 C 73.333 353.325,73.367 353.333,76.538 353.333 L 79.743 353.333 79.511 351.417 C 79.206 348.898,77.992 346.858,76.072 345.641 L 74.536 344.667 69.185 344.680 C 64.973 344.691,63.620 344.805,62.833 345.220 M95.000 357.333 L 95.000 370.000 98.000 370.000 L 101.000 370.000 101.000 366.167 L 101.000 362.333 104.148 362.333 C 108.626 362.333,109.122 362.781,109.283 366.971 L 109.400 370.000 112.583 370.000 L 115.767 370.000 115.573 366.323 C 115.410 363.248,115.242 362.402,114.548 361.160 C 114.030 360.233,113.847 359.595,114.060 359.463 C 115.563 358.534,116.273 351.763,115.149 349.073 C 113.530 345.197,112.030 344.667,102.680 344.667 L 95.000 344.667 95.000 357.333 M131.000 357.333 L 131.000 370.000 134.167 370.000 L 137.333 370.000 137.333 357.333 L 137.333 344.667 134.167 344.667 L 131.000 344.667 131.000 357.333 M152.333 347.667 L 152.333 350.667 158.015 350.667 L 163.697 350.667 157.514 359.808 C 154.114 364.835,151.241 369.185,151.130 369.474 C 150.949 369.947,152.083 370.000,162.298 370.000 L 173.667 370.000 173.667 366.818 L 173.667 363.636 168.052 363.735 L 162.438 363.833 168.719 354.421 C 172.173 349.244,175.000 344.932,175.000 344.838 C 175.000 344.744,169.900 344.667,163.667 344.667 L 152.333 344.667 152.333 347.667 M188.667 347.667 L 188.667 350.667 194.289 350.667 L 199.912 350.667 193.449 360.333 L 186.986 370.000 198.493 370.000 L 210.000 370.000 210.000 366.818 L 210.000 363.636 204.365 363.735 C 200.672 363.799,198.797 363.718,198.926 363.500 C 199.034 363.317,201.870 359.089,205.228 354.104 C 208.586 349.120,211.333 344.958,211.333 344.854 C 211.333 344.751,206.233 344.667,200.000 344.667 L 188.667 344.667 188.667 347.667 M226.333 357.333 L 226.333 370.000 236.833 370.000 L 247.333 370.000 247.333 366.833 L 247.333 363.667 240.000 363.667 L 232.667 363.667 232.667 354.167 L 232.667 344.667 229.500 344.667 L 226.333 344.667 226.333 357.333 M261.667 357.333 L 261.667 370.000 264.833 370.000 L 268.000 370.000 268.000 357.333 L 268.000 344.667 264.833 344.667 L 261.667 344.667 261.667 357.333 M284.000 357.333 L 284.000 370.000 294.667 370.000 L 305.333 370.000 305.333 366.833 L 305.333 363.667 297.833 363.667 L 290.333 363.667 290.333 361.917 L 290.333 360.167 296.750 360.167 L 303.167 360.167 303.263 357.083 L 303.358 354.000 296.846 354.000 L 290.333 354.000 290.333 352.333 L 290.333 350.667 297.833 350.667 L 305.333 350.667 305.333 347.667 L 305.333 344.667 294.667 344.667 L 284.000 344.667 284.000 357.333 M324.500 345.220 C 318.974 348.127,318.452 356.715,323.678 358.727 C 324.497 359.042,327.310 359.870,329.930 360.567 C 334.531 361.790,334.691 361.862,334.597 362.667 C 334.500 363.497,334.485 363.500,330.577 363.594 L 326.654 363.688 326.452 362.677 L 326.250 361.667 323.125 361.667 L 320.000 361.667 320.000 362.625 C 320.000 365.085,321.552 367.589,324.077 369.204 C 326.146 370.529,335.213 370.416,337.384 369.040 C 341.000 366.746,342.251 362.597,340.417 358.976 C 339.255 356.683,338.200 356.143,331.500 354.411 C 326.193 353.040,325.490 352.557,326.839 351.208 C 328.424 349.624,335.000 350.684,335.000 352.524 C 335.000 353.324,335.036 353.333,338.167 353.333 L 341.333 353.333 341.326 352.083 C 341.311 349.553,339.369 346.557,336.930 345.303 C 335.253 344.440,326.098 344.379,324.500 345.220 M109.264 353.458 L 109.167 355.833 105.083 355.927 L 101.000 356.021 101.000 353.521 L 101.000 351.022 104.750 350.928 C 109.679 350.804,109.379 350.636,109.264 353.458 " stroke="none" fill="#13143c" fill-rule="evenodd"></path><path id="path2" d="M115.783 30.020 C 114.289 30.365,112.414 30.889,111.617 31.184 C 110.819 31.480,109.829 31.801,109.417 31.900 C 109.004 31.998,108.667 32.235,108.667 32.428 C 108.667 32.620,108.574 32.685,108.460 32.571 C 108.347 32.458,107.184 32.904,105.877 33.562 C 91.843 40.629,83.052 55.062,83.786 69.833 C 84.047 75.087,85.712 81.443,87.718 84.844 L 88.314 85.855 86.972 87.844 C 84.702 91.211,81.333 96.981,81.333 97.504 C 81.333 97.777,81.206 98.000,81.051 98.000 C 80.732 98.000,76.130 107.473,75.950 108.500 C 75.886 108.867,75.732 109.244,75.609 109.337 C 74.468 110.204,70.560 124.799,69.495 132.167 C 69.066 135.137,68.945 146.922,69.313 149.833 C 69.522 151.483,69.702 153.058,69.713 153.333 C 69.724 153.608,69.864 154.358,70.023 155.000 C 70.182 155.642,70.407 156.767,70.522 157.500 C 70.638 158.233,70.786 158.921,70.852 159.028 C 70.917 159.135,71.052 159.680,71.150 160.240 C 71.974 164.914,78.691 179.333,80.045 179.333 C 80.204 179.333,80.333 179.497,80.333 179.697 C 80.333 179.897,80.959 180.953,81.725 182.044 L 83.116 184.027 84.648 182.519 C 86.186 181.004,87.000 181.066,87.000 182.700 C 87.000 184.452,96.452 201.383,97.744 201.944 C 97.885 202.006,98.000 202.207,98.000 202.392 C 98.000 203.794,107.518 214.280,113.333 219.284 C 114.892 220.625,116.488 222.009,116.880 222.361 C 117.273 222.712,117.685 223.000,117.797 223.000 C 117.909 223.000,118.277 223.262,118.617 223.583 C 119.730 224.637,120.669 225.333,120.976 225.333 C 121.142 225.333,121.328 225.480,121.389 225.659 C 121.526 226.059,125.841 229.093,131.167 232.533 C 133.367 233.954,135.815 235.542,136.607 236.063 C 138.374 237.224,138.519 237.145,138.786 234.871 C 139.146 231.812,139.122 231.818,141.804 234.019 C 143.131 235.109,144.393 236.000,144.609 236.000 C 144.824 236.000,145.000 236.148,145.000 236.328 C 145.000 236.509,145.505 236.997,146.121 237.412 C 146.738 237.827,148.616 239.110,150.294 240.263 C 151.973 241.416,153.606 242.455,153.923 242.572 C 154.240 242.689,154.575 242.883,154.667 243.004 C 155.015 243.463,172.399 253.000,172.887 253.000 C 172.965 253.000,173.209 253.150,173.431 253.333 C 173.652 253.516,175.483 254.735,177.500 256.043 C 184.513 260.591,194.512 269.400,198.970 274.957 L 199.874 276.083 201.731 274.125 C 202.752 273.048,204.011 271.659,204.528 271.039 C 207.363 267.636,218.376 258.368,222.603 255.828 C 226.447 253.517,230.459 251.252,235.000 248.829 C 245.606 243.169,250.610 240.004,257.044 234.883 L 260.589 232.063 260.992 234.115 C 261.606 237.236,261.556 237.148,262.420 236.592 C 262.831 236.328,264.629 235.244,266.417 234.182 C 268.204 233.120,269.667 232.095,269.667 231.903 C 269.667 231.712,269.759 231.648,269.873 231.761 C 270.046 231.935,274.828 228.954,275.333 228.357 C 275.425 228.249,276.108 227.767,276.851 227.286 C 284.484 222.343,302.000 204.776,302.000 202.063 C 302.000 201.845,302.135 201.667,302.299 201.667 C 302.604 201.667,306.667 195.592,306.667 195.136 C 306.667 194.998,306.869 194.649,307.117 194.360 C 307.539 193.866,309.362 190.405,310.378 188.167 C 310.628 187.617,310.914 187.092,311.015 187.000 C 311.115 186.908,311.780 185.512,312.493 183.897 L 313.790 180.960 315.168 182.483 L 316.546 184.005 317.214 183.253 C 318.398 181.920,321.000 178.277,321.000 177.953 C 321.000 177.780,321.282 177.337,321.626 176.967 C 323.820 174.611,328.818 161.952,329.467 157.102 C 329.536 156.587,329.743 155.492,329.926 154.667 C 330.109 153.842,330.272 152.942,330.288 152.667 C 330.303 152.392,330.483 150.667,330.688 148.833 C 331.457 141.944,330.339 127.051,328.748 123.000 C 328.640 122.725,328.511 122.162,328.462 121.749 C 328.231 119.800,324.633 109.190,323.976 108.517 C 323.806 108.343,323.667 107.966,323.667 107.679 C 323.667 106.978,319.060 97.578,318.561 97.261 C 318.344 97.123,318.298 97.008,318.457 97.005 C 318.617 97.002,318.594 96.813,318.406 96.583 C 318.218 96.354,317.574 95.267,316.975 94.167 C 316.376 93.067,315.011 90.833,313.943 89.202 C 311.637 85.684,311.719 86.565,313.332 82.632 C 314.064 80.846,314.716 79.110,314.781 78.776 C 314.847 78.441,314.986 77.942,315.091 77.667 C 319.582 65.897,312.658 46.369,300.965 37.827 C 284.158 25.548,264.828 26.438,250.767 40.138 C 248.072 42.765,247.391 43.265,246.683 43.143 C 235.334 41.188,216.285 43.380,203.000 48.169 C 199.883 49.293,200.168 49.306,196.112 47.865 C 183.367 43.339,164.354 41.241,153.315 43.144 C 152.616 43.264,152.049 42.875,150.149 40.970 C 140.391 31.192,127.924 27.219,115.783 30.020 M130.497 35.895 C 137.228 37.421,143.872 41.859,149.017 48.264 L 150.167 49.695 151.851 49.369 C 164.243 46.967,182.181 49.021,196.877 54.525 L 200.086 55.727 202.626 54.728 C 216.725 49.182,234.551 47.063,248.044 49.328 L 249.833 49.628 251.142 48.064 C 261.758 35.376,276.193 31.747,290.108 38.268 C 308.708 46.985,315.856 68.159,305.744 84.592 L 304.750 86.208 307.625 90.528 C 326.003 118.148,330.300 150.303,318.384 171.027 C 315.932 175.291,316.358 175.172,313.552 172.385 L 311.114 169.963 309.698 174.232 C 303.194 193.841,289.338 211.616,270.658 224.315 C 266.374 227.227,265.667 227.529,265.667 226.445 C 265.667 226.161,265.423 224.597,265.125 222.970 L 264.584 220.011 260.392 224.038 C 252.197 231.913,246.656 235.641,227.008 246.504 C 215.801 252.700,210.841 256.214,204.251 262.627 L 200.001 266.762 195.917 262.789 C 188.824 255.888,183.562 252.280,168.554 244.027 C 152.971 235.457,147.258 231.508,139.437 223.898 L 135.374 219.945 135.144 221.223 C 134.396 225.387,134.052 227.059,133.916 227.195 C 133.682 227.429,126.682 222.665,122.840 219.656 C 107.119 207.346,94.255 188.841,89.292 171.399 L 88.884 169.965 86.428 172.399 L 83.971 174.833 83.325 174.000 C 82.969 173.542,81.866 171.579,80.874 169.638 C 70.140 148.654,74.453 117.759,91.775 91.553 L 95.265 86.274 93.952 83.996 C 80.118 60.001,103.144 29.693,130.497 35.895 M239.077 120.333 C 239.077 120.975,239.146 121.237,239.230 120.917 C 239.314 120.596,239.314 120.071,239.230 119.750 C 239.146 119.429,239.077 119.692,239.077 120.333 M235.649 128.583 L 234.500 129.833 235.750 128.685 C 236.913 127.615,237.153 127.333,236.899 127.333 C 236.843 127.333,236.281 127.896,235.649 128.583 " stroke="none" fill="#737474" fill-rule="evenodd"></path><path id="path3" d="M162.118 119.631 C 162.811 127.092,167.949 133.015,170.515 129.312 C 171.550 127.818,173.781 126.340,175.029 126.321 C 175.829 126.309,175.828 126.305,174.833 125.469 C 173.263 124.149,166.737 119.855,164.197 118.470 L 161.893 117.213 162.118 119.631 M235.471 119.173 C 232.406 120.775,228.689 123.253,226.500 125.152 L 225.167 126.308 226.100 126.321 C 227.494 126.340,228.739 127.112,230.457 129.022 C 233.766 132.703,238.185 127.909,239.157 119.583 C 239.438 117.180,239.308 117.165,235.471 119.173 " stroke="none" fill="#f7b926" fill-rule="evenodd"></path><path id="path4" d="M122.923 35.242 C 123.522 35.316,124.422 35.314,124.923 35.238 C 125.424 35.162,124.933 35.101,123.833 35.103 C 122.733 35.105,122.324 35.167,122.923 35.242 M275.256 35.242 C 275.855 35.316,276.755 35.314,277.256 35.238 C 277.757 35.162,277.267 35.101,276.167 35.103 C 275.067 35.105,274.657 35.167,275.256 35.242 M254.322 44.583 L 252.500 46.500 254.417 44.678 C 255.471 43.676,256.333 42.813,256.333 42.761 C 256.333 42.514,256.015 42.803,254.322 44.583 M300.319 45.417 C 301.137 46.288,301.849 47.000,301.903 47.000 C 302.153 47.000,301.888 46.701,300.417 45.319 L 298.833 43.833 300.319 45.417 M99.151 45.750 L 97.833 47.167 99.250 45.849 C 100.567 44.624,100.820 44.333,100.568 44.333 C 100.513 44.333,99.876 44.971,99.151 45.750 M122.417 46.230 C 122.737 46.314,123.263 46.314,123.583 46.230 C 123.904 46.146,123.642 46.077,123.000 46.077 C 122.358 46.077,122.096 46.146,122.417 46.230 M274.583 47.902 C 274.996 47.981,275.671 47.981,276.083 47.902 C 276.496 47.822,276.158 47.757,275.333 47.757 C 274.508 47.757,274.171 47.822,274.583 47.902 M278.583 47.902 C 278.996 47.981,279.671 47.981,280.083 47.902 C 280.496 47.822,280.158 47.757,279.333 47.757 C 278.508 47.757,278.171 47.822,278.583 47.902 M163.093 48.579 C 163.970 48.648,165.320 48.647,166.093 48.577 C 166.867 48.507,166.150 48.451,164.500 48.452 C 162.850 48.453,162.217 48.510,163.093 48.579 M234.093 48.579 C 234.970 48.648,236.320 48.647,237.093 48.577 C 237.867 48.507,237.150 48.451,235.500 48.452 C 233.850 48.453,233.217 48.510,234.093 48.579 M282.925 50.911 C 283.709 50.982,284.909 50.981,285.592 50.909 C 286.275 50.837,285.633 50.780,284.167 50.781 C 282.700 50.782,282.141 50.841,282.925 50.911 M260.324 55.250 L 258.167 57.500 260.417 55.343 C 262.507 53.339,262.819 53.000,262.574 53.000 C 262.523 53.000,261.510 54.012,260.324 55.250 M121.250 54.908 C 121.846 54.982,122.821 54.982,123.417 54.908 C 124.013 54.834,123.525 54.773,122.333 54.773 C 121.142 54.773,120.654 54.834,121.250 54.908 M140.667 55.438 C 140.667 55.495,141.154 55.983,141.750 56.521 L 142.833 57.500 141.854 56.417 C 140.942 55.407,140.667 55.180,140.667 55.438 M113.333 58.724 C 113.333 58.876,113.783 59.000,114.333 59.000 C 114.883 59.000,115.333 58.942,115.333 58.871 C 115.333 58.800,114.883 58.676,114.333 58.596 C 113.783 58.515,113.333 58.573,113.333 58.724 M228.256 59.908 C 228.855 59.982,229.755 59.981,230.256 59.905 C 230.757 59.829,230.267 59.768,229.167 59.770 C 228.067 59.772,227.657 59.834,228.256 59.908 M237.083 59.905 C 237.588 59.982,238.412 59.982,238.917 59.905 C 239.421 59.829,239.008 59.767,238.000 59.767 C 236.992 59.767,236.579 59.829,237.083 59.905 M160.750 60.578 C 161.621 60.647,163.046 60.647,163.917 60.578 C 164.787 60.510,164.075 60.453,162.333 60.453 C 160.592 60.453,159.879 60.510,160.750 60.578 M155.083 60.896 C 155.404 60.980,155.929 60.980,156.250 60.896 C 156.571 60.813,156.308 60.744,155.667 60.744 C 155.025 60.744,154.762 60.813,155.083 60.896 M168.750 60.896 C 169.071 60.980,169.596 60.980,169.917 60.896 C 170.237 60.813,169.975 60.744,169.333 60.744 C 168.692 60.744,168.429 60.813,168.750 60.896 M172.417 61.230 C 172.737 61.314,173.262 61.314,173.583 61.230 C 173.904 61.146,173.642 61.077,173.000 61.077 C 172.358 61.077,172.096 61.146,172.417 61.230 M118.750 62.896 C 119.071 62.980,119.596 62.980,119.917 62.896 C 120.237 62.813,119.975 62.744,119.333 62.744 C 118.692 62.744,118.429 62.813,118.750 62.896 M121.921 62.902 C 122.335 62.982,122.935 62.979,123.254 62.896 C 123.573 62.812,123.233 62.747,122.500 62.751 C 121.767 62.754,121.506 62.823,121.921 62.902 M114.417 68.230 C 114.737 68.314,115.263 68.314,115.583 68.230 C 115.904 68.146,115.642 68.077,115.000 68.077 C 114.358 68.077,114.096 68.146,114.417 68.230 M117.000 71.833 C 116.190 72.658,115.603 73.333,115.695 73.333 C 115.786 73.333,116.524 72.658,117.333 71.833 C 118.143 71.008,118.730 70.333,118.639 70.333 C 118.547 70.333,117.810 71.008,117.000 71.833 M255.000 73.833 C 254.190 74.658,253.603 75.333,253.695 75.333 C 253.786 75.333,254.524 74.658,255.333 73.833 C 256.143 73.008,256.730 72.333,256.639 72.333 C 256.547 72.333,255.810 73.008,255.000 73.833 M115.146 79.750 L 114.167 80.833 115.250 79.854 C 115.846 79.316,116.333 78.828,116.333 78.771 C 116.333 78.513,116.058 78.740,115.146 79.750 M199.677 80.500 C 199.677 81.050,199.822 81.725,200.000 82.000 C 200.248 82.384,200.323 82.267,200.323 81.500 C 200.323 80.950,200.178 80.275,200.000 80.000 C 199.752 79.616,199.677 79.733,199.677 80.500 M111.712 81.750 C 111.657 82.863,112.020 82.915,112.865 81.917 L 113.500 81.167 112.777 81.777 C 112.068 82.376,112.051 82.373,111.906 81.611 C 111.772 80.910,111.753 80.924,111.712 81.750 M199.433 85.333 C 199.433 86.342,199.496 86.754,199.572 86.250 C 199.648 85.746,199.648 84.921,199.572 84.417 C 199.496 83.912,199.433 84.325,199.433 85.333 M200.429 85.833 C 200.431 86.750,200.496 87.085,200.573 86.579 C 200.649 86.072,200.647 85.322,200.568 84.912 C 200.489 84.502,200.426 84.917,200.429 85.833 M107.486 85.941 C 107.637 86.208,107.429 86.737,106.961 87.275 L 106.185 88.167 107.164 87.255 C 107.979 86.495,108.067 86.272,107.689 85.921 C 107.322 85.580,107.283 85.584,107.486 85.941 M199.091 90.333 C 199.091 91.158,199.156 91.496,199.235 91.083 C 199.315 90.671,199.315 89.996,199.235 89.583 C 199.156 89.171,199.091 89.508,199.091 90.333 M200.751 90.500 C 200.754 91.233,200.823 91.494,200.902 91.079 C 200.982 90.665,200.979 90.065,200.896 89.746 C 200.812 89.427,200.747 89.767,200.751 90.500 M198.762 95.167 C 198.765 96.083,198.829 96.419,198.906 95.912 C 198.982 95.405,198.980 94.655,198.901 94.245 C 198.822 93.835,198.760 94.250,198.762 95.167 M201.091 95.000 C 201.091 95.825,201.156 96.162,201.235 95.750 C 201.315 95.337,201.315 94.662,201.235 94.250 C 201.156 93.837,201.091 94.175,201.091 95.000 M201.429 99.500 C 201.431 100.417,201.496 100.752,201.573 100.245 C 201.649 99.739,201.647 98.989,201.568 98.579 C 201.489 98.169,201.426 98.583,201.429 99.500 M198.433 100.000 C 198.433 101.008,198.496 101.421,198.572 100.917 C 198.648 100.412,198.648 99.587,198.572 99.083 C 198.496 98.579,198.433 98.992,198.433 100.000 M245.587 102.236 C 246.002 102.315,246.602 102.312,246.921 102.229 C 247.239 102.146,246.900 102.080,246.167 102.084 C 245.433 102.088,245.173 102.156,245.587 102.236 M250.921 102.236 C 251.335 102.315,251.935 102.312,252.254 102.229 C 252.573 102.146,252.233 102.080,251.500 102.084 C 250.767 102.088,250.506 102.156,250.921 102.236 M201.751 104.167 C 201.754 104.900,201.823 105.161,201.902 104.746 C 201.982 104.331,201.979 103.731,201.896 103.413 C 201.812 103.094,201.747 103.433,201.751 104.167 M198.095 105.167 C 198.098 106.083,198.163 106.419,198.239 105.912 C 198.316 105.405,198.314 104.655,198.235 104.245 C 198.156 103.835,198.093 104.250,198.095 105.167 M265.667 106.500 C 266.125 106.762,266.650 106.976,266.833 106.976 C 267.017 106.976,266.792 106.762,266.333 106.500 C 265.875 106.238,265.350 106.024,265.167 106.024 C 264.983 106.024,265.208 106.238,265.667 106.500 M202.095 108.500 C 202.098 109.417,202.163 109.752,202.239 109.245 C 202.316 108.739,202.314 107.989,202.235 107.579 C 202.156 107.169,202.093 107.583,202.095 108.500 M143.097 107.581 C 144.342 107.645,146.292 107.645,147.431 107.580 C 148.569 107.515,147.550 107.462,145.167 107.463 C 142.783 107.463,141.852 107.517,143.097 107.581 M253.097 107.581 C 254.342 107.645,256.292 107.645,257.431 107.580 C 258.569 107.515,257.550 107.462,255.167 107.463 C 252.783 107.463,251.852 107.517,253.097 107.581 M92.721 108.848 C 92.162 110.073,92.269 110.335,92.873 109.221 C 93.155 108.700,93.323 108.212,93.247 108.136 C 93.171 108.060,92.934 108.380,92.721 108.848 M197.767 110.000 C 197.767 111.008,197.829 111.421,197.905 110.917 C 197.982 110.412,197.982 109.587,197.905 109.083 C 197.829 108.579,197.767 108.992,197.767 110.000 M128.459 109.733 C 128.368 109.880,129.615 109.983,131.230 109.961 C 134.491 109.918,134.355 109.765,130.895 109.584 C 129.646 109.519,128.550 109.586,128.459 109.733 M202.417 113.167 C 202.421 113.900,202.489 114.161,202.569 113.746 C 202.649 113.331,202.646 112.731,202.562 112.413 C 202.479 112.094,202.414 112.433,202.417 113.167 M197.417 115.167 C 197.421 115.900,197.489 116.161,197.569 115.746 C 197.649 115.331,197.646 114.731,197.562 114.413 C 197.479 114.094,197.414 114.433,197.417 115.167 M155.417 115.563 C 155.737 115.647,156.262 115.647,156.583 115.563 C 156.904 115.479,156.642 115.411,156.000 115.411 C 155.358 115.411,155.096 115.479,155.417 115.563 M202.762 117.833 C 202.765 118.750,202.829 119.085,202.906 118.579 C 202.982 118.072,202.980 117.322,202.901 116.912 C 202.822 116.502,202.760 116.917,202.762 117.833 M176.000 118.438 C 176.000 118.495,176.487 118.983,177.083 119.521 L 178.167 120.500 177.188 119.417 C 176.275 118.407,176.000 118.180,176.000 118.438 M197.100 120.000 C 197.100 121.008,197.162 121.421,197.239 120.917 C 197.315 120.412,197.315 119.587,197.239 119.083 C 197.162 118.579,197.100 118.992,197.100 120.000 M220.818 121.417 L 219.500 122.833 220.917 121.516 C 222.234 120.290,222.487 120.000,222.234 120.000 C 222.180 120.000,221.542 120.638,220.818 121.417 M180.000 122.167 C 180.622 122.808,181.206 123.333,181.297 123.333 C 181.389 123.333,180.955 122.808,180.333 122.167 C 179.711 121.525,179.128 121.000,179.036 121.000 C 178.944 121.000,179.378 121.525,180.000 122.167 M203.091 122.333 C 203.091 123.158,203.156 123.496,203.235 123.083 C 203.315 122.671,203.315 121.996,203.235 121.583 C 203.156 121.171,203.091 121.508,203.091 122.333 M196.725 125.017 C 196.693 125.851,196.480 126.751,196.252 127.017 C 196.013 127.296,196.092 127.275,196.441 126.966 C 196.897 126.563,197.012 126.076,196.913 124.966 L 196.783 123.500 196.725 125.017 M160.833 128.333 C 161.736 129.250,162.550 130.000,162.642 130.000 C 162.733 130.000,162.070 129.250,161.167 128.333 C 160.264 127.417,159.450 126.667,159.358 126.667 C 159.267 126.667,159.930 127.417,160.833 128.333 M240.333 128.167 C 239.524 128.992,238.936 129.667,239.028 129.667 C 239.120 129.667,239.857 128.992,240.667 128.167 C 241.476 127.342,242.064 126.667,241.972 126.667 C 241.880 126.667,241.143 127.342,240.333 128.167 M152.986 129.417 C 154.367 130.888,154.667 131.153,154.667 130.903 C 154.667 130.849,153.954 130.137,153.083 129.319 L 151.500 127.833 152.986 129.417 M190.417 128.572 C 190.921 128.648,191.746 128.648,192.250 128.572 C 192.754 128.496,192.342 128.433,191.333 128.433 C 190.325 128.433,189.912 128.496,190.417 128.572 M208.083 128.572 C 208.588 128.648,209.412 128.648,209.917 128.572 C 210.421 128.496,210.008 128.433,209.000 128.433 C 207.992 128.433,207.579 128.496,208.083 128.572 M168.083 132.230 C 168.404 132.314,168.929 132.314,169.250 132.230 C 169.571 132.146,169.308 132.077,168.667 132.077 C 168.025 132.077,167.762 132.146,168.083 132.230 M171.750 132.230 C 172.071 132.314,172.596 132.314,172.917 132.230 C 173.237 132.146,172.975 132.077,172.333 132.077 C 171.692 132.077,171.429 132.146,171.750 132.230 M85.744 133.333 C 85.744 133.975,85.813 134.237,85.896 133.917 C 85.980 133.596,85.980 133.071,85.896 132.750 C 85.813 132.429,85.744 132.692,85.744 133.333 M230.254 132.569 C 230.669 132.649,231.269 132.646,231.587 132.562 C 231.906 132.479,231.567 132.414,230.833 132.417 C 230.100 132.421,229.839 132.489,230.254 132.569 M216.127 133.063 C 216.049 133.189,217.707 133.339,219.811 133.396 C 221.915 133.453,223.530 133.397,223.401 133.272 C 223.087 132.965,216.306 132.771,216.127 133.063 M85.463 140.167 C 85.463 142.550,85.517 143.481,85.581 142.236 C 85.645 140.991,85.645 139.041,85.580 137.903 C 85.515 136.765,85.462 137.783,85.463 140.167 M196.576 136.907 C 197.168 136.981,198.218 136.982,198.909 136.910 C 199.601 136.838,199.117 136.778,197.833 136.776 C 196.550 136.775,195.984 136.834,196.576 136.907 M75.077 139.000 C 75.077 139.642,75.146 139.904,75.230 139.583 C 75.314 139.262,75.314 138.737,75.230 138.417 C 75.146 138.096,75.077 138.358,75.077 139.000 M157.077 145.667 C 157.077 146.308,157.146 146.571,157.230 146.250 C 157.314 145.929,157.314 145.404,157.230 145.083 C 157.146 144.762,157.077 145.025,157.077 145.667 M85.744 147.000 C 85.744 147.642,85.813 147.904,85.896 147.583 C 85.980 147.262,85.980 146.737,85.896 146.417 C 85.813 146.096,85.744 146.358,85.744 147.000 M156.751 148.833 C 156.754 149.567,156.823 149.827,156.902 149.413 C 156.982 148.998,156.979 148.398,156.896 148.079 C 156.812 147.761,156.747 148.100,156.751 148.833 M156.472 157.833 C 156.473 161.317,156.522 162.696,156.582 160.899 C 156.642 159.102,156.642 156.252,156.581 154.566 C 156.521 152.880,156.472 154.350,156.472 157.833 M168.411 155.667 C 168.411 156.308,168.479 156.571,168.563 156.250 C 168.647 155.929,168.647 155.404,168.563 155.083 C 168.479 154.762,168.411 155.025,168.411 155.667 M168.077 158.667 C 168.077 159.308,168.146 159.571,168.230 159.250 C 168.314 158.929,168.314 158.404,168.230 158.083 C 168.146 157.762,168.077 158.025,168.077 158.667 M236.411 162.000 C 236.411 162.642,236.479 162.904,236.563 162.583 C 236.647 162.262,236.647 161.737,236.563 161.417 C 236.479 161.096,236.411 161.358,236.411 162.000 M167.779 164.000 C 167.779 165.375,167.838 165.938,167.909 165.250 C 167.981 164.563,167.981 163.438,167.909 162.750 C 167.838 162.063,167.779 162.625,167.779 164.000 M231.744 163.667 C 231.744 164.308,231.813 164.571,231.896 164.250 C 231.980 163.929,231.980 163.404,231.896 163.083 C 231.813 162.762,231.744 163.025,231.744 163.667 M236.783 167.667 C 236.783 169.225,236.841 169.862,236.911 169.083 C 236.981 168.304,236.981 167.029,236.911 166.250 C 236.841 165.471,236.783 166.108,236.783 167.667 M156.757 167.333 C 156.757 168.158,156.822 168.496,156.902 168.083 C 156.981 167.671,156.981 166.996,156.902 166.583 C 156.822 166.171,156.757 166.508,156.757 167.333 M232.091 168.000 C 232.091 168.825,232.156 169.162,232.235 168.750 C 232.315 168.337,232.315 167.662,232.235 167.250 C 232.156 166.837,232.091 167.175,232.091 168.000 M86.495 172.005 C 84.981 173.531,83.999 174.277,83.670 174.152 C 83.263 173.997,83.247 174.042,83.590 174.387 C 83.934 174.733,84.500 174.328,86.588 172.240 C 88.003 170.825,89.083 169.667,88.988 169.667 C 88.893 169.667,87.771 170.719,86.495 172.005 M157.077 170.667 C 157.077 171.308,157.146 171.571,157.230 171.250 C 157.314 170.929,157.314 170.404,157.230 170.083 C 157.146 169.762,157.077 170.025,157.077 170.667 M310.835 169.997 C 310.706 170.206,310.690 170.468,310.800 170.578 C 310.910 170.688,311.000 170.569,311.000 170.314 C 311.000 170.059,312.121 170.963,313.490 172.324 C 314.860 173.684,316.025 174.730,316.079 174.649 C 316.134 174.567,315.029 173.401,313.625 172.058 C 311.997 170.501,310.986 169.754,310.835 169.997 M167.779 174.333 C 167.779 175.708,167.838 176.271,167.909 175.583 C 167.981 174.896,167.981 173.771,167.909 173.083 C 167.838 172.396,167.779 172.958,167.779 174.333 M236.785 174.833 C 236.784 176.483,236.840 177.200,236.910 176.427 C 236.980 175.653,236.981 174.303,236.912 173.427 C 236.843 172.550,236.786 173.183,236.785 174.833 M232.443 174.833 C 232.444 176.117,232.504 176.601,232.577 175.909 C 232.649 175.218,232.648 174.168,232.574 173.576 C 232.500 172.984,232.441 173.550,232.443 174.833 M195.917 177.577 C 196.696 177.648,197.971 177.648,198.750 177.577 C 199.529 177.507,198.892 177.450,197.333 177.450 C 195.775 177.450,195.137 177.507,195.917 177.577 M202.333 177.667 C 201.972 177.900,202.278 177.991,203.436 177.995 C 204.421 177.998,204.960 177.871,204.833 177.667 C 204.571 177.243,202.989 177.243,202.333 177.667 M191.083 177.896 C 191.404 177.980,191.929 177.980,192.250 177.896 C 192.571 177.813,192.308 177.744,191.667 177.744 C 191.025 177.744,190.762 177.813,191.083 177.896 M206.667 178.016 C 206.105 178.207,206.376 178.237,207.500 178.107 C 208.417 178.001,209.229 177.859,209.306 177.791 C 209.568 177.556,207.499 177.733,206.667 178.016 M168.077 179.667 C 168.077 180.308,168.146 180.571,168.230 180.250 C 168.314 179.929,168.314 179.404,168.230 179.083 C 168.146 178.762,168.077 179.025,168.077 179.667 M183.583 179.857 C 182.291 180.558,182.437 180.800,183.750 180.133 C 185.007 179.494,185.229 179.328,184.806 179.347 C 184.637 179.354,184.088 179.584,183.583 179.857 M236.417 180.500 C 236.421 181.233,236.489 181.494,236.569 181.079 C 236.649 180.665,236.646 180.065,236.562 179.746 C 236.479 179.427,236.414 179.767,236.417 180.500 M181.146 181.750 L 180.167 182.833 181.250 181.854 C 182.260 180.942,182.487 180.667,182.229 180.667 C 182.172 180.667,181.684 181.154,181.146 181.750 M232.091 182.000 C 232.091 182.825,232.156 183.162,232.235 182.750 C 232.315 182.338,232.315 181.662,232.235 181.250 C 232.156 180.838,232.091 181.175,232.091 182.000 M168.411 182.667 C 168.411 183.308,168.479 183.571,168.563 183.250 C 168.647 182.929,168.647 182.404,168.563 182.083 C 168.479 181.762,168.411 182.025,168.411 182.667 M219.270 184.500 C 219.439 184.867,219.660 185.392,219.762 185.667 C 219.922 186.099,219.951 186.096,219.974 185.647 C 219.988 185.361,219.767 184.836,219.482 184.480 C 218.972 183.844,218.968 183.844,219.270 184.500 M231.744 186.333 C 231.744 186.975,231.813 187.237,231.896 186.917 C 231.980 186.596,231.980 186.071,231.896 185.750 C 231.813 185.429,231.744 185.692,231.744 186.333 M180.333 191.128 C 180.333 191.485,181.325 193.333,181.517 193.333 C 181.609 193.333,181.436 192.846,181.133 192.250 C 180.514 191.033,180.333 190.780,180.333 191.128 M217.627 194.564 C 217.605 194.712,217.605 194.946,217.627 195.083 C 217.649 195.221,217.522 195.333,217.345 195.333 C 217.168 195.333,216.863 195.633,216.667 196.000 C 216.179 196.912,216.378 196.838,217.465 195.703 C 218.047 195.095,218.255 194.658,218.027 194.517 C 217.829 194.394,217.649 194.415,217.627 194.564 M193.000 194.771 C 193.000 194.828,193.487 195.316,194.083 195.854 L 195.167 196.833 194.188 195.750 C 193.275 194.740,193.000 194.513,193.000 194.771 M128.000 198.000 C 128.000 198.550,128.058 199.000,128.129 199.000 C 128.200 199.000,128.324 198.550,128.404 198.000 C 128.485 197.450,128.427 197.000,128.276 197.000 C 128.124 197.000,128.000 197.450,128.000 198.000 M118.000 200.438 C 118.000 200.495,118.487 200.983,119.083 201.521 L 120.167 202.500 119.188 201.417 C 118.275 200.407,118.000 200.180,118.000 200.438 M133.333 202.500 C 134.329 203.508,135.219 204.333,135.311 204.333 C 135.402 204.333,134.662 203.508,133.667 202.500 C 132.671 201.492,131.781 200.667,131.689 200.667 C 131.598 200.667,132.338 201.492,133.333 202.500 M287.982 209.583 L 286.833 210.833 288.083 209.685 C 289.247 208.615,289.487 208.333,289.232 208.333 C 289.176 208.333,288.614 208.896,287.982 209.583 M142.833 212.000 C 143.736 212.917,144.550 213.667,144.642 213.667 C 144.733 213.667,144.070 212.917,143.167 212.000 C 142.264 211.083,141.450 210.333,141.358 210.333 C 141.267 210.333,141.930 211.083,142.833 212.000 M284.151 213.417 L 282.833 214.833 284.250 213.516 C 285.567 212.290,285.820 212.000,285.568 212.000 C 285.513 212.000,284.876 212.637,284.151 213.417 M196.417 213.572 C 196.921 213.648,197.746 213.648,198.250 213.572 C 198.754 213.496,198.342 213.433,197.333 213.433 C 196.325 213.433,195.912 213.496,196.417 213.572 M146.667 215.500 C 147.289 216.142,147.872 216.667,147.964 216.667 C 148.056 216.667,147.622 216.142,147.000 215.500 C 146.378 214.858,145.794 214.333,145.703 214.333 C 145.611 214.333,146.045 214.858,146.667 215.500 M170.333 215.124 C 170.333 215.484,171.657 218.000,171.847 218.000 C 171.939 218.000,171.692 217.362,171.299 216.583 C 170.526 215.051,170.333 214.759,170.333 215.124 M225.117 215.253 C 225.238 215.449,225.164 215.668,224.952 215.738 C 224.740 215.809,224.627 216.048,224.701 216.270 C 224.786 216.526,224.985 216.434,225.244 216.019 C 225.546 215.536,225.554 215.303,225.275 215.131 C 225.054 214.994,224.988 215.045,225.117 215.253 M194.928 218.913 C 195.896 218.980,197.396 218.980,198.261 218.911 C 199.126 218.843,198.333 218.788,196.500 218.788 C 194.667 218.789,193.959 218.845,194.928 218.913 M203.909 218.907 C 204.501 218.981,205.551 218.982,206.243 218.910 C 206.934 218.838,206.450 218.778,205.167 218.776 C 203.883 218.775,203.317 218.834,203.909 218.907 M188.583 219.235 C 188.996 219.315,189.671 219.315,190.083 219.235 C 190.496 219.156,190.158 219.091,189.333 219.091 C 188.508 219.091,188.171 219.156,188.583 219.235 M184.750 219.563 C 185.071 219.647,185.596 219.647,185.917 219.563 C 186.237 219.479,185.975 219.411,185.333 219.411 C 184.692 219.411,184.429 219.479,184.750 219.563 M219.712 221.640 C 219.687 222.084,219.410 222.759,219.096 223.140 C 218.539 223.816,218.544 223.815,219.291 223.128 C 219.810 222.652,220.009 222.166,219.908 221.628 L 219.757 220.833 219.712 221.640 M176.333 225.500 C 176.955 226.142,177.539 226.667,177.631 226.667 C 177.722 226.667,177.289 226.142,176.667 225.500 C 176.045 224.858,175.461 224.333,175.369 224.333 C 175.278 224.333,175.711 224.858,176.333 225.500 M189.750 225.563 C 190.071 225.647,190.596 225.647,190.917 225.563 C 191.237 225.479,190.975 225.411,190.333 225.411 C 189.692 225.411,189.429 225.479,189.750 225.563 M209.083 225.563 C 209.404 225.647,209.929 225.647,210.250 225.563 C 210.571 225.479,210.308 225.411,209.667 225.411 C 209.025 225.411,208.762 225.479,209.083 225.563 M196.917 225.915 C 198.612 225.976,201.387 225.976,203.083 225.915 C 204.779 225.855,203.392 225.805,200.000 225.805 C 196.608 225.805,195.221 225.855,196.917 225.915 M190.917 230.902 C 191.329 230.981,192.004 230.981,192.417 230.902 C 192.829 230.822,192.492 230.757,191.667 230.757 C 190.842 230.757,190.504 230.822,190.917 230.902 M198.333 249.167 C 198.955 249.808,199.539 250.333,199.631 250.333 C 199.722 250.333,199.289 249.808,198.667 249.167 C 198.045 248.525,197.461 248.000,197.369 248.000 C 197.278 248.000,197.711 248.525,198.333 249.167 M203.333 263.167 C 201.968 264.542,200.925 265.667,201.017 265.667 C 201.108 265.667,202.301 264.542,203.667 263.167 C 205.032 261.792,206.075 260.667,205.983 260.667 C 205.892 260.667,204.699 261.792,203.333 263.167 M196.333 263.167 C 197.329 264.175,198.219 265.000,198.311 265.000 C 198.402 265.000,197.662 264.175,196.667 263.167 C 195.671 262.158,194.781 261.333,194.689 261.333 C 194.598 261.333,195.338 262.158,196.333 263.167 M253.158 313.000 C 253.158 325.742,253.199 330.954,253.250 324.583 C 253.301 318.212,253.301 307.787,253.250 301.417 C 253.199 295.046,253.158 300.258,253.158 313.000 M276.816 301.167 C 276.816 307.400,276.861 309.903,276.916 306.729 C 276.971 303.554,276.971 298.454,276.916 295.395 C 276.861 292.336,276.816 294.933,276.816 301.167 M295.158 313.000 C 295.158 325.742,295.199 330.954,295.250 324.583 C 295.301 318.212,295.301 307.787,295.250 301.417 C 295.199 295.046,295.158 300.258,295.158 313.000 M327.250 294.580 L 336.000 294.678 336.000 299.644 C 336.000 303.306,335.891 304.655,335.583 304.779 C 335.338 304.878,335.409 304.958,335.758 304.974 C 336.305 304.998,336.343 304.599,336.258 299.750 L 336.167 294.500 327.333 294.491 L 318.500 294.483 327.250 294.580 M63.823 315.333 C 63.823 326.792,63.865 331.479,63.916 325.750 C 63.968 320.021,63.968 310.646,63.916 304.917 C 63.865 299.188,63.823 303.875,63.823 315.333 M118.822 312.500 C 118.822 322.400,118.865 326.402,118.916 321.393 C 118.968 316.384,118.968 308.284,118.916 303.393 C 118.864 298.502,118.822 302.600,118.822 312.500 M64.414 315.745 L 64.495 336.167 64.583 315.917 L 64.672 295.667 73.833 295.667 L 82.995 295.667 83.085 315.667 L 83.175 335.667 83.171 315.583 L 83.167 295.500 73.750 295.411 L 64.333 295.323 64.414 315.745 M83.820 295.750 C 83.732 295.979,83.701 305.092,83.750 316.000 L 83.839 335.833 83.919 315.757 L 84.000 295.681 90.417 295.583 L 96.833 295.485 90.406 295.409 C 85.515 295.351,83.941 295.433,83.820 295.750 M119.479 303.833 C 119.479 308.600,119.526 310.504,119.583 308.064 C 119.640 305.624,119.639 301.724,119.582 299.397 C 119.525 297.070,119.478 299.067,119.479 303.833 M159.747 315.745 L 159.828 336.167 159.917 315.917 L 160.005 295.667 169.167 295.667 L 178.328 295.667 178.418 315.667 L 178.508 335.667 178.504 315.583 L 178.500 295.500 169.083 295.411 L 159.667 295.323 159.747 315.745 M179.153 295.750 C 179.065 295.979,179.034 305.092,179.083 316.000 L 179.172 335.833 179.253 315.757 L 179.333 295.681 185.750 295.583 L 192.167 295.485 185.740 295.409 C 180.848 295.351,179.274 295.433,179.153 295.750 M214.745 305.250 L 214.667 315.333 223.417 315.256 L 232.167 315.178 223.588 315.084 L 215.010 314.989 214.916 305.078 L 214.823 295.167 214.745 305.250 M233.833 296.210 C 234.017 296.371,234.766 297.026,235.499 297.668 L 236.832 298.833 235.833 297.721 C 235.283 297.110,234.533 296.454,234.167 296.264 C 233.800 296.074,233.650 296.050,233.833 296.210 M313.812 297.750 L 312.833 298.833 313.917 297.854 C 314.512 297.316,315.000 296.828,315.000 296.771 C 315.000 296.513,314.725 296.740,313.812 297.750 M198.488 318.000 C 198.488 327.442,198.531 331.304,198.583 326.583 C 198.635 321.863,198.635 314.138,198.583 309.417 C 198.531 304.696,198.488 308.558,198.488 318.000 M238.462 305.333 C 238.462 307.625,238.515 308.563,238.580 307.417 C 238.645 306.271,238.645 304.396,238.580 303.250 C 238.515 302.104,238.462 303.042,238.462 305.333 M102.488 318.833 C 102.488 328.367,102.531 332.219,102.583 327.393 C 102.635 322.568,102.635 314.768,102.583 310.060 C 102.531 305.352,102.488 309.300,102.488 318.833 M197.822 318.833 C 197.822 328.367,197.864 332.219,197.916 327.393 C 197.969 322.568,197.969 314.768,197.916 310.060 C 197.864 305.352,197.822 309.300,197.822 318.833 M311.109 304.167 C 311.111 305.450,311.171 305.934,311.243 305.243 C 311.315 304.551,311.314 303.501,311.241 302.909 C 311.167 302.317,311.108 302.883,311.109 304.167 M235.479 313.083 L 234.500 314.167 235.583 313.188 C 236.179 312.649,236.667 312.162,236.667 312.104 C 236.667 311.847,236.392 312.074,235.479 313.083 M119.411 321.583 L 119.500 330.167 134.000 330.172 L 148.500 330.177 134.083 330.085 L 119.667 329.993 119.667 321.667 L 119.667 313.341 132.417 313.250 L 145.167 313.159 132.244 313.079 L 119.322 313.000 119.411 321.583 M265.246 313.250 L 276.658 313.342 276.750 324.754 L 276.842 336.167 276.921 324.583 L 277.000 313.000 265.417 313.079 L 253.833 313.158 265.246 313.250 M214.815 326.000 C 214.815 331.592,214.860 333.879,214.916 331.083 C 214.972 328.287,214.972 323.712,214.916 320.917 C 214.860 318.121,214.815 320.408,214.815 326.000 M311.152 326.000 L 311.167 330.833 319.833 330.842 L 328.500 330.851 319.926 330.753 L 311.352 330.655 311.244 325.911 L 311.137 321.167 311.152 326.000 M333.479 328.417 L 332.500 329.500 333.583 328.521 C 334.179 327.983,334.667 327.495,334.667 327.438 C 334.667 327.180,334.392 327.407,333.479 328.417 M126.083 330.916 C 130.254 330.969,137.079 330.969,141.250 330.916 C 145.421 330.863,142.008 330.820,133.667 330.820 C 125.325 330.820,121.912 330.863,126.083 330.916 " stroke="none" fill="#4b6090" fill-rule="evenodd"></path></g></svg>