<svg id="svg" version="1.1" xmlns="http://www.w3.org/2000/svg" xmlns:xlink="http://www.w3.org/1999/xlink" width="400" height="400" viewBox="0, 0, 400,400"><g id="svgg"><path id="path0" d="M187.333 0.217 C 186.692 0.278,184.217 0.488,181.833 0.684 C 67.821 10.035,-15.263 116.410,2.205 230.667 C 14.563 311.496,76.194 377.436,155.936 395.146 C 276.811 421.991,392.306 334.964,399.656 211.500 C 406.150 102.416,323.367 8.127,214.271 0.349 C 209.876 0.036,190.256 -0.060,187.333 0.217 M212.333 7.674 C 358.432 17.763,440.668 179.444,362.600 303.107 C 287.108 422.689,111.012 421.822,36.242 301.500 C -38.638 181.001,38.926 23.009,180.167 8.337 C 189.908 7.325,203.292 7.049,212.333 7.674 M213.842 21.283 C 213.596 22.736,213.779 23.333,214.468 23.333 C 216.261 23.333,216.367 25.613,215.004 34.794 C 213.943 41.937,213.622 42.812,211.928 43.180 C 210.633 43.461,210.345 43.822,210.338 45.178 L 210.333 46.189 221.359 47.807 C 230.719 49.180,232.449 49.355,232.807 48.962 C 233.339 48.381,237.667 41.416,237.667 41.143 C 237.667 40.866,236.235 39.692,235.882 39.678 C 235.726 39.672,234.826 40.365,233.882 41.218 C 229.670 45.025,222.105 46.407,221.025 43.566 C 220.501 42.187,221.663 35.000,222.410 35.000 C 224.482 35.000,225.599 36.038,226.134 38.458 C 226.495 40.091,226.564 40.171,227.694 40.266 L 228.877 40.366 229.734 34.600 C 230.205 31.428,230.570 28.816,230.545 28.794 C 229.550 27.934,228.047 28.449,227.519 29.831 C 226.757 31.824,224.380 32.759,222.731 31.714 C 221.995 31.247,223.042 26.042,224.033 25.240 C 226.501 23.241,232.380 26.596,235.500 31.783 C 235.902 32.451,238.476 31.851,238.207 31.152 C 238.124 30.935,237.574 29.037,236.986 26.936 L 235.917 23.115 226.042 21.686 C 220.610 20.900,215.695 20.182,215.119 20.091 C 214.116 19.931,214.062 19.982,213.842 21.283 M168.000 22.727 C 159.568 23.948,160.709 23.525,160.959 25.333 C 161.153 26.731,161.244 26.845,162.299 27.000 C 164.223 27.283,164.539 28.107,165.656 35.751 C 167.023 45.107,166.836 47.000,164.547 47.000 C 164.060 47.000,164.126 49.556,164.625 50.032 C 164.930 50.322,179.158 48.205,181.486 47.523 C 189.929 45.049,193.437 38.551,190.863 30.152 C 188.507 22.460,182.755 20.592,168.000 22.727 M179.167 25.622 C 185.266 28.400,186.552 39.962,181.173 43.662 C 178.575 45.449,175.054 45.902,174.176 44.561 C 173.410 43.391,171.178 27.440,171.639 26.428 C 172.329 24.913,176.604 24.455,179.167 25.622 M262.244 31.905 C 261.758 33.123,261.767 33.159,262.749 34.077 C 264.071 35.312,264.019 35.523,260.302 44.018 C 256.981 51.608,256.337 52.529,254.552 52.240 C 253.481 52.066,253.373 52.136,252.820 53.364 C 252.090 54.982,250.860 54.224,262.241 59.169 L 271.983 63.402 275.643 59.992 L 279.303 56.582 278.439 55.450 C 277.594 54.342,277.556 54.329,276.733 54.868 C 272.400 57.707,268.539 58.302,265.269 56.634 C 262.790 55.369,262.793 55.341,266.068 47.849 C 270.212 38.369,270.653 37.724,272.692 38.172 C 273.623 38.377,274.708 37.045,274.656 35.761 C 274.645 35.484,263.718 30.667,263.101 30.667 C 262.901 30.667,262.516 31.224,262.244 31.905 M125.709 36.203 L 123.251 37.350 123.444 38.592 C 123.550 39.275,123.741 44.715,123.868 50.681 L 124.100 61.530 123.041 62.736 L 121.982 63.942 122.527 65.304 C 122.827 66.054,123.113 66.667,123.162 66.667 C 123.402 66.667,132.863 62.266,133.054 62.065 C 133.847 61.232,132.247 59.358,130.885 59.525 C 129.106 59.744,128.656 59.411,128.311 57.624 C 127.643 54.167,127.639 54.174,131.169 52.524 C 135.868 50.328,135.479 50.338,137.538 52.371 C 139.595 54.403,139.812 55.352,138.417 56.225 C 137.912 56.540,137.439 56.842,137.365 56.896 C 137.231 56.992,138.351 59.667,138.525 59.667 C 138.769 59.667,149.870 54.569,150.101 54.350 C 150.901 53.595,149.221 51.667,147.763 51.667 C 146.343 51.667,139.282 45.412,130.681 36.534 C 128.928 34.725,128.880 34.722,125.709 36.203 M132.927 47.995 C 132.979 48.125,131.854 48.756,130.427 49.399 L 127.833 50.567 127.622 48.533 C 127.506 47.415,127.394 45.465,127.372 44.201 L 127.333 41.902 130.083 44.831 C 131.596 46.442,132.876 47.866,132.927 47.995 M304.526 53.829 L 303.640 54.991 304.341 55.938 C 305.415 57.392,305.052 58.082,299.716 64.735 C 294.327 71.455,293.628 72.053,291.929 71.403 C 290.846 70.988,288.720 72.413,289.064 73.323 C 289.194 73.667,298.653 81.333,298.948 81.333 C 299.884 81.333,300.893 79.107,300.292 78.366 C 299.174 76.985,299.740 75.432,302.582 72.085 L 303.500 71.003 305.167 72.354 C 312.712 78.469,317.202 78.837,320.436 73.606 C 323.521 68.618,322.180 66.007,312.469 58.089 C 304.887 51.907,305.671 52.328,304.526 53.829 M187.667 57.011 C 94.321 65.649,33.680 157.744,63.006 246.333 C 96.609 347.845,226.127 378.491,301.853 302.848 C 369.260 235.515,354.069 122.798,271.190 75.320 C 246.830 61.365,215.303 54.454,187.667 57.011 M215.333 62.821 C 307.100 74.193,362.334 166.493,328.643 252.171 C 292.617 343.787,174.792 369.110,103.456 300.569 C 47.328 246.641,47.068 156.212,102.884 101.655 C 127.010 78.074,155.037 65.527,191.000 62.209 C 194.367 61.898,211.332 62.325,215.333 62.821 M313.026 62.758 C 316.539 65.125,316.465 69.370,312.880 71.126 C 311.342 71.880,309.730 71.534,307.441 69.960 C 305.458 68.595,305.448 68.512,307.018 66.477 C 310.455 62.021,311.225 61.544,313.026 62.758 M79.546 66.375 C 74.394 70.660,74.373 70.694,75.945 72.117 C 76.538 72.654,76.759 72.676,77.781 72.307 C 79.412 71.717,79.806 72.037,85.102 78.257 C 91.247 85.475,91.626 86.154,90.372 87.702 C 89.751 88.469,89.753 88.492,90.578 89.572 C 91.718 91.067,91.105 91.430,100.094 83.945 C 104.534 80.248,108.195 77.206,108.231 77.186 C 108.353 77.116,105.457 68.012,105.245 67.800 C 105.127 67.683,104.516 67.683,103.886 67.801 L 102.742 68.016 102.754 71.358 C 102.768 75.466,101.545 78.406,99.112 80.113 C 97.005 81.590,96.632 81.361,91.749 75.583 C 84.956 67.543,84.623 66.952,85.959 65.301 C 86.577 64.538,86.574 64.515,85.709 63.431 C 84.572 62.006,85.100 61.754,79.546 66.375 M186.500 71.538 C 175.462 72.718,162.225 75.931,153.000 79.668 C 150.603 80.639,150.562 80.673,152.000 80.510 C 180.440 77.275,209.122 86.122,237.717 106.951 L 239.600 108.323 241.634 106.148 C 248.564 98.740,248.772 90.149,242.229 81.500 C 239.854 78.359,237.715 76.480,235.833 75.878 C 223.067 71.798,201.667 69.915,186.500 71.538 M249.333 80.904 C 249.333 81.016,249.690 81.721,250.126 82.471 C 255.461 91.641,253.994 101.395,245.859 110.842 L 244.703 112.185 248.102 114.888 C 252.423 118.326,258.307 123.386,262.089 126.917 C 265.676 130.265,264.933 130.317,269.604 126.397 C 274.091 122.631,283.784 114.857,288.167 111.508 C 289.817 110.247,291.290 109.111,291.441 108.983 C 292.149 108.384,279.184 97.637,272.000 92.867 C 264.409 87.827,249.333 79.870,249.333 80.904 M157.167 85.528 C 142.068 87.035,129.316 90.721,123.076 95.382 C 97.301 114.635,78.747 143.912,72.527 175.147 C 71.104 182.289,70.901 183.735,71.441 182.874 C 74.842 177.453,79.920 171.423,84.736 167.088 C 88.093 164.065,88.131 164.047,87.661 165.687 C 87.481 166.315,87.333 168.234,87.333 169.951 L 87.333 173.074 84.801 175.765 C 79.250 181.666,75.891 186.940,72.327 195.348 L 69.900 201.075 70.120 206.121 C 71.330 233.858,81.315 260.622,98.370 281.847 C 102.298 286.734,101.711 286.548,104.349 283.750 C 105.516 282.512,109.543 278.298,113.298 274.384 L 120.126 267.268 121.363 267.466 C 123.082 267.741,126.333 269.023,126.333 269.426 C 126.333 269.609,124.343 271.801,121.910 274.296 C 113.571 282.851,106.333 290.580,106.333 290.931 C 106.333 291.767,116.398 300.652,122.584 305.278 C 139.760 318.123,163.336 327.622,183.500 329.823 C 185.855 330.080,190.009 328.800,195.907 326.000 C 216.392 316.277,230.046 299.949,242.033 270.842 L 243.951 266.184 246.225 265.483 C 247.476 265.097,249.137 264.452,249.917 264.050 C 251.673 263.144,251.692 262.923,249.540 268.510 C 237.753 299.107,223.806 317.399,203.340 329.103 L 200.500 330.728 206.167 330.529 C 240.745 329.320,275.571 312.360,298.387 285.620 C 304.038 278.997,304.100 278.858,305.874 269.037 L 306.500 265.575 308.833 264.508 C 310.117 263.921,311.638 263.041,312.215 262.553 C 313.582 261.397,313.623 261.416,313.319 263.079 C 312.950 265.096,313.479 264.278,316.495 258.168 C 327.548 235.780,332.086 209.380,328.957 185.667 C 328.140 179.469,317.863 164.844,310.761 159.771 C 305.621 156.099,299.903 156.077,293.588 159.704 L 291.678 160.801 292.239 161.650 C 303.051 178.029,310.479 198.180,313.847 220.273 L 314.066 221.713 312.569 220.570 C 311.745 219.941,310.182 219.160,309.094 218.835 L 307.118 218.242 306.352 214.038 C 303.501 198.389,296.794 180.756,288.850 168.028 L 286.892 164.890 285.283 166.695 C 276.904 176.094,272.330 186.492,267.216 207.763 L 264.474 219.164 261.243 220.144 C 259.466 220.683,257.949 221.058,257.872 220.978 C 257.639 220.738,263.917 195.100,265.131 191.333 C 269.039 179.202,275.088 168.276,281.587 161.608 L 283.431 159.715 282.160 157.941 C 278.638 153.024,271.072 144.138,267.062 140.208 L 265.063 138.250 259.115 143.374 C 248.292 152.697,235.595 163.979,222.833 175.611 C 219.200 178.923,219.138 178.961,218.844 178.033 C 218.733 177.685,218.060 176.498,217.347 175.395 L 216.051 173.390 222.442 167.582 C 232.194 158.720,244.009 148.233,252.719 140.708 L 260.581 133.917 258.207 131.672 C 253.438 127.161,241.061 116.770,240.018 116.401 C 239.864 116.346,238.420 117.161,236.808 118.212 C 224.245 126.401,206.498 131.636,172.000 137.331 C 167.508 138.073,163.626 138.714,163.372 138.756 C 162.868 138.840,161.203 133.349,161.610 132.946 C 161.733 132.825,166.483 131.953,172.167 131.009 C 203.989 125.722,219.716 121.237,232.083 113.922 C 234.942 112.231,235.102 112.572,229.754 108.958 C 204.723 92.046,178.071 83.443,157.167 85.528 M339.878 86.201 C 338.951 86.831,338.702 87.169,338.967 87.434 C 340.548 89.014,339.266 90.470,331.608 95.798 C 324.506 100.738,324.267 100.824,322.333 99.148 C 321.915 98.785,321.638 98.860,320.635 99.608 L 319.436 100.502 323.031 105.620 C 327.291 111.683,326.803 111.135,327.555 110.699 C 329.164 109.766,329.373 109.451,328.968 108.563 C 328.297 107.090,328.846 106.118,331.424 104.219 C 335.786 101.007,335.390 101.120,336.531 102.753 C 337.074 103.530,338.373 105.382,339.415 106.868 L 341.311 109.570 338.345 111.622 C 334.805 114.071,333.647 114.411,332.505 113.338 L 331.706 112.588 330.499 113.334 C 329.026 114.245,328.885 113.880,332.997 119.797 C 336.971 125.514,336.569 125.168,337.943 124.047 C 338.929 123.241,339.006 123.058,338.695 122.242 C 337.960 120.307,338.346 119.917,346.626 114.217 C 353.006 109.825,353.670 109.549,355.124 110.693 L 356.004 111.385 357.189 110.653 C 358.644 109.753,358.777 110.089,354.630 104.179 C 350.975 98.970,350.965 98.962,349.570 100.085 C 348.709 100.777,348.668 100.915,349.021 101.922 C 349.546 103.419,345.377 108.098,343.968 107.594 C 343.691 107.495,338.690 100.448,338.446 99.812 C 338.231 99.253,342.778 96.333,343.864 96.333 C 344.373 96.333,345.133 96.655,345.551 97.048 L 346.312 97.762 347.507 96.851 C 348.164 96.349,348.657 95.833,348.601 95.703 C 348.369 95.160,341.485 85.360,341.327 85.347 C 341.232 85.340,340.580 85.724,339.878 86.201 M55.235 92.904 L 51.349 98.100 52.591 99.028 C 53.823 99.948,53.839 99.950,54.521 99.311 C 55.994 97.932,56.855 98.327,63.979 103.659 C 71.011 108.922,71.498 109.475,70.684 111.263 C 70.318 112.065,71.729 113.997,72.667 113.979 C 72.809 113.976,76.968 108.487,79.658 104.751 L 80.483 103.605 79.336 102.669 C 78.194 101.737,78.184 101.735,77.383 102.366 C 75.646 103.732,75.169 103.493,66.344 96.842 C 61.237 92.992,60.635 92.247,61.271 90.562 C 61.630 89.609,61.596 89.447,60.918 88.910 C 59.167 87.522,59.366 87.382,55.235 92.904 M130.778 114.011 C 133.051 114.023,133.059 113.975,130.467 115.867 L 129.507 116.566 130.056 118.283 C 130.695 120.279,130.591 120.338,128.785 119.010 L 127.438 118.019 126.037 119.050 C 124.315 120.316,124.104 120.153,124.808 118.101 C 125.350 116.521,125.347 116.493,124.606 116.000 C 124.193 115.725,123.475 115.167,123.011 114.761 L 122.167 114.021 124.189 114.011 L 126.212 114.000 126.822 112.083 L 127.432 110.167 128.077 112.083 L 128.722 114.000 130.778 114.011 M294.667 114.291 C 294.025 114.791,291.400 116.832,288.833 118.827 C 284.843 121.928,274.789 130.073,271.007 133.268 L 269.848 134.248 273.301 137.864 C 277.212 141.961,282.430 148.048,285.875 152.533 L 288.205 155.566 290.602 154.161 C 297.162 150.315,304.322 149.659,310.277 152.359 C 314.890 154.451,318.260 157.437,324.903 165.323 C 324.976 165.409,324.964 165.259,324.877 164.990 C 322.726 158.319,322.000 156.213,320.748 153.000 C 315.615 139.834,303.962 121.001,296.786 114.274 L 295.833 113.381 294.667 114.291 M113.833 115.333 L 114.387 117.000 116.443 117.011 L 118.500 117.021 117.602 117.812 C 117.107 118.247,116.365 118.840,115.953 119.129 C 115.209 119.650,115.207 119.670,115.758 121.393 C 116.454 123.569,116.406 123.606,114.561 122.305 L 113.049 121.240 111.631 122.282 C 109.898 123.557,109.826 123.500,110.457 121.373 L 110.960 119.680 109.480 118.617 C 107.543 117.225,107.610 117.000,109.964 117.000 C 111.771 117.000,111.944 116.935,112.133 116.181 C 112.850 113.323,113.121 113.189,113.833 115.333 M144.277 116.933 C 146.724 117.051,146.775 117.194,144.827 118.500 C 143.149 119.624,143.163 119.580,143.821 121.750 C 144.386 123.613,144.323 123.645,142.667 122.333 C 141.129 121.116,141.145 121.116,139.526 122.341 C 137.915 123.560,137.783 123.451,138.460 121.466 C 139.063 119.697,138.953 119.437,137.129 118.310 C 135.520 117.316,135.722 117.000,137.964 117.000 C 139.771 117.000,139.944 116.935,140.133 116.181 C 140.246 115.731,140.505 114.944,140.709 114.431 L 141.078 113.500 141.650 115.167 L 142.222 116.833 144.277 116.933 M36.587 123.654 L 34.069 129.672 35.451 130.279 C 36.815 130.878,36.840 130.877,37.314 130.193 C 37.985 129.225,38.364 129.011,39.413 129.005 C 40.428 128.999,44.559 130.557,44.872 131.063 C 45.048 131.347,41.886 139.468,41.367 140.064 C 41.028 140.455,35.754 137.786,35.341 137.015 C 35.129 136.619,35.047 135.879,35.158 135.371 C 35.342 134.534,33.024 132.747,32.558 133.365 C 32.074 134.005,27.686 145.094,27.826 145.321 C 28.412 146.270,30.354 146.396,31.036 145.530 C 32.138 144.129,33.362 144.376,41.045 147.550 C 48.711 150.717,49.820 151.482,49.448 153.346 C 49.260 154.281,50.570 155.333,51.923 155.333 C 52.212 155.333,57.164 143.708,56.953 143.524 C 56.887 143.466,56.327 143.161,55.709 142.846 L 54.585 142.274 53.610 143.342 C 52.431 144.633,51.956 144.587,47.420 142.750 C 44.807 141.691,44.371 141.407,44.540 140.875 C 45.143 138.973,48.116 132.333,48.364 132.333 C 48.966 132.333,54.751 134.973,55.363 135.527 C 55.791 135.914,56.001 136.551,56.003 137.468 C 56.007 138.738,56.097 138.871,57.307 139.379 L 58.607 139.925 61.012 134.213 C 62.335 131.071,63.480 128.338,63.556 128.139 C 63.968 127.068,61.022 126.696,60.025 127.693 C 58.661 129.056,58.431 129.010,50.580 125.766 C 42.441 122.404,41.517 121.796,41.763 119.961 C 41.913 118.840,41.838 118.674,41.049 118.388 C 40.564 118.212,39.928 117.971,39.636 117.852 C 39.208 117.678,38.620 118.797,36.587 123.654 M106.372 126.667 L 108.500 126.833 106.917 127.933 C 105.164 129.149,105.116 129.301,105.833 131.333 C 106.108 132.113,106.333 132.814,106.333 132.891 C 106.333 132.969,105.669 132.575,104.857 132.016 C 103.060 130.780,102.918 130.774,101.469 131.880 C 100.007 132.994,99.791 132.763,100.459 130.802 C 101.050 129.069,101.058 129.086,98.917 127.758 C 97.555 126.914,97.786 126.667,99.939 126.667 L 101.878 126.667 102.497 124.750 L 103.115 122.833 103.680 124.667 L 104.245 126.500 106.372 126.667 M152.027 126.274 L 152.555 127.833 154.648 127.934 L 156.742 128.034 155.089 129.267 L 153.436 130.500 154.031 132.250 C 154.724 134.288,154.609 134.351,152.732 132.971 L 151.333 131.942 149.934 132.971 C 148.212 134.238,147.914 134.259,148.377 133.083 C 149.403 130.477,149.402 130.476,147.593 129.209 L 145.914 128.034 148.039 127.934 L 150.164 127.833 150.656 126.102 C 151.217 124.125,151.304 124.136,152.027 126.274 M367.000 131.137 C 365.959 131.511,365.815 131.710,365.667 132.995 C 365.447 134.890,364.925 135.245,359.000 137.537 C 348.582 141.566,347.413 141.739,346.623 139.370 C 346.485 138.956,343.667 139.888,343.667 140.347 C 343.667 140.570,348.006 152.037,348.177 152.264 C 348.592 152.817,351.038 151.127,350.897 150.385 C 350.472 148.165,350.718 148.004,359.802 144.533 C 367.346 141.650,368.705 141.432,369.581 142.958 L 370.130 143.915 371.582 143.420 C 372.381 143.148,372.989 142.749,372.934 142.533 C 372.646 141.410,368.476 130.680,368.333 130.697 C 368.242 130.708,367.642 130.906,367.000 131.137 M99.167 137.667 L 99.720 139.333 101.777 139.344 L 103.833 139.356 103.057 140.002 C 102.631 140.358,101.892 140.933,101.415 141.280 L 100.549 141.911 101.083 143.789 C 101.703 145.968,101.673 145.992,100.000 144.667 C 98.444 143.435,98.447 143.435,96.732 144.696 C 95.165 145.848,95.143 145.819,95.840 143.521 C 96.114 142.616,96.208 141.791,96.049 141.688 C 92.797 139.577,92.719 139.333,95.300 139.333 L 97.267 139.333 97.667 137.667 C 97.887 136.750,98.189 136.000,98.340 136.000 C 98.490 136.000,98.862 136.750,99.167 137.667 M155.968 139.333 L 156.395 141.000 158.364 141.000 C 160.711 141.000,160.760 141.167,158.835 142.583 L 157.363 143.666 157.848 145.041 C 158.645 147.301,158.493 147.489,156.828 146.294 L 155.323 145.213 153.818 146.273 C 151.912 147.617,151.942 147.629,152.512 145.750 C 153.178 143.555,153.187 143.581,151.417 142.307 L 149.833 141.167 151.991 141.000 L 154.148 140.833 154.593 139.250 C 155.159 137.240,155.436 137.257,155.968 139.333 M102.834 153.333 L 104.815 153.500 103.324 154.648 C 102.504 155.279,101.796 155.816,101.751 155.841 C 101.706 155.866,101.910 156.596,102.205 157.462 C 102.895 159.485,102.679 159.646,100.965 158.385 L 99.567 157.356 98.268 158.385 C 96.668 159.652,96.490 159.508,97.103 157.445 L 97.584 155.825 95.893 154.662 L 94.202 153.500 96.319 153.333 L 98.436 153.167 98.889 151.833 C 99.138 151.100,99.429 150.275,99.536 150.000 C 99.654 149.697,99.953 150.223,100.292 151.333 L 100.854 153.167 102.834 153.333 M154.211 153.167 L 154.788 155.000 156.811 155.011 L 158.833 155.021 157.935 155.812 C 157.441 156.247,156.728 156.819,156.352 157.083 C 155.697 157.541,155.689 157.634,156.163 159.198 C 156.853 161.471,156.851 161.473,155.111 160.211 L 153.555 159.082 151.878 160.286 C 150.803 161.058,150.279 161.290,150.416 160.933 C 151.382 158.414,151.413 157.550,150.556 156.926 C 150.095 156.590,149.369 156.024,148.943 155.669 L 148.167 155.022 150.233 155.011 L 152.299 155.000 152.877 153.167 C 153.195 152.158,153.495 151.333,153.544 151.333 C 153.593 151.333,153.893 152.158,154.211 153.167 M108.040 162.917 L 108.530 164.500 110.432 164.600 C 112.683 164.718,112.739 164.869,110.993 166.105 C 109.507 167.157,109.461 167.334,110.170 169.343 C 110.825 171.199,110.733 171.232,108.877 169.815 L 107.317 168.624 106.075 169.589 C 104.031 171.179,103.980 171.164,104.665 169.172 L 105.301 167.322 103.630 166.078 L 101.958 164.833 104.048 164.667 L 106.137 164.500 106.627 162.917 C 106.897 162.046,107.214 161.333,107.333 161.333 C 107.452 161.333,107.770 162.046,108.040 162.917 M146.544 164.500 L 147.122 166.333 149.109 166.333 L 151.096 166.333 149.548 167.515 C 148.697 168.165,148.000 168.739,148.000 168.789 C 148.000 168.840,148.242 169.591,148.537 170.459 C 149.222 172.467,149.098 172.554,147.369 171.282 L 145.951 170.240 144.439 171.305 C 142.592 172.607,142.545 172.571,143.249 170.369 C 143.741 168.832,143.750 168.572,143.323 168.327 C 143.054 168.172,142.317 167.660,141.685 167.189 L 140.537 166.333 142.541 166.333 L 144.545 166.333 145.123 164.500 C 145.441 163.492,145.760 162.667,145.833 162.667 C 145.906 162.667,146.226 163.492,146.544 164.500 M93.598 167.786 C 112.594 185.371,140.892 186.214,158.445 169.718 C 162.345 166.054,162.497 166.013,162.213 168.723 C 161.385 176.649,154.112 191.563,142.477 209.196 C 131.968 225.122,127.625 241.713,128.965 260.815 C 129.384 266.775,129.744 266.316,125.762 264.900 C 115.274 261.170,102.289 262.137,95.283 267.171 C 93.122 268.724,93.204 268.838,93.435 264.583 C 94.383 247.075,109.780 223.294,131.375 205.981 C 144.417 195.525,151.755 188.011,154.863 181.928 C 156.561 178.605,155.728 178.934,152.996 182.667 C 139.947 200.489,118.579 208.679,93.917 205.310 L 91.000 204.911 91.000 186.149 C 91.000 163.996,90.827 165.221,93.598 167.786 M353.750 166.902 C 352.864 167.072,352.869 166.846,353.616 172.906 C 354.288 178.358,354.160 178.089,355.955 177.802 C 357.248 177.595,357.333 177.513,357.333 176.481 C 357.333 175.420,358.030 174.333,358.710 174.333 C 360.007 174.333,363.669 175.168,363.677 175.466 C 363.683 175.668,363.903 177.408,364.167 179.333 C 364.430 181.258,364.650 183.064,364.656 183.345 C 364.668 183.900,360.749 186.000,359.701 186.000 C 358.936 186.000,358.459 185.451,358.148 184.213 C 357.936 183.368,355.826 183.063,355.115 183.774 C 355.027 183.861,356.697 196.457,356.814 196.584 C 357.378 197.202,360.000 196.123,360.000 195.273 C 360.000 193.760,360.813 193.204,371.592 187.343 L 381.684 181.856 381.464 179.918 C 381.344 178.851,381.148 177.505,381.029 176.926 L 380.814 175.873 370.044 172.940 C 357.810 169.609,357.787 169.601,356.694 167.912 C 355.891 166.671,355.553 166.555,353.750 166.902 M200.588 168.484 C 209.392 170.336,215.541 176.077,217.205 184.000 C 219.080 192.924,214.256 199.500,205.833 199.500 C 198.160 199.500,193.988 194.437,193.001 183.929 C 192.560 179.235,191.753 178.000,189.127 178.000 C 182.698 178.000,179.409 186.452,178.167 206.167 C 178.063 207.817,177.895 209.842,177.792 210.667 L 177.605 212.167 178.788 210.622 C 184.293 203.434,197.176 201.546,206.333 206.584 C 220.741 214.512,224.460 241.242,213.233 256.175 C 200.664 272.892,172.146 272.176,159.858 254.833 C 147.595 237.526,148.157 202.240,160.985 184.072 C 169.249 172.370,186.599 165.541,200.588 168.484 M122.778 172.017 C 124.814 172.035,124.826 172.040,124.011 172.601 C 121.570 174.280,121.510 174.392,122.115 176.166 C 122.812 178.212,122.706 178.288,120.894 177.042 L 119.407 176.019 118.006 177.034 C 116.293 178.275,116.202 178.206,116.829 176.138 C 117.317 174.527,117.312 174.490,116.522 173.908 C 116.080 173.582,115.369 173.024,114.943 172.669 L 114.167 172.022 116.208 172.011 C 118.165 172.000,118.258 171.962,118.434 171.083 C 118.535 170.579,118.797 169.717,119.015 169.167 L 119.413 168.167 120.068 170.083 L 120.722 172.000 122.778 172.017 M137.111 172.344 L 139.167 172.356 138.391 173.002 C 137.964 173.358,137.218 173.938,136.733 174.291 L 135.851 174.933 136.416 176.699 C 137.111 178.872,137.088 178.896,135.474 177.674 C 133.844 176.441,133.771 176.441,132.066 177.696 C 130.504 178.844,130.478 178.812,131.155 176.582 L 131.635 174.998 130.164 173.915 C 128.243 172.503,128.291 172.333,130.606 172.333 L 132.545 172.333 133.155 170.417 L 133.765 168.500 134.411 170.417 L 135.056 172.333 137.111 172.344 M25.486 169.627 C 22.186 171.126,21.285 173.525,19.938 184.406 C 19.374 188.963,18.970 192.739,19.040 192.799 C 19.941 193.568,21.921 193.239,22.359 192.248 C 23.123 190.516,23.860 190.439,31.594 191.293 C 41.268 192.360,42.333 192.715,42.333 194.869 C 42.333 195.334,42.599 195.660,43.083 195.790 C 43.833 195.991,45.318 196.074,45.351 195.917 C 45.432 195.536,46.907 183.157,46.875 183.126 C 46.225 182.492,43.716 182.759,43.534 183.481 C 43.134 185.077,41.996 185.469,38.734 185.132 L 35.833 184.833 35.899 183.500 C 36.353 174.359,36.180 173.175,34.059 170.909 C 32.387 169.123,28.030 168.471,25.486 169.627 M30.697 176.516 C 31.905 177.141,32.667 179.203,32.667 181.851 C 32.667 184.510,32.771 184.462,28.204 183.862 C 23.968 183.304,23.474 182.985,23.557 180.857 C 23.715 176.763,27.144 174.678,30.697 176.516 M371.633 177.152 C 373.539 177.619,375.189 178.008,375.300 178.017 C 375.624 178.045,368.537 181.631,368.121 181.650 C 367.913 181.659,367.646 180.954,367.529 180.083 C 367.412 179.213,367.229 177.922,367.123 177.216 C 366.952 176.078,367.000 175.954,367.548 176.119 C 367.888 176.221,369.727 176.686,371.633 177.152 M182.966 217.750 C 179.709 219.907,178.610 225.300,178.601 239.167 C 178.592 254.363,179.863 257.833,185.441 257.833 C 191.533 257.833,193.507 252.063,193.252 235.000 C 193.103 224.996,192.707 222.446,190.889 219.775 C 189.008 217.010,185.455 216.102,182.966 217.750 M244.667 222.224 C 251.128 223.993,256.238 230.868,256.729 238.454 L 256.833 240.074 246.892 242.769 L 236.950 245.464 237.168 246.649 C 238.662 254.771,247.207 256.306,252.076 249.325 L 252.651 248.500 253.843 249.833 C 254.499 250.567,255.420 251.654,255.891 252.251 L 256.747 253.335 255.290 255.227 C 247.056 265.924,229.269 265.123,223.566 253.798 C 215.135 237.056,228.082 217.683,244.667 222.224 M270.945 223.083 C 271.884 225.466,272.362 227.429,272.630 230.000 L 272.856 232.167 273.472 230.333 C 275.763 223.515,278.720 220.720,282.647 221.662 C 285.447 222.334,286.921 224.331,287.282 227.940 L 287.500 230.122 288.412 228.742 C 294.631 219.330,312.833 219.422,312.833 228.865 C 312.833 235.770,302.418 235.979,300.581 229.111 C 300.016 226.997,298.285 227.644,297.815 230.145 C 297.380 232.464,298.976 233.874,303.514 235.179 C 311.895 237.588,314.845 241.062,314.819 248.493 C 314.786 258.136,309.478 262.739,298.333 262.790 C 288.897 262.833,284.552 259.915,285.098 253.900 C 285.793 246.229,294.307 246.928,296.834 254.865 C 297.823 257.971,298.058 258.156,300.456 257.708 C 305.818 256.706,304.619 252.721,298.088 249.840 C 289.171 245.906,286.000 242.230,286.000 235.827 L 286.000 234.687 284.787 235.510 C 283.294 236.523,281.790 236.564,278.946 235.668 L 276.833 235.002 276.254 235.699 C 274.924 237.301,274.003 243.242,274.001 250.235 L 274.000 255.636 275.250 255.840 C 275.938 255.953,276.725 256.074,277.000 256.109 C 277.390 256.160,277.521 256.780,277.597 258.920 L 277.694 261.667 267.000 261.667 L 256.306 261.667 256.403 258.920 C 256.479 256.780,256.610 256.160,257.000 256.109 C 257.275 256.074,258.063 255.953,258.750 255.840 L 260.000 255.636 260.000 245.274 C 260.000 232.417,259.707 231.225,256.424 230.694 L 255.167 230.491 255.066 228.363 C 255.011 227.192,255.096 226.104,255.256 225.944 C 255.479 225.721,269.037 221.525,270.045 221.366 C 270.161 221.348,270.566 222.121,270.945 223.083 M237.524 227.779 C 236.472 228.831,236.000 231.282,236.000 235.689 L 236.000 239.346 236.917 239.125 C 241.998 237.899,242.855 237.136,242.795 233.890 C 242.697 228.587,239.927 225.376,237.524 227.779 M360.856 239.137 L 358.894 245.320 352.382 245.410 L 345.869 245.500 351.101 249.286 C 353.979 251.369,356.331 253.169,356.327 253.286 C 356.324 253.404,355.505 256.043,354.507 259.151 C 353.508 262.260,352.746 264.857,352.813 264.924 C 352.880 264.991,355.121 263.460,357.794 261.523 C 360.467 259.585,362.745 258.000,362.856 258.000 C 362.966 258.000,365.242 259.578,367.912 261.506 C 370.582 263.434,372.823 264.955,372.893 264.885 C 372.963 264.815,372.178 262.170,371.149 259.006 C 370.121 255.843,369.404 253.137,369.556 252.994 C 369.709 252.851,372.136 251.069,374.950 249.034 L 380.067 245.333 373.390 245.333 L 366.712 245.333 365.338 240.917 C 364.582 238.487,363.706 235.702,363.391 234.727 L 362.818 232.954 360.856 239.137 M36.874 233.667 C 36.763 233.942,35.878 236.642,34.908 239.667 L 33.145 245.167 26.560 245.333 L 19.975 245.500 25.012 249.121 C 27.783 251.113,30.128 252.947,30.224 253.197 C 30.360 253.552,27.831 262.115,26.783 264.844 C 26.670 265.139,28.932 263.697,31.810 261.641 L 37.043 257.902 38.471 258.909 C 39.257 259.462,41.596 261.154,43.669 262.668 C 45.742 264.182,47.355 265.203,47.252 264.936 C 46.746 263.616,43.667 253.710,43.667 253.400 C 43.667 253.204,45.991 251.347,48.831 249.272 L 53.995 245.500 47.438 245.333 L 40.881 245.167 39.105 239.500 C 36.942 232.599,37.120 233.063,36.874 233.667 M149.673 241.889 L 150.444 244.946 141.639 253.950 L 132.833 262.954 132.627 260.561 C 132.513 259.244,132.401 257.349,132.377 256.349 L 132.333 254.531 140.404 246.436 C 144.843 241.984,148.571 238.452,148.688 238.587 C 148.806 238.723,149.250 240.209,149.673 241.889 M81.856 306.470 L 79.894 312.653 73.387 312.743 L 66.880 312.833 71.523 316.227 C 74.077 318.093,76.433 319.819,76.759 320.062 C 77.316 320.478,77.241 320.844,75.487 326.285 C 74.461 329.465,73.683 332.128,73.758 332.202 C 73.833 332.277,76.097 330.762,78.791 328.836 C 81.484 326.909,83.772 325.333,83.875 325.333 C 83.978 325.333,86.236 326.920,88.893 328.860 C 91.550 330.800,93.778 332.333,93.844 332.267 C 93.910 332.201,93.147 329.601,92.149 326.490 C 91.150 323.379,90.333 320.733,90.333 320.611 C 90.333 320.488,92.667 318.688,95.519 316.611 L 100.705 312.833 94.236 312.743 L 87.767 312.653 86.363 308.243 C 85.590 305.818,84.702 303.036,84.388 302.061 L 83.818 300.288 81.856 306.470 M318.448 306.500 L 316.445 312.500 309.974 312.667 L 303.503 312.833 308.168 316.225 C 310.734 318.091,313.102 319.818,313.430 320.063 C 313.986 320.480,313.991 320.608,313.509 321.975 C 313.224 322.781,312.331 325.525,311.523 328.072 L 310.055 332.704 311.111 331.917 C 314.191 329.620,320.260 325.333,320.430 325.333 C 320.538 325.333,322.824 326.919,325.511 328.858 C 328.197 330.797,330.449 332.329,330.515 332.262 C 330.582 332.196,329.818 329.629,328.818 326.558 C 327.818 323.487,327.000 320.842,327.000 320.680 C 327.000 320.519,329.357 318.650,332.238 316.527 L 337.475 312.667 330.915 312.667 L 324.354 312.667 322.402 306.583 L 320.451 300.500 318.448 306.500 M154.802 350.361 L 152.809 356.500 146.398 356.667 L 139.988 356.833 144.844 360.319 C 147.514 362.236,149.824 363.961,149.977 364.152 C 150.137 364.352,149.482 366.894,148.440 370.117 C 147.441 373.207,146.699 375.810,146.791 375.902 C 146.883 375.994,149.030 374.584,151.562 372.769 C 154.095 370.954,156.329 369.370,156.526 369.250 C 156.724 369.129,159.124 370.661,161.860 372.653 C 164.595 374.646,166.865 376.244,166.904 376.206 C 166.943 376.167,166.158 373.593,165.160 370.485 C 164.162 367.376,163.343 364.681,163.339 364.495 C 163.336 364.310,165.614 362.510,168.401 360.495 L 173.470 356.833 167.080 356.743 L 160.691 356.652 159.325 352.243 C 158.574 349.818,157.698 347.021,157.378 346.027 L 156.796 344.221 154.802 350.361 M243.456 350.333 L 241.478 356.500 235.059 356.667 L 228.641 356.833 233.641 360.427 C 236.390 362.404,238.702 364.129,238.777 364.260 C 238.851 364.392,238.052 367.162,236.999 370.417 C 235.947 373.671,235.118 376.333,235.157 376.333 C 235.197 376.333,237.526 374.693,240.334 372.687 L 245.440 369.042 246.803 369.995 C 247.553 370.520,249.815 372.150,251.829 373.617 C 253.844 375.085,255.523 376.254,255.562 376.216 C 255.600 376.178,254.814 373.601,253.815 370.490 C 252.817 367.379,252.000 364.674,252.000 364.479 C 252.000 364.285,254.284 362.485,257.075 360.479 L 262.151 356.833 255.775 356.743 L 249.399 356.653 248.015 352.243 C 247.253 349.818,246.361 347.008,246.032 346.000 L 245.434 344.167 243.456 350.333 " stroke="none" fill="#fafbfb" fill-rule="evenodd"></path><path id="path1" d="M91.202 166.861 C 91.091 167.151,91.000 175.831,91.000 186.149 L 91.000 204.911 93.917 205.303 C 118.729 208.634,139.644 200.617,152.977 182.667 C 155.897 178.736,156.809 178.682,154.527 182.575 C 150.678 189.142,144.062 195.823,131.333 205.994 C 109.289 223.610,92.374 250.621,93.389 266.586 L 93.500 268.339 95.069 267.222 C 102.356 262.030,116.335 261.150,126.752 265.226 C 129.550 266.320,129.348 266.725,128.944 260.831 C 128.155 249.301,130.243 234.606,134.111 224.476 C 136.025 219.466,137.825 216.216,143.338 207.819 C 153.697 192.042,158.820 181.906,161.526 171.833 C 163.136 165.840,162.810 165.616,158.445 169.718 C 140.927 186.181,113.078 185.428,93.799 167.969 C 91.843 166.198,91.511 166.056,91.202 166.861 " stroke="none" fill="#ec154c" fill-rule="evenodd"></path><path id="path2" d="M192.500 7.695 C 81.897 11.703,-3.038 109.473,8.500 219.500 C 21.827 346.591,152.288 425.747,271.000 378.768 C 375.567 337.388,422.443 214.186,371.924 113.516 C 341.007 51.907,276.434 9.887,209.510 7.828 C 206.388 7.731,202.783 7.608,201.500 7.553 C 200.217 7.498,196.167 7.562,192.500 7.695 M225.167 21.338 C 237.218 23.027,235.928 22.392,237.297 27.312 C 238.489 31.596,238.479 31.694,236.780 32.260 C 235.741 32.606,235.711 32.585,234.532 30.675 C 232.565 27.489,229.994 25.660,226.752 25.142 C 223.830 24.674,223.353 25.232,222.817 29.750 L 222.590 31.667 224.454 31.667 C 226.471 31.667,227.027 31.227,227.514 29.250 C 227.751 28.286,229.999 27.856,230.507 28.678 C 230.741 29.056,229.331 39.798,228.971 40.380 C 228.439 41.241,226.000 40.349,226.000 39.293 C 226.000 37.084,225.049 35.758,223.161 35.332 C 221.893 35.046,221.990 34.797,221.299 40.129 C 220.880 43.366,220.886 43.435,221.601 44.014 C 224.121 46.055,230.053 44.493,234.077 40.729 L 235.663 39.245 236.832 40.039 C 237.536 40.518,237.931 41.019,237.825 41.301 C 237.558 42.010,232.957 49.321,232.663 49.502 C 232.379 49.678,210.364 46.475,210.109 46.221 C 209.365 45.476,210.477 43.030,211.602 42.935 C 213.481 42.776,213.804 41.857,215.014 33.220 C 216.191 24.816,216.150 24.250,214.317 23.558 C 213.355 23.195,213.324 23.121,213.534 21.674 C 213.812 19.750,213.891 19.631,214.770 19.823 C 215.172 19.911,219.850 20.592,225.167 21.338 M183.365 22.317 C 193.068 25.337,195.031 40.057,186.463 45.538 C 183.388 47.505,165.525 51.303,164.442 50.220 C 163.860 49.637,163.920 46.667,164.515 46.667 C 166.623 46.667,166.760 44.785,165.345 35.261 C 164.221 27.693,164.118 27.413,162.352 27.131 C 160.990 26.913,160.680 26.445,160.671 24.590 C 160.666 23.503,160.173 23.633,168.500 22.522 C 171.983 22.057,175.208 21.612,175.667 21.532 C 177.190 21.265,181.348 21.690,183.365 22.317 M173.562 25.319 C 171.272 26.054,171.269 26.095,172.814 36.436 C 174.097 45.021,174.089 45.001,176.457 44.997 C 182.565 44.985,185.925 38.609,183.689 31.273 C 182.363 26.925,177.489 24.059,173.562 25.319 M269.028 32.876 C 272.221 34.274,274.899 35.477,274.980 35.550 C 275.723 36.220,273.603 38.595,272.405 38.434 C 270.633 38.196,270.343 38.621,266.833 46.586 C 263.532 54.074,263.303 54.901,264.281 55.786 C 266.731 58.003,271.496 57.764,275.736 55.211 L 277.638 54.066 278.510 55.210 C 279.607 56.647,279.799 56.309,275.626 60.284 L 272.085 63.656 262.182 59.357 C 250.608 54.332,251.834 55.110,252.616 53.284 C 253.233 51.846,253.284 51.811,254.584 51.935 C 256.403 52.108,256.877 51.405,260.449 43.242 C 263.571 36.107,263.800 35.082,262.500 34.060 C 261.514 33.284,261.490 33.059,262.228 31.511 C 262.930 30.040,262.234 29.900,269.028 32.876 M137.284 42.714 C 145.480 50.742,146.754 51.749,148.339 51.446 C 149.064 51.307,149.277 51.491,149.915 52.804 L 150.653 54.323 149.743 54.793 C 148.932 55.211,145.109 56.959,140.095 59.203 L 138.356 59.981 137.662 58.413 C 137.202 57.371,137.093 56.802,137.340 56.720 C 137.544 56.652,138.103 56.260,138.581 55.848 L 139.450 55.101 138.747 53.967 C 138.360 53.344,137.534 52.341,136.911 51.738 L 135.778 50.644 131.972 52.356 C 129.879 53.298,128.136 54.097,128.098 54.131 C 128.061 54.164,128.176 55.236,128.355 56.513 C 128.778 59.541,129.422 60.046,131.732 59.160 C 132.123 59.010,133.947 61.924,133.599 62.142 C 133.544 62.177,131.175 63.267,128.333 64.565 L 123.167 66.926 122.390 65.423 L 121.613 63.920 122.723 62.775 L 123.833 61.631 123.833 58.232 C 123.833 56.363,123.708 50.848,123.554 45.976 L 123.276 37.119 125.888 35.917 C 127.325 35.255,128.628 34.704,128.784 34.690 C 128.939 34.677,132.764 38.288,137.284 42.714 M127.584 44.909 C 127.638 46.334,127.761 48.122,127.857 48.882 L 128.031 50.265 130.349 49.235 C 133.144 47.993,133.173 48.411,130.060 45.075 L 127.486 42.317 127.584 44.909 M311.759 57.250 C 321.674 65.306,323.330 67.839,321.517 72.177 C 318.863 78.529,313.360 79.088,306.560 73.698 C 305.244 72.654,303.996 71.697,303.787 71.570 C 302.428 70.745,299.246 77.293,300.500 78.333 C 301.202 78.916,301.112 79.337,300.009 80.627 L 299.045 81.755 298.216 81.127 C 295.850 79.335,288.687 73.476,288.678 73.326 C 288.611 72.263,290.765 70.741,291.758 71.149 C 293.642 71.923,294.025 71.601,299.809 64.393 C 304.999 57.924,305.288 57.328,304.027 55.687 C 303.406 54.880,303.409 54.867,304.424 53.604 C 305.696 52.021,304.737 51.545,311.759 57.250 M215.528 57.136 C 298.623 66.891,355.858 142.358,342.460 224.500 C 329.655 303.004,254.807 356.445,176.054 343.313 C 85.536 328.219,31.846 233.152,65.562 147.667 C 85.845 96.240,132.880 61.614,189.167 56.673 C 194.041 56.246,210.388 56.532,215.528 57.136 M85.662 63.083 C 86.781 64.314,86.878 64.743,86.167 65.333 C 84.666 66.578,85.436 67.876,92.808 76.525 C 96.833 81.246,97.366 81.496,99.475 79.644 C 101.616 77.764,102.496 75.366,102.524 71.339 L 102.547 67.845 103.970 67.564 C 104.753 67.409,105.433 67.331,105.481 67.391 C 105.643 67.593,108.333 76.591,108.333 76.933 C 108.333 77.189,96.476 87.280,92.231 90.636 C 91.135 91.503,89.089 88.561,90.167 87.667 C 91.505 86.556,90.998 85.571,86.051 79.667 C 79.811 72.219,79.148 71.696,77.243 72.715 C 76.486 73.120,73.989 70.860,74.578 70.302 C 75.120 69.790,84.505 62.011,84.588 62.006 C 84.636 62.003,85.120 62.487,85.662 63.083 M186.463 62.824 C 101.789 71.596,45.055 152.222,65.552 234.655 C 85.770 315.965,174.187 360.752,252.333 329.266 C 349.482 290.124,368.587 158.296,286.611 92.736 C 258.524 70.273,221.450 59.200,186.463 62.824 M310.737 62.558 C 310.233 62.761,306.000 67.935,306.000 68.350 C 306.000 69.222,309.872 71.333,311.472 71.333 C 313.920 71.333,316.120 68.218,315.341 65.855 C 314.653 63.773,312.160 61.987,310.737 62.558 M215.000 71.486 C 226.768 72.954,236.890 75.471,238.959 77.443 C 248.811 86.833,249.808 97.860,241.592 106.548 C 239.525 108.733,239.840 108.744,236.552 106.374 C 213.726 89.925,189.622 80.801,167.167 80.110 C 161.463 79.934,159.133 80.041,151.000 80.850 L 149.167 81.032 151.167 80.169 C 161.791 75.586,176.288 72.231,191.333 70.874 C 194.726 70.568,211.018 70.989,215.000 71.486 M251.554 81.454 C 261.410 85.680,272.621 92.439,281.227 99.344 C 285.524 102.792,291.669 108.360,291.647 108.786 C 291.637 108.995,289.366 110.892,286.601 113.000 C 283.837 115.108,277.958 119.794,273.537 123.413 C 269.117 127.031,265.425 129.992,265.333 129.992 C 265.242 129.993,263.517 128.482,261.500 126.635 C 257.742 123.193,249.651 116.311,246.274 113.685 L 244.382 112.214 246.136 110.190 C 253.661 101.510,254.989 92.740,250.214 83.250 C 249.407 81.646,248.791 80.333,248.844 80.333 C 248.897 80.333,250.117 80.838,251.554 81.454 M172.333 85.706 C 190.120 87.428,208.468 94.681,228.417 107.876 C 231.854 110.149,234.667 112.153,234.667 112.327 C 234.667 112.825,228.763 116.174,224.604 118.036 C 212.697 123.366,198.956 126.731,167.728 131.965 C 164.554 132.497,161.889 133.000,161.805 133.084 C 161.283 133.606,163.155 138.700,163.809 138.539 C 164.189 138.445,168.175 137.756,172.667 137.009 C 206.920 131.307,224.891 125.958,236.981 117.866 C 238.514 116.840,239.819 116.000,239.880 116.000 C 240.866 116.000,261.141 133.693,260.640 134.116 C 239.445 152.014,216.186 173.226,216.773 174.123 C 217.029 174.514,217.724 175.624,218.318 176.590 L 219.398 178.346 220.500 177.423 C 221.106 176.915,226.079 172.449,231.551 167.498 C 242.519 157.574,248.881 151.949,258.667 143.526 L 265.167 137.931 268.446 141.355 C 272.470 145.558,277.677 151.682,281.159 156.305 L 283.774 159.776 282.969 160.471 C 276.450 166.105,268.408 180.579,264.712 193.333 C 263.960 195.928,258.000 220.345,258.000 220.831 C 258.000 221.257,264.185 218.963,264.389 218.461 C 264.529 218.116,265.777 213.033,267.163 207.167 C 271.842 187.352,276.993 175.599,284.660 167.250 C 287.254 164.425,286.834 164.261,289.764 169.250 C 297.882 183.075,303.557 198.057,306.336 213.000 C 306.728 215.108,307.116 217.171,307.198 217.583 C 307.289 218.046,307.589 218.333,307.979 218.333 C 308.795 218.333,311.469 219.480,312.705 220.361 C 313.903 221.214,313.899 221.400,312.822 215.104 C 309.900 198.014,303.443 180.610,294.487 165.682 L 291.596 160.864 292.381 160.217 C 295.705 157.479,302.345 156.013,306.214 157.162 C 313.865 159.434,328.081 177.228,329.243 185.987 C 332.529 210.762,326.135 243.013,313.841 263.667 L 312.948 265.167 313.098 263.599 L 313.248 262.031 312.184 262.842 C 311.599 263.289,310.126 264.105,308.909 264.656 C 306.861 265.585,306.682 265.751,306.483 266.913 C 306.365 267.602,305.745 270.641,305.106 273.664 L 303.944 279.162 302.077 281.498 C 278.192 311.377,243.020 329.331,205.327 330.885 C 199.189 331.138,199.223 331.155,202.417 329.398 C 223.230 317.949,237.208 299.781,249.385 268.356 C 251.198 263.675,251.197 263.760,249.453 264.525 C 248.745 264.836,247.268 265.347,246.170 265.662 L 244.173 266.233 241.749 272.033 C 228.680 303.313,212.192 321.072,188.727 329.144 L 185.287 330.327 181.893 329.827 C 158.377 326.358,137.026 317.132,118.662 302.502 C 114.850 299.465,106.000 291.401,106.000 290.964 C 106.000 290.648,116.090 279.909,122.775 273.109 L 126.437 269.386 125.271 268.898 C 124.629 268.630,123.252 268.163,122.210 267.860 L 120.315 267.309 115.887 271.905 C 113.452 274.432,109.371 278.712,106.819 281.417 C 104.267 284.121,102.081 286.333,101.960 286.333 C 101.623 286.333,96.743 280.236,93.957 276.333 C 79.541 256.138,71.481 232.924,69.967 207.242 L 69.618 201.308 71.518 196.737 C 75.569 186.993,78.770 181.880,84.962 175.260 L 87.000 173.082 87.008 170.291 C 87.012 168.756,87.147 166.938,87.306 166.250 C 87.687 164.611,87.727 164.592,84.437 167.583 C 79.935 171.677,74.267 178.492,71.963 182.581 C 70.839 184.577,70.720 184.374,71.182 181.250 C 75.924 149.185,93.846 118.508,120.167 97.402 C 125.103 93.443,126.368 92.708,131.167 91.004 C 145.492 85.917,157.948 84.314,172.333 85.706 M344.833 89.847 C 346.667 92.499,348.361 94.950,348.598 95.295 C 348.982 95.853,348.880 96.031,347.662 96.926 L 346.295 97.932 345.496 97.132 C 344.272 95.908,343.707 96.034,340.417 98.260 C 338.254 99.723,338.190 99.280,341.186 103.564 C 344.167 107.827,343.925 107.691,345.917 106.225 C 348.987 103.966,349.357 103.264,348.518 101.279 C 348.309 100.784,350.274 99.000,351.028 99.000 C 351.232 99.000,358.667 109.475,358.667 109.762 C 358.667 109.844,358.052 110.318,357.300 110.816 L 355.933 111.720 355.195 111.027 C 353.726 109.647,353.405 109.780,346.167 114.766 C 338.642 119.950,338.059 120.575,339.042 122.413 C 339.426 123.129,337.808 124.967,336.774 124.991 C 336.444 124.999,329.000 114.710,329.000 114.246 C 329.000 114.159,329.615 113.682,330.367 113.184 L 331.733 112.280 332.471 112.973 C 332.877 113.355,333.603 113.667,334.085 113.667 C 335.198 113.667,341.083 109.746,340.771 109.212 C 340.450 108.661,335.947 102.219,335.646 101.879 C 335.392 101.592,331.649 104.035,329.917 105.620 C 328.933 106.519,328.667 108.201,329.394 108.928 C 329.611 109.145,329.724 109.374,329.644 109.437 C 327.954 110.783,326.918 111.380,326.698 111.135 C 326.549 110.969,324.806 108.518,322.826 105.689 L 319.226 100.544 320.351 99.605 C 321.690 98.487,321.816 98.474,322.909 99.333 C 324.407 100.511,324.657 100.399,332.101 95.217 C 339.558 90.025,339.617 89.958,338.837 87.477 C 338.648 86.874,340.490 85.069,341.333 85.033 C 341.425 85.029,343.000 87.195,344.833 89.847 M61.490 90.472 C 60.780 92.172,61.328 92.785,68.114 97.888 C 75.017 103.078,75.641 103.390,77.043 102.354 C 78.218 101.485,78.266 101.491,79.652 102.639 L 80.803 103.594 76.898 108.797 C 72.537 114.607,72.933 114.302,71.240 113.152 C 70.194 112.441,70.047 112.202,70.329 111.674 C 71.440 109.599,70.873 108.940,62.916 103.071 C 56.958 98.676,55.942 98.207,54.764 99.310 C 53.818 100.196,53.695 100.183,52.352 99.063 C 51.018 97.949,50.740 98.557,55.475 92.237 L 59.117 87.376 60.527 88.389 C 61.921 89.390,61.932 89.414,61.490 90.472 M126.867 112.567 L 126.291 114.300 124.562 114.400 L 122.833 114.500 124.223 115.443 L 125.613 116.386 124.984 118.214 L 124.355 120.042 125.743 119.021 C 127.420 117.788,127.487 117.784,128.863 118.833 C 130.315 119.941,130.386 119.900,129.819 118.291 C 129.161 116.427,129.149 116.464,130.731 115.421 L 132.129 114.500 130.341 114.333 L 128.554 114.167 127.998 112.500 L 127.442 110.833 126.867 112.567 M300.058 117.768 C 308.141 127.448,315.014 138.782,320.026 150.696 C 321.708 154.696,325.479 165.632,325.254 165.857 C 325.192 165.919,323.895 164.469,322.372 162.634 C 312.147 150.318,300.170 147.521,289.672 154.996 C 288.293 155.978,288.290 155.976,285.310 152.116 C 281.507 147.190,277.141 142.134,273.096 137.971 C 271.210 136.030,269.667 134.359,269.667 134.257 C 269.667 133.587,295.297 113.312,296.000 113.426 C 296.275 113.471,298.101 115.424,300.058 117.768 M112.533 115.567 L 111.957 117.301 110.086 117.401 L 108.216 117.500 109.636 118.482 C 111.140 119.521,111.137 119.510,110.471 122.162 L 110.244 123.069 111.659 122.044 L 113.074 121.019 114.537 122.025 C 115.342 122.579,116.000 122.977,116.000 122.909 C 116.000 122.841,115.758 122.076,115.463 121.208 C 115.167 120.340,114.979 119.585,115.046 119.529 C 115.112 119.474,115.816 118.965,116.609 118.398 L 118.052 117.368 116.137 117.267 L 114.221 117.167 113.665 115.500 L 113.109 113.833 112.533 115.567 M140.945 114.505 C 140.840 114.685,140.575 115.389,140.357 116.067 C 139.968 117.274,139.918 117.303,138.115 117.401 L 136.271 117.500 137.792 118.569 L 139.314 119.639 138.823 121.028 C 138.105 123.063,138.192 123.162,139.717 122.040 C 140.478 121.481,141.265 121.119,141.467 121.238 C 141.668 121.356,142.321 121.819,142.917 122.266 C 143.512 122.713,144.000 123.013,144.000 122.932 C 144.000 122.852,143.758 122.076,143.463 121.208 C 143.167 120.340,142.979 119.585,143.046 119.529 C 143.112 119.474,143.827 118.957,144.633 118.381 L 146.100 117.333 144.109 117.333 L 142.117 117.333 141.627 115.755 C 141.357 114.886,141.051 114.324,140.945 114.505 M42.064 119.930 C 41.889 121.762,42.623 122.252,50.367 125.475 C 57.978 128.643,58.894 128.822,60.059 127.368 L 60.833 126.402 62.382 127.118 L 63.931 127.833 61.412 133.833 C 60.026 137.133,58.845 139.892,58.787 139.965 C 58.213 140.681,55.626 138.819,55.813 137.824 C 56.107 136.257,55.089 135.266,51.720 133.842 C 48.037 132.284,48.363 132.100,46.390 136.854 C 44.352 141.766,44.222 141.285,48.000 142.797 C 52.276 144.509,52.795 144.448,54.185 142.075 C 54.264 141.941,57.333 143.284,57.333 143.452 C 57.333 143.673,52.340 155.438,52.177 155.601 C 51.596 156.182,49.002 154.438,49.186 153.591 C 49.655 151.427,49.295 151.181,40.034 147.344 C 32.778 144.338,32.367 144.259,31.277 145.652 L 30.451 146.708 28.975 146.133 C 28.164 145.817,27.451 145.521,27.391 145.476 C 27.296 145.404,32.264 133.317,32.488 133.075 C 33.112 132.399,35.609 134.432,35.439 135.478 C 35.315 136.244,35.409 136.858,35.707 137.221 C 36.086 137.683,40.592 140.000,41.111 140.000 C 41.241 140.000,43.779 134.164,44.691 131.768 C 44.948 131.095,44.761 130.956,42.329 130.018 C 39.063 128.759,38.849 128.759,37.699 130.018 L 36.770 131.036 35.385 130.482 C 33.656 129.790,33.596 130.261,36.205 124.067 C 37.418 121.189,38.537 118.502,38.692 118.096 L 38.974 117.359 40.578 118.026 C 42.131 118.671,42.178 118.732,42.064 119.930 M102.911 124.000 C 102.804 124.275,102.544 125.063,102.333 125.750 C 101.949 126.999,101.947 127.000,100.091 127.000 L 98.233 127.000 99.617 128.002 C 101.155 129.117,101.210 129.320,100.510 131.305 L 100.020 132.694 101.501 131.630 L 102.982 130.566 104.317 131.450 C 106.051 132.597,106.050 132.598,105.429 130.777 C 104.846 129.065,104.813 129.131,107.018 127.601 C 107.829 127.038,107.824 127.035,105.996 127.017 L 104.158 127.000 103.631 125.250 C 103.312 124.190,103.028 123.697,102.911 124.000 M151.279 125.171 C 151.174 125.352,150.906 126.063,150.685 126.750 L 150.282 128.000 148.238 128.000 L 146.194 128.000 147.760 129.083 C 149.507 130.291,149.530 130.359,148.848 132.291 C 148.282 133.895,148.393 133.955,149.863 132.833 C 150.464 132.375,151.139 132.000,151.363 132.000 C 151.587 132.000,152.262 132.375,152.863 132.833 C 154.315 133.941,154.386 133.900,153.819 132.291 C 153.162 130.431,153.132 130.517,154.881 129.182 L 156.429 128.000 154.440 128.000 L 152.450 128.000 151.960 126.421 C 151.690 125.553,151.384 124.991,151.279 125.171 M370.862 136.389 C 372.130 139.720,373.212 142.555,373.266 142.689 C 373.321 142.823,372.687 143.192,371.857 143.509 L 370.347 144.085 369.339 143.006 C 368.039 141.614,367.936 141.634,359.104 144.998 C 351.607 147.854,350.890 148.324,351.064 150.263 C 351.161 151.341,351.081 151.438,349.621 152.015 L 348.075 152.626 345.707 146.443 C 343.074 139.569,343.112 139.956,345.022 139.326 C 346.380 138.878,346.427 138.888,347.067 139.767 C 348.092 141.174,349.383 140.951,357.107 138.030 C 364.786 135.126,365.828 134.472,365.547 132.729 C 365.380 131.699,366.742 130.552,368.362 130.357 C 368.470 130.344,369.595 133.058,370.862 136.389 M98.230 136.667 C 98.131 136.942,97.878 137.729,97.666 138.417 L 97.282 139.667 95.408 139.667 L 93.535 139.667 94.934 140.696 C 96.449 141.809,96.496 141.938,96.006 143.647 C 95.570 145.164,95.734 145.236,97.156 144.152 L 98.356 143.237 99.832 144.297 L 101.309 145.357 100.825 143.762 C 100.195 141.685,100.130 141.898,101.727 140.795 L 103.120 139.833 101.337 139.667 L 99.554 139.500 98.982 137.833 C 98.636 136.825,98.339 136.364,98.230 136.667 M154.644 139.577 L 154.167 141.167 152.357 141.333 L 150.547 141.500 151.940 142.462 C 153.530 143.560,153.497 143.453,152.833 145.333 C 152.558 146.113,152.333 146.814,152.333 146.891 C 152.333 146.969,153.016 146.563,153.850 145.989 L 155.366 144.946 156.433 145.746 C 158.271 147.126,158.308 147.113,157.728 145.298 C 157.127 143.419,157.084 143.508,159.351 141.934 C 160.161 141.372,160.153 141.368,158.263 141.351 L 156.360 141.333 155.957 139.917 C 155.371 137.856,155.176 137.806,154.644 139.577 M99.477 150.833 C 98.420 153.745,98.499 153.667,96.618 153.667 L 94.869 153.667 96.268 154.696 C 97.863 155.868,97.819 155.722,97.198 157.783 L 96.730 159.339 97.996 158.336 C 99.553 157.103,99.555 157.103,101.240 158.342 L 102.611 159.350 102.062 157.635 L 101.514 155.921 102.831 154.815 L 104.148 153.709 102.491 153.605 L 100.833 153.500 100.276 151.833 C 99.821 150.471,99.675 150.288,99.477 150.833 M152.960 153.583 L 152.471 155.167 150.675 155.333 L 148.880 155.500 150.273 156.462 C 151.040 156.991,151.667 157.469,151.667 157.524 C 151.667 157.578,151.539 157.971,151.382 158.395 C 151.226 158.819,150.993 159.598,150.865 160.125 L 150.633 161.082 152.020 159.984 C 153.518 158.797,153.312 158.780,155.651 160.300 C 156.406 160.792,156.452 160.789,156.254 160.273 C 155.419 158.098,155.551 157.421,157.018 156.359 L 158.433 155.333 156.577 155.333 L 154.720 155.333 154.167 153.667 C 153.495 151.643,153.559 151.647,152.960 153.583 M106.667 163.500 L 106.247 165.000 104.391 165.000 L 102.535 165.000 103.934 166.029 C 105.491 167.173,105.537 167.338,104.852 169.280 L 104.371 170.644 105.736 169.655 C 107.421 168.434,107.445 168.435,109.035 169.695 C 109.749 170.260,110.333 170.654,110.333 170.570 C 110.333 170.486,110.108 169.779,109.833 169.000 C 109.166 167.109,109.139 167.201,110.732 166.029 L 112.131 165.000 110.276 165.000 L 108.420 165.000 108.000 163.500 C 107.769 162.675,107.469 162.000,107.333 162.000 C 107.198 162.000,106.898 162.675,106.667 163.500 M145.305 164.546 L 144.804 166.167 142.899 166.333 L 140.995 166.500 142.490 167.500 C 144.210 168.650,144.151 168.487,143.500 170.333 C 143.225 171.113,143.000 171.814,143.000 171.891 C 143.000 171.969,143.658 171.579,144.463 171.025 L 145.926 170.019 147.296 171.012 C 148.815 172.112,148.884 172.034,148.177 170.028 L 147.686 168.639 149.209 167.569 L 150.731 166.500 148.809 166.333 L 146.887 166.167 146.347 164.546 L 145.807 162.926 145.305 164.546 M356.667 167.404 C 357.521 169.208,358.585 169.635,369.765 172.663 C 382.623 176.146,381.195 175.445,381.473 178.409 C 381.598 179.743,381.772 181.077,381.860 181.376 C 381.983 181.796,379.712 183.170,371.760 187.486 C 360.332 193.688,360.499 193.576,360.098 195.278 C 359.804 196.526,356.932 197.529,356.556 196.514 C 356.313 195.860,354.868 183.688,355.017 183.557 C 355.815 182.862,358.333 183.077,358.333 183.840 C 358.333 186.057,359.737 186.244,363.011 184.462 L 364.535 183.632 363.994 179.623 C 363.381 175.078,363.422 175.134,360.402 174.811 C 357.957 174.549,357.687 174.712,357.434 176.596 C 357.273 177.798,355.313 178.739,354.113 178.191 C 353.907 178.097,352.765 167.119,352.942 166.940 C 353.066 166.816,353.692 166.653,354.333 166.577 C 354.975 166.502,355.650 166.419,355.833 166.394 C 356.017 166.369,356.392 166.823,356.667 167.404 M190.438 168.346 C 164.762 170.454,150.540 190.659,151.424 223.775 C 152.186 252.348,164.929 267.834,187.667 267.818 C 211.503 267.801,225.757 245.611,217.510 221.362 C 211.676 204.211,191.655 197.989,179.954 209.690 L 177.667 211.977 177.667 210.739 C 177.668 193.281,181.793 179.625,187.548 178.027 C 191.368 176.967,192.694 178.374,193.175 184.000 C 193.952 193.090,197.779 198.453,204.131 199.352 C 211.324 200.371,216.922 195.739,217.264 188.485 C 217.763 177.920,209.966 169.699,198.167 168.349 C 194.914 167.977,194.942 167.977,190.438 168.346 M32.510 169.637 C 35.917 171.144,37.093 175.478,36.057 182.713 L 35.788 184.593 37.274 184.796 C 41.310 185.350,42.826 185.037,43.316 183.551 C 43.692 182.414,46.477 182.119,46.882 183.173 C 47.032 183.565,45.722 196.029,45.505 196.265 C 44.880 196.944,42.149 195.694,42.000 194.660 C 41.750 192.922,40.538 192.513,33.155 191.678 C 24.782 190.731,23.333 190.809,22.667 192.243 C 22.156 193.342,20.228 193.786,19.095 193.065 C 18.547 192.718,20.408 177.301,21.330 174.542 C 23.053 169.385,27.516 167.427,32.510 169.637 M119.086 169.667 C 118.900 170.125,118.690 170.800,118.621 171.167 C 118.515 171.721,118.158 171.861,116.497 172.000 L 114.500 172.167 116.056 173.287 L 117.611 174.407 117.139 175.745 C 116.456 177.680,116.529 177.784,117.911 176.845 C 119.435 175.809,119.422 175.810,120.915 176.825 C 122.414 177.843,122.466 177.793,121.821 175.969 C 121.251 174.360,121.331 174.216,123.678 172.601 C 124.493 172.040,124.482 172.035,122.475 172.017 L 120.450 172.000 119.937 170.417 C 119.443 168.890,119.412 168.863,119.086 169.667 M133.194 170.917 L 132.613 172.667 130.741 172.667 L 128.869 172.667 130.268 173.696 C 131.782 174.809,131.829 174.938,131.339 176.647 C 130.901 178.175,131.095 178.261,132.523 177.172 L 133.731 176.250 135.199 177.285 C 136.006 177.854,136.667 178.267,136.667 178.202 C 136.667 178.137,136.442 177.446,136.167 176.667 C 135.503 174.786,135.470 174.893,137.060 173.795 L 138.453 172.833 136.670 172.667 L 134.887 172.500 134.331 170.833 L 133.776 169.167 133.194 170.917 M25.520 177.027 C 23.650 178.669,23.042 181.909,24.432 182.819 C 25.229 183.342,31.860 184.251,32.223 183.888 C 32.688 183.423,32.422 179.138,31.860 178.052 C 30.723 175.853,27.458 175.325,25.520 177.027 M367.505 178.383 C 367.913 181.903,367.704 181.827,371.603 179.868 L 375.040 178.141 371.770 177.376 C 369.971 176.955,368.221 176.533,367.880 176.438 C 367.305 176.278,367.278 176.418,367.505 178.383 M189.234 217.728 C 192.546 219.920,193.495 224.136,193.495 236.667 C 193.495 246.730,193.096 250.061,191.461 253.667 C 188.143 260.981,180.610 259.600,178.946 251.372 C 178.328 248.314,178.322 229.107,178.939 225.845 C 180.468 217.759,184.489 214.588,189.234 217.728 M235.787 222.165 C 219.311 225.748,215.732 253.295,230.784 260.665 C 239.155 264.763,250.390 262.041,255.492 254.678 C 256.547 253.156,256.539 253.131,254.046 250.333 L 252.710 248.833 252.125 249.667 C 247.252 256.620,238.594 254.802,236.850 246.459 C 236.586 245.195,235.421 245.647,247.083 242.496 C 258.033 239.539,257.098 240.221,256.129 235.899 C 253.809 225.547,245.629 220.024,235.787 222.165 M262.500 223.795 L 255.500 225.862 255.402 228.058 L 255.305 230.254 256.536 230.485 C 259.904 231.117,260.333 232.874,260.333 246.016 L 260.333 256.000 259.542 256.000 C 259.106 256.000,258.281 256.094,257.708 256.208 L 256.667 256.417 256.667 259.042 L 256.667 261.667 267.000 261.667 L 277.333 261.667 277.333 259.042 L 277.333 256.417 276.292 256.208 C 275.719 256.094,274.874 256.000,274.415 256.000 L 273.580 256.000 273.754 249.583 C 273.938 242.766,274.561 238.500,275.698 236.272 C 276.424 234.849,276.864 234.746,279.000 235.500 C 281.557 236.402,283.888 236.178,285.158 234.909 L 286.249 233.817 286.416 236.736 C 286.754 242.659,288.857 245.128,296.873 249.013 C 304.461 252.690,306.087 255.359,301.993 257.416 C 299.041 258.900,297.531 258.132,296.543 254.646 C 294.354 246.920,285.322 246.887,285.291 254.604 C 285.268 260.374,290.128 263.037,299.833 262.573 C 309.784 262.097,314.667 257.465,314.667 248.500 C 314.667 241.816,312.219 238.423,305.779 236.178 C 304.342 235.677,302.308 234.965,301.258 234.596 C 298.553 233.645,297.667 232.731,297.667 230.894 C 297.667 228.558,299.975 226.429,300.533 228.250 C 302.963 236.177,314.308 235.719,312.709 227.759 C 310.982 219.159,294.391 220.287,288.176 229.426 L 287.093 231.020 287.078 228.651 C 287.058 225.454,286.080 223.470,284.004 222.417 C 279.717 220.242,276.101 222.940,273.839 230.000 C 272.999 232.620,272.771 232.668,272.495 230.280 C 272.060 226.517,270.570 221.640,269.871 221.697 C 269.667 221.714,266.350 222.658,262.500 223.795 M241.980 229.008 C 243.133 231.083,243.344 235.352,242.370 236.898 C 241.696 237.967,241.693 237.969,236.199 239.560 C 235.326 239.813,235.582 231.376,236.518 229.046 C 237.664 226.194,240.407 226.175,241.980 229.008 M39.187 239.077 L 41.127 245.320 47.731 245.410 L 54.335 245.500 49.309 249.163 C 46.545 251.177,44.152 252.906,43.992 253.005 C 43.832 253.104,44.372 255.281,45.192 257.842 C 47.559 265.241,47.688 265.719,47.235 265.442 C 47.014 265.307,44.646 263.598,41.973 261.643 L 37.112 258.089 31.807 261.878 C 25.991 266.032,26.298 265.837,26.493 265.250 C 29.685 255.649,30.317 253.228,29.748 252.797 C 29.428 252.555,27.027 250.814,24.411 248.929 L 19.656 245.500 26.269 245.410 L 32.883 245.320 34.827 239.243 C 36.794 233.098,36.994 232.538,37.157 232.728 C 37.207 232.786,38.120 235.643,39.187 239.077 M364.961 239.048 L 366.882 245.167 373.636 245.257 L 380.391 245.347 375.029 249.228 C 372.080 251.362,369.667 253.250,369.667 253.423 C 369.667 253.596,370.492 256.296,371.500 259.422 C 372.508 262.549,373.333 265.235,373.333 265.390 C 373.333 265.546,370.977 263.968,368.098 261.883 L 362.863 258.093 357.681 261.847 C 354.832 263.913,352.452 265.556,352.394 265.501 C 352.336 265.445,353.123 262.783,354.144 259.586 C 355.165 256.389,356.000 253.609,356.000 253.408 C 356.000 253.208,353.643 251.347,350.762 249.272 L 345.524 245.500 352.088 245.410 L 358.651 245.319 360.700 238.978 C 361.827 235.491,362.814 232.703,362.895 232.783 C 362.975 232.864,363.905 235.683,364.961 239.048 M140.583 246.582 L 132.667 254.505 132.690 257.836 C 132.728 263.173,132.106 263.466,141.736 253.565 L 150.287 244.772 149.610 242.302 C 149.237 240.944,148.835 239.569,148.716 239.246 C 148.545 238.780,146.862 240.298,140.583 246.582 M86.021 306.505 L 87.829 312.333 94.414 312.333 C 98.037 312.333,101.000 312.452,101.000 312.597 C 101.000 312.741,98.675 314.554,95.833 316.624 C 92.992 318.694,90.667 320.576,90.667 320.807 C 90.667 321.037,91.502 323.815,92.522 326.980 C 93.543 330.144,94.330 332.778,94.272 332.833 C 94.214 332.887,91.853 331.243,89.025 329.179 L 83.883 325.426 78.608 329.209 C 75.707 331.290,73.333 332.848,73.333 332.672 C 73.333 332.497,74.158 329.781,75.167 326.637 C 76.175 323.493,77.000 320.820,77.000 320.696 C 77.000 320.572,75.762 319.561,74.250 318.450 C 72.737 317.338,70.300 315.545,68.833 314.465 L 66.167 312.500 72.988 312.333 L 79.809 312.167 81.790 306.065 C 82.880 302.709,83.871 300.124,83.992 300.320 C 84.113 300.516,85.026 303.299,86.021 306.505 M331.061 312.333 C 334.694 312.333,337.663 312.446,337.659 312.583 C 337.654 312.721,335.274 314.568,332.370 316.689 L 327.090 320.545 329.057 326.649 C 330.139 330.006,330.982 332.795,330.929 332.847 C 330.876 332.898,328.496 331.248,325.640 329.181 L 320.447 325.422 315.371 329.081 C 312.580 331.094,310.217 332.662,310.122 332.566 C 310.026 332.470,310.799 329.725,311.840 326.465 C 313.650 320.796,313.705 320.519,313.116 320.079 C 312.777 319.827,310.433 318.109,307.907 316.263 C 305.381 314.417,303.235 312.777,303.138 312.620 C 303.040 312.462,305.957 312.333,309.619 312.333 L 316.278 312.333 318.369 306.083 L 320.459 299.833 322.458 306.083 L 324.456 312.333 331.061 312.333 M159.021 350.583 L 160.789 356.333 167.414 356.333 C 171.144 356.333,173.960 356.462,173.858 356.627 C 173.758 356.788,171.367 358.591,168.545 360.634 L 163.413 364.348 165.358 370.411 C 166.428 373.746,167.251 376.527,167.186 376.592 C 167.121 376.656,164.801 375.050,162.029 373.021 C 159.257 370.993,156.922 369.333,156.839 369.333 C 156.755 369.333,154.395 370.974,151.594 372.980 C 148.792 374.985,146.456 376.503,146.402 376.352 C 146.348 376.201,147.139 373.502,148.160 370.354 C 149.181 367.205,149.935 364.498,149.836 364.337 C 149.736 364.176,147.317 362.347,144.459 360.272 L 139.264 356.500 145.940 356.410 L 152.616 356.320 154.501 350.577 C 155.538 347.418,156.459 344.608,156.549 344.333 C 156.803 343.553,157.059 344.201,159.021 350.583 M247.698 350.583 L 249.478 356.333 256.092 356.333 C 259.928 356.333,262.628 356.459,262.521 356.633 C 262.419 356.799,260.024 358.598,257.200 360.632 L 252.066 364.330 253.529 368.945 C 254.333 371.483,255.220 374.207,255.499 374.999 C 256.230 377.069,256.223 377.066,250.696 373.021 C 247.924 370.993,245.588 369.333,245.505 369.333 C 245.422 369.333,243.062 370.974,240.260 372.980 C 237.459 374.985,235.120 376.496,235.064 376.338 C 235.007 376.180,235.793 373.471,236.809 370.319 C 237.826 367.167,238.578 364.459,238.481 364.302 C 238.384 364.145,235.958 362.325,233.091 360.258 L 227.878 356.500 234.597 356.410 L 241.315 356.320 243.161 350.576 C 245.547 343.150,245.319 343.723,245.648 344.333 C 245.797 344.608,246.719 347.421,247.698 350.583 " stroke="none" fill="#046cb4" fill-rule="evenodd"></path><path id="path3" d="M195.259 7.578 C 196.043 7.648,197.243 7.647,197.925 7.576 C 198.608 7.504,197.967 7.446,196.500 7.448 C 195.033 7.449,194.475 7.507,195.259 7.578 M201.917 7.577 C 202.696 7.648,203.971 7.648,204.750 7.577 C 205.529 7.507,204.892 7.450,203.333 7.450 C 201.775 7.450,201.137 7.507,201.917 7.577 M177.088 21.573 C 177.595 21.649,178.345 21.647,178.755 21.568 C 179.165 21.489,178.750 21.426,177.833 21.429 C 176.917 21.431,176.581 21.496,177.088 21.573 M224.083 31.896 C 224.404 31.980,224.929 31.980,225.250 31.896 C 225.571 31.813,225.308 31.744,224.667 31.744 C 224.025 31.744,223.762 31.813,224.083 31.896 M191.757 35.333 C 191.757 36.158,191.822 36.496,191.902 36.083 C 191.981 35.671,191.981 34.996,191.902 34.583 C 191.822 34.171,191.757 34.508,191.757 35.333 M130.833 36.667 C 131.922 37.767,132.887 38.667,132.979 38.667 C 133.071 38.667,132.255 37.767,131.167 36.667 C 130.078 35.567,129.113 34.667,129.021 34.667 C 128.929 34.667,129.745 35.567,130.833 36.667 M123.417 43.833 C 123.421 44.567,123.489 44.827,123.569 44.413 C 123.649 43.998,123.646 43.398,123.562 43.079 C 123.479 42.761,123.414 43.100,123.417 43.833 M166.417 43.833 C 166.421 44.567,166.489 44.827,166.569 44.413 C 166.649 43.998,166.646 43.398,166.562 43.079 C 166.479 42.761,166.414 43.100,166.417 43.833 M175.417 45.230 C 175.737 45.314,176.262 45.314,176.583 45.230 C 176.904 45.146,176.642 45.077,176.000 45.077 C 175.358 45.077,175.096 45.146,175.417 45.230 M143.167 48.667 C 144.070 49.583,144.883 50.333,144.975 50.333 C 145.067 50.333,144.403 49.583,143.500 48.667 C 142.597 47.750,141.783 47.000,141.692 47.000 C 141.600 47.000,142.264 47.750,143.167 48.667 M123.757 53.667 C 123.757 54.492,123.822 54.829,123.902 54.417 C 123.981 54.004,123.981 53.329,123.902 52.917 C 123.822 52.504,123.757 52.842,123.757 53.667 M192.921 56.569 C 193.335 56.649,193.935 56.646,194.254 56.562 C 194.573 56.479,194.233 56.414,193.500 56.417 C 192.767 56.421,192.506 56.489,192.921 56.569 M205.750 56.563 C 206.071 56.647,206.596 56.647,206.917 56.563 C 207.237 56.479,206.975 56.411,206.333 56.411 C 205.692 56.411,205.429 56.479,205.750 56.563 M63.661 63.917 L 60.167 67.500 63.750 64.006 C 67.078 60.761,67.485 60.333,67.244 60.333 C 67.195 60.333,65.582 61.946,63.661 63.917 M197.750 62.247 C 198.987 62.311,201.012 62.311,202.250 62.247 C 203.487 62.183,202.475 62.131,200.000 62.131 C 197.525 62.131,196.512 62.183,197.750 62.247 M340.333 68.438 C 340.333 68.495,340.821 68.983,341.417 69.521 L 342.500 70.500 341.521 69.417 C 340.608 68.407,340.333 68.180,340.333 68.438 M162.250 85.235 C 162.662 85.315,163.337 85.315,163.750 85.235 C 164.162 85.156,163.825 85.091,163.000 85.091 C 162.175 85.091,161.837 85.156,162.250 85.235 M299.653 96.417 C 300.470 97.287,301.183 98.000,301.236 98.000 C 301.486 98.000,301.222 97.701,299.750 96.319 L 298.167 94.833 299.653 96.417 M101.827 102.750 L 98.500 106.167 101.917 102.840 C 105.090 99.749,105.485 99.333,105.244 99.333 C 105.194 99.333,103.657 100.871,101.827 102.750 M304.167 101.000 C 304.883 101.733,305.544 102.333,305.635 102.333 C 305.727 102.333,305.216 101.733,304.500 101.000 C 303.784 100.267,303.123 99.667,303.031 99.667 C 302.940 99.667,303.451 100.267,304.167 101.000 M290.333 107.500 C 290.955 108.142,291.539 108.667,291.631 108.667 C 291.722 108.667,291.289 108.142,290.667 107.500 C 290.045 106.858,289.461 106.333,289.369 106.333 C 289.278 106.333,289.711 106.858,290.333 107.500 M271.167 136.000 C 272.070 136.917,272.883 137.667,272.975 137.667 C 273.067 137.667,272.403 136.917,271.500 136.000 C 270.597 135.083,269.783 134.333,269.692 134.333 C 269.600 134.333,270.264 135.083,271.167 136.000 M269.000 142.167 C 269.622 142.808,270.206 143.333,270.297 143.333 C 270.389 143.333,269.955 142.808,269.333 142.167 C 268.711 141.525,268.128 141.000,268.036 141.000 C 267.944 141.000,268.378 141.525,269.000 142.167 M301.750 150.905 C 302.254 150.982,303.079 150.982,303.583 150.905 C 304.087 150.829,303.675 150.767,302.667 150.767 C 301.658 150.767,301.246 150.829,301.750 150.905 M95.589 153.575 C 96.188 153.649,97.088 153.648,97.589 153.572 C 98.090 153.495,97.600 153.435,96.500 153.437 C 95.400 153.438,94.990 153.501,95.589 153.575 M102.425 153.579 C 103.547 153.667,103.946 153.821,103.778 154.102 C 103.636 154.338,103.769 154.313,104.103 154.043 C 104.933 153.369,104.847 153.328,102.750 153.393 C 100.842 153.453,100.841 153.454,102.425 153.579 M87.120 170.000 C 87.120 171.742,87.176 172.454,87.245 171.583 C 87.314 170.713,87.314 169.287,87.245 168.417 C 87.176 167.546,87.120 168.258,87.120 170.000 M191.750 168.230 C 192.071 168.314,192.596 168.314,192.917 168.230 C 193.237 168.146,192.975 168.077,192.333 168.077 C 191.692 168.077,191.429 168.146,191.750 168.230 M27.921 168.902 C 28.335 168.982,28.935 168.979,29.254 168.896 C 29.573 168.812,29.233 168.747,28.500 168.751 C 27.767 168.754,27.506 168.823,27.921 168.902 M85.000 175.167 C 84.190 175.992,83.603 176.667,83.695 176.667 C 83.786 176.667,84.524 175.992,85.333 175.167 C 86.143 174.342,86.730 173.667,86.639 173.667 C 86.547 173.667,85.810 174.342,85.000 175.167 M24.587 190.902 C 25.002 190.982,25.602 190.979,25.921 190.896 C 26.239 190.812,25.900 190.747,25.167 190.751 C 24.433 190.754,24.173 190.823,24.587 190.902 M7.443 196.167 C 7.444 197.450,7.504 197.934,7.577 197.243 C 7.649 196.551,7.648 195.501,7.574 194.909 C 7.500 194.317,7.441 194.883,7.443 196.167 M55.443 198.167 C 55.444 199.450,55.504 199.934,55.577 199.243 C 55.649 198.551,55.648 197.501,55.574 196.909 C 55.500 196.317,55.441 196.883,55.443 198.167 M69.773 202.667 C 69.773 203.858,69.834 204.346,69.908 203.750 C 69.982 203.154,69.982 202.179,69.908 201.583 C 69.834 200.987,69.773 201.475,69.773 202.667 M7.445 203.667 C 7.445 205.042,7.504 205.604,7.576 204.917 C 7.648 204.229,7.648 203.104,7.576 202.417 C 7.504 201.729,7.445 202.292,7.445 203.667 M55.443 203.500 C 55.444 204.783,55.504 205.267,55.577 204.576 C 55.649 203.884,55.648 202.834,55.574 202.243 C 55.500 201.651,55.441 202.217,55.443 203.500 M194.083 203.905 C 194.588 203.982,195.412 203.982,195.917 203.905 C 196.421 203.829,196.008 203.767,195.000 203.767 C 193.992 203.767,193.579 203.829,194.083 203.905 M392.077 209.333 C 392.077 209.975,392.146 210.237,392.230 209.917 C 392.314 209.596,392.314 209.071,392.230 208.750 C 392.146 208.429,392.077 208.692,392.077 209.333 M210.000 209.438 C 210.000 209.495,210.487 209.983,211.083 210.521 L 212.167 211.500 211.188 210.417 C 210.275 209.407,210.000 209.180,210.000 209.438 M302.421 221.906 C 302.928 221.982,303.678 221.980,304.088 221.901 C 304.498 221.822,304.083 221.760,303.167 221.762 C 302.250 221.765,301.915 221.829,302.421 221.906 M251.000 226.167 C 251.622 226.808,252.206 227.333,252.297 227.333 C 252.389 227.333,251.955 226.808,251.333 226.167 C 250.711 225.525,250.128 225.000,250.036 225.000 C 249.944 225.000,250.378 225.525,251.000 226.167 M227.146 226.750 L 226.167 227.833 227.250 226.854 C 227.846 226.316,228.333 225.828,228.333 225.771 C 228.333 225.513,228.058 225.740,227.146 226.750 M193.417 231.167 C 193.421 231.900,193.489 232.161,193.569 231.746 C 193.649 231.331,193.646 230.731,193.562 230.413 C 193.479 230.094,193.414 230.433,193.417 231.167 M235.723 236.083 C 235.692 238.054,235.779 239.667,235.917 239.667 C 236.054 239.668,236.126 238.580,236.076 237.251 C 235.911 232.877,235.780 232.443,235.723 236.083 M143.329 243.583 L 138.167 248.833 143.417 243.671 C 148.294 238.875,148.817 238.333,148.579 238.333 C 148.531 238.333,146.169 240.696,143.329 243.583 M144.996 250.250 L 139.833 255.500 145.083 250.337 C 149.961 245.541,150.484 245.000,150.246 245.000 C 150.198 245.000,147.835 247.362,144.996 250.250 M314.767 248.333 C 314.767 249.342,314.829 249.754,314.905 249.250 C 314.982 248.746,314.982 247.921,314.905 247.417 C 314.829 246.912,314.767 247.325,314.767 248.333 M289.750 248.896 C 290.071 248.980,290.596 248.980,290.917 248.896 C 291.237 248.813,290.975 248.744,290.333 248.744 C 289.692 248.744,289.429 248.813,289.750 248.896 M256.450 259.000 C 256.450 260.558,256.507 261.196,256.577 260.417 C 256.648 259.637,256.648 258.362,256.577 257.583 C 256.507 256.804,256.450 257.442,256.450 259.000 M210.146 259.417 L 209.167 260.500 210.250 259.521 C 210.846 258.983,211.333 258.495,211.333 258.438 C 211.333 258.180,211.058 258.407,210.146 259.417 M117.000 270.500 C 116.190 271.325,115.603 272.000,115.695 272.000 C 115.786 272.000,116.524 271.325,117.333 270.500 C 118.143 269.675,118.730 269.000,118.639 269.000 C 118.547 269.000,117.810 269.675,117.000 270.500 M120.333 275.500 C 119.524 276.325,118.936 277.000,119.028 277.000 C 119.120 277.000,119.857 276.325,120.667 275.500 C 121.476 274.675,122.064 274.000,121.972 274.000 C 121.880 274.000,121.143 274.675,120.333 275.500 M109.812 278.083 L 108.833 279.167 109.917 278.188 C 110.926 277.275,111.153 277.000,110.896 277.000 C 110.838 277.000,110.351 277.487,109.812 278.083 M113.649 282.583 L 112.500 283.833 113.750 282.685 C 114.913 281.615,115.153 281.333,114.899 281.333 C 114.843 281.333,114.281 281.896,113.649 282.583 M103.649 284.583 L 102.500 285.833 103.750 284.685 C 104.913 283.615,105.153 283.333,104.899 283.333 C 104.843 283.333,104.281 283.896,103.649 284.583 M107.649 288.917 L 106.500 290.167 107.750 289.018 C 108.913 287.949,109.153 287.667,108.899 287.667 C 108.843 287.667,108.281 288.229,107.649 288.917 M294.479 290.083 L 293.500 291.167 294.583 290.188 C 295.179 289.649,295.667 289.162,295.667 289.104 C 295.667 288.847,295.392 289.074,294.479 290.083 M107.500 292.667 C 108.403 293.583,109.217 294.333,109.308 294.333 C 109.400 294.333,108.736 293.583,107.833 292.667 C 106.930 291.750,106.117 291.000,106.025 291.000 C 105.933 291.000,106.597 291.750,107.500 292.667 M288.982 295.583 L 287.833 296.833 289.083 295.685 C 290.247 294.615,290.487 294.333,290.232 294.333 C 290.176 294.333,289.614 294.896,288.982 295.583 M297.494 299.417 L 294.167 302.833 297.583 299.506 C 300.757 296.416,301.152 296.000,300.910 296.000 C 300.861 296.000,299.324 297.537,297.494 299.417 M101.833 299.000 C 102.736 299.917,103.550 300.667,103.642 300.667 C 103.733 300.667,103.070 299.917,102.167 299.000 C 101.264 298.083,100.450 297.333,100.358 297.333 C 100.267 297.333,100.930 298.083,101.833 299.000 M301.827 303.083 L 298.500 306.500 301.917 303.173 C 303.796 301.343,305.333 299.806,305.333 299.756 C 305.333 299.515,304.917 299.910,301.827 303.083 M73.000 312.333 L 66.167 312.521 72.897 312.594 C 77.105 312.639,79.705 312.542,79.833 312.333 C 79.947 312.150,79.993 312.033,79.936 312.073 C 79.880 312.113,76.758 312.230,73.000 312.333 M91.268 312.582 C 93.157 312.642,96.157 312.641,97.934 312.582 C 99.712 312.522,98.167 312.473,94.500 312.473 C 90.833 312.474,89.379 312.523,91.268 312.582 M306.250 312.582 C 308.129 312.641,311.204 312.641,313.083 312.582 C 314.962 312.523,313.425 312.474,309.667 312.474 C 305.908 312.474,304.371 312.523,306.250 312.582 M326.500 312.563 C 332.255 312.802,337.668 312.812,337.667 312.583 C 337.667 312.446,334.629 312.363,330.917 312.400 C 327.204 312.436,325.217 312.509,326.500 312.563 M205.417 330.896 C 205.737 330.980,206.262 330.980,206.583 330.896 C 206.904 330.813,206.642 330.744,206.000 330.744 C 205.358 330.744,205.096 330.813,205.417 330.896 M338.154 333.750 L 336.500 335.500 338.250 333.846 C 339.212 332.936,340.000 332.149,340.000 332.096 C 340.000 331.847,339.691 332.124,338.154 333.750 M333.487 338.417 L 331.833 340.167 333.583 338.513 C 334.546 337.603,335.333 336.815,335.333 336.763 C 335.333 336.514,335.025 336.791,333.487 338.417 M199.083 339.572 C 199.588 339.648,200.412 339.648,200.917 339.572 C 201.421 339.496,201.008 339.433,200.000 339.433 C 198.992 339.433,198.579 339.496,199.083 339.572 M193.254 345.236 C 193.669 345.315,194.269 345.312,194.587 345.229 C 194.906 345.146,194.567 345.080,193.833 345.084 C 193.100 345.088,192.839 345.156,193.254 345.236 M205.254 345.236 C 205.669 345.315,206.269 345.312,206.587 345.229 C 206.906 345.146,206.567 345.080,205.833 345.084 C 205.100 345.088,204.839 345.156,205.254 345.236 M190.083 392.230 C 190.404 392.314,190.929 392.314,191.250 392.230 C 191.571 392.146,191.308 392.077,190.667 392.077 C 190.025 392.077,189.762 392.146,190.083 392.230 M208.750 392.230 C 209.071 392.314,209.596 392.314,209.917 392.230 C 210.237 392.146,209.975 392.077,209.333 392.077 C 208.692 392.077,208.429 392.146,208.750 392.230 " stroke="none" fill="#358cc7" fill-rule="evenodd"></path><path id="path4" d="M191.417 7.572 C 191.921 7.648,192.746 7.648,193.250 7.572 C 193.754 7.496,193.342 7.433,192.333 7.433 C 191.325 7.433,190.912 7.496,191.417 7.572 M206.750 7.572 C 207.254 7.648,208.079 7.648,208.583 7.572 C 209.088 7.496,208.675 7.433,207.667 7.433 C 206.658 7.433,206.246 7.496,206.750 7.572 M185.417 7.896 C 185.737 7.980,186.262 7.980,186.583 7.896 C 186.904 7.813,186.642 7.744,186.000 7.744 C 185.358 7.744,185.096 7.813,185.417 7.896 M213.083 7.896 C 213.404 7.980,213.929 7.980,214.250 7.896 C 214.571 7.813,214.308 7.744,213.667 7.744 C 213.025 7.744,212.762 7.813,213.083 7.896 M171.411 27.667 C 171.411 28.308,171.479 28.571,171.563 28.250 C 171.647 27.929,171.647 27.404,171.563 27.083 C 171.479 26.762,171.411 27.025,171.411 27.667 M135.833 41.667 C 137.476 43.317,138.894 44.667,138.986 44.667 C 139.078 44.667,137.809 43.317,136.167 41.667 C 134.524 40.017,133.106 38.667,133.014 38.667 C 132.922 38.667,134.191 40.017,135.833 41.667 M123.437 40.833 C 123.438 41.933,123.501 42.343,123.575 41.744 C 123.649 41.145,123.648 40.245,123.572 39.744 C 123.495 39.243,123.435 39.733,123.437 40.833 M210.556 43.222 C 210.433 43.344,210.336 43.607,210.338 43.806 C 210.342 44.050,210.423 44.044,210.588 43.789 C 210.723 43.581,211.133 43.336,211.500 43.244 C 212.145 43.083,212.144 43.076,211.472 43.039 C 211.090 43.017,210.678 43.100,210.556 43.222 M127.417 45.833 C 127.421 46.567,127.489 46.827,127.569 46.413 C 127.649 45.998,127.646 45.398,127.562 45.079 C 127.479 44.761,127.414 45.100,127.417 45.833 M131.858 47.031 C 132.394 47.690,132.901 48.173,132.983 48.104 C 133.065 48.035,132.626 47.496,132.007 46.906 L 130.882 45.833 131.858 47.031 M123.770 50.500 C 123.772 51.600,123.834 52.010,123.908 51.411 C 123.982 50.812,123.981 49.912,123.905 49.411 C 123.829 48.910,123.768 49.400,123.770 50.500 M197.250 56.581 C 198.762 56.643,201.237 56.643,202.750 56.581 C 204.262 56.520,203.025 56.469,200.000 56.469 C 196.975 56.469,195.737 56.520,197.250 56.581 M189.083 56.896 C 189.404 56.980,189.929 56.980,190.250 56.896 C 190.571 56.813,190.308 56.744,189.667 56.744 C 189.025 56.744,188.762 56.813,189.083 56.896 M209.750 56.896 C 210.071 56.980,210.596 56.980,210.917 56.896 C 211.237 56.813,210.975 56.744,210.333 56.744 C 209.692 56.744,209.429 56.813,209.750 56.896 M268.587 57.569 C 269.002 57.649,269.602 57.646,269.921 57.562 C 270.239 57.479,269.900 57.414,269.167 57.417 C 268.433 57.421,268.173 57.489,268.587 57.569 M68.315 59.250 L 67.167 60.500 68.417 59.351 C 69.580 58.282,69.820 58.000,69.565 58.000 C 69.510 58.000,68.947 58.563,68.315 59.250 M274.667 60.833 C 273.857 61.658,273.270 62.333,273.361 62.333 C 273.453 62.333,274.190 61.658,275.000 60.833 C 275.810 60.008,276.397 59.333,276.305 59.333 C 276.214 59.333,275.476 60.008,274.667 60.833 M335.994 63.750 C 339.239 67.078,339.667 67.485,339.667 67.244 C 339.667 67.195,338.054 65.582,336.083 63.661 L 332.500 60.167 335.994 63.750 M193.083 62.239 C 193.588 62.315,194.412 62.315,194.917 62.239 C 195.421 62.162,195.008 62.100,194.000 62.100 C 192.992 62.100,192.579 62.162,193.083 62.239 M205.088 62.239 C 205.595 62.316,206.345 62.314,206.755 62.235 C 207.165 62.156,206.750 62.093,205.833 62.095 C 204.917 62.098,204.581 62.163,205.088 62.239 M58.982 68.583 L 57.833 69.833 59.083 68.685 C 60.247 67.615,60.487 67.333,60.232 67.333 C 60.176 67.333,59.614 67.896,58.982 68.583 M197.066 70.915 C 198.661 70.976,201.361 70.976,203.066 70.915 C 204.772 70.855,203.467 70.805,200.167 70.804 C 196.867 70.804,195.472 70.854,197.066 70.915 M238.667 77.500 C 239.289 78.142,239.872 78.667,239.964 78.667 C 240.056 78.667,239.622 78.142,239.000 77.500 C 238.378 76.858,237.794 76.333,237.703 76.333 C 237.611 76.333,238.045 76.858,238.667 77.500 M94.333 78.771 C 94.333 78.828,94.821 79.316,95.417 79.854 L 96.500 80.833 95.521 79.750 C 94.608 78.740,94.333 78.513,94.333 78.771 M162.263 79.914 C 163.416 79.979,165.216 79.979,166.263 79.913 C 167.310 79.847,166.367 79.793,164.167 79.794 C 161.967 79.795,161.110 79.849,162.263 79.914 M156.750 85.563 C 157.071 85.647,157.596 85.647,157.917 85.563 C 158.237 85.479,157.975 85.411,157.333 85.411 C 156.692 85.411,156.429 85.479,156.750 85.563 M168.083 85.563 C 168.404 85.647,168.929 85.647,169.250 85.563 C 169.571 85.479,169.308 85.411,168.667 85.411 C 168.025 85.411,167.762 85.479,168.083 85.563 M253.107 94.000 C 253.107 95.192,253.167 95.679,253.241 95.083 C 253.315 94.487,253.315 93.513,253.241 92.917 C 253.167 92.321,253.107 92.808,253.107 94.000 M247.091 94.000 C 247.091 94.825,247.156 95.162,247.235 94.750 C 247.315 94.337,247.315 93.662,247.235 93.250 C 247.156 92.837,247.091 93.175,247.091 94.000 M99.821 96.750 L 98.167 98.500 99.917 96.846 C 100.879 95.936,101.667 95.149,101.667 95.096 C 101.667 94.847,101.358 95.124,99.821 96.750 M95.655 100.917 L 93.833 102.833 95.750 101.011 C 97.531 99.319,97.819 99.000,97.572 99.000 C 97.520 99.000,96.657 99.862,95.655 100.917 M298.000 102.833 C 298.996 103.842,299.886 104.667,299.977 104.667 C 300.069 104.667,299.329 103.842,298.333 102.833 C 297.338 101.825,296.448 101.000,296.356 101.000 C 296.264 101.000,297.004 101.825,298.000 102.833 M112.146 104.417 L 111.167 105.500 112.250 104.521 C 112.846 103.983,113.333 103.495,113.333 103.438 C 113.333 103.180,113.058 103.407,112.146 104.417 M286.667 104.104 C 286.667 104.162,287.154 104.649,287.750 105.188 L 288.833 106.167 287.854 105.083 C 286.942 104.074,286.667 103.847,286.667 104.104 M240.818 107.083 L 239.500 108.500 240.917 107.182 C 242.234 105.957,242.487 105.667,242.234 105.667 C 242.180 105.667,241.542 106.304,240.818 107.083 M105.479 111.083 L 104.500 112.167 105.583 111.188 C 106.593 110.275,106.820 110.000,106.562 110.000 C 106.505 110.000,106.017 110.487,105.479 111.083 M123.256 114.242 C 123.855 114.316,124.755 114.314,125.256 114.238 C 125.757 114.162,125.267 114.101,124.167 114.103 C 123.067 114.105,122.657 114.167,123.256 114.242 M130.259 114.246 C 131.512 114.334,131.949 114.483,131.778 114.768 C 131.635 115.006,131.766 114.982,132.103 114.709 C 132.939 114.031,132.853 113.994,130.583 114.062 L 128.500 114.123 130.259 114.246 M114.084 116.667 C 114.186 117.041,114.757 117.174,116.360 117.196 L 118.500 117.225 116.508 117.094 C 115.412 117.021,114.388 116.783,114.233 116.564 C 114.034 116.286,113.990 116.316,114.084 116.667 M142.265 117.054 C 142.582 117.352,146.334 117.559,146.334 117.278 C 146.334 117.157,145.365 117.007,144.182 116.945 C 142.999 116.884,142.136 116.933,142.265 117.054 M108.000 117.314 C 108.000 117.486,108.173 117.734,108.385 117.865 C 108.617 118.009,108.679 117.957,108.542 117.735 C 108.389 117.487,108.945 117.328,110.241 117.247 L 112.167 117.126 110.083 117.063 C 108.938 117.028,108.000 117.141,108.000 117.314 M136.000 117.314 C 136.000 117.486,136.173 117.734,136.385 117.865 C 136.617 118.009,136.679 117.957,136.542 117.735 C 136.389 117.487,136.945 117.328,138.241 117.247 L 140.167 117.126 138.083 117.063 C 136.938 117.028,136.000 117.141,136.000 117.314 M259.667 124.771 C 259.667 124.828,260.154 125.316,260.750 125.854 L 261.833 126.833 260.854 125.750 C 259.942 124.740,259.667 124.513,259.667 124.771 M104.300 126.768 C 104.448 126.916,105.454 126.989,106.535 126.931 L 108.500 126.825 106.265 126.662 C 105.036 126.573,104.152 126.621,104.300 126.768 M98.000 126.925 C 98.000 127.068,98.638 127.135,99.417 127.075 C 101.752 126.894,101.951 126.746,99.917 126.705 C 98.862 126.684,98.000 126.783,98.000 126.925 M258.000 131.438 C 258.000 131.495,258.487 131.983,259.083 132.521 L 260.167 133.500 259.188 132.417 C 258.275 131.407,258.000 131.180,258.000 131.438 M274.000 138.833 C 274.622 139.475,275.206 140.000,275.297 140.000 C 275.389 140.000,274.955 139.475,274.333 138.833 C 273.711 138.192,273.128 137.667,273.036 137.667 C 272.944 137.667,273.378 138.192,274.000 138.833 M266.500 139.667 C 267.216 140.400,267.877 141.000,267.969 141.000 C 268.060 141.000,267.549 140.400,266.833 139.667 C 266.117 138.933,265.456 138.333,265.365 138.333 C 265.273 138.333,265.784 138.933,266.500 139.667 M93.333 139.586 C 93.333 139.725,94.046 139.792,94.917 139.736 C 97.450 139.573,97.668 139.414,95.417 139.372 C 94.271 139.351,93.333 139.447,93.333 139.586 M100.583 139.574 C 101.179 139.648,102.154 139.648,102.750 139.574 C 103.346 139.501,102.858 139.440,101.667 139.440 C 100.475 139.440,99.987 139.501,100.583 139.574 M152.000 141.000 L 149.833 141.218 151.897 141.276 C 153.032 141.307,154.053 141.183,154.167 141.000 C 154.280 140.817,154.326 140.693,154.270 140.724 C 154.213 140.756,153.192 140.880,152.000 141.000 M156.667 141.189 C 157.803 141.443,160.333 141.487,160.333 141.252 C 160.333 141.114,159.396 141.017,158.250 141.039 C 157.104 141.060,156.392 141.128,156.667 141.189 M152.333 154.611 C 152.333 154.859,151.579 155.023,150.250 155.063 L 148.167 155.126 150.132 155.248 C 151.957 155.361,153.098 154.986,152.561 154.450 C 152.436 154.325,152.333 154.397,152.333 154.611 M155.923 155.242 C 156.522 155.316,157.422 155.314,157.923 155.238 C 158.424 155.162,157.933 155.101,156.833 155.103 C 155.733 155.105,155.324 155.167,155.923 155.242 M302.088 156.906 C 302.595 156.982,303.345 156.980,303.755 156.901 C 304.165 156.822,303.750 156.760,302.833 156.762 C 301.917 156.765,301.581 156.829,302.088 156.906 M318.333 158.104 C 318.333 158.162,318.821 158.649,319.417 159.188 L 320.500 160.167 319.521 159.083 C 318.608 158.074,318.333 157.847,318.333 158.104 M314.653 163.083 C 316.034 164.555,316.333 164.820,316.333 164.569 C 316.333 164.516,315.621 163.803,314.750 162.986 L 313.167 161.500 314.653 163.083 M104.000 164.667 C 101.563 164.912,101.649 165.087,104.167 165.005 C 105.083 164.975,105.976 164.811,106.150 164.642 C 106.324 164.472,106.399 164.359,106.317 164.391 C 106.234 164.423,105.192 164.547,104.000 164.667 M108.599 164.719 C 108.916 165.016,112.334 165.224,112.334 164.946 C 112.333 164.825,111.440 164.675,110.349 164.613 C 109.257 164.551,108.470 164.599,108.599 164.719 M81.649 169.917 L 80.500 171.167 81.750 170.018 C 82.913 168.949,83.153 168.667,82.899 168.667 C 82.843 168.667,82.281 169.229,81.649 169.917 M128.667 172.592 C 128.667 172.734,129.304 172.802,130.083 172.741 C 132.418 172.560,132.618 172.413,130.583 172.372 C 129.529 172.351,128.667 172.450,128.667 172.592 M135.917 172.574 C 136.512 172.648,137.487 172.648,138.083 172.574 C 138.679 172.501,138.192 172.440,137.000 172.440 C 135.808 172.440,135.321 172.501,135.917 172.574 M164.982 179.250 L 163.833 180.500 165.083 179.351 C 166.247 178.282,166.487 178.000,166.232 178.000 C 166.176 178.000,165.614 178.563,164.982 179.250 M7.744 186.000 C 7.744 186.642,7.813 186.904,7.896 186.583 C 7.980 186.262,7.980 185.737,7.896 185.417 C 7.813 185.096,7.744 185.358,7.744 186.000 M392.077 188.667 C 392.077 189.308,392.146 189.571,392.230 189.250 C 392.314 188.929,392.314 188.404,392.230 188.083 C 392.146 187.762,392.077 188.025,392.077 188.667 M338.077 190.667 C 338.077 191.308,338.146 191.571,338.230 191.250 C 338.314 190.929,338.314 190.404,338.230 190.083 C 338.146 189.762,338.077 190.025,338.077 190.667 M7.437 192.167 C 7.438 193.267,7.501 193.676,7.575 193.077 C 7.649 192.478,7.648 191.578,7.572 191.077 C 7.495 190.576,7.435 191.067,7.437 192.167 M55.744 192.000 C 55.744 192.642,55.813 192.904,55.896 192.583 C 55.980 192.262,55.980 191.737,55.896 191.417 C 55.813 191.096,55.744 191.358,55.744 192.000 M344.100 195.000 C 344.100 196.008,344.162 196.421,344.239 195.917 C 344.315 195.412,344.315 194.588,344.239 194.083 C 344.162 193.579,344.100 193.992,344.100 195.000 M329.762 195.833 C 329.765 196.750,329.829 197.085,329.906 196.579 C 329.982 196.072,329.980 195.322,329.901 194.912 C 329.822 194.502,329.760 194.917,329.762 195.833 M392.469 200.000 C 392.469 203.025,392.520 204.262,392.581 202.750 C 392.643 201.237,392.643 198.762,392.581 197.250 C 392.520 195.737,392.469 196.975,392.469 200.000 M61.132 200.667 C 61.132 203.325,61.184 204.412,61.248 203.083 C 61.311 201.754,61.311 199.579,61.248 198.250 C 61.184 196.921,61.132 198.008,61.132 200.667 M338.463 200.167 C 338.463 202.550,338.517 203.481,338.581 202.236 C 338.645 200.991,338.645 199.041,338.580 197.903 C 338.515 196.765,338.462 197.783,338.463 200.167 M178.077 205.000 C 178.077 205.642,178.146 205.904,178.230 205.583 C 178.314 205.262,178.314 204.737,178.230 204.417 C 178.146 204.096,178.077 204.358,178.077 205.000 M344.103 206.500 C 344.105 207.600,344.167 208.010,344.242 207.411 C 344.316 206.812,344.314 205.912,344.238 205.411 C 344.162 204.910,344.101 205.400,344.103 206.500 M329.762 206.500 C 329.765 207.417,329.829 207.752,329.906 207.245 C 329.982 206.739,329.980 205.989,329.901 205.579 C 329.822 205.169,329.760 205.583,329.762 206.500 M7.433 207.667 C 7.433 208.675,7.496 209.088,7.572 208.583 C 7.648 208.079,7.648 207.254,7.572 206.750 C 7.496 206.246,7.433 206.658,7.433 207.667 M70.077 208.667 C 70.077 209.308,70.146 209.571,70.230 209.250 C 70.314 208.929,70.314 208.404,70.230 208.083 C 70.146 207.762,70.077 208.025,70.077 208.667 M179.812 209.417 L 178.833 210.500 179.917 209.521 C 180.512 208.983,181.000 208.495,181.000 208.438 C 181.000 208.180,180.725 208.407,179.812 209.417 M55.744 209.667 C 55.744 210.308,55.813 210.571,55.896 210.250 C 55.980 209.929,55.980 209.404,55.896 209.083 C 55.813 208.762,55.744 209.025,55.744 209.667 M177.744 209.667 C 177.744 210.308,177.813 210.571,177.896 210.250 C 177.980 209.929,177.980 209.404,177.896 209.083 C 177.813 208.762,177.744 209.025,177.744 209.667 M338.077 210.000 C 338.077 210.642,338.146 210.904,338.230 210.583 C 338.314 210.262,338.314 209.737,338.230 209.417 C 338.146 209.096,338.077 209.358,338.077 210.000 M61.411 210.333 C 61.411 210.975,61.479 211.237,61.563 210.917 C 61.647 210.596,61.647 210.071,61.563 209.750 C 61.479 209.429,61.411 209.692,61.411 210.333 M392.077 211.333 C 392.077 211.975,392.146 212.237,392.230 211.917 C 392.314 211.596,392.314 211.071,392.230 210.750 C 392.146 210.429,392.077 210.692,392.077 211.333 M7.744 213.667 C 7.744 214.308,7.813 214.571,7.896 214.250 C 7.980 213.929,7.980 213.404,7.896 213.083 C 7.813 212.762,7.744 213.025,7.744 213.667 M151.112 218.333 C 151.112 219.708,151.171 220.271,151.243 219.583 C 151.315 218.896,151.315 217.771,151.243 217.083 C 151.171 216.396,151.112 216.958,151.112 218.333 M185.083 216.896 C 185.404 216.980,185.929 216.980,186.250 216.896 C 186.571 216.813,186.308 216.744,185.667 216.744 C 185.025 216.744,184.762 216.813,185.083 216.896 M151.109 223.833 C 151.111 225.117,151.171 225.601,151.243 224.909 C 151.315 224.218,151.314 223.168,151.241 222.576 C 151.167 221.984,151.108 222.550,151.109 223.833 M255.144 228.330 C 255.162 230.004,255.280 230.501,255.667 230.529 C 255.942 230.548,255.986 230.503,255.765 230.427 C 255.528 230.347,255.313 229.442,255.242 228.228 L 255.121 226.167 255.144 228.330 M289.479 227.417 L 288.500 228.500 289.583 227.521 C 290.179 226.983,290.667 226.495,290.667 226.438 C 290.667 226.180,290.392 226.407,289.479 227.417 M178.448 234.500 C 178.449 235.967,178.507 236.525,178.578 235.741 C 178.648 234.957,178.647 233.757,178.576 233.075 C 178.504 232.392,178.446 233.033,178.448 234.500 M193.467 237.167 C 193.467 239.917,193.519 240.997,193.581 239.568 C 193.644 238.139,193.644 235.889,193.581 234.568 C 193.517 233.247,193.466 234.417,193.467 237.167 M219.757 234.667 C 219.757 235.492,219.822 235.829,219.902 235.417 C 219.981 235.004,219.981 234.329,219.902 233.917 C 219.822 233.504,219.757 233.842,219.757 234.667 M285.308 234.914 C 284.627 235.685,284.615 235.732,285.230 235.214 L 285.961 234.599 286.087 236.216 L 286.213 237.833 286.273 235.917 C 286.343 233.697,286.364 233.719,285.308 234.914 M260.078 245.892 C 260.006 254.836,259.953 255.630,259.417 255.770 C 258.870 255.913,258.871 255.925,259.427 255.961 C 260.334 256.020,260.350 255.814,260.250 245.662 L 260.156 236.167 260.078 245.892 M221.109 243.167 C 221.111 244.450,221.171 244.934,221.243 244.243 C 221.315 243.551,221.314 242.501,221.241 241.909 C 221.167 241.317,221.108 241.883,221.109 243.167 M178.445 244.333 C 178.445 245.708,178.504 246.271,178.576 245.583 C 178.648 244.896,178.648 243.771,178.576 243.083 C 178.504 242.396,178.445 242.958,178.445 244.333 M273.798 251.167 C 273.799 253.733,273.851 254.739,273.914 253.402 C 273.978 252.065,273.977 249.965,273.914 248.735 C 273.850 247.506,273.798 248.600,273.798 251.167 M135.326 251.583 L 132.500 254.500 135.417 251.674 C 138.126 249.049,138.485 248.667,138.243 248.667 C 138.193 248.667,136.880 249.979,135.326 251.583 M132.440 256.667 C 132.440 257.858,132.501 258.346,132.574 257.750 C 132.648 257.154,132.648 256.179,132.574 255.583 C 132.501 254.987,132.440 255.475,132.440 256.667 M253.479 257.083 L 252.500 258.167 253.583 257.188 C 254.593 256.275,254.820 256.000,254.562 256.000 C 254.505 256.000,254.017 256.487,253.479 257.083 M276.737 256.208 C 277.199 256.345,277.329 256.879,277.425 259.023 L 277.543 261.669 277.522 258.921 C 277.502 256.427,277.439 256.168,276.833 256.106 C 276.340 256.056,276.315 256.082,276.737 256.208 M226.333 257.833 C 226.955 258.475,227.539 259.000,227.631 259.000 C 227.722 259.000,227.289 258.475,226.667 257.833 C 226.045 257.192,225.461 256.667,225.369 256.667 C 225.278 256.667,225.711 257.192,226.333 257.833 M184.921 258.236 C 185.335 258.315,185.935 258.312,186.254 258.229 C 186.573 258.146,186.233 258.080,185.500 258.084 C 184.767 258.088,184.506 258.156,184.921 258.236 M134.906 260.551 C 133.663 261.765,132.697 262.808,132.758 262.869 C 132.820 262.931,133.908 261.935,135.176 260.657 C 136.444 259.379,137.411 258.336,137.324 258.339 C 137.238 258.343,136.150 259.338,134.906 260.551 M296.909 262.907 C 297.501 262.981,298.551 262.982,299.243 262.910 C 299.934 262.838,299.450 262.778,298.167 262.776 C 296.883 262.775,296.317 262.834,296.909 262.907 M186.592 268.244 C 187.376 268.315,188.576 268.314,189.259 268.242 C 189.941 268.171,189.300 268.113,187.833 268.114 C 186.367 268.115,185.808 268.174,186.592 268.244 M123.823 272.083 L 121.833 274.167 123.917 272.177 C 125.852 270.329,126.153 270.000,125.906 270.000 C 125.855 270.000,124.917 270.938,123.823 272.083 M113.821 273.750 L 112.167 275.500 113.917 273.846 C 114.879 272.936,115.667 272.149,115.667 272.096 C 115.667 271.847,115.358 272.124,113.821 273.750 M116.151 280.083 L 114.833 281.500 116.250 280.182 C 117.567 278.957,117.820 278.667,117.568 278.667 C 117.513 278.667,116.876 279.304,116.151 280.083 M107.333 280.500 C 106.524 281.325,105.936 282.000,106.028 282.000 C 106.120 282.000,106.857 281.325,107.667 280.500 C 108.476 279.675,109.064 279.000,108.972 279.000 C 108.880 279.000,108.143 279.675,107.333 280.500 M110.151 286.417 L 108.833 287.833 110.250 286.516 C 111.567 285.290,111.820 285.000,111.568 285.000 C 111.513 285.000,110.876 285.637,110.151 286.417 M291.821 292.750 L 290.167 294.500 291.917 292.846 C 293.543 291.309,293.820 291.000,293.571 291.000 C 293.518 291.000,292.731 291.787,291.821 292.750 M98.833 296.000 C 99.549 296.733,100.210 297.333,100.302 297.333 C 100.394 297.333,99.883 296.733,99.167 296.000 C 98.451 295.267,97.790 294.667,97.698 294.667 C 97.606 294.667,98.117 295.267,98.833 296.000 M97.661 302.750 C 99.582 304.721,101.195 306.333,101.244 306.333 C 101.485 306.333,101.078 305.906,97.750 302.661 L 94.167 299.167 97.661 302.750 M104.667 301.833 C 105.289 302.475,105.872 303.000,105.964 303.000 C 106.056 303.000,105.622 302.475,105.000 301.833 C 104.378 301.192,103.794 300.667,103.703 300.667 C 103.611 300.667,104.045 301.192,104.667 301.833 M219.812 308.417 L 218.833 309.500 219.917 308.521 C 220.512 307.983,221.000 307.495,221.000 307.438 C 221.000 307.180,220.725 307.407,219.812 308.417 M215.479 312.750 L 214.500 313.833 215.583 312.854 C 216.179 312.316,216.667 311.828,216.667 311.771 C 216.667 311.513,216.392 311.740,215.479 312.750 M340.812 331.083 L 339.833 332.167 340.917 331.188 C 341.926 330.275,342.153 330.000,341.896 330.000 C 341.838 330.000,341.351 330.487,340.812 331.083 M201.259 330.911 C 202.043 330.982,203.243 330.981,203.925 330.909 C 204.608 330.837,203.967 330.780,202.500 330.781 C 201.033 330.782,200.475 330.841,201.259 330.911 M63.661 336.083 C 65.582 338.054,67.195 339.667,67.244 339.667 C 67.485 339.667,67.078 339.239,63.750 335.994 L 60.167 332.500 63.661 336.083 M194.592 339.578 C 195.376 339.648,196.576 339.647,197.259 339.576 C 197.941 339.504,197.300 339.446,195.833 339.448 C 194.367 339.449,193.808 339.507,194.592 339.578 M202.576 339.574 C 203.168 339.648,204.218 339.649,204.909 339.577 C 205.601 339.504,205.117 339.444,203.833 339.443 C 202.550 339.441,201.984 339.500,202.576 339.574 M330.812 341.083 L 329.833 342.167 330.917 341.188 C 331.512 340.649,332.000 340.162,332.000 340.104 C 332.000 339.847,331.725 340.074,330.812 341.083 M209.417 344.896 C 209.737 344.980,210.262 344.980,210.583 344.896 C 210.904 344.813,210.642 344.744,210.000 344.744 C 209.358 344.744,209.096 344.813,209.417 344.896 M197.432 345.248 C 198.861 345.311,201.111 345.310,202.432 345.247 C 203.753 345.184,202.583 345.133,199.833 345.133 C 197.083 345.134,196.003 345.185,197.432 345.248 M146.167 356.333 L 139.500 356.521 146.064 356.594 C 150.160 356.639,152.705 356.541,152.833 356.333 C 152.947 356.150,152.993 356.033,152.936 356.073 C 152.880 356.113,149.833 356.230,146.167 356.333 M234.833 356.333 L 228.167 356.521 234.730 356.594 C 238.827 356.639,241.371 356.541,241.500 356.333 C 241.613 356.150,241.660 356.033,241.603 356.073 C 241.546 356.113,238.500 356.230,234.833 356.333 M166.932 356.583 C 171.908 356.659,173.308 356.774,173.118 357.091 C 172.959 357.355,173.072 357.338,173.436 357.043 C 173.746 356.791,174.000 356.528,174.000 356.459 C 174.000 356.390,170.963 356.367,167.250 356.409 L 160.500 356.485 166.932 356.583 M255.599 356.583 C 260.574 356.659,261.975 356.774,261.785 357.091 C 261.626 357.355,261.738 357.338,262.103 357.043 C 262.413 356.791,262.667 356.528,262.667 356.459 C 262.667 356.390,259.629 356.367,255.917 356.409 L 249.167 356.485 255.599 356.583 M188.083 392.230 C 188.404 392.314,188.929 392.314,189.250 392.230 C 189.571 392.146,189.308 392.077,188.667 392.077 C 188.025 392.077,187.762 392.146,188.083 392.230 M210.750 392.230 C 211.071 392.314,211.596 392.314,211.917 392.230 C 212.237 392.146,211.975 392.077,211.333 392.077 C 210.692 392.077,210.429 392.146,210.750 392.230 M197.250 392.581 C 198.762 392.643,201.237 392.643,202.750 392.581 C 204.262 392.520,203.025 392.469,200.000 392.469 C 196.975 392.469,195.737 392.520,197.250 392.581 " stroke="none" fill="#8ebfdf" fill-rule="evenodd"></path></g></svg>