<svg id="svg" version="1.1" xmlns="http://www.w3.org/2000/svg" xmlns:xlink="http://www.w3.org/1999/xlink" width="400" height="404.6666666666667" viewBox="0, 0, 400,404.6666666666667"><g id="svgg"><path id="path0" d="M257.157 33.361 C 250.379 40.152,244.570 45.854,244.248 46.033 C 243.791 46.288,238.657 44.111,220.748 36.071 C 208.145 30.413,197.774 25.829,197.702 25.884 C 197.630 25.940,196.172 35.159,194.462 46.372 C 192.752 57.584,191.282 66.829,191.196 66.915 C 191.110 67.001,181.945 69.066,170.828 71.505 C 159.711 73.944,150.568 75.991,150.510 76.053 C 150.452 76.116,155.788 79.390,162.369 83.331 C 168.949 87.271,174.333 90.572,174.333 90.668 C 174.333 90.763,168.929 93.539,162.323 96.837 C 150.816 102.582,150.366 102.842,151.573 103.040 C 152.266 103.154,156.855 103.591,161.771 104.012 L 170.708 104.777 169.937 105.511 C 169.513 105.914,150.717 120.535,128.167 138.001 C 84.002 172.210,85.129 171.316,88.333 169.574 C 89.525 168.926,107.525 159.365,128.333 148.328 C 149.142 137.291,167.254 127.666,168.583 126.940 C 169.912 126.214,171.000 125.694,171.000 125.785 C 171.000 125.875,150.862 141.283,126.250 160.025 C 101.638 178.766,81.275 194.318,81.000 194.584 C 80.299 195.263,79.406 195.722,128.167 170.332 C 173.960 146.488,177.384 144.724,176.833 145.248 C 176.650 145.422,153.550 162.782,125.500 183.826 C 97.450 204.869,74.350 222.233,74.167 222.413 C 73.627 222.943,74.417 222.525,132.128 191.775 C 162.540 175.570,187.466 162.355,187.518 162.407 C 187.571 162.460,161.126 181.702,128.753 205.168 C 96.380 228.634,69.579 248.107,69.196 248.442 C 68.307 249.220,60.086 253.687,135.071 212.642 C 171.212 192.858,200.820 176.709,200.867 176.756 C 200.913 176.802,180.787 193.094,156.142 212.960 C 131.497 232.826,111.333 249.150,111.333 249.234 C 111.333 249.319,111.821 249.089,112.417 248.723 C 119.008 244.679,220.523 186.735,220.602 186.972 C 220.660 187.148,220.323 189.950,219.852 193.199 C 219.381 196.448,219.039 199.150,219.092 199.203 C 219.145 199.256,223.227 197.041,228.163 194.279 C 235.869 189.969,237.227 189.315,237.765 189.651 C 238.110 189.866,246.741 197.949,256.946 207.612 C 267.151 217.275,276.333 225.959,277.351 226.910 L 279.201 228.638 290.325 195.153 C 300.319 165.067,301.519 161.666,302.141 161.663 C 302.522 161.662,309.658 161.214,318.000 160.668 C 326.342 160.123,333.266 159.675,333.387 159.672 C 333.507 159.669,329.945 150.569,325.470 139.449 C 320.995 128.329,317.333 119.208,317.333 119.180 C 317.333 119.153,323.841 114.038,331.795 107.815 C 339.749 101.592,346.217 96.456,346.170 96.403 C 346.122 96.349,337.729 93.027,327.520 89.020 C 317.310 85.013,308.886 81.664,308.800 81.578 C 308.714 81.492,310.769 72.471,313.365 61.532 C 315.961 50.592,318.018 41.573,317.935 41.491 C 317.853 41.408,310.695 44.576,302.029 48.529 C 293.363 52.482,286.236 55.668,286.191 55.609 C 286.147 55.549,282.463 47.850,278.006 38.500 C 273.549 29.150,269.808 21.391,269.692 21.257 C 269.576 21.124,263.936 26.571,257.157 33.361 M255.350 50.184 C 266.190 51.695,278.393 57.004,287.667 64.241 C 290.745 66.643,293.931 69.449,293.968 69.791 C 293.986 69.951,294.862 71.005,295.917 72.133 C 300.058 76.565,303.333 81.540,307.635 89.936 C 310.447 95.423,313.205 108.842,313.095 116.500 C 312.312 170.913,253.859 202.694,209.000 173.097 C 174.672 150.448,168.543 103.786,195.742 72.167 C 209.617 56.036,233.683 47.162,255.350 50.184 M53.570 269.874 C 53.456 269.989,53.746 270.585,54.215 271.200 L 55.067 272.317 52.533 282.507 C 51.140 288.111,50.000 292.839,50.000 293.015 C 50.000 293.371,56.758 293.465,57.110 293.113 C 57.231 292.991,56.963 292.411,56.515 291.824 L 55.701 290.756 56.379 287.878 C 56.752 286.295,57.209 285.000,57.395 285.000 C 57.581 285.000,60.081 284.251,62.950 283.336 L 68.167 281.672 69.091 277.753 C 69.599 275.597,70.095 273.533,70.192 273.166 C 70.306 272.732,69.988 272.005,69.279 271.083 L 68.191 269.667 60.984 269.667 C 57.021 269.667,53.684 269.760,53.570 269.874 M95.333 270.013 C 95.333 270.204,95.650 270.789,96.037 271.312 L 96.740 272.264 94.204 282.646 C 92.808 288.357,91.667 293.098,91.667 293.181 C 91.667 293.265,92.836 293.333,94.266 293.333 L 96.865 293.333 98.016 288.585 L 99.167 283.837 101.596 283.375 C 104.646 282.796,104.511 282.330,103.019 288.259 L 101.742 293.333 105.315 293.333 C 109.425 293.333,109.606 293.253,108.491 291.928 C 107.451 290.693,107.270 291.951,110.167 280.311 C 111.542 274.787,112.667 270.132,112.667 269.967 C 112.667 269.802,111.496 269.667,110.065 269.667 L 107.463 269.667 106.481 273.917 L 105.500 278.167 103.077 278.799 C 99.989 279.605,100.081 279.852,101.424 274.360 L 102.572 269.667 98.953 269.667 C 96.668 269.667,95.333 269.795,95.333 270.013 M140.418 271.045 C 139.170 272.027,138.576 272.768,138.348 273.628 C 137.275 277.659,134.333 289.836,134.333 290.246 C 134.333 290.516,134.796 291.321,135.361 292.035 L 136.389 293.333 141.278 293.323 L 146.167 293.312 147.885 291.739 L 149.603 290.167 151.772 281.333 L 153.941 272.500 152.845 271.167 L 151.748 269.833 146.957 269.750 L 142.167 269.668 140.418 271.045 M179.191 269.961 C 179.091 270.123,179.307 270.634,179.671 271.097 C 180.035 271.560,180.333 272.169,180.333 272.451 C 180.333 272.904,175.937 291.253,175.470 292.750 C 175.301 293.293,175.773 293.333,182.254 293.333 L 189.220 293.333 189.800 290.634 C 190.487 287.438,190.396 287.250,188.833 288.622 C 187.689 289.626,187.528 289.667,184.655 289.667 C 181.324 289.667,181.452 289.799,182.132 287.048 C 182.388 286.013,182.691 284.754,182.805 284.250 C 183.009 283.351,183.060 283.333,185.494 283.333 L 187.974 283.333 188.337 281.917 C 188.536 281.137,188.762 280.313,188.839 280.083 C 188.943 279.775,188.333 279.667,186.490 279.667 C 185.120 279.667,184.000 279.586,184.000 279.488 C 184.000 279.390,184.318 278.040,184.708 276.488 L 185.415 273.667 188.350 273.667 C 191.084 273.667,191.330 273.724,191.940 274.500 C 192.301 274.958,192.739 275.333,192.913 275.333 C 193.180 275.333,194.333 270.996,194.333 269.991 C 194.333 269.579,179.445 269.549,179.191 269.961 M220.837 270.083 C 220.589 270.810,215.333 292.733,215.333 293.040 C 215.333 293.201,216.496 293.333,217.917 293.332 L 220.500 293.331 222.849 283.582 L 225.198 273.833 227.793 273.735 C 230.156 273.646,230.372 273.691,230.210 274.235 C 229.951 275.108,225.667 292.953,225.667 293.159 C 225.667 293.470,232.621 293.343,232.816 293.028 C 232.920 292.860,232.640 292.290,232.195 291.761 L 231.386 290.799 233.526 282.022 C 236.026 271.773,235.941 272.609,234.639 270.965 L 233.611 269.667 227.295 269.667 C 222.540 269.667,220.944 269.770,220.837 270.083 M261.333 269.974 C 261.333 270.144,261.707 270.727,262.165 271.270 L 262.996 272.258 260.498 282.431 C 259.124 288.026,258.000 292.768,258.000 292.968 C 258.000 293.360,264.714 293.508,265.097 293.126 C 265.211 293.011,264.935 292.433,264.483 291.841 L 263.661 290.764 266.164 280.522 C 267.540 274.889,268.667 270.142,268.667 269.973 C 268.667 269.805,267.017 269.667,265.000 269.667 C 262.981 269.667,261.333 269.805,261.333 269.974 M293.873 269.935 C 293.775 270.095,294.284 270.663,295.006 271.196 C 296.398 272.226,296.327 272.059,298.198 278.717 L 299.102 281.933 296.317 285.550 C 294.786 287.539,292.799 290.104,291.903 291.250 L 290.272 293.333 292.745 293.333 L 295.218 293.333 297.650 290.000 C 300.603 285.953,300.360 285.959,301.378 289.917 L 302.214 293.167 305.662 293.262 C 309.711 293.375,310.269 293.083,308.259 291.905 C 306.867 291.089,306.769 290.925,305.902 287.944 C 305.404 286.233,304.784 284.132,304.522 283.275 L 304.047 281.717 308.453 276.109 C 310.876 273.024,312.974 270.313,313.115 270.083 C 313.312 269.764,312.790 269.667,310.885 269.667 L 308.397 269.667 305.794 273.167 C 302.645 277.400,302.978 277.393,301.973 273.250 L 301.145 269.833 297.599 269.739 C 295.649 269.687,293.972 269.775,293.873 269.935 M64.667 274.126 C 64.667 274.378,64.425 275.654,64.130 276.960 L 63.594 279.336 61.880 279.821 C 57.730 280.994,57.980 281.266,59.060 276.750 L 59.798 273.667 62.232 273.667 C 64.078 273.667,64.667 273.778,64.667 274.126 M148.308 274.083 C 148.295 274.313,147.432 277.875,146.392 282.000 L 144.500 289.500 142.083 289.598 C 140.170 289.675,139.667 289.597,139.667 289.222 C 139.667 288.799,142.758 275.701,143.200 274.250 C 143.424 273.517,148.352 273.356,148.308 274.083 M48.667 307.868 C 45.642 310.351,43.056 312.634,42.921 312.942 C 42.735 313.367,36.469 337.810,36.218 339.094 C 36.190 339.238,43.817 342.567,53.167 346.492 C 64.440 351.225,70.204 353.807,70.276 354.158 C 70.337 354.449,69.384 358.733,68.158 363.677 L 65.930 372.667 56.965 372.667 C 51.904 372.667,48.000 372.537,48.000 372.368 C 48.000 372.204,48.442 370.221,48.983 367.962 C 49.523 365.702,49.935 363.833,49.899 363.808 C 49.252 363.358,32.198 355.691,32.088 355.801 C 31.742 356.147,27.315 374.471,27.476 374.891 C 27.571 375.139,29.037 377.290,30.733 379.671 L 33.817 384.000 54.126 384.000 L 74.435 384.000 79.255 380.083 C 81.906 377.929,84.439 375.867,84.883 375.500 C 85.577 374.928,86.179 372.919,89.142 361.280 L 92.593 347.727 75.346 340.496 L 58.098 333.264 60.424 323.965 L 62.750 314.667 71.708 314.667 C 76.635 314.667,80.667 314.746,80.667 314.842 C 80.667 314.939,80.197 316.894,79.623 319.187 C 79.048 321.480,78.659 323.437,78.758 323.535 C 79.454 324.232,96.533 331.545,96.704 331.220 C 96.816 331.007,97.932 326.696,99.184 321.639 L 101.460 312.445 98.147 307.900 L 94.833 303.355 74.500 303.354 L 54.167 303.353 48.667 307.868 M181.165 303.750 C 181.053 304.067,168.964 351.935,161.845 380.255 L 161.069 383.343 171.264 383.255 L 181.459 383.167 190.000 349.000 L 198.541 314.833 207.604 314.745 C 214.367 314.678,216.667 314.755,216.667 315.047 C 216.667 315.262,212.842 330.626,208.167 349.189 C 203.492 367.753,199.667 383.029,199.667 383.137 C 199.667 383.742,225.269 383.325,226.032 382.708 L 226.804 382.083 224.290 378.616 L 221.776 375.149 229.549 344.158 C 233.825 327.113,237.326 312.963,237.328 312.714 C 237.331 312.464,235.871 310.255,234.083 307.805 L 230.833 303.350 206.073 303.342 C 186.559 303.335,181.281 303.422,181.165 303.750 M252.667 307.888 C 247.448 312.178,247.140 312.497,246.650 314.121 C 245.596 317.610,240.187 339.297,240.341 339.417 C 240.428 339.486,248.150 342.736,257.500 346.640 C 266.850 350.544,274.526 353.761,274.559 353.789 C 274.591 353.817,273.654 357.738,272.477 362.503 C 271.300 367.268,270.259 371.504,270.162 371.917 L 269.987 372.667 260.994 372.667 C 252.648 372.667,252.001 372.625,252.007 372.083 C 252.011 371.762,252.453 369.780,252.990 367.677 C 253.526 365.574,253.935 363.831,253.899 363.802 C 253.387 363.403,236.211 355.678,236.095 355.794 C 235.922 355.967,231.357 373.934,231.342 374.501 C 231.333 374.830,236.516 382.246,237.565 383.405 C 238.070 383.964,239.341 384.000,258.316 384.000 L 278.528 384.000 284.154 379.402 L 289.781 374.804 293.187 361.319 C 295.061 353.902,296.552 347.788,296.501 347.732 C 296.451 347.677,288.855 344.469,279.621 340.604 C 270.388 336.740,262.701 333.458,262.540 333.312 C 262.374 333.162,263.243 329.039,264.533 323.856 L 266.821 314.667 275.744 314.667 C 281.799 314.667,284.667 314.780,284.667 315.019 C 284.667 315.214,284.210 317.182,283.652 319.393 C 283.093 321.605,282.693 323.471,282.762 323.540 C 283.205 323.983,300.540 331.565,300.703 331.387 C 300.957 331.113,305.333 313.544,305.333 312.801 C 305.333 312.504,303.872 310.252,302.085 307.797 L 298.836 303.333 278.502 303.350 L 258.167 303.367 252.667 307.888 M106.917 304.253 C 105.696 305.009,105.672 304.935,108.266 308.439 C 109.513 310.122,110.630 311.661,110.750 311.858 C 110.869 312.055,107.382 326.295,103.000 343.502 L 95.032 374.788 98.247 379.144 C 100.015 381.540,101.620 383.610,101.814 383.745 C 102.280 384.068,151.249 384.073,151.447 383.750 C 151.595 383.508,171.667 304.180,171.667 303.837 C 171.667 303.743,167.092 303.667,161.500 303.667 C 155.908 303.667,151.333 303.743,151.333 303.836 C 151.333 303.929,147.433 319.387,142.667 338.186 C 137.900 356.985,134.000 372.434,134.000 372.516 C 134.000 372.599,129.950 372.667,125.000 372.667 C 116.817 372.667,116.000 372.616,116.000 372.110 C 116.000 371.804,119.825 356.449,124.500 337.987 C 129.175 319.525,133.000 304.251,133.000 304.043 C 133.000 303.347,108.055 303.547,106.917 304.253 " stroke="none" fill="#e8a862" fill-rule="evenodd"></path><path id="path1" d="M134.667 0.491 C 113.013 3.320,98.706 14.360,92.538 33.000 C 91.901 34.925,83.110 69.500,73.002 109.833 C 62.894 150.167,50.069 201.317,44.500 223.500 C -3.287 413.868,-0.641 402.983,0.610 404.115 C 1.175 404.627,11.496 404.667,142.380 404.667 L 283.542 404.667 286.422 403.693 C 297.122 400.076,306.289 391.171,309.956 380.833 C 310.346 379.733,313.356 367.433,316.645 353.500 C 319.933 339.567,326.317 312.567,330.831 293.500 C 335.345 274.433,342.020 246.233,345.664 230.833 C 349.309 215.433,356.286 185.958,361.169 165.333 C 366.051 144.708,373.099 114.933,376.831 99.167 C 402.337 -8.607,399.944 2.247,398.515 0.818 L 397.697 0.000 267.765 0.038 C 166.416 0.069,137.137 0.168,134.667 0.491 M396.000 3.307 C 396.000 4.620,307.154 378.817,306.348 380.901 C 302.517 390.798,292.404 399.210,281.562 401.517 C 279.059 402.049,3.333 402.276,3.333 401.745 C 3.333 400.990,95.088 35.783,95.781 33.780 C 102.241 15.106,117.121 4.788,139.833 3.234 C 143.943 2.953,396.000 3.025,396.000 3.307 M146.000 16.044 C 127.004 17.589,116.015 25.778,110.272 42.667 C 109.598 44.649,58.838 245.104,56.145 256.419 L 55.926 257.339 178.213 257.252 C 296.332 257.168,300.574 257.144,302.667 256.545 C 311.985 253.876,320.392 246.533,323.836 238.057 C 324.296 236.926,336.008 187.018,349.995 126.588 C 363.924 66.406,375.402 16.829,375.500 16.417 L 375.679 15.667 262.590 15.713 C 200.390 15.739,147.925 15.888,146.000 16.044 M371.903 19.417 C 371.606 21.166,323.044 231.261,322.320 233.930 C 319.595 243.977,310.422 252.304,300.000 254.191 C 297.830 254.584,59.321 254.973,59.337 254.583 C 59.407 252.874,112.938 43.299,113.967 40.706 C 119.348 27.147,128.992 20.384,145.333 18.712 C 146.892 18.552,198.549 18.402,260.127 18.378 L 372.087 18.333 371.903 19.417 M185.259 279.578 C 186.043 279.648,187.243 279.647,187.925 279.576 C 188.608 279.504,187.967 279.446,186.500 279.448 C 185.033 279.449,184.475 279.507,185.259 279.578 M140.750 289.576 C 141.438 289.648,142.563 289.648,143.250 289.576 C 143.938 289.504,143.375 289.445,142.000 289.445 C 140.625 289.445,140.063 289.504,140.750 289.576 M183.083 289.578 C 183.954 289.647,185.379 289.647,186.250 289.578 C 187.121 289.510,186.408 289.453,184.667 289.453 C 182.925 289.453,182.213 289.510,183.083 289.578 M52.417 372.583 C 54.938 372.639,59.063 372.639,61.583 372.583 C 64.104 372.526,62.042 372.480,57.000 372.480 C 51.958 372.480,49.896 372.526,52.417 372.583 M120.417 372.583 C 122.938 372.639,127.063 372.639,129.583 372.583 C 132.104 372.526,130.042 372.480,125.000 372.480 C 119.958 372.480,117.896 372.526,120.417 372.583 M256.417 372.583 C 258.938 372.639,263.063 372.639,265.583 372.583 C 268.104 372.526,266.042 372.480,261.000 372.480 C 255.958 372.480,253.896 372.526,256.417 372.583 M171.167 383.333 L 160.833 383.515 171.064 383.591 C 177.608 383.639,181.368 383.547,181.500 383.333 C 181.613 383.150,181.660 383.034,181.603 383.076 C 181.546 383.118,176.850 383.234,171.167 383.333 M212.500 383.333 L 199.500 383.512 212.397 383.589 C 220.720 383.639,225.367 383.548,225.500 383.333 C 225.613 383.150,225.660 383.035,225.603 383.077 C 225.546 383.120,219.650 383.235,212.500 383.333 " stroke="none" fill="#64747c" fill-rule="evenodd"></path><path id="path2" d="M135.333 3.824 C 114.234 6.581,101.013 17.064,95.383 35.500 C 94.823 37.333,73.951 120.283,49.001 219.833 C 24.051 319.383,3.559 401.097,3.462 401.419 C 3.295 401.977,9.807 402.001,141.893 401.919 L 280.500 401.833 283.167 401.089 C 293.987 398.067,303.797 388.984,306.844 379.167 C 307.421 377.307,378.907 75.776,395.490 5.250 L 395.941 3.333 267.220 3.372 C 166.836 3.402,137.803 3.501,135.333 3.824 M375.546 16.687 C 373.710 25.869,324.686 236.125,323.946 237.995 C 320.489 246.724,311.479 254.474,302.235 256.669 C 299.460 257.328,298.320 257.333,177.611 257.250 L 55.787 257.167 82.392 151.673 C 97.024 93.651,109.529 44.582,110.179 42.630 C 115.613 26.322,126.132 18.133,144.333 16.041 C 145.708 15.883,198.340 15.734,261.292 15.710 L 375.750 15.667 375.546 16.687 M146.864 18.699 C 128.434 20.217,118.191 27.779,113.045 43.667 C 112.145 46.443,59.667 253.268,59.667 254.036 C 59.667 254.756,298.990 254.393,301.863 253.669 C 310.513 251.488,318.572 244.332,321.456 236.270 C 322.098 234.477,372.000 19.468,372.000 18.497 C 372.000 18.214,150.333 18.413,146.864 18.699 M278.011 38.094 C 282.459 47.404,286.223 55.098,286.375 55.192 C 286.527 55.286,293.731 52.133,302.385 48.185 C 311.038 44.238,318.175 41.064,318.244 41.133 C 318.313 41.202,316.262 50.134,313.685 60.982 C 311.108 71.829,309.000 80.899,309.000 81.136 C 309.000 81.398,316.361 84.447,327.663 88.867 C 337.927 92.882,346.327 96.271,346.329 96.399 C 346.332 96.526,340.221 101.419,332.750 107.273 C 325.279 113.126,318.801 118.213,318.355 118.577 L 317.543 119.239 325.661 139.452 C 330.126 150.570,333.716 159.719,333.640 159.783 C 333.563 159.848,326.341 160.345,317.592 160.887 C 308.842 161.429,301.623 161.939,301.551 162.020 C 301.478 162.100,296.437 177.226,290.350 195.632 L 279.281 229.098 276.891 226.766 C 275.576 225.483,267.300 217.638,258.500 209.332 C 249.700 201.026,241.359 193.116,239.964 191.754 L 237.429 189.277 228.159 194.472 C 223.060 197.329,218.857 199.629,218.818 199.583 C 218.779 199.537,219.154 196.681,219.650 193.236 C 220.345 188.414,220.453 187.011,220.116 187.140 C 219.875 187.232,194.976 201.489,164.785 218.821 C 134.593 236.154,109.853 250.297,109.808 250.251 C 109.762 250.205,129.825 233.967,154.391 214.167 C 178.958 194.367,199.140 178.035,199.241 177.875 C 199.342 177.714,198.466 178.115,197.295 178.766 C 186.655 184.676,66.535 250.312,66.474 250.249 C 66.430 250.204,92.882 230.967,125.257 207.500 C 182.972 165.665,186.218 163.292,184.833 163.942 C 184.237 164.222,80.448 219.456,74.333 222.747 C 70.517 224.802,69.583 225.517,123.667 185.000 C 151.625 164.055,174.725 146.696,175.000 146.424 C 175.665 145.767,179.197 143.949,126.032 171.635 C 100.291 185.040,79.189 195.966,79.138 195.916 C 79.087 195.865,99.311 180.375,124.080 161.495 C 174.580 123.001,170.671 126.016,168.667 127.110 C 161.434 131.056,85.254 171.360,85.187 171.276 C 85.138 171.216,94.779 163.667,106.610 154.500 C 169.949 105.427,170.375 105.091,169.406 104.908 C 168.908 104.813,164.337 104.388,159.250 103.961 C 154.162 103.535,150.001 103.107,150.002 103.010 C 150.003 102.913,155.141 100.255,161.419 97.103 C 167.697 93.952,173.098 91.177,173.422 90.937 C 173.944 90.549,172.654 89.688,162.033 83.333 C 155.446 79.392,150.156 76.074,150.278 75.961 C 150.400 75.849,159.575 73.773,170.667 71.348 C 181.758 68.923,190.925 66.841,191.037 66.720 C 191.149 66.599,192.626 57.350,194.319 46.167 C 196.012 34.983,197.459 25.770,197.534 25.692 C 197.672 25.550,199.851 26.514,228.333 39.307 L 243.833 46.269 256.658 33.476 C 263.712 26.440,269.582 20.792,269.703 20.925 C 269.825 21.058,273.563 28.784,278.011 38.094 M253.244 52.168 C 262.038 56.635,276.649 68.847,273.713 69.275 C 271.741 69.563,260.961 67.068,250.167 63.826 C 236.709 59.783,230.771 58.731,219.833 58.449 L 212.833 58.269 209.333 60.571 C 205.668 62.983,200.766 66.939,198.500 69.316 L 197.167 70.714 199.000 69.985 C 208.434 66.236,215.458 64.877,225.500 64.858 C 235.022 64.840,237.201 65.229,253.345 69.832 C 263.363 72.689,268.792 73.861,274.499 74.398 L 278.665 74.791 280.066 77.145 C 281.600 79.723,284.667 85.632,284.667 86.011 C 284.667 86.142,279.454 86.331,273.083 86.431 C 234.979 87.030,203.406 97.194,182.500 115.592 L 179.167 118.526 179.054 120.346 C 178.943 122.136,179.525 128.256,179.962 129.887 C 180.170 130.667,180.323 130.544,182.388 127.943 C 199.848 105.949,235.125 92.374,277.246 91.441 L 286.659 91.233 287.171 92.458 C 287.754 93.854,289.452 100.300,289.925 102.910 L 290.240 104.654 289.203 104.793 C 273.642 106.879,266.272 110.890,247.785 127.336 C 229.151 143.912,216.891 151.590,199.000 157.886 C 196.708 158.692,194.633 159.423,194.387 159.510 C 193.876 159.692,197.640 164.062,199.743 165.727 L 201.044 166.757 204.605 165.173 C 217.788 159.311,228.335 151.942,245.467 136.624 C 269.357 115.264,277.180 110.399,288.389 109.935 L 290.833 109.833 291.098 113.000 C 293.286 139.155,278.409 168.243,255.768 182.078 C 252.374 184.152,252.314 184.100,257.146 183.281 C 266.898 181.629,268.827 180.570,275.362 173.282 C 287.428 159.824,294.385 144.040,296.348 125.667 C 296.743 121.963,296.843 111.748,296.495 110.650 C 295.753 108.313,306.533 112.036,310.928 115.634 L 313.024 117.350 312.928 113.925 L 312.833 110.500 310.333 109.079 C 306.332 106.803,302.586 105.573,298.186 105.088 L 295.872 104.833 295.311 101.667 C 295.003 99.925,294.354 97.015,293.870 95.200 C 293.385 93.385,293.029 91.864,293.078 91.821 C 293.241 91.675,300.123 92.310,304.251 92.852 C 309.346 93.521,309.165 93.624,307.852 90.796 L 306.751 88.426 303.626 88.034 C 301.907 87.818,298.440 87.449,295.923 87.215 C 290.541 86.715,291.310 87.243,289.327 82.686 C 288.444 80.656,287.109 77.933,286.361 76.635 C 285.612 75.337,285.000 74.231,285.000 74.177 C 285.000 74.123,285.712 73.900,286.583 73.681 C 288.406 73.222,291.379 71.706,292.833 70.493 L 293.833 69.659 292.020 67.996 C 290.208 66.335,289.558 66.034,289.163 66.673 C 288.227 68.187,282.118 69.983,281.398 68.956 C 275.517 60.560,266.573 52.788,261.313 51.504 C 258.349 50.780,250.832 49.667,248.913 49.667 C 248.587 49.667,250.536 50.792,253.244 52.168 M69.364 271.038 L 70.450 272.410 69.718 275.656 C 69.315 277.441,68.796 279.559,68.564 280.361 L 68.141 281.821 62.624 283.583 L 57.107 285.344 56.497 288.014 L 55.887 290.684 56.637 291.698 C 57.898 293.403,57.482 293.667,53.530 293.667 C 51.610 293.667,49.974 293.554,49.893 293.417 C 49.813 293.279,50.906 288.478,52.323 282.747 L 54.899 272.326 54.116 271.265 C 53.686 270.681,53.333 270.083,53.333 269.935 C 53.333 269.788,56.696 269.667,60.805 269.667 L 68.277 269.667 69.364 271.038 M102.659 269.917 C 102.655 270.054,102.138 272.187,101.511 274.657 C 100.170 279.935,100.023 279.417,102.676 278.769 C 105.457 278.088,105.271 278.338,106.348 273.830 C 107.462 269.164,107.030 269.618,110.239 269.736 L 112.895 269.833 110.315 280.326 L 107.735 290.819 108.544 291.780 C 109.830 293.308,109.215 293.667,105.312 293.667 C 101.263 293.667,101.412 294.002,102.870 288.176 C 104.287 282.516,104.390 282.932,101.715 283.490 C 99.046 284.047,99.234 283.783,98.158 288.500 C 96.920 293.933,97.124 293.667,94.210 293.667 C 92.873 293.667,91.701 293.590,91.608 293.497 C 91.515 293.403,92.601 288.575,94.021 282.767 L 96.605 272.207 95.804 271.158 C 95.363 270.580,95.102 270.009,95.224 269.887 C 95.531 269.581,102.668 269.609,102.659 269.917 M152.976 271.019 L 154.063 272.372 151.857 281.439 L 149.652 290.505 147.699 292.086 L 145.746 293.667 141.068 293.667 L 136.390 293.667 135.220 292.072 L 134.049 290.478 136.275 281.433 L 138.500 272.389 140.167 271.040 L 141.833 269.690 146.861 269.679 L 151.888 269.667 152.976 271.019 M194.575 270.092 C 194.485 270.326,194.227 271.413,194.002 272.509 C 193.335 275.747,193.086 276.023,191.999 274.721 C 191.096 273.640,191.090 273.638,188.318 273.736 L 185.541 273.833 184.945 276.167 C 184.094 279.498,184.004 279.333,186.667 279.333 C 189.269 279.333,189.220 279.268,188.556 281.833 L 188.125 283.500 185.597 283.597 L 183.069 283.693 182.447 286.430 L 181.825 289.167 184.760 289.263 C 187.598 289.356,187.735 289.326,188.918 288.350 C 189.591 287.796,190.250 287.452,190.381 287.588 C 190.615 287.827,189.606 292.623,189.176 293.319 C 188.821 293.892,175.333 293.788,175.333 293.212 C 175.333 292.962,176.465 288.148,177.849 282.514 L 180.364 272.270 179.530 271.176 C 179.071 270.575,178.789 269.989,178.903 269.874 C 179.349 269.429,194.747 269.642,194.575 270.092 M234.931 271.064 C 235.521 271.832,235.938 272.694,235.856 272.980 C 235.774 273.266,234.777 277.372,233.640 282.105 L 231.574 290.711 232.287 291.675 C 233.138 292.826,233.176 293.194,232.473 293.464 C 231.714 293.756,225.731 293.714,225.573 293.417 C 225.499 293.279,226.455 289.042,227.698 284.000 C 230.518 272.555,230.516 273.667,227.708 273.667 L 225.416 273.667 222.958 283.583 L 220.500 293.500 218.032 293.599 C 214.782 293.729,214.844 293.931,216.318 288.000 C 217.024 285.158,218.314 279.871,219.183 276.250 L 220.763 269.667 227.310 269.667 L 233.857 269.667 234.931 271.064 M268.862 270.250 C 268.366 271.838,264.000 290.073,264.000 290.561 C 264.000 290.870,264.322 291.466,264.716 291.885 C 265.977 293.228,265.139 293.667,261.312 293.667 C 259.512 293.667,257.968 293.552,257.882 293.411 C 257.795 293.271,258.836 288.604,260.195 283.040 C 263.036 271.412,262.908 272.338,261.843 271.072 C 260.721 269.739,260.896 269.667,265.245 269.667 C 268.711 269.667,269.029 269.718,268.862 270.250 M302.006 272.750 C 303.001 276.853,302.889 276.844,305.702 273.031 L 308.167 269.690 310.914 269.678 L 313.662 269.667 308.998 275.623 C 306.432 278.899,304.333 281.722,304.333 281.896 C 304.333 284.382,307.029 290.889,308.459 291.855 C 310.664 293.345,310.057 293.718,305.628 293.595 L 302.188 293.500 301.739 291.833 C 301.492 290.917,301.070 289.379,300.802 288.417 L 300.315 286.666 297.741 290.083 L 295.167 293.500 292.750 293.598 C 289.669 293.723,289.571 294.036,294.674 287.452 C 297.061 284.372,298.956 281.698,298.884 281.509 C 298.813 281.321,298.187 279.174,297.494 276.739 C 296.323 272.620,296.145 272.240,294.951 271.294 C 293.070 269.805,293.284 269.667,297.463 269.667 L 301.259 269.667 302.006 272.750 M141.681 281.083 C 140.704 285.162,139.833 288.694,139.744 288.932 C 139.620 289.267,140.134 289.342,142.022 289.265 L 144.461 289.167 145.589 284.667 C 146.209 282.192,147.063 278.704,147.486 276.917 L 148.256 273.667 145.857 273.667 L 143.458 273.667 141.681 281.083 M59.836 274.417 C 59.445 275.554,58.315 280.426,58.418 280.529 C 58.483 280.594,59.651 280.309,61.013 279.894 L 63.490 279.141 63.878 277.394 C 64.091 276.433,64.359 275.276,64.473 274.823 C 64.709 273.881,60.157 273.481,59.836 274.417 M98.189 307.750 C 99.989 310.179,101.462 312.392,101.463 312.667 C 101.465 313.764,96.825 331.667,96.538 331.667 C 96.368 331.667,92.691 330.072,88.365 328.123 C 84.039 326.173,80.028 324.378,79.451 324.132 L 78.402 323.687 79.497 319.343 L 80.593 315.000 71.708 315.000 L 62.823 315.000 60.568 324.045 C 59.328 329.021,58.357 333.135,58.410 333.188 C 58.463 333.241,66.080 336.457,75.337 340.336 C 84.593 344.214,92.288 347.503,92.435 347.645 C 92.743 347.941,86.123 374.270,85.571 374.942 C 85.372 375.186,82.844 377.324,79.953 379.695 L 74.697 384.005 54.118 383.919 L 33.539 383.833 30.295 379.312 L 27.050 374.791 29.477 365.145 C 30.811 359.840,32.041 355.526,32.210 355.558 C 33.017 355.712,49.834 363.668,49.924 363.939 C 49.981 364.110,49.594 366.068,49.063 368.291 L 48.099 372.333 56.972 372.333 L 65.846 372.333 68.131 363.153 C 69.388 358.103,70.360 353.923,70.291 353.863 C 70.223 353.803,62.517 350.558,53.167 346.652 C 43.817 342.746,36.120 339.518,36.064 339.478 C 36.007 339.438,37.507 333.357,39.397 325.964 L 42.833 312.523 48.333 307.950 L 53.833 303.378 74.375 303.355 L 94.917 303.333 98.189 307.750 M234.074 307.583 C 235.794 309.921,237.299 311.995,237.418 312.192 C 237.537 312.390,234.117 326.556,229.817 343.674 C 225.518 360.791,222.000 374.902,222.000 375.031 C 222.000 375.160,223.050 376.690,224.333 378.431 C 226.974 382.012,226.918 381.857,225.942 382.895 L 225.217 383.667 212.442 383.667 C 200.494 383.667,199.667 383.629,199.676 383.083 C 199.682 382.762,203.488 367.313,208.135 348.750 L 216.585 315.000 207.632 315.000 L 198.679 315.000 198.447 315.917 C 198.320 316.421,194.454 331.833,189.858 350.167 L 181.500 383.500 171.250 383.588 C 164.406 383.647,161.000 383.563,161.000 383.334 C 161.000 383.146,165.500 365.166,171.000 343.378 C 176.500 321.590,181.000 303.666,181.000 303.548 C 181.000 303.430,192.238 303.333,205.973 303.333 L 230.946 303.333 234.074 307.583 M302.074 307.583 C 303.794 309.921,305.310 312.011,305.441 312.229 C 305.735 312.716,301.033 331.667,300.618 331.667 C 300.355 331.667,286.808 325.683,283.630 324.163 L 282.427 323.588 283.510 319.294 L 284.593 315.000 275.708 315.000 L 266.823 315.000 264.568 324.045 C 263.328 329.021,262.355 333.130,262.407 333.178 C 262.458 333.225,270.075 336.439,279.333 340.319 C 288.592 344.199,296.288 347.493,296.436 347.639 C 296.584 347.785,295.179 353.967,293.315 361.377 L 289.925 374.850 284.318 379.425 L 278.710 384.000 258.203 384.000 L 237.695 384.000 234.514 379.546 C 232.765 377.096,231.333 374.841,231.333 374.536 C 231.333 373.883,235.565 356.753,235.923 355.957 C 236.174 355.398,253.660 363.146,253.922 363.933 C 254.011 364.200,252.787 369.537,252.129 371.750 C 251.966 372.295,252.540 372.333,260.950 372.333 L 269.945 372.333 272.189 363.161 C 273.423 358.116,274.373 353.932,274.300 353.863 C 274.227 353.794,266.517 350.544,257.167 346.640 C 247.817 342.736,240.129 339.519,240.082 339.492 C 240.036 339.464,241.545 333.380,243.437 325.971 L 246.875 312.500 252.461 307.917 L 258.047 303.333 278.496 303.333 L 298.946 303.333 302.074 307.583 M133.205 304.250 C 133.109 304.571,129.273 319.683,124.679 337.833 C 120.086 355.983,116.237 371.171,116.125 371.583 L 115.922 372.333 124.905 372.333 L 133.887 372.333 142.558 338.083 L 151.229 303.833 161.448 303.745 C 170.016 303.671,171.667 303.732,171.667 304.123 C 171.667 304.462,154.643 372.399,151.964 382.750 L 151.641 384.000 126.659 384.000 L 101.677 384.000 98.777 380.083 C 97.182 377.929,95.668 375.792,95.413 375.333 C 94.988 374.569,95.602 371.940,102.806 343.667 C 107.127 326.708,110.658 312.608,110.651 312.333 C 110.644 312.058,109.524 310.333,108.161 308.500 L 105.683 305.167 106.527 304.417 L 107.371 303.667 120.374 303.667 C 132.603 303.667,133.368 303.701,133.205 304.250 " stroke="none" fill="#040404" fill-rule="evenodd"></path><path id="path3" d="M204.917 3.250 C 239.979 3.297,297.354 3.297,332.417 3.250 C 367.479 3.203,338.792 3.165,268.667 3.165 C 198.542 3.165,169.854 3.203,204.917 3.250 M147.250 15.902 C 147.662 15.981,148.337 15.981,148.750 15.902 C 149.162 15.822,148.825 15.757,148.000 15.757 C 147.175 15.757,146.837 15.822,147.250 15.902 M148.417 18.563 C 148.737 18.647,149.262 18.647,149.583 18.563 C 149.904 18.479,149.642 18.411,149.000 18.411 C 148.358 18.411,148.096 18.479,148.417 18.563 M267.490 22.750 L 265.500 24.833 267.519 22.908 C 268.629 21.849,269.666 21.099,269.822 21.241 C 269.979 21.383,269.999 21.313,269.867 21.083 C 269.549 20.530,269.734 20.399,267.490 22.750 M275.250 86.235 C 275.662 86.315,276.337 86.315,276.750 86.235 C 277.162 86.156,276.825 86.091,276.000 86.091 C 275.175 86.091,274.837 86.156,275.250 86.235 M313.107 115.333 C 313.107 116.525,313.167 117.013,313.241 116.417 C 313.315 115.821,313.315 114.846,313.241 114.250 C 313.167 113.654,313.107 114.142,313.107 115.333 M291.114 116.833 C 291.115 118.300,291.174 118.859,291.244 118.075 C 291.315 117.291,291.314 116.091,291.242 115.408 C 291.171 114.725,291.113 115.367,291.114 116.833 M296.744 115.667 C 296.744 116.308,296.813 116.571,296.896 116.250 C 296.980 115.929,296.980 115.404,296.896 115.083 C 296.813 114.763,296.744 115.025,296.744 115.667 M296.744 119.000 C 296.744 119.642,296.813 119.904,296.896 119.583 C 296.980 119.263,296.980 118.737,296.896 118.417 C 296.813 118.096,296.744 118.358,296.744 119.000 M59.333 254.417 C 59.333 254.554,113.071 254.630,178.750 254.585 C 244.429 254.539,278.742 254.464,255.000 254.418 C 139.271 254.191,59.333 254.191,59.333 254.417 M59.884 273.917 C 59.799 274.054,60.503 274.124,61.448 274.071 C 64.513 273.902,64.886 273.768,62.436 273.717 C 61.118 273.689,59.970 273.779,59.884 273.917 M184.259 283.578 C 185.043 283.648,186.243 283.647,186.925 283.576 C 187.608 283.504,186.967 283.446,185.500 283.448 C 184.033 283.449,183.475 283.507,184.259 283.578 M91.631 293.432 C 91.778 293.578,93.008 293.652,94.366 293.596 L 96.833 293.494 94.098 293.330 C 92.594 293.240,91.484 293.286,91.631 293.432 M225.628 293.429 C 225.773 293.574,227.379 293.648,229.196 293.594 L 232.500 293.496 228.932 293.331 C 226.969 293.241,225.483 293.285,225.628 293.429 M51.762 293.580 C 52.823 293.646,54.473 293.646,55.429 293.579 C 56.385 293.512,55.517 293.457,53.500 293.458 C 51.483 293.459,50.701 293.514,51.762 293.580 M103.583 293.579 C 104.546 293.646,106.121 293.646,107.083 293.579 C 108.046 293.512,107.258 293.457,105.333 293.457 C 103.408 293.457,102.621 293.512,103.583 293.579 M138.765 293.581 C 140.194 293.644,142.444 293.644,143.765 293.581 C 145.086 293.517,143.917 293.466,141.167 293.467 C 138.417 293.467,137.336 293.519,138.765 293.581 M178.768 293.582 C 180.749 293.641,183.899 293.641,185.768 293.582 C 187.637 293.522,186.017 293.474,182.167 293.474 C 178.317 293.475,176.787 293.523,178.768 293.582 M216.592 293.578 C 217.376 293.648,218.576 293.647,219.259 293.576 C 219.941 293.504,219.300 293.446,217.833 293.448 C 216.367 293.449,215.808 293.507,216.592 293.578 M259.583 293.579 C 260.546 293.646,262.121 293.646,263.083 293.579 C 264.046 293.512,263.258 293.457,261.333 293.457 C 259.408 293.457,258.621 293.512,259.583 293.579 M291.417 293.576 C 292.104 293.648,293.229 293.648,293.917 293.576 C 294.604 293.504,294.042 293.445,292.667 293.445 C 291.292 293.445,290.729 293.504,291.417 293.576 M304.096 293.580 C 305.156 293.646,306.806 293.646,307.762 293.579 C 308.718 293.512,307.850 293.457,305.833 293.458 C 303.817 293.459,303.035 293.514,304.096 293.580 M67.437 314.916 C 69.968 314.973,74.018 314.973,76.437 314.916 C 78.855 314.859,76.783 314.812,71.833 314.813 C 66.883 314.813,64.905 314.859,67.437 314.916 M203.083 314.916 C 205.604 314.972,209.729 314.972,212.250 314.916 C 214.771 314.859,212.708 314.813,207.667 314.813 C 202.625 314.813,200.563 314.859,203.083 314.916 M271.437 314.916 C 273.968 314.973,278.018 314.973,280.437 314.916 C 282.855 314.859,280.783 314.812,275.833 314.813 C 270.883 314.813,268.905 314.859,271.437 314.916 " stroke="none" fill="#5a4b39" fill-rule="evenodd"></path><path id="path4" d="M254.831 35.417 L 244.167 46.167 254.917 35.502 C 260.829 29.636,265.667 24.799,265.667 24.752 C 265.667 24.517,264.743 25.426,254.831 35.417 M241.000 49.896 C 232.716 50.518,222.930 53.251,215.688 56.966 L 213.210 58.237 220.355 58.430 C 230.979 58.717,237.184 59.842,250.833 63.957 C 260.513 66.874,270.993 69.333,273.748 69.333 C 275.783 69.333,266.078 60.174,259.167 55.574 C 251.327 50.354,248.143 49.359,241.000 49.896 M265.000 52.483 C 265.000 52.525,266.237 53.518,267.750 54.690 C 271.274 57.420,276.913 63.059,279.644 66.583 C 281.503 68.983,281.906 69.332,282.804 69.325 C 284.553 69.312,289.687 66.867,289.659 66.061 C 289.626 65.123,280.351 58.986,275.167 56.472 C 272.151 55.010,265.000 52.204,265.000 52.483 M217.833 65.159 C 211.804 65.931,205.242 67.596,199.500 69.812 L 197.167 70.712 198.833 68.950 C 199.750 67.980,200.139 67.483,199.698 67.844 C 197.983 69.247,192.462 76.024,189.961 79.796 C 182.782 90.623,178.668 104.090,178.667 116.773 L 178.667 119.045 181.611 116.330 C 202.185 97.356,236.647 86.338,275.583 86.286 C 280.579 86.279,284.667 86.209,284.667 86.129 C 284.667 85.785,281.794 80.251,280.230 77.583 L 278.521 74.667 277.010 74.660 C 272.313 74.640,264.096 72.974,253.167 69.827 C 236.135 64.923,228.032 63.852,217.833 65.159 M293.573 69.763 C 293.241 70.627,289.989 72.561,287.404 73.432 L 285.084 74.213 286.703 77.190 C 287.593 78.827,288.944 81.619,289.705 83.395 C 291.272 87.054,290.760 86.754,296.167 87.175 C 297.633 87.289,300.541 87.601,302.628 87.869 C 304.715 88.136,306.473 88.305,306.534 88.244 C 307.206 87.571,299.777 76.276,295.966 72.175 C 294.939 71.071,294.030 69.949,293.944 69.684 C 293.818 69.292,293.748 69.307,293.573 69.763 M272.000 91.558 C 233.626 93.268,200.206 106.612,183.266 126.988 C 180.063 130.841,180.067 130.826,181.171 134.884 C 183.269 142.589,186.854 149.939,191.988 157.063 L 193.809 159.590 198.154 158.105 C 216.834 151.720,229.207 143.933,249.340 125.893 C 265.545 111.371,274.429 106.582,288.417 104.825 C 290.300 104.588,290.314 104.520,289.328 100.333 C 287.970 94.570,286.964 91.735,286.206 91.532 C 285.519 91.347,276.349 91.365,272.000 91.558 M293.131 92.237 C 293.764 94.287,295.020 99.500,295.323 101.333 C 295.969 105.233,295.824 105.000,297.590 105.002 C 301.092 105.008,307.408 107.081,311.085 109.433 L 312.879 110.581 312.438 107.541 C 311.523 101.238,309.370 93.821,308.369 93.521 C 307.560 93.278,300.193 92.381,297.167 92.157 C 295.700 92.049,294.151 91.888,293.723 91.800 C 293.097 91.672,292.983 91.756,293.131 92.237 M286.840 110.038 C 281.648 110.794,276.135 112.821,271.044 115.844 C 265.570 119.094,260.995 122.828,245.333 136.823 C 232.560 148.237,224.777 154.195,215.553 159.623 C 209.566 163.146,201.587 166.834,200.690 166.493 C 200.069 166.257,200.101 166.288,203.133 168.821 C 214.960 178.706,229.968 184.092,245.833 184.145 L 252.167 184.166 255.000 182.503 C 276.607 169.819,290.201 145.759,290.906 118.952 C 291.171 108.903,291.387 109.376,286.840 110.038 M296.766 116.583 C 296.784 140.258,287.783 161.794,271.335 177.434 L 267.944 180.658 271.209 179.299 C 295.834 169.050,311.922 146.014,313.087 119.333 L 313.167 117.500 311.000 115.738 C 308.283 113.528,304.286 111.528,300.863 110.665 C 296.356 109.528,296.761 108.943,296.766 116.583 M178.751 121.167 C 178.754 121.900,178.823 122.161,178.902 121.746 C 178.982 121.331,178.979 120.731,178.896 120.413 C 178.812 120.094,178.747 120.433,178.751 121.167 M170.230 126.151 C 169.964 126.417,169.629 126.530,169.486 126.401 C 169.343 126.272,169.340 126.364,169.480 126.605 C 169.702 126.991,171.000 126.288,171.000 125.782 C 171.000 125.539,170.696 125.685,170.230 126.151 M331.417 159.896 C 331.737 159.980,332.262 159.980,332.583 159.896 C 332.904 159.813,332.642 159.744,332.000 159.744 C 331.358 159.744,331.096 159.813,331.417 159.896 M315.750 160.896 C 316.071 160.980,316.596 160.980,316.917 160.896 C 317.237 160.813,316.975 160.744,316.333 160.744 C 315.692 160.744,315.429 160.813,315.750 160.896 M239.653 191.417 C 240.470 192.287,241.183 193.000,241.236 193.000 C 241.486 193.000,241.222 192.701,239.750 191.319 L 238.167 189.833 239.653 191.417 M246.167 197.667 C 246.883 198.400,247.544 199.000,247.635 199.000 C 247.727 199.000,247.216 198.400,246.500 197.667 C 245.784 196.933,245.123 196.333,245.031 196.333 C 244.940 196.333,245.451 196.933,246.167 197.667 M252.319 203.417 C 253.137 204.287,253.849 205.000,253.903 205.000 C 254.153 205.000,253.888 204.701,252.417 203.319 L 250.833 201.833 252.319 203.417 M258.653 209.417 C 259.470 210.287,260.183 211.000,260.236 211.000 C 260.486 211.000,260.222 210.701,258.750 209.319 L 257.167 207.833 258.653 209.417 M264.986 215.417 C 265.803 216.287,266.516 217.000,266.569 217.000 C 266.820 217.000,266.555 216.701,265.083 215.319 L 263.500 213.833 264.986 215.417 M271.167 221.333 C 271.883 222.067,272.544 222.667,272.635 222.667 C 272.727 222.667,272.216 222.067,271.500 221.333 C 270.784 220.600,270.123 220.000,270.031 220.000 C 269.940 220.000,270.451 220.600,271.167 221.333 M73.046 223.029 C 72.614 223.380,72.389 223.662,72.546 223.656 C 72.953 223.641,74.147 222.702,73.976 222.532 C 73.897 222.454,73.479 222.678,73.046 223.029 M277.319 227.083 C 278.701 228.555,279.000 228.820,279.000 228.569 C 279.000 228.516,278.287 227.803,277.417 226.986 L 275.833 225.500 277.319 227.083 " stroke="none" fill="#a1410f" fill-rule="evenodd"></path></g></svg>