<svg id="svg" version="1.1" xmlns="http://www.w3.org/2000/svg" xmlns:xlink="http://www.w3.org/1999/xlink" width="400" height="400" viewBox="0, 0, 400,400"><g id="svgg"><path id="path0" d="M187.167 0.217 C 139.871 3.942,100.193 20.620,66.167 51.077 C -0.209 110.489,-19.089 207.672,20.171 287.833 C 75.229 400.251,219.877 435.114,319.758 360.040 C 436.768 272.093,423.158 93.157,294.155 23.408 C 262.623 6.359,221.730 -2.505,187.167 0.217 M213.350 10.677 C 331.130 19.699,412.034 131.246,383.786 245.667 C 362.962 330.016,287.541 389.060,200.500 389.153 C 72.884 389.289,-17.804 267.588,18.565 145.000 C 43.543 60.808,125.947 3.982,213.350 10.677 M190.244 29.923 L 187.000 33.179 187.000 51.512 L 187.000 69.846 190.256 73.090 L 193.512 76.333 202.886 76.333 L 212.260 76.333 215.297 73.040 L 218.333 69.746 218.333 51.450 L 218.333 33.154 215.077 29.910 L 211.821 26.667 202.654 26.667 L 193.487 26.667 190.244 29.923 M256.218 35.253 C 255.327 36.710,237.055 80.522,237.255 80.722 C 237.404 80.870,239.334 81.724,241.546 82.618 L 245.566 84.244 251.170 70.953 C 254.252 63.643,256.822 57.711,256.882 57.771 C 256.942 57.831,257.443 64.769,257.995 73.190 C 258.547 81.610,259.037 88.846,259.083 89.270 C 259.174 90.108,266.506 93.642,267.023 93.097 C 267.161 92.952,271.503 82.783,276.673 70.500 C 281.843 58.217,286.130 48.071,286.199 47.955 C 286.333 47.731,277.656 43.900,277.460 44.096 C 277.397 44.159,275.152 49.375,272.472 55.688 C 269.792 62.001,267.464 67.309,267.299 67.483 C 267.122 67.671,267.000 62.015,267.000 53.631 L 267.000 39.461 262.917 37.758 C 260.671 36.821,258.279 35.818,257.601 35.530 C 256.923 35.242,256.301 35.117,256.218 35.253 M131.333 42.008 C 124.539 45.005,120.870 46.791,120.939 47.070 C 121.041 47.486,140.019 92.059,140.185 92.273 C 140.404 92.553,149.012 88.516,148.876 88.197 C 148.791 87.997,147.359 84.704,145.694 80.880 C 142.429 73.381,142.466 73.487,143.083 73.233 C 143.313 73.139,144.348 72.681,145.385 72.215 L 147.271 71.369 152.719 76.573 C 155.715 79.434,158.638 82.215,159.214 82.752 L 160.262 83.728 164.985 81.638 L 169.709 79.548 162.833 72.667 L 155.958 65.786 157.100 61.942 L 158.241 58.098 154.537 49.506 L 150.833 40.914 146.345 39.124 C 143.877 38.139,141.852 37.343,141.845 37.354 C 141.839 37.366,137.108 39.460,131.333 42.008 M207.234 38.399 L 208.333 39.464 208.333 51.300 L 208.333 63.135 207.268 64.234 L 206.203 65.333 202.664 65.333 C 199.221 65.333,199.100 65.308,198.229 64.398 L 197.333 63.464 197.333 51.333 L 197.333 39.203 198.229 38.268 C 199.686 36.748,205.620 36.834,207.234 38.399 M143.060 49.810 C 144.060 50.228,144.375 50.690,145.595 53.532 L 146.989 56.777 146.245 58.092 C 145.589 59.249,138.314 63.144,137.830 62.596 C 137.476 62.197,133.690 52.865,133.827 52.729 C 134.123 52.433,141.144 49.351,141.543 49.342 C 141.749 49.337,142.432 49.548,143.060 49.810 M308.887 68.280 C 304.622 72.557,304.673 71.900,308.333 75.482 C 309.983 77.096,311.333 78.533,311.333 78.675 C 311.333 78.816,305.233 85.107,297.777 92.654 L 284.221 106.376 287.855 110.022 L 291.489 113.667 305.214 99.750 L 318.939 85.833 322.137 88.994 L 325.334 92.154 329.000 88.500 C 331.017 86.489,332.667 84.758,332.667 84.652 C 332.667 84.547,328.116 80.018,322.554 74.588 L 312.440 64.715 308.887 68.280 M78.694 78.576 L 72.333 85.151 72.333 89.885 L 72.333 94.619 85.417 107.308 L 98.500 119.996 103.003 119.998 L 107.506 120.000 114.086 113.414 L 120.667 106.827 120.660 102.164 L 120.653 97.500 107.410 84.753 L 94.167 72.007 89.611 72.003 L 85.055 72.000 78.694 78.576 M100.029 92.060 L 108.667 100.454 108.653 101.977 C 108.640 103.396,108.482 103.665,106.349 105.917 C 102.581 109.892,103.124 110.129,92.639 99.934 L 84.000 91.535 84.000 90.026 C 84.000 88.598,84.131 88.384,86.408 86.091 C 90.261 82.212,89.595 81.921,100.029 92.060 M328.470 119.546 C 309.419 128.690,311.952 126.952,310.153 132.112 L 308.691 136.307 312.643 144.570 L 316.594 152.833 320.982 154.401 L 325.370 155.969 341.768 148.116 C 350.787 143.797,358.278 140.091,358.414 139.881 C 358.550 139.672,359.278 137.625,360.032 135.333 L 361.403 131.167 357.387 122.917 C 355.178 118.379,353.305 114.667,353.225 114.667 C 353.145 114.667,351.211 114.004,348.926 113.193 L 344.772 111.720 328.470 119.546 M44.170 129.083 C 41.097 135.912,38.523 141.725,38.449 142.000 C 38.328 142.447,46.674 146.500,47.715 146.500 C 47.884 146.500,48.776 144.850,49.696 142.833 C 50.617 140.817,51.497 139.039,51.653 138.882 C 51.809 138.725,59.695 142.076,69.218 146.345 C 78.723 150.606,86.725 154.149,87.000 154.218 C 87.363 154.309,88.065 153.059,89.556 149.665 L 91.612 144.986 90.556 144.535 C 86.179 142.668,56.446 129.239,56.242 129.039 C 55.998 128.797,56.232 128.194,58.604 122.953 L 59.606 120.740 55.003 118.703 C 52.472 117.583,50.256 116.667,50.079 116.667 C 49.901 116.667,47.243 122.254,44.170 129.083 M348.045 127.757 C 349.544 130.787,349.560 130.854,349.104 132.206 L 348.640 133.579 337.681 138.781 C 324.330 145.119,325.112 145.055,322.622 140.017 C 321.095 136.928,321.082 136.877,321.547 135.515 L 322.016 134.136 332.887 128.937 L 343.758 123.738 345.140 124.209 C 346.423 124.646,346.633 124.902,348.045 127.757 M320.728 244.962 L 316.622 246.195 312.480 254.181 C 307.671 263.452,307.984 261.967,309.698 267.351 L 311.062 271.639 318.432 275.537 L 325.802 279.435 327.318 279.035 C 328.151 278.814,330.275 278.192,332.036 277.651 L 335.239 276.667 338.069 271.267 C 340.798 266.060,340.948 265.851,342.256 265.415 C 344.824 264.559,348.333 267.007,348.333 269.655 C 348.333 269.960,347.470 271.871,346.414 273.901 L 344.495 277.592 342.604 276.636 L 340.714 275.680 338.324 280.207 C 337.010 282.697,336.062 284.848,336.217 284.987 C 336.373 285.125,338.024 286.043,339.887 287.025 L 343.273 288.812 347.740 287.533 L 352.207 286.254 356.479 278.072 L 360.750 269.890 359.486 265.766 C 358.791 263.498,358.060 261.420,357.861 261.150 C 357.040 260.029,343.204 253.099,342.333 253.372 C 341.875 253.515,339.775 254.166,337.667 254.818 L 333.833 256.004 330.965 261.559 C 327.415 268.433,326.919 268.765,323.179 266.779 C 319.818 264.995,319.715 264.226,322.171 259.312 C 323.219 257.216,324.133 255.438,324.203 255.363 C 324.273 255.287,325.091 255.640,326.021 256.146 C 326.951 256.652,327.758 257.014,327.815 256.950 C 327.872 256.886,328.980 254.808,330.276 252.333 L 332.633 247.833 329.289 245.750 C 325.404 243.330,325.983 243.383,320.728 244.962 M63.383 255.323 C 51.402 261.538,41.537 266.685,41.460 266.762 C 41.307 266.915,45.153 274.286,45.642 274.775 C 45.828 274.961,48.762 273.626,53.118 271.374 C 57.061 269.335,60.344 267.667,60.413 267.667 C 61.055 267.667,62.732 272.379,62.278 272.907 C 61.998 273.233,59.428 276.294,56.566 279.708 L 51.363 285.917 53.765 290.458 C 55.086 292.956,56.242 294.990,56.333 294.979 C 56.425 294.967,59.275 291.677,62.667 287.666 C 66.058 283.656,68.991 280.424,69.183 280.484 C 69.375 280.545,71.179 280.934,73.193 281.349 L 76.854 282.104 83.844 278.493 C 94.000 273.245,92.912 274.208,94.633 268.941 L 96.099 264.454 90.800 254.237 C 87.885 248.618,85.425 244.021,85.333 244.022 C 85.242 244.023,75.364 249.108,63.383 255.323 M82.406 261.223 C 85.007 266.180,84.861 266.751,80.398 269.101 C 75.925 271.456,75.393 271.246,72.691 266.052 C 71.590 263.934,70.721 262.177,70.761 262.148 C 71.580 261.552,79.927 257.376,80.156 257.448 C 80.333 257.503,81.346 259.202,82.406 261.223 M281.561 294.307 C 276.828 298.326,272.969 301.738,272.987 301.890 C 273.005 302.042,279.953 310.335,288.426 320.318 C 296.900 330.301,304.066 338.755,304.351 339.106 C 304.795 339.653,312.000 334.376,312.000 333.504 C 312.000 333.445,309.675 330.658,306.833 327.312 C 300.814 320.223,301.206 321.191,303.534 319.181 L 305.402 317.569 313.386 321.652 C 320.515 325.298,321.431 325.685,321.935 325.257 C 327.092 320.881,329.000 319.201,328.997 319.035 C 328.996 318.924,325.208 316.856,320.581 314.440 L 312.167 310.047 312.074 306.086 L 311.980 302.124 306.035 294.949 L 300.089 287.773 296.275 287.387 C 289.830 286.733,291.290 286.046,281.561 294.307 M93.737 301.973 C 81.583 309.275,71.555 315.333,71.452 315.437 C 71.349 315.540,72.217 316.505,73.382 317.580 C 74.547 318.656,76.259 320.234,77.187 321.088 L 78.874 322.640 82.409 320.516 L 85.945 318.393 89.056 321.253 C 90.767 322.827,93.181 325.062,94.421 326.221 L 96.674 328.329 94.852 331.962 L 93.031 335.595 96.862 339.172 C 98.970 341.140,100.733 342.694,100.781 342.625 C 101.156 342.081,123.667 295.989,123.667 295.764 C 123.667 295.475,116.528 288.897,116.070 288.765 C 115.940 288.727,105.890 294.671,93.737 301.973 M298.482 301.054 C 301.656 304.766,301.532 305.536,297.150 309.314 C 293.381 312.562,294.325 312.742,290.351 308.020 C 286.346 303.264,286.361 304.074,290.218 300.821 C 294.484 297.223,295.223 297.244,298.482 301.054 M104.443 312.281 C 102.667 315.976,101.116 319.000,100.998 319.000 C 100.880 319.000,99.374 317.675,97.650 316.054 L 94.517 313.109 101.008 309.253 C 104.579 307.132,107.539 305.434,107.586 305.479 C 107.634 305.525,106.219 308.585,104.443 312.281 M145.217 310.267 C 144.218 311.988,126.333 355.799,126.544 356.007 C 126.917 356.376,133.981 359.336,134.466 359.326 C 134.668 359.322,136.021 356.435,137.474 352.910 C 138.926 349.384,140.528 345.572,141.033 344.438 L 141.953 342.376 148.893 345.316 L 155.833 348.256 159.000 346.589 C 163.083 344.439,162.438 345.374,166.313 336.000 L 169.688 327.833 167.973 323.299 L 166.258 318.764 159.379 315.902 C 155.596 314.328,150.892 312.363,148.926 311.537 C 146.960 310.710,145.291 310.139,145.217 310.267 M245.051 315.507 C 240.587 317.220,236.891 318.668,236.838 318.727 C 236.784 318.785,235.897 320.697,234.866 322.975 L 232.991 327.117 239.349 343.975 C 242.846 353.247,245.886 361.008,246.104 361.221 C 246.587 361.695,253.899 365.000,254.463 365.000 C 254.881 365.000,270.496 359.197,271.274 358.752 C 271.517 358.613,272.535 356.630,273.536 354.344 L 275.356 350.189 268.928 333.109 L 262.500 316.028 258.473 314.181 C 253.526 311.911,254.735 311.792,245.051 315.507 M189.000 328.667 L 189.000 334.000 193.447 334.000 L 197.895 334.000 198.114 340.053 C 198.235 343.383,198.333 352.158,198.333 359.553 L 198.333 373.000 203.549 373.000 L 208.765 373.000 208.522 353.548 L 208.279 334.096 209.556 333.885 C 210.259 333.769,212.296 333.672,214.083 333.670 L 217.333 333.667 217.333 328.500 L 217.333 323.333 203.167 323.333 L 189.000 323.333 189.000 328.667 M153.348 325.055 C 156.359 326.299,156.777 326.576,157.362 327.723 L 158.015 329.002 156.704 332.084 C 155.384 335.191,154.365 336.327,152.896 336.332 C 152.243 336.333,145.667 333.688,145.667 333.424 C 145.667 333.336,146.434 331.442,147.371 329.215 C 148.309 326.988,149.205 324.829,149.363 324.417 C 149.723 323.476,149.399 323.424,153.348 325.055 M253.663 324.934 C 254.795 325.488,254.942 325.807,259.079 336.668 L 263.332 347.833 262.820 349.211 C 262.327 350.538,262.189 350.634,259.079 351.824 L 255.850 353.060 254.508 352.403 L 253.167 351.746 249.701 342.456 C 247.795 337.347,245.894 332.258,245.478 331.148 C 244.278 327.947,244.886 326.920,248.843 325.467 C 252.338 324.184,252.168 324.203,253.663 324.934 " stroke="none" fill="#fafafa" fill-rule="evenodd"></path><path id="path1" d="M187.167 93.363 C 185.150 93.510,181.925 94.014,180.000 94.482 C 178.075 94.950,176.257 95.333,175.961 95.333 C 173.251 95.335,155.133 102.756,150.425 105.793 C 149.183 106.594,147.098 107.785,145.792 108.441 C 144.486 109.096,142.461 110.361,141.292 111.252 C 140.123 112.143,138.432 113.373,137.533 113.986 C 135.655 115.268,131.235 119.013,131.403 119.181 C 131.519 119.297,135.089 118.060,144.000 114.816 C 146.842 113.781,151.192 112.232,153.667 111.373 L 158.167 109.811 162.167 110.034 C 164.367 110.157,169.315 110.446,173.164 110.676 L 180.161 111.096 181.830 112.452 C 182.749 113.199,184.100 114.367,184.833 115.049 L 186.167 116.289 192.167 116.488 C 199.531 116.732,200.467 116.866,202.129 117.915 C 202.854 118.373,205.815 119.925,208.708 121.364 L 213.969 123.981 216.044 123.201 L 218.118 122.421 221.476 123.548 C 224.285 124.490,224.926 124.837,225.401 125.670 C 225.856 126.468,226.194 126.667,227.095 126.667 C 228.057 126.667,228.569 127.026,230.620 129.141 C 232.987 131.582,233.054 131.622,235.676 132.189 C 238.222 132.739,238.371 132.823,239.246 134.206 C 240.960 136.915,252.427 139.908,259.904 139.598 C 263.649 139.442,263.667 139.426,262.503 137.252 C 255.935 124.982,242.368 110.795,230.500 103.785 C 220.547 97.906,212.852 94.836,206.000 94.011 C 204.442 93.823,202.117 93.524,200.833 93.345 C 198.135 92.971,192.431 92.978,187.167 93.363 M221.333 94.289 C 221.333 94.448,223.436 95.444,226.006 96.503 C 230.384 98.306,235.887 101.335,238.167 103.196 C 238.717 103.646,240.592 105.096,242.333 106.419 C 246.110 109.288,250.864 113.793,254.128 117.596 C 255.433 119.116,257.361 121.366,258.413 122.596 C 260.225 124.715,264.922 131.358,267.224 135.058 C 268.968 137.860,268.883 137.829,271.482 136.651 C 274.866 135.116,280.338 129.319,280.332 127.275 C 280.328 125.789,276.902 122.080,271.681 117.907 C 269.381 116.069,267.050 114.148,266.500 113.637 C 260.372 107.947,238.204 97.731,226.055 95.000 C 220.979 93.858,221.333 93.911,221.333 94.289 M283.259 132.266 C 280.713 136.218,277.821 138.876,273.736 141.017 C 271.221 142.335,271.226 142.032,273.637 147.242 C 275.552 151.380,278.136 158.568,279.782 164.333 L 280.591 167.167 287.046 167.377 C 293.975 167.602,298.527 168.331,302.623 169.869 C 305.189 170.833,305.667 170.858,305.667 170.030 C 305.667 167.727,299.925 153.329,296.919 148.092 C 296.101 146.666,295.007 144.750,294.489 143.833 C 293.697 142.431,284.807 130.327,284.576 130.336 C 284.534 130.338,283.941 131.206,283.259 132.266 M208.167 132.555 C 207.617 132.618,204.092 132.820,200.333 133.002 C 196.575 133.185,191.864 133.493,189.864 133.687 L 186.227 134.041 181.530 136.755 C 178.947 138.248,176.706 139.677,176.551 139.930 C 176.360 140.241,175.983 140.314,175.384 140.158 C 174.898 140.030,171.950 139.944,168.833 139.965 C 165.717 139.987,162.050 139.864,160.685 139.692 C 157.822 139.331,159.016 138.662,150.767 145.251 L 146.035 149.031 144.601 148.297 C 142.047 146.990,141.150 146.939,137.565 147.898 C 134.304 148.770,134.290 148.770,130.898 148.256 C 128.145 147.838,127.405 147.821,127.000 148.163 C 126.725 148.396,125.989 148.845,125.365 149.162 C 124.740 149.479,123.953 149.995,123.616 150.309 C 123.278 150.624,121.164 152.216,118.918 153.848 C 100.032 167.567,100.525 167.177,100.111 168.725 C 99.900 169.518,99.426 170.992,99.059 172.000 C 98.336 173.988,97.042 181.410,96.124 188.833 C 95.477 194.072,95.281 211.254,95.854 212.576 C 96.151 213.261,96.843 212.627,104.838 204.349 L 113.500 195.380 116.444 194.190 C 118.064 193.535,119.939 192.998,120.611 192.996 C 123.574 192.987,124.310 192.666,125.995 190.641 C 126.878 189.580,127.653 188.755,127.717 188.807 C 127.781 188.860,129.333 188.704,131.167 188.461 C 133.000 188.218,135.625 187.922,137.000 187.804 C 138.375 187.686,139.651 187.403,139.836 187.174 C 140.021 186.946,140.996 186.259,142.003 185.647 C 143.010 185.035,144.651 183.937,145.649 183.208 L 147.465 181.881 152.483 181.963 C 155.242 182.008,158.625 182.186,160.000 182.359 C 163.803 182.838,165.698 182.311,167.393 180.301 C 168.125 179.433,170.497 177.061,172.663 175.031 L 176.602 171.339 180.248 170.831 L 183.895 170.322 185.817 171.202 L 187.740 172.082 191.509 171.491 L 195.278 170.901 196.722 172.141 L 198.167 173.382 202.000 173.187 C 204.108 173.079,207.239 173.007,208.958 173.026 C 211.122 173.050,212.402 172.906,213.124 172.558 C 213.698 172.281,215.367 171.502,216.833 170.826 C 218.300 170.150,220.100 169.319,220.833 168.979 C 221.567 168.639,223.879 167.672,225.973 166.830 L 229.779 165.300 231.139 165.957 C 234.940 167.790,235.154 167.830,237.037 167.047 C 239.058 166.207,239.505 166.184,241.782 166.793 C 242.727 167.046,244.550 167.434,245.833 167.654 C 247.117 167.875,249.067 168.342,250.167 168.692 C 252.813 169.535,254.298 169.539,262.000 168.725 C 271.057 167.768,274.074 167.498,274.750 167.584 C 275.596 167.692,275.519 167.308,273.530 161.464 C 271.133 154.422,269.254 149.672,267.743 146.833 L 266.500 144.500 261.333 144.616 C 253.936 144.782,248.136 143.922,241.333 141.651 C 238.331 140.648,236.744 140.320,234.016 140.138 C 230.190 139.882,230.000 139.789,225.643 136.083 C 224.374 135.004,223.700 134.667,222.812 134.667 C 222.170 134.667,221.102 134.440,220.439 134.163 C 219.573 133.801,218.658 133.717,217.199 133.866 C 215.476 134.043,214.841 133.942,213.026 133.204 C 210.977 132.371,210.418 132.296,208.167 132.555 M282.408 172.866 C 282.165 173.323,282.290 174.624,282.856 177.523 C 284.056 183.669,284.671 188.952,284.891 195.000 C 285.130 201.569,285.071 201.424,287.794 202.096 C 296.072 204.139,303.513 208.948,307.631 214.917 C 308.773 216.572,308.857 216.380,309.449 210.750 C 310.478 200.968,310.125 191.542,308.344 181.311 C 307.492 176.413,307.261 176.115,303.259 174.748 C 297.391 172.743,283.155 171.458,282.408 172.866 M272.972 173.134 C 272.896 173.208,270.808 173.448,268.333 173.668 C 264.496 174.009,263.091 174.309,258.790 175.707 L 253.746 177.345 248.456 177.163 C 245.547 177.062,242.403 176.911,241.470 176.827 C 239.875 176.683,239.656 176.763,237.804 178.161 C 236.720 178.979,235.683 179.657,235.500 179.667 C 235.317 179.677,234.384 180.408,233.426 181.293 L 231.686 182.901 228.093 183.326 L 224.500 183.752 221.157 186.341 C 219.319 187.765,217.283 189.151,216.634 189.423 C 215.985 189.694,214.829 190.310,214.067 190.791 C 213.304 191.273,212.351 191.667,211.950 191.667 C 211.548 191.667,210.966 191.895,210.658 192.175 C 210.177 192.609,209.544 192.637,206.298 192.362 L 202.500 192.041 201.333 193.402 C 200.692 194.151,198.367 196.738,196.167 199.150 C 193.967 201.563,190.910 204.977,189.373 206.737 C 186.971 209.490,186.411 209.959,185.373 210.086 C 181.309 210.584,177.028 211.534,176.000 212.167 C 170.429 215.593,165.968 217.720,164.756 217.531 C 164.065 217.423,162.975 217.335,162.333 217.335 C 161.692 217.335,159.874 217.328,158.294 217.319 L 155.421 217.303 153.181 219.805 C 151.950 221.181,150.686 222.388,150.374 222.487 C 149.847 222.654,145.466 223.321,144.333 223.406 C 143.481 223.471,128.000 235.228,128.000 235.811 C 128.000 236.010,126.728 239.228,125.174 242.963 C 123.620 246.698,122.417 249.865,122.501 250.001 C 122.656 250.252,121.103 250.460,116.000 250.872 C 113.323 251.088,113.080 251.174,111.583 252.436 C 109.590 254.117,109.603 254.469,111.780 257.420 C 112.759 258.747,114.476 261.219,115.595 262.913 C 118.263 266.950,119.358 268.363,122.232 271.483 L 124.622 274.076 129.228 275.730 C 136.981 278.513,137.478 278.703,138.177 279.151 C 138.761 279.527,139.097 279.462,140.644 278.678 L 142.435 277.771 146.429 278.771 L 150.424 279.772 153.521 278.233 C 156.527 276.741,156.772 276.679,161.726 276.183 C 170.551 275.299,169.258 275.911,172.184 271.231 C 173.995 268.336,175.473 266.447,177.320 264.667 C 186.269 256.040,188.493 253.731,188.386 253.182 C 188.280 252.645,188.499 251.543,189.360 248.264 C 189.655 247.141,189.852 246.976,191.518 246.450 C 193.310 245.886,193.398 245.798,195.338 242.660 C 196.430 240.893,197.600 239.128,197.937 238.739 C 198.275 238.349,198.810 237.459,199.125 236.759 C 199.557 235.802,200.126 235.273,201.432 234.616 C 205.573 232.534,214.993 228.035,216.747 227.301 C 218.686 226.489,218.992 226.074,219.866 223.066 C 220.056 222.414,222.771 221.327,224.750 221.111 C 225.978 220.977,227.008 220.576,228.205 219.769 C 229.839 218.666,230.020 218.622,232.570 218.709 C 235.323 218.803,241.315 216.807,241.328 215.792 C 241.346 214.488,243.108 212.330,244.442 211.981 C 245.207 211.780,246.476 211.402,247.262 211.141 C 248.047 210.880,249.005 210.667,249.389 210.667 C 249.773 210.667,250.561 210.179,251.140 209.583 C 253.461 207.193,253.241 207.267,256.320 207.851 L 259.079 208.374 262.972 206.692 C 269.300 203.959,274.851 202.353,278.020 202.339 C 280.120 202.329,280.328 201.925,279.994 198.500 C 279.833 196.850,279.541 193.250,279.346 190.500 C 279.030 186.036,277.088 174.285,276.513 173.354 C 276.309 173.025,273.281 172.836,272.972 173.134 M276.500 207.003 C 270.069 207.979,258.825 212.769,256.234 215.636 C 255.556 216.386,254.739 217.004,254.418 217.009 C 254.096 217.014,252.669 217.434,251.246 217.941 L 248.659 218.865 246.545 222.513 L 244.432 226.161 238.815 229.756 C 231.937 234.159,232.196 233.923,231.684 236.255 C 231.453 237.306,230.990 238.467,230.655 238.833 C 229.744 239.830,225.925 254.426,226.310 255.440 C 226.591 256.178,226.415 256.315,223.221 257.857 C 221.358 258.756,219.777 259.525,219.707 259.566 C 219.638 259.608,219.307 260.734,218.973 262.071 C 218.639 263.407,218.068 265.550,217.704 266.833 C 217.341 268.117,216.827 270.372,216.563 271.844 C 216.078 274.547,214.882 276.752,209.556 284.753 C 204.554 292.267,203.724 293.269,201.330 294.692 C 198.556 296.340,198.665 296.196,198.619 298.239 C 198.590 299.532,198.441 299.929,197.875 300.216 C 186.881 305.789,186.205 306.439,191.051 306.783 C 201.568 307.530,211.839 306.662,220.361 304.307 C 241.354 298.505,262.981 274.701,272.883 246.500 C 277.058 234.610,281.286 210.360,279.701 207.398 C 279.287 206.624,279.127 206.604,276.500 207.003 M285.029 207.613 C 284.830 207.985,284.667 209.019,284.667 209.910 C 284.667 216.343,282.127 233.395,280.473 238.074 C 280.195 238.858,279.614 240.925,279.181 242.667 C 276.685 252.702,271.448 263.630,262.755 276.943 C 257.384 285.168,247.690 294.817,240.353 299.240 C 235.969 301.883,242.080 299.846,250.333 295.914 C 275.486 283.931,296.934 258.569,304.798 231.510 C 307.572 221.963,307.527 221.573,303.093 216.673 C 298.112 211.169,286.297 205.243,285.029 207.613 " stroke="none" fill="#bb131b" fill-rule="evenodd"></path><path id="path2" d="M191.000 10.529 C 162.478 12.424,139.583 18.349,116.333 29.854 C 14.237 80.371,-20.716 208.869,41.808 303.833 C 101.709 394.812,226.421 416.794,313.167 351.664 C 414.354 275.689,414.390 123.712,313.238 48.110 C 278.572 22.200,231.792 7.818,191.000 10.529 M215.244 29.744 L 218.667 33.155 218.667 51.488 L 218.667 69.822 215.256 73.244 L 211.845 76.667 202.667 76.667 L 193.488 76.667 190.077 73.244 L 186.667 69.822 186.667 51.500 L 186.667 33.178 190.077 29.756 L 193.488 26.333 202.655 26.333 L 211.822 26.333 215.244 29.744 M261.833 37.126 L 266.833 39.231 267.048 42.199 C 267.166 43.831,267.284 50.117,267.311 56.167 L 267.359 67.167 272.319 55.555 C 275.047 49.169,277.328 43.899,277.389 43.844 C 277.542 43.707,285.731 47.265,286.091 47.624 C 286.352 47.885,267.665 92.836,267.074 93.370 C 266.942 93.489,265.083 92.825,262.945 91.893 L 259.056 90.200 258.879 88.850 C 258.781 88.108,258.288 80.939,257.782 72.919 C 257.276 64.900,256.766 58.450,256.648 58.586 C 256.531 58.722,254.073 64.458,251.186 71.333 C 248.300 78.208,245.821 83.956,245.679 84.106 C 245.339 84.466,236.630 80.932,236.794 80.500 C 238.631 75.647,256.206 35.003,256.465 35.010 C 256.667 35.016,259.083 35.968,261.833 37.126 M146.783 39.099 L 151.066 40.833 154.735 49.463 L 158.404 58.093 157.302 61.893 L 156.199 65.693 163.153 72.653 L 170.107 79.613 168.970 80.092 C 168.345 80.355,166.258 81.256,164.333 82.094 C 162.408 82.932,160.663 83.667,160.455 83.726 C 160.247 83.785,157.223 81.096,153.736 77.750 C 150.248 74.404,147.302 71.667,147.190 71.667 C 147.077 71.667,146.022 72.103,144.846 72.637 L 142.706 73.607 145.853 80.852 C 147.584 84.837,148.998 88.263,148.995 88.465 C 148.991 88.747,140.337 92.719,140.119 92.540 C 139.963 92.412,120.667 47.023,120.667 46.785 C 120.667 46.448,141.249 37.356,142.000 37.361 C 142.275 37.363,144.427 38.145,146.783 39.099 M198.399 38.433 L 197.333 39.532 197.333 51.367 L 197.333 63.203 198.433 64.268 C 200.043 65.829,205.653 65.913,207.104 64.398 L 208.000 63.464 208.000 51.333 L 208.000 39.203 207.104 38.268 C 206.239 37.365,206.096 37.333,202.836 37.333 L 199.464 37.333 198.399 38.433 M137.648 51.119 L 133.796 52.833 135.790 57.500 C 136.887 60.067,137.832 62.228,137.890 62.303 C 138.361 62.914,145.680 59.059,146.194 57.929 C 147.102 55.933,144.845 50.786,142.667 49.886 C 141.531 49.418,141.396 49.451,137.648 51.119 M322.964 74.735 L 333.000 84.637 329.189 88.569 L 325.378 92.500 322.106 89.295 L 318.833 86.090 305.333 99.795 C 297.908 107.333,291.683 113.541,291.500 113.591 C 291.317 113.641,289.545 112.054,287.564 110.066 L 283.961 106.450 297.712 92.527 L 311.463 78.604 308.242 75.430 L 305.021 72.256 308.594 68.463 C 310.559 66.378,312.338 64.708,312.547 64.752 C 312.756 64.797,317.444 69.289,322.964 74.735 M107.583 84.696 L 120.667 97.370 120.667 102.140 L 120.667 106.910 114.293 113.463 L 107.920 120.017 103.018 119.925 L 98.116 119.833 85.058 107.189 L 72.000 94.546 72.000 89.909 L 72.000 85.272 78.388 78.636 L 84.776 72.000 89.638 72.011 L 94.500 72.022 107.583 84.696 M86.194 86.404 C 82.638 90.299,82.324 89.648,92.523 99.554 C 102.983 109.716,102.692 109.587,106.431 105.714 C 110.148 101.864,110.416 102.427,100.083 92.366 L 91.500 84.009 89.944 84.004 C 88.436 84.000,88.319 84.075,86.194 86.404 M203.500 93.539 C 223.603 95.996,244.332 110.121,258.724 131.167 C 264.509 139.625,264.511 139.669,259.260 139.662 C 250.981 139.650,241.144 137.041,239.204 134.341 C 238.157 132.883,237.971 132.778,235.515 132.245 C 232.965 131.691,232.895 131.648,230.539 129.175 C 228.463 126.995,227.999 126.666,226.992 126.665 C 226.066 126.663,225.724 126.470,225.289 125.705 C 224.842 124.919,224.155 124.551,221.462 123.654 L 218.180 122.561 216.115 123.302 L 214.049 124.043 209.274 121.752 C 206.649 120.492,203.615 118.895,202.533 118.202 L 200.566 116.944 193.533 116.754 L 186.500 116.564 185.000 115.288 C 184.175 114.586,182.734 113.358,181.799 112.559 L 180.098 111.106 174.778 110.879 C 171.852 110.754,167.818 110.512,165.812 110.341 C 157.691 109.651,159.552 109.251,143.333 115.163 C 140.492 116.198,137.792 117.173,137.333 117.329 C 136.875 117.485,135.230 118.067,133.677 118.622 C 132.124 119.177,130.807 119.585,130.750 119.527 C 130.589 119.367,135.956 114.936,137.833 113.679 C 138.750 113.065,140.150 112.040,140.945 111.403 C 141.739 110.765,144.064 109.308,146.111 108.166 C 148.158 107.023,151.108 105.317,152.667 104.374 C 154.225 103.431,156.250 102.375,157.167 102.029 C 161.205 100.500,166.763 98.282,167.274 97.995 C 168.223 97.462,174.748 95.433,176.333 95.178 C 177.158 95.046,179.033 94.631,180.500 94.257 C 186.060 92.840,195.398 92.548,203.500 93.539 M226.542 95.022 C 233.136 96.529,240.656 99.255,248.411 102.946 C 253.929 105.573,264.747 111.950,267.006 113.907 C 267.827 114.619,270.423 116.760,272.774 118.664 C 276.537 121.712,279.161 124.476,280.285 126.577 C 281.202 128.290,276.083 134.444,272.054 136.473 C 269.096 137.963,268.845 137.897,267.166 135.200 C 264.913 131.581,261.271 126.253,259.850 124.500 C 254.231 117.563,246.242 109.334,242.701 106.833 C 241.922 106.283,240.508 105.185,239.559 104.392 C 236.026 101.440,230.796 98.477,224.939 96.108 C 222.796 95.241,221.118 94.412,221.208 94.266 C 221.450 93.876,221.661 93.906,226.542 95.022 M349.080 113.050 C 354.097 114.747,352.980 113.436,357.655 123.115 L 361.635 131.355 360.084 135.809 L 358.533 140.262 342.020 148.178 L 325.506 156.095 321.336 154.711 C 319.043 153.950,316.995 153.216,316.786 153.080 C 316.337 152.789,308.667 136.831,308.667 136.188 C 308.667 135.947,309.322 133.893,310.123 131.625 L 311.580 127.500 327.873 119.613 C 336.835 115.274,344.352 111.712,344.580 111.696 C 344.807 111.680,346.832 112.289,349.080 113.050 M55.059 118.537 C 57.318 119.549,59.291 120.499,59.443 120.648 C 59.595 120.797,58.904 122.721,57.908 124.924 L 56.097 128.929 73.799 136.844 C 83.534 141.197,91.561 144.811,91.635 144.876 C 91.742 144.968,87.802 154.236,87.505 154.591 C 87.463 154.641,80.020 151.362,70.964 147.304 C 61.909 143.245,53.876 139.653,53.114 139.321 L 51.728 138.717 50.002 142.608 C 49.052 144.749,48.176 146.593,48.054 146.707 C 47.933 146.822,45.733 145.968,43.167 144.810 C 40.600 143.653,38.382 142.658,38.238 142.599 C 38.094 142.540,40.472 136.944,43.521 130.163 C 46.570 123.382,49.200 117.486,49.366 117.061 C 49.729 116.129,49.627 116.103,55.059 118.537 M332.873 129.110 C 319.902 135.321,320.400 134.797,322.674 139.811 C 324.040 142.824,324.144 142.954,325.483 143.329 L 326.874 143.718 337.659 138.601 L 348.444 133.484 348.930 132.151 C 349.871 129.570,346.365 123.934,343.867 124.011 C 343.665 124.018,338.718 126.312,332.873 129.110 M289.739 136.938 C 296.592 146.164,301.336 155.395,304.688 166.026 C 306.338 171.260,306.366 171.216,302.167 169.828 C 297.071 168.144,293.028 167.545,286.600 167.521 C 280.063 167.496,280.719 167.925,279.164 162.667 C 277.397 156.692,275.288 151.000,273.172 146.497 C 270.939 141.743,270.852 142.422,273.892 140.833 C 277.008 139.205,281.028 135.527,283.000 132.500 C 284.736 129.836,284.204 129.486,289.739 136.938 M212.889 133.044 C 214.138 133.595,215.079 133.741,217.076 133.695 C 218.493 133.662,219.950 133.795,220.314 133.990 C 220.679 134.185,221.694 134.427,222.572 134.527 C 223.807 134.669,224.442 134.977,225.385 135.892 C 226.055 136.542,226.913 137.245,227.292 137.454 C 227.671 137.662,228.555 138.245,229.257 138.749 C 230.352 139.535,231.051 139.714,234.183 140.015 C 236.711 140.257,238.858 140.710,241.167 141.488 C 248.278 143.883,255.713 144.934,261.797 144.403 C 263.978 144.213,265.961 144.134,266.204 144.227 C 267.265 144.634,271.271 154.126,274.268 163.333 C 275.643 167.560,275.678 167.858,274.776 167.733 C 274.086 167.638,261.567 168.741,257.000 169.300 C 254.222 169.640,252.094 169.544,250.833 169.022 C 249.652 168.533,245.922 167.636,244.500 167.499 C 243.950 167.446,242.589 167.165,241.476 166.874 C 239.341 166.317,238.409 166.427,236.385 167.473 C 235.368 167.999,235.242 167.995,234.072 167.396 C 233.391 167.048,232.158 166.462,231.333 166.093 L 229.833 165.424 225.500 167.155 C 223.117 168.107,220.192 169.378,219.000 169.980 C 213.253 172.880,212.813 172.985,205.516 173.190 C 201.858 173.293,198.761 173.442,198.634 173.520 C 198.506 173.599,197.677 173.064,196.790 172.332 C 195.904 171.599,195.026 171.007,194.839 171.015 C 194.653 171.023,193.005 171.309,191.178 171.649 L 187.856 172.269 185.942 171.357 L 184.028 170.446 180.313 170.938 L 176.597 171.429 171.022 176.850 L 165.447 182.271 163.571 182.506 C 162.516 182.637,160.765 182.578,159.570 182.370 C 158.401 182.166,155.248 182.000,152.563 182.000 L 147.680 182.000 144.423 184.150 C 142.632 185.332,140.747 186.624,140.234 187.022 C 139.594 187.517,138.757 187.766,137.567 187.814 C 134.005 187.957,127.509 189.045,127.103 189.565 C 124.820 192.492,124.038 193.000,121.817 193.000 C 120.132 193.000,119.029 193.257,116.679 194.198 L 113.686 195.396 104.970 204.364 C 100.176 209.297,96.138 213.333,95.997 213.333 C 93.662 213.333,96.391 178.517,99.340 170.667 C 99.857 169.292,100.355 167.922,100.447 167.623 C 100.540 167.325,104.039 164.588,108.224 161.541 C 112.409 158.495,117.678 154.614,119.932 152.918 C 122.187 151.221,124.539 149.528,125.160 149.155 C 125.780 148.783,126.573 148.220,126.921 147.905 C 127.269 147.590,127.638 147.416,127.741 147.518 C 128.679 148.457,134.420 148.628,137.499 147.808 C 140.929 146.895,141.873 146.929,144.070 148.041 C 145.827 148.930,146.295 148.839,148.143 147.248 C 154.320 141.931,158.428 139.074,159.468 139.372 C 160.033 139.534,163.197 139.679,166.498 139.695 C 169.799 139.710,173.371 139.832,174.436 139.964 C 175.814 140.136,176.438 140.090,176.602 139.805 C 177.070 138.993,186.161 133.916,187.333 133.812 C 187.975 133.755,190.225 133.548,192.333 133.350 C 196.039 133.004,205.003 132.492,209.222 132.385 C 210.684 132.348,211.744 132.539,212.889 133.044 M295.000 172.820 C 298.729 173.273,303.823 174.546,305.615 175.473 C 307.409 176.401,307.752 177.144,308.538 181.814 C 310.492 193.418,310.750 201.398,309.496 211.487 C 309.223 213.680,309.000 215.663,309.000 215.894 C 309.000 216.593,308.170 216.045,307.504 214.906 C 304.394 209.587,295.550 204.003,287.081 202.011 C 284.997 201.521,285.111 201.860,284.829 195.333 C 284.560 189.109,283.882 183.282,282.787 177.770 C 282.306 175.352,282.003 173.140,282.113 172.853 C 282.376 172.168,289.486 172.150,295.000 172.820 M276.481 173.425 C 277.284 174.649,279.249 186.297,279.644 192.167 C 279.841 195.100,280.079 198.417,280.173 199.539 C 280.378 201.998,280.206 202.189,277.500 202.496 C 272.907 203.018,267.757 204.584,262.167 207.159 C 259.896 208.205,259.277 208.357,258.000 208.181 C 253.057 207.500,253.478 207.443,251.920 209.008 C 250.481 210.452,250.330 210.514,244.411 212.073 C 243.129 212.411,242.900 212.636,242.078 214.363 C 240.765 217.121,236.644 219.030,232.599 218.756 C 230.073 218.584,230.006 218.600,228.389 219.762 C 227.166 220.640,226.251 221.004,224.811 221.184 C 221.378 221.613,220.128 222.388,219.525 224.462 C 218.893 226.639,219.217 226.402,213.333 228.985 C 210.675 230.152,208.275 231.289,208.000 231.510 C 207.539 231.882,203.380 233.822,203.000 233.842 C 202.205 233.884,199.696 235.863,199.249 236.801 C 198.949 237.431,198.207 238.607,197.601 239.413 C 196.996 240.219,195.825 242.017,195.000 243.408 C 193.558 245.839,193.428 245.959,191.636 246.505 L 189.773 247.073 189.031 249.953 C 188.623 251.537,188.379 253.068,188.490 253.356 C 188.633 253.727,186.765 255.697,182.009 260.189 C 175.640 266.204,175.198 266.703,172.596 270.833 C 169.266 276.116,170.485 275.448,162.902 276.150 L 156.500 276.744 153.712 278.205 C 150.429 279.927,150.625 279.912,146.118 278.783 L 142.590 277.899 140.807 278.773 L 139.025 279.647 136.596 278.604 C 135.260 278.031,131.973 276.781,129.291 275.827 C 123.994 273.943,124.628 274.396,120.193 269.333 C 119.148 268.142,117.171 265.468,115.797 263.391 C 114.424 261.315,112.477 258.503,111.471 257.142 C 109.379 254.313,109.389 254.151,111.789 252.185 C 113.227 251.007,113.302 250.987,117.789 250.610 C 120.615 250.373,122.335 250.091,122.337 249.864 C 122.339 249.664,123.677 246.275,125.311 242.333 L 128.281 235.167 132.224 232.048 C 134.392 230.333,136.917 228.429,137.833 227.817 C 138.750 227.205,140.413 225.966,141.528 225.064 C 143.573 223.412,144.474 223.074,147.476 222.838 C 150.198 222.624,150.593 222.412,153.010 219.868 L 155.335 217.421 158.763 217.268 C 160.648 217.184,163.085 217.216,164.178 217.338 L 166.167 217.561 171.710 214.471 C 177.261 211.377,181.265 210.095,185.734 209.980 C 186.283 209.966,187.444 208.877,189.833 206.137 C 193.639 201.773,194.068 201.291,198.167 196.793 C 199.817 194.982,201.396 193.147,201.675 192.715 C 202.184 191.930,202.185 191.930,206.175 192.259 C 209.352 192.521,210.269 192.500,210.667 192.154 C 210.942 191.914,211.617 191.607,212.167 191.470 C 212.717 191.333,213.858 190.797,214.704 190.277 C 215.549 189.758,216.449 189.330,216.704 189.326 C 216.958 189.321,218.806 188.046,220.811 186.492 C 222.815 184.938,224.578 183.667,224.729 183.667 C 228.186 183.667,231.839 182.566,233.603 180.994 C 234.628 180.081,235.601 179.333,235.765 179.333 C 235.929 179.333,236.922 178.680,237.972 177.881 L 239.882 176.429 241.858 176.700 C 242.944 176.848,246.193 176.990,249.077 177.015 L 254.320 177.060 258.910 175.550 C 262.849 174.255,264.253 173.965,268.816 173.510 C 271.740 173.218,274.203 172.909,274.288 172.823 C 274.721 172.390,276.041 172.752,276.481 173.425 M279.600 207.067 C 280.523 207.989,279.387 221.389,277.713 229.333 C 271.890 256.965,258.432 279.725,239.031 294.746 C 225.977 304.854,209.547 308.868,189.738 306.789 C 186.620 306.462,187.722 305.370,194.998 301.578 L 198.495 299.754 198.489 298.005 L 198.482 296.256 201.018 294.782 C 203.313 293.449,203.767 293.001,205.789 290.071 C 214.777 277.052,216.352 274.212,216.768 270.275 C 216.852 269.482,217.377 267.258,217.935 265.333 C 218.493 263.408,219.073 261.259,219.225 260.558 C 219.473 259.406,219.662 259.224,221.167 258.692 C 224.972 257.346,226.399 256.392,226.170 255.348 C 225.899 254.117,229.449 240.539,230.384 239.227 C 230.752 238.710,231.304 237.293,231.610 236.077 L 232.167 233.866 238.244 230.016 L 244.321 226.167 246.411 222.442 L 248.500 218.716 251.215 217.858 C 252.709 217.386,254.209 216.991,254.549 216.980 C 254.889 216.969,255.692 216.309,256.333 215.514 C 259.356 211.770,277.658 205.125,279.600 207.067 M290.417 208.173 C 297.215 210.548,303.072 215.298,306.307 221.059 L 307.369 222.951 305.342 230.023 C 303.061 237.983,302.611 239.101,297.827 248.667 C 288.894 266.531,275.231 281.393,258.066 291.915 C 253.273 294.854,243.149 299.593,240.082 300.335 C 238.606 300.692,238.395 300.157,239.739 299.466 C 249.810 294.290,263.586 278.040,271.217 262.333 C 272.598 259.492,274.074 256.492,274.498 255.667 C 275.628 253.469,278.257 246.029,278.993 242.949 C 279.343 241.481,279.933 239.355,280.303 238.224 C 281.787 233.689,283.590 223.066,284.186 215.333 C 284.914 205.909,284.686 206.171,290.417 208.173 M328.746 245.222 C 330.444 246.261,332.039 247.297,332.291 247.525 C 332.673 247.870,332.344 248.712,330.306 252.607 L 327.863 257.275 326.224 256.445 C 324.286 255.462,324.521 255.272,322.230 259.667 C 319.914 264.109,320.027 264.868,323.264 266.598 C 326.884 268.532,327.333 268.224,330.907 261.358 L 333.833 255.736 338.507 254.343 L 343.180 252.950 350.656 256.892 L 358.132 260.833 359.551 265.329 L 360.969 269.825 356.739 277.943 C 354.412 282.408,352.281 286.181,352.004 286.328 C 351.727 286.474,349.663 287.142,347.418 287.811 L 343.336 289.028 339.495 286.983 L 335.655 284.938 338.045 280.386 C 339.360 277.882,340.492 275.767,340.561 275.685 C 340.629 275.604,341.524 275.948,342.549 276.451 C 343.574 276.954,344.453 277.320,344.502 277.266 C 345.756 275.866,348.254 269.573,347.967 268.536 C 347.310 266.153,342.676 264.469,341.150 266.058 C 340.917 266.301,339.516 268.831,338.037 271.680 L 335.348 276.860 330.631 278.262 L 325.913 279.664 318.412 275.707 L 310.910 271.750 309.435 267.122 L 307.960 262.494 312.230 254.273 L 316.500 246.052 320.833 244.729 C 323.217 244.001,325.277 243.389,325.413 243.370 C 325.548 243.350,327.048 244.183,328.746 245.222 M90.976 254.277 L 96.335 264.553 94.751 269.183 L 93.167 273.813 84.953 278.084 L 76.739 282.355 72.834 281.479 C 70.687 280.997,68.816 280.730,68.676 280.885 C 68.536 281.040,65.689 284.366,62.349 288.277 C 59.010 292.188,56.231 295.338,56.175 295.277 C 55.921 295.002,51.333 286.251,51.333 286.042 C 51.333 285.912,53.875 282.754,56.981 279.023 L 62.629 272.239 61.655 270.310 C 60.311 267.648,60.799 267.573,52.929 271.662 L 45.833 275.349 45.333 274.615 C 45.058 274.212,43.976 272.271,42.929 270.303 L 41.025 266.724 62.929 255.372 C 74.976 249.129,85.010 244.016,85.225 244.010 C 85.440 244.005,88.028 248.624,90.976 254.277 M75.652 259.736 C 73.185 261.034,71.113 262.140,71.046 262.195 C 70.980 262.251,71.816 263.992,72.902 266.065 C 75.484 270.988,76.088 271.220,80.387 268.944 C 84.860 266.577,84.906 265.719,80.935 258.772 L 80.138 257.377 75.652 259.736 M295.768 287.136 C 298.116 287.375,300.175 287.708,300.344 287.877 C 300.513 288.046,303.200 291.255,306.316 295.009 L 311.981 301.833 311.995 305.167 C 312.016 310.155,311.298 309.406,320.868 314.410 C 325.521 316.843,329.329 318.918,329.331 319.020 C 329.336 319.380,321.693 325.667,321.265 325.654 C 321.028 325.647,317.356 323.878,313.105 321.721 L 305.377 317.801 303.530 319.421 L 301.684 321.040 306.561 326.770 C 309.244 329.922,311.641 332.738,311.888 333.029 C 312.346 333.567,305.954 339.500,304.917 339.500 C 304.697 339.500,297.334 331.044,288.556 320.710 L 272.595 301.920 273.381 301.140 C 276.149 298.395,290.280 286.706,290.833 286.704 C 291.200 286.703,293.421 286.897,295.768 287.136 M121.774 293.590 L 124.038 295.680 112.436 319.298 L 100.833 342.915 99.849 342.089 C 99.307 341.634,97.513 340.001,95.862 338.461 L 92.861 335.660 94.669 331.995 C 96.459 328.367,96.471 328.323,95.822 327.716 C 95.462 327.378,93.103 325.189,90.580 322.851 L 85.993 318.599 82.557 320.633 C 78.338 323.130,79.200 323.303,74.707 319.061 L 70.915 315.481 93.522 301.920 L 116.129 288.359 117.820 289.929 C 118.749 290.793,120.529 292.440,121.774 293.590 M290.475 300.867 C 288.839 302.261,287.395 303.499,287.267 303.617 C 287.045 303.824,293.206 311.399,293.774 311.617 C 293.925 311.675,295.462 310.504,297.191 309.014 C 301.253 305.512,301.362 304.831,298.435 301.254 C 295.349 297.482,294.498 297.441,290.475 300.867 M101.333 309.236 C 98.125 311.148,95.381 312.829,95.235 312.971 C 94.959 313.240,100.074 318.432,100.770 318.590 C 101.099 318.664,107.512 306.028,107.249 305.823 C 107.204 305.788,104.542 307.323,101.333 309.236 M155.760 314.199 C 167.508 319.096,166.178 318.120,168.180 323.321 C 170.132 328.396,170.374 326.683,166.329 336.426 L 162.899 344.684 159.422 346.550 L 155.944 348.415 149.064 345.549 C 145.280 343.973,142.075 342.792,141.943 342.925 C 141.810 343.058,140.176 346.842,138.312 351.333 C 136.448 355.825,134.872 359.555,134.810 359.623 C 134.722 359.720,126.502 356.443,126.056 356.133 C 125.835 355.980,145.107 310.000,145.392 310.000 C 145.554 310.000,150.219 311.890,155.760 314.199 M258.764 314.127 L 262.585 315.922 263.785 319.045 C 264.445 320.762,267.360 328.470,270.263 336.173 L 275.541 350.180 273.664 354.477 L 271.786 358.775 263.143 362.062 L 254.500 365.349 250.237 363.461 C 247.892 362.422,245.844 361.332,245.687 361.036 C 245.187 360.099,233.000 327.647,232.993 327.231 C 232.988 327.012,233.823 324.958,234.848 322.667 L 236.711 318.500 245.105 315.277 C 254.570 311.643,253.644 311.721,258.764 314.127 M217.592 328.417 L 217.500 333.833 213.039 333.927 L 208.579 334.020 208.706 353.593 L 208.833 373.167 203.637 373.258 L 198.441 373.350 198.221 363.592 C 198.100 358.225,198.001 349.446,198.001 344.083 L 198.000 334.333 193.536 334.333 C 188.202 334.333,188.667 334.907,188.667 328.313 L 188.667 323.347 195.250 323.250 C 198.871 323.196,205.400 323.118,209.758 323.076 L 217.683 323.000 217.592 328.417 M147.878 328.465 C 146.845 330.921,146.000 333.075,146.000 333.252 C 146.000 333.430,147.500 334.194,149.333 334.951 C 154.035 336.893,154.685 336.636,156.512 332.117 L 157.800 328.928 157.150 327.738 C 156.553 326.645,151.725 324.086,150.128 324.016 C 149.924 324.007,148.912 326.009,147.878 328.465 M249.214 325.521 C 243.819 327.504,243.676 326.579,253.184 351.098 C 253.311 351.426,253.960 351.964,254.624 352.294 L 255.833 352.892 259.000 351.685 C 262.041 350.526,262.185 350.424,262.634 349.137 L 263.102 347.796 258.943 336.815 L 254.785 325.833 253.476 325.134 L 252.167 324.435 249.214 325.521 " stroke="none" fill="#040404" fill-rule="evenodd"></path><path id="path3" d="M267.140 50.833 C 267.140 54.500,267.188 56.045,267.248 54.268 C 267.308 52.490,267.308 49.490,267.249 47.601 C 267.189 45.712,267.140 47.167,267.140 50.833 M70.146 61.750 L 69.167 62.833 70.250 61.854 C 71.260 60.942,71.487 60.667,71.229 60.667 C 71.172 60.667,70.684 61.154,70.146 61.750 M197.333 63.438 C 197.333 63.495,197.821 63.983,198.417 64.521 L 199.500 65.500 198.521 64.417 C 197.608 63.407,197.333 63.180,197.333 63.438 M311.146 65.750 L 310.167 66.833 311.250 65.854 C 311.846 65.316,312.333 64.828,312.333 64.771 C 312.333 64.513,312.058 64.740,311.146 65.750 M314.667 66.833 C 315.848 68.025,316.889 69.000,316.981 69.000 C 317.072 69.000,316.181 68.025,315.000 66.833 C 313.819 65.642,312.778 64.667,312.686 64.667 C 312.594 64.667,313.486 65.642,314.667 66.833 M332.667 64.771 C 332.667 64.828,333.154 65.316,333.750 65.854 L 334.833 66.833 333.854 65.750 C 332.942 64.740,332.667 64.513,332.667 64.771 M158.833 68.667 C 160.476 70.317,161.894 71.667,161.986 71.667 C 162.078 71.667,160.809 70.317,159.167 68.667 C 157.524 67.017,156.106 65.667,156.014 65.667 C 155.922 65.667,157.191 67.017,158.833 68.667 M80.667 76.167 C 79.857 76.992,79.270 77.667,79.361 77.667 C 79.453 77.667,80.190 76.992,81.000 76.167 C 81.810 75.342,82.397 74.667,82.305 74.667 C 82.214 74.667,81.476 75.342,80.667 76.167 M152.667 76.771 C 152.667 76.828,153.154 77.316,153.750 77.854 L 154.833 78.833 153.854 77.750 C 152.942 76.740,152.667 76.513,152.667 76.771 M102.833 80.333 C 103.549 81.067,104.210 81.667,104.302 81.667 C 104.394 81.667,103.883 81.067,103.167 80.333 C 102.451 79.600,101.790 79.000,101.698 79.000 C 101.606 79.000,102.117 79.600,102.833 80.333 M331.167 83.000 C 332.070 83.917,332.883 84.667,332.975 84.667 C 333.067 84.667,332.403 83.917,331.500 83.000 C 330.597 82.083,329.783 81.333,329.692 81.333 C 329.600 81.333,330.264 82.083,331.167 83.000 M330.151 87.417 L 328.833 88.833 330.250 87.516 C 331.567 86.290,331.820 86.000,331.568 86.000 C 331.513 86.000,330.876 86.638,330.151 87.417 M96.319 88.750 C 97.137 89.621,97.849 90.333,97.903 90.333 C 98.153 90.333,97.888 90.034,96.417 88.653 L 94.833 87.167 96.319 88.750 M112.167 89.333 C 112.883 90.067,113.544 90.667,113.635 90.667 C 113.727 90.667,113.216 90.067,112.500 89.333 C 111.784 88.600,111.123 88.000,111.031 88.000 C 110.940 88.000,111.451 88.600,112.167 89.333 M312.993 91.917 L 310.167 94.833 313.083 92.007 C 314.688 90.453,316.000 89.141,316.000 89.091 C 316.000 88.848,315.617 89.208,312.993 91.917 M84.000 91.438 C 84.000 91.495,84.487 91.983,85.083 92.521 L 86.167 93.500 85.188 92.417 C 84.275 91.407,84.000 91.180,84.000 91.438 M195.254 92.902 C 195.669 92.982,196.269 92.979,196.587 92.896 C 196.906 92.812,196.567 92.747,195.833 92.751 C 195.100 92.754,194.839 92.823,195.254 92.902 M204.417 93.896 C 204.737 93.980,205.262 93.980,205.583 93.896 C 205.904 93.813,205.642 93.744,205.000 93.744 C 204.358 93.744,204.096 93.813,204.417 93.896 M292.993 97.250 L 289.833 100.500 293.083 97.340 C 296.102 94.405,296.485 94.000,296.243 94.000 C 296.194 94.000,294.731 95.462,292.993 97.250 M76.653 99.083 C 77.470 99.954,78.183 100.667,78.236 100.667 C 78.486 100.667,78.222 100.367,76.750 98.986 L 75.167 97.500 76.653 99.083 M107.167 99.333 C 107.883 100.067,108.544 100.667,108.635 100.667 C 108.727 100.667,108.216 100.067,107.500 99.333 C 106.784 98.600,106.123 98.000,106.031 98.000 C 105.940 98.000,106.451 98.600,107.167 99.333 M95.319 102.417 C 96.137 103.287,96.849 104.000,96.903 104.000 C 97.153 104.000,96.888 103.701,95.417 102.319 L 93.833 100.833 95.319 102.417 M87.500 109.667 C 88.216 110.400,88.877 111.000,88.969 111.000 C 89.060 111.000,88.549 110.400,87.833 109.667 C 87.117 108.933,86.456 108.333,86.365 108.333 C 86.273 108.333,86.784 108.933,87.500 109.667 M246.000 109.425 C 246.000 109.475,247.162 110.638,248.583 112.008 L 251.167 114.500 248.675 111.917 C 246.361 109.517,246.000 109.181,246.000 109.425 M115.490 112.083 L 113.500 114.167 115.583 112.177 C 117.519 110.329,117.819 110.000,117.573 110.000 C 117.521 110.000,116.584 110.938,115.490 112.083 M173.921 110.902 C 174.335 110.982,174.935 110.979,175.254 110.896 C 175.573 110.812,175.233 110.747,174.500 110.751 C 173.767 110.754,173.506 110.823,173.921 110.902 M187.256 116.575 C 187.855 116.649,188.755 116.648,189.256 116.572 C 189.757 116.495,189.267 116.435,188.167 116.437 C 187.067 116.438,186.657 116.501,187.256 116.575 M191.083 116.563 C 191.404 116.647,191.929 116.647,192.250 116.563 C 192.571 116.479,192.308 116.411,191.667 116.411 C 191.025 116.411,190.762 116.479,191.083 116.563 M197.587 116.902 C 198.002 116.982,198.602 116.979,198.921 116.896 C 199.239 116.812,198.900 116.747,198.167 116.751 C 197.433 116.754,197.173 116.823,197.587 116.902 M131.333 118.833 C 130.903 119.292,130.689 119.662,130.859 119.656 C 131.144 119.647,132.517 118.000,132.240 118.000 C 132.172 118.000,131.764 118.375,131.333 118.833 M276.667 122.167 C 277.289 122.808,277.872 123.333,277.964 123.333 C 278.056 123.333,277.622 122.808,277.000 122.167 C 276.378 121.525,275.794 121.000,275.703 121.000 C 275.611 121.000,276.045 121.525,276.667 122.167 M207.417 132.563 C 207.737 132.647,208.262 132.647,208.583 132.563 C 208.904 132.479,208.642 132.411,208.000 132.411 C 207.358 132.411,207.096 132.479,207.417 132.563 M275.982 133.583 L 274.833 134.833 276.083 133.685 C 277.247 132.615,277.487 132.333,277.232 132.333 C 277.176 132.333,276.614 132.896,275.982 133.583 M201.417 132.896 C 201.737 132.980,202.262 132.980,202.583 132.896 C 202.904 132.813,202.642 132.744,202.000 132.744 C 201.358 132.744,201.096 132.813,201.417 132.896 M216.083 133.896 C 216.404 133.980,216.929 133.980,217.250 133.896 C 217.571 133.813,217.308 133.744,216.667 133.744 C 216.025 133.744,215.762 133.813,216.083 133.896 M279.667 136.500 C 278.857 137.325,278.270 138.000,278.361 138.000 C 278.453 138.000,279.190 137.325,280.000 136.500 C 280.810 135.675,281.397 135.000,281.305 135.000 C 281.214 135.000,280.476 135.675,279.667 136.500 M230.284 139.751 C 230.452 139.919,230.945 140.001,231.378 139.932 C 232.045 139.827,231.999 139.781,231.073 139.627 C 230.410 139.517,230.099 139.566,230.284 139.751 M164.083 139.914 C 165.321 139.978,167.346 139.978,168.583 139.914 C 169.821 139.850,168.808 139.797,166.333 139.797 C 163.858 139.797,162.846 139.850,164.083 139.914 M260.750 144.563 C 261.071 144.647,261.596 144.647,261.917 144.563 C 262.237 144.479,261.975 144.411,261.333 144.411 C 260.692 144.411,260.429 144.479,260.750 144.563 M281.917 167.574 C 282.512 167.648,283.487 167.648,284.083 167.574 C 284.679 167.501,284.192 167.440,283.000 167.440 C 281.808 167.440,281.321 167.501,281.917 167.574 M169.657 177.917 L 167.500 180.167 169.750 178.010 C 171.840 176.006,172.152 175.667,171.907 175.667 C 171.856 175.667,170.843 176.679,169.657 177.917 M241.417 176.896 C 241.737 176.980,242.262 176.980,242.583 176.896 C 242.904 176.813,242.642 176.744,242.000 176.744 C 241.358 176.744,241.096 176.813,241.417 176.896 M250.923 177.242 C 251.522 177.316,252.422 177.314,252.923 177.238 C 253.424 177.162,252.933 177.101,251.833 177.103 C 250.733 177.105,250.324 177.167,250.923 177.242 M284.744 193.667 C 284.744 194.308,284.813 194.571,284.896 194.250 C 284.980 193.929,284.980 193.404,284.896 193.083 C 284.813 192.762,284.744 193.025,284.744 193.667 M95.437 195.500 C 95.438 196.600,95.501 197.010,95.575 196.411 C 95.649 195.812,95.648 194.912,95.572 194.411 C 95.495 193.910,95.435 194.400,95.437 195.500 M310.132 198.667 C 310.132 201.325,310.184 202.412,310.248 201.083 C 310.311 199.754,310.311 197.579,310.248 196.250 C 310.184 194.921,310.132 196.008,310.132 198.667 M279.767 196.000 C 279.767 197.008,279.829 197.421,279.905 196.917 C 279.982 196.412,279.982 195.588,279.905 195.083 C 279.829 194.579,279.767 194.992,279.767 196.000 M112.479 196.417 L 111.500 197.500 112.583 196.521 C 113.593 195.608,113.820 195.333,113.562 195.333 C 113.505 195.333,113.017 195.821,112.479 196.417 M102.491 206.750 L 100.167 209.167 102.583 206.842 C 104.828 204.683,105.152 204.333,104.908 204.333 C 104.857 204.333,103.769 205.421,102.491 206.750 M95.091 206.667 C 95.091 207.492,95.156 207.829,95.235 207.417 C 95.315 207.004,95.315 206.329,95.235 205.917 C 95.156 205.504,95.091 205.842,95.091 206.667 M304.167 211.000 C 304.883 211.733,305.544 212.333,305.635 212.333 C 305.727 212.333,305.216 211.733,304.500 211.000 C 303.784 210.267,303.123 209.667,303.031 209.667 C 302.940 209.667,303.451 210.267,304.167 211.000 M186.322 255.917 L 184.500 257.833 186.417 256.011 C 188.197 254.319,188.486 254.000,188.239 254.000 C 188.187 254.000,187.324 254.862,186.322 255.917 M254.667 279.167 C 253.857 279.992,253.270 280.667,253.361 280.667 C 253.453 280.667,254.190 279.992,255.000 279.167 C 255.810 278.342,256.397 277.667,256.305 277.667 C 256.214 277.667,255.476 278.342,254.667 279.167 M197.402 307.247 C 198.632 307.311,200.732 307.311,202.069 307.248 C 203.406 307.184,202.400 307.132,199.833 307.132 C 197.267 307.131,196.173 307.183,197.402 307.247 M203.417 323.246 C 204.471 323.312,206.196 323.312,207.250 323.246 C 208.304 323.180,207.442 323.126,205.333 323.126 C 203.225 323.126,202.362 323.180,203.417 323.246 M188.779 331.333 C 188.779 332.708,188.838 333.271,188.909 332.583 C 188.981 331.896,188.981 330.771,188.909 330.083 C 188.838 329.396,188.779 329.958,188.779 331.333 M65.833 333.667 C 67.476 335.317,68.894 336.667,68.986 336.667 C 69.078 336.667,67.809 335.317,66.167 333.667 C 64.524 332.017,63.106 330.667,63.014 330.667 C 62.922 330.667,64.191 332.017,65.833 333.667 M194.576 334.241 C 195.168 334.314,196.218 334.315,196.909 334.243 C 197.601 334.171,197.117 334.111,195.833 334.109 C 194.550 334.108,193.984 334.167,194.576 334.241 M208.445 336.333 C 208.445 337.708,208.504 338.271,208.576 337.583 C 208.648 336.896,208.648 335.771,208.576 335.083 C 208.504 334.396,208.445 334.958,208.445 336.333 M198.120 357.333 C 198.120 359.075,198.176 359.787,198.245 358.917 C 198.314 358.046,198.314 356.621,198.245 355.750 C 198.176 354.879,198.120 355.592,198.120 357.333 M208.787 368.333 C 208.787 370.075,208.843 370.787,208.912 369.917 C 208.980 369.046,208.980 367.621,208.912 366.750 C 208.843 365.879,208.787 366.592,208.787 368.333 M193.254 389.236 C 193.669 389.315,194.269 389.312,194.587 389.229 C 194.906 389.146,194.567 389.080,193.833 389.084 C 193.100 389.088,192.839 389.156,193.254 389.236 M206.083 389.230 C 206.404 389.314,206.929 389.314,207.250 389.230 C 207.571 389.146,207.308 389.077,206.667 389.077 C 206.025 389.077,205.762 389.146,206.083 389.230 " stroke="none" fill="#5d2c2e" fill-rule="evenodd"></path><path id="path4" d="M189.250 10.569 C 189.662 10.648,190.338 10.648,190.750 10.569 C 191.162 10.489,190.825 10.424,190.000 10.424 C 189.175 10.424,188.838 10.489,189.250 10.569 M208.921 10.569 C 209.335 10.649,209.935 10.646,210.254 10.562 C 210.573 10.479,210.233 10.414,209.500 10.417 C 208.767 10.421,208.506 10.489,208.921 10.569 M190.077 29.756 L 186.667 33.178 186.667 51.500 L 186.667 69.822 190.077 73.244 L 193.488 76.667 202.827 76.589 L 212.167 76.511 202.834 76.417 L 193.501 76.322 190.251 73.084 L 187.000 69.846 187.000 51.500 L 187.000 33.154 190.256 29.910 L 193.512 26.667 202.679 26.667 L 211.846 26.667 215.090 29.923 L 218.333 33.179 218.333 51.495 L 218.333 69.810 216.750 71.489 L 215.167 73.167 216.917 71.513 L 218.667 69.858 218.667 51.507 L 218.667 33.155 215.244 29.744 L 211.822 26.333 202.655 26.333 L 193.488 26.333 190.077 29.756 M198.146 38.417 L 197.167 39.500 198.250 38.521 C 198.846 37.983,199.333 37.495,199.333 37.438 C 199.333 37.180,199.058 37.407,198.146 38.417 M208.151 51.333 C 208.151 58.025,208.195 60.763,208.250 57.417 C 208.304 54.071,208.304 48.596,208.250 45.250 C 208.195 41.904,208.151 44.642,208.151 51.333 M267.000 62.500 C 267.000 65.403,267.090 67.688,267.200 67.578 C 267.428 67.350,267.381 57.603,267.151 57.373 C 267.068 57.290,267.000 59.597,267.000 62.500 M257.077 61.333 C 257.077 61.975,257.146 62.237,257.230 61.917 C 257.314 61.596,257.314 61.071,257.230 60.750 C 257.146 60.429,257.077 60.692,257.077 61.333 M330.833 63.000 C 331.736 63.917,332.550 64.667,332.642 64.667 C 332.733 64.667,332.070 63.917,331.167 63.000 C 330.264 62.083,329.450 61.333,329.358 61.333 C 329.267 61.333,329.930 62.083,330.833 63.000 M257.411 66.333 C 257.411 66.975,257.479 67.237,257.563 66.917 C 257.647 66.596,257.647 66.071,257.563 65.750 C 257.479 65.429,257.411 65.692,257.411 66.333 M336.333 68.500 C 337.329 69.508,338.219 70.333,338.311 70.333 C 338.402 70.333,337.662 69.508,336.667 68.500 C 335.671 67.492,334.781 66.667,334.689 66.667 C 334.598 66.667,335.338 67.492,336.333 68.500 M320.667 72.833 C 322.769 74.942,324.564 76.667,324.656 76.667 C 324.747 76.667,323.102 74.942,321.000 72.833 C 318.898 70.725,317.103 69.000,317.011 69.000 C 316.919 69.000,318.564 70.725,320.667 72.833 M165.667 75.500 C 167.769 77.608,169.564 79.333,169.656 79.333 C 169.747 79.333,168.102 77.608,166.000 75.500 C 163.898 73.392,162.103 71.667,162.011 71.667 C 161.919 71.667,163.564 73.392,165.667 75.500 M83.484 73.417 L 82.167 74.833 83.583 73.516 C 84.901 72.290,85.153 72.000,84.901 72.000 C 84.847 72.000,84.209 72.637,83.484 73.417 M96.500 74.333 C 97.589 75.433,98.554 76.333,98.646 76.333 C 98.737 76.333,97.922 75.433,96.833 74.333 C 95.745 73.233,94.779 72.333,94.688 72.333 C 94.596 72.333,95.411 73.233,96.500 74.333 M150.986 75.083 C 152.367 76.555,152.667 76.820,152.667 76.569 C 152.667 76.516,151.954 75.803,151.083 74.986 L 149.500 73.500 150.986 75.083 M258.077 76.667 C 258.077 77.308,258.146 77.571,258.230 77.250 C 258.314 76.929,258.314 76.404,258.230 76.083 C 258.146 75.762,258.077 76.025,258.077 76.667 M258.411 81.667 C 258.411 82.308,258.479 82.571,258.563 82.250 C 258.647 81.929,258.647 81.404,258.563 81.083 C 258.479 80.762,258.411 81.025,258.411 81.667 M74.064 83.102 L 71.980 85.204 72.084 89.852 L 72.187 94.500 72.260 89.842 L 72.333 85.185 74.407 83.092 C 75.548 81.942,76.406 81.000,76.314 81.000 C 76.222 81.000,75.210 81.946,74.064 83.102 M158.667 82.500 C 159.289 83.142,159.872 83.667,159.964 83.667 C 160.056 83.667,159.622 83.142,159.000 82.500 C 158.378 81.858,157.794 81.333,157.703 81.333 C 157.611 81.333,158.045 81.858,158.667 82.500 M106.167 83.667 C 107.255 84.767,108.221 85.667,108.312 85.667 C 108.404 85.667,107.589 84.767,106.500 83.667 C 105.411 82.567,104.446 81.667,104.354 81.667 C 104.263 81.667,105.078 82.567,106.167 83.667 M90.000 83.910 C 91.268 84.018,91.784 84.306,93.333 85.769 L 95.167 87.500 93.345 85.583 C 91.615 83.764,91.446 83.670,90.011 83.725 L 88.500 83.783 90.000 83.910 M300.829 89.417 L 296.167 94.167 300.917 89.504 C 305.329 85.173,305.818 84.667,305.579 84.667 C 305.531 84.667,303.393 86.804,300.829 89.417 M258.744 86.667 C 258.744 87.308,258.813 87.571,258.896 87.250 C 258.980 86.929,258.980 86.404,258.896 86.083 C 258.813 85.763,258.744 86.025,258.744 86.667 M322.083 89.166 L 325.332 92.494 327.249 90.501 L 329.167 88.508 327.248 90.328 L 325.328 92.149 322.081 88.993 L 318.833 85.838 322.083 89.166 M115.500 92.667 C 116.589 93.767,117.554 94.667,117.646 94.667 C 117.737 94.667,116.922 93.767,115.833 92.667 C 114.745 91.567,113.779 90.667,113.688 90.667 C 113.596 90.667,114.411 91.567,115.500 92.667 M88.167 95.667 C 89.440 96.950,90.557 98.000,90.649 98.000 C 90.740 98.000,89.773 96.950,88.500 95.667 C 87.227 94.383,86.110 93.333,86.018 93.333 C 85.926 93.333,86.893 94.383,88.167 95.667 M103.667 95.833 C 104.848 97.025,105.889 98.000,105.981 98.000 C 106.072 98.000,105.181 97.025,104.000 95.833 C 102.819 94.642,101.778 93.667,101.686 93.667 C 101.594 93.667,102.486 94.642,103.667 95.833 M73.653 96.083 C 74.470 96.954,75.183 97.667,75.236 97.667 C 75.486 97.667,75.222 97.367,73.750 95.986 L 72.167 94.500 73.653 96.083 M305.167 99.667 C 302.421 102.417,300.250 104.667,300.342 104.667 C 300.433 104.667,302.755 102.417,305.500 99.667 C 308.245 96.917,310.417 94.667,310.325 94.667 C 310.233 94.667,307.912 96.917,305.167 99.667 M84.000 106.167 C 85.181 107.358,86.222 108.333,86.314 108.333 C 86.406 108.333,85.514 107.358,84.333 106.167 C 83.152 104.975,82.111 104.000,82.019 104.000 C 81.928 104.000,82.819 104.975,84.000 106.167 M98.990 106.083 C 101.360 108.555,103.591 109.207,104.693 107.750 C 105.069 107.254,105.065 107.229,104.667 107.583 C 103.387 108.725,101.300 108.111,99.009 105.917 L 96.833 103.833 98.990 106.083 M287.500 110.000 C 289.510 112.017,291.230 113.667,291.322 113.667 C 291.414 113.667,289.844 112.017,287.833 110.000 C 285.823 107.983,284.103 106.333,284.011 106.333 C 283.920 106.333,285.490 107.983,287.500 110.000 M110.493 117.083 L 107.500 120.167 110.583 117.174 C 113.447 114.394,113.818 114.000,113.576 114.000 C 113.527 114.000,112.139 115.388,110.493 117.083 M95.000 116.833 C 96.181 118.025,97.222 119.000,97.314 119.000 C 97.406 119.000,96.514 118.025,95.333 116.833 C 94.152 115.642,93.111 114.667,93.019 114.667 C 92.928 114.667,93.819 115.642,95.000 116.833 M10.744 188.667 C 10.744 189.308,10.813 189.571,10.896 189.250 C 10.980 188.929,10.980 188.404,10.896 188.083 C 10.813 187.762,10.744 188.025,10.744 188.667 M389.091 191.000 C 389.091 191.825,389.156 192.162,389.235 191.750 C 389.315 191.338,389.315 190.662,389.235 190.250 C 389.156 189.838,389.091 190.175,389.091 191.000 M10.468 199.833 C 10.469 202.767,10.520 203.922,10.582 202.401 C 10.643 200.880,10.643 198.480,10.581 197.068 C 10.518 195.655,10.468 196.900,10.468 199.833 M389.091 208.667 C 389.091 209.492,389.156 209.829,389.235 209.417 C 389.315 209.004,389.315 208.329,389.235 207.917 C 389.156 207.504,389.091 207.842,389.091 208.667 M10.744 211.000 C 10.744 211.642,10.813 211.904,10.896 211.583 C 10.980 211.262,10.980 210.737,10.896 210.417 C 10.813 210.096,10.744 210.358,10.744 211.000 M97.000 315.438 C 97.000 315.495,97.487 315.983,98.083 316.521 L 99.167 317.500 98.188 316.417 C 97.275 315.407,97.000 315.180,97.000 315.438 M213.166 323.244 L 217.333 323.353 217.333 328.499 L 217.333 333.645 213.666 333.756 L 209.999 333.868 213.749 333.850 L 217.500 333.833 217.500 328.500 L 217.500 323.167 213.249 323.151 L 208.999 323.136 213.166 323.244 M188.785 326.167 C 188.784 327.817,188.840 328.534,188.910 327.760 C 188.980 326.986,188.981 325.636,188.912 324.760 C 188.843 323.884,188.786 324.517,188.785 326.167 M91.667 323.771 C 91.667 323.828,92.154 324.316,92.750 324.854 L 93.833 325.833 92.854 324.750 C 91.942 323.740,91.667 323.513,91.667 323.771 M61.000 328.771 C 61.000 328.828,61.487 329.316,62.083 329.854 L 63.167 330.833 62.188 329.750 C 61.275 328.740,61.000 328.513,61.000 328.771 M336.667 330.833 C 335.857 331.658,335.270 332.333,335.361 332.333 C 335.453 332.333,336.190 331.658,337.000 330.833 C 337.810 330.008,338.397 329.333,338.305 329.333 C 338.214 329.333,337.476 330.008,336.667 330.833 M190.083 334.243 C 190.771 334.315,191.896 334.315,192.583 334.243 C 193.271 334.171,192.708 334.112,191.333 334.112 C 189.958 334.112,189.396 334.171,190.083 334.243 M330.333 337.167 C 329.524 337.992,328.936 338.667,329.028 338.667 C 329.120 338.667,329.857 337.992,330.667 337.167 C 331.476 336.342,332.064 335.667,331.972 335.667 C 331.880 335.667,331.143 336.342,330.333 337.167 M70.000 337.833 C 70.622 338.475,71.206 339.000,71.297 339.000 C 71.389 339.000,70.955 338.475,70.333 337.833 C 69.711 337.192,69.128 336.667,69.036 336.667 C 68.944 336.667,69.378 337.192,70.000 337.833 M96.333 338.771 C 96.333 338.828,96.821 339.316,97.417 339.854 L 98.500 340.833 97.521 339.750 C 96.608 338.740,96.333 338.513,96.333 338.771 M208.472 344.833 C 208.473 348.317,208.522 349.696,208.582 347.899 C 208.642 346.102,208.642 343.252,208.581 341.566 C 208.521 339.880,208.472 341.350,208.472 344.833 M198.139 348.167 C 198.139 351.650,198.189 353.030,198.249 351.233 C 198.309 349.436,198.308 346.586,198.248 344.899 C 198.188 343.213,198.139 344.683,198.139 348.167 M200.402 373.247 C 201.632 373.311,203.732 373.311,205.069 373.248 C 206.406 373.184,205.400 373.132,202.833 373.132 C 200.267 373.131,199.173 373.183,200.402 373.247 M213.750 388.896 C 214.071 388.980,214.596 388.980,214.917 388.896 C 215.237 388.813,214.975 388.744,214.333 388.744 C 213.692 388.744,213.429 388.813,213.750 388.896 M190.921 389.236 C 191.335 389.315,191.935 389.312,192.254 389.229 C 192.573 389.146,192.233 389.080,191.500 389.084 C 190.767 389.088,190.506 389.156,190.921 389.236 M208.254 389.236 C 208.669 389.315,209.269 389.312,209.587 389.229 C 209.906 389.146,209.567 389.080,208.833 389.084 C 208.100 389.088,207.839 389.156,208.254 389.236 " stroke="none" fill="#7c7c7c" fill-rule="evenodd"></path></g></svg>